M48
; DRILL file {KiCad 5.1.9} date Sat Mar 27 23:39:50 2021
; FORMAT={-:-/ absolute / inch / decimal}
; #@! TF.CreationDate,2021-03-27T23:39:50+08:00
; #@! TF.GenerationSoftware,Kicad,Pcbnew,5.1.9
FMAT,2
INCH
T1C0.0157
T2C0.0300
T3C0.0350
T4C0.0394
T5C0.0791
T6C0.0866
%
G90
G05
T1
X3.085Y-2.15
X3.085Y-4.35
X3.1041Y-2.1041
X3.1041Y-2.1959
X3.1041Y-4.3041
X3.1041Y-4.3959
X3.15Y-2.085
X3.15Y-2.215
X3.15Y-2.43
X3.15Y-2.63
X3.15Y-2.83
X3.15Y-3.03
X3.15Y-3.23
X3.15Y-3.43
X3.15Y-4.285
X3.15Y-4.415
X3.1959Y-2.1041
X3.1959Y-2.1959
X3.1959Y-4.3041
X3.1959Y-4.3959
X3.215Y-2.15
X3.215Y-4.35
X3.35Y-2.23
X3.35Y-2.43
X3.35Y-2.63
X3.35Y-2.83
X3.35Y-3.03
X3.35Y-3.23
X3.35Y-3.43
X3.48Y-3.72
X3.48Y-4.02
X3.55Y-2.23
X3.55Y-2.63
X3.68Y-3.72
X3.68Y-4.02
X3.75Y-2.23
X3.75Y-2.63
X3.76Y-2.97
X3.76Y-3.37
X3.95Y-2.23
X3.95Y-2.63
X3.9547Y-4.3547
X3.96Y-2.97
X3.96Y-3.17
X3.96Y-3.37
X3.96Y-3.57
X4.16Y-3.78
X4.16Y-3.94
X4.1787Y-4.2387
X4.32Y-4.24
X4.45Y-3.49
X4.45Y-3.88
X4.46Y-2.33
X4.46Y-2.53
X4.46Y-2.73
X4.46Y-2.93
X4.52Y-4.24
X4.59Y-3.06
X4.65Y-3.49
X4.65Y-3.88
X4.79Y-3.06
X4.866Y-3.554
X4.88Y-3.7
X4.99Y-3.06
X5.01Y-2.26
X5.07Y-4.08
X5.07Y-4.24
X5.12Y-3.19
X5.19Y-2.26
X5.27Y-4.08
X5.27Y-4.24
X5.43Y-2.56
X5.43Y-2.76
X5.43Y-2.96
X5.43Y-3.16
X5.58Y-2.56
X5.58Y-2.76
X5.58Y-2.96
X5.58Y-3.16
X5.785Y-2.15
X5.785Y-4.35
X5.8041Y-2.1041
X5.8041Y-2.1959
X5.8041Y-4.3041
X5.8041Y-4.3959
X5.85Y-2.085
X5.85Y-2.215
X5.85Y-4.285
X5.85Y-4.415
X5.8959Y-2.1041
X5.8959Y-2.1959
X5.8959Y-4.3041
X5.8959Y-4.3959
X5.915Y-2.15
X5.915Y-4.35
T2
X4.7013Y-4.08
X4.7013Y-4.2572
X4.78Y-4.08
X4.78Y-4.2572
X4.8587Y-4.08
X4.8587Y-4.2572
T3
X5.4Y-3.82
X5.4Y-3.92
T4
X3.36Y-4.22
X3.46Y-4.22
X3.56Y-4.22
X3.66Y-4.22
X5.7Y-2.4137
X5.7Y-2.5137
X5.7Y-2.6137
T5
X5.6Y-3.72
X5.6Y-4.12
T6
X3.15Y-2.15
X3.15Y-4.35
X5.85Y-2.15
X5.85Y-4.35
T0
M30
