%TF.GenerationSoftware,KiCad,Pcbnew,5.1.9*%
%TF.CreationDate,2021-03-27T23:39:32+08:00*%
%TF.ProjectId,ad-9833,61642d39-3833-4332-9e6b-696361645f70,rev?*%
%TF.SameCoordinates,Original*%
%TF.FileFunction,Legend,Top*%
%TF.FilePolarity,Positive*%
%FSLAX46Y46*%
G04 Gerber Fmt 4.6, Leading zero omitted, Abs format (unit mm)*
G04 Created by KiCad (PCBNEW 5.1.9) date 2021-03-27 23:39:32*
%MOMM*%
%LPD*%
G01*
G04 APERTURE LIST*
%ADD10C,0.076200*%
%ADD11C,0.010000*%
%ADD12C,0.120000*%
%ADD13C,0.150000*%
G04 APERTURE END LIST*
D10*
X92319928Y-105310214D02*
X92374357Y-105328357D01*
X92465071Y-105328357D01*
X92501357Y-105310214D01*
X92519500Y-105292071D01*
X92537642Y-105255785D01*
X92537642Y-105219500D01*
X92519500Y-105183214D01*
X92501357Y-105165071D01*
X92465071Y-105146928D01*
X92392500Y-105128785D01*
X92356214Y-105110642D01*
X92338071Y-105092500D01*
X92319928Y-105056214D01*
X92319928Y-105019928D01*
X92338071Y-104983642D01*
X92356214Y-104965500D01*
X92392500Y-104947357D01*
X92483214Y-104947357D01*
X92537642Y-104965500D01*
X92918642Y-105292071D02*
X92900500Y-105310214D01*
X92846071Y-105328357D01*
X92809785Y-105328357D01*
X92755357Y-105310214D01*
X92719071Y-105273928D01*
X92700928Y-105237642D01*
X92682785Y-105165071D01*
X92682785Y-105110642D01*
X92700928Y-105038071D01*
X92719071Y-105001785D01*
X92755357Y-104965500D01*
X92809785Y-104947357D01*
X92846071Y-104947357D01*
X92900500Y-104965500D01*
X92918642Y-104983642D01*
X93263357Y-105328357D02*
X93081928Y-105328357D01*
X93081928Y-104947357D01*
X93390357Y-105328357D02*
X93390357Y-104947357D01*
X93608071Y-105328357D02*
X93444785Y-105110642D01*
X93608071Y-104947357D02*
X93390357Y-105165071D01*
X89652928Y-105310214D02*
X89707357Y-105328357D01*
X89798071Y-105328357D01*
X89834357Y-105310214D01*
X89852500Y-105292071D01*
X89870642Y-105255785D01*
X89870642Y-105219500D01*
X89852500Y-105183214D01*
X89834357Y-105165071D01*
X89798071Y-105146928D01*
X89725500Y-105128785D01*
X89689214Y-105110642D01*
X89671071Y-105092500D01*
X89652928Y-105056214D01*
X89652928Y-105019928D01*
X89671071Y-104983642D01*
X89689214Y-104965500D01*
X89725500Y-104947357D01*
X89816214Y-104947357D01*
X89870642Y-104965500D01*
X90033928Y-105328357D02*
X90033928Y-104947357D01*
X90124642Y-104947357D01*
X90179071Y-104965500D01*
X90215357Y-105001785D01*
X90233500Y-105038071D01*
X90251642Y-105110642D01*
X90251642Y-105165071D01*
X90233500Y-105237642D01*
X90215357Y-105273928D01*
X90179071Y-105310214D01*
X90124642Y-105328357D01*
X90033928Y-105328357D01*
X90396785Y-105219500D02*
X90578214Y-105219500D01*
X90360500Y-105328357D02*
X90487500Y-104947357D01*
X90614500Y-105328357D01*
X90687071Y-104947357D02*
X90904785Y-104947357D01*
X90795928Y-105328357D02*
X90795928Y-104947357D01*
X91013642Y-105219500D02*
X91195071Y-105219500D01*
X90977357Y-105328357D02*
X91104357Y-104947357D01*
X91231357Y-105328357D01*
X87203642Y-105128785D02*
X87076642Y-105128785D01*
X87076642Y-105328357D02*
X87076642Y-104947357D01*
X87258071Y-104947357D01*
X87385071Y-105310214D02*
X87439500Y-105328357D01*
X87530214Y-105328357D01*
X87566500Y-105310214D01*
X87584642Y-105292071D01*
X87602785Y-105255785D01*
X87602785Y-105219500D01*
X87584642Y-105183214D01*
X87566500Y-105165071D01*
X87530214Y-105146928D01*
X87457642Y-105128785D01*
X87421357Y-105110642D01*
X87403214Y-105092500D01*
X87385071Y-105056214D01*
X87385071Y-105019928D01*
X87403214Y-104983642D01*
X87421357Y-104965500D01*
X87457642Y-104947357D01*
X87548357Y-104947357D01*
X87602785Y-104965500D01*
X87838642Y-105146928D02*
X87838642Y-105328357D01*
X87711642Y-104947357D02*
X87838642Y-105146928D01*
X87965642Y-104947357D01*
X88092642Y-105328357D02*
X88092642Y-104947357D01*
X88310357Y-105328357D01*
X88310357Y-104947357D01*
X88709500Y-105292071D02*
X88691357Y-105310214D01*
X88636928Y-105328357D01*
X88600642Y-105328357D01*
X88546214Y-105310214D01*
X88509928Y-105273928D01*
X88491785Y-105237642D01*
X88473642Y-105165071D01*
X88473642Y-105110642D01*
X88491785Y-105038071D01*
X88509928Y-105001785D01*
X88546214Y-104965500D01*
X88600642Y-104947357D01*
X88636928Y-104947357D01*
X88691357Y-104965500D01*
X88709500Y-104983642D01*
X85053714Y-104965500D02*
X85017428Y-104947357D01*
X84963000Y-104947357D01*
X84908571Y-104965500D01*
X84872285Y-105001785D01*
X84854142Y-105038071D01*
X84836000Y-105110642D01*
X84836000Y-105165071D01*
X84854142Y-105237642D01*
X84872285Y-105273928D01*
X84908571Y-105310214D01*
X84963000Y-105328357D01*
X84999285Y-105328357D01*
X85053714Y-105310214D01*
X85071857Y-105292071D01*
X85071857Y-105165071D01*
X84999285Y-105165071D01*
X85235142Y-105328357D02*
X85235142Y-104947357D01*
X85452857Y-105328357D01*
X85452857Y-104947357D01*
X85634285Y-105328357D02*
X85634285Y-104947357D01*
X85725000Y-104947357D01*
X85779428Y-104965500D01*
X85815714Y-105001785D01*
X85833857Y-105038071D01*
X85852000Y-105110642D01*
X85852000Y-105165071D01*
X85833857Y-105237642D01*
X85815714Y-105273928D01*
X85779428Y-105310214D01*
X85725000Y-105328357D01*
X85634285Y-105328357D01*
X147102285Y-67443047D02*
X147102285Y-67056000D01*
X147295809Y-66548000D02*
X147295809Y-66838285D01*
X147295809Y-66693142D02*
X146787809Y-66693142D01*
X146860380Y-66741523D01*
X146908761Y-66789904D01*
X146932952Y-66838285D01*
X146787809Y-66088380D02*
X146787809Y-66330285D01*
X147029714Y-66354476D01*
X147005523Y-66330285D01*
X146981333Y-66281904D01*
X146981333Y-66160952D01*
X147005523Y-66112571D01*
X147029714Y-66088380D01*
X147078095Y-66064190D01*
X147199047Y-66064190D01*
X147247428Y-66088380D01*
X147271619Y-66112571D01*
X147295809Y-66160952D01*
X147295809Y-66281904D01*
X147271619Y-66330285D01*
X147247428Y-66354476D01*
X146787809Y-65919047D02*
X147295809Y-65749714D01*
X146787809Y-65580380D01*
X146812000Y-64395047D02*
X146787809Y-64443428D01*
X146787809Y-64516000D01*
X146812000Y-64588571D01*
X146860380Y-64636952D01*
X146908761Y-64661142D01*
X147005523Y-64685333D01*
X147078095Y-64685333D01*
X147174857Y-64661142D01*
X147223238Y-64636952D01*
X147271619Y-64588571D01*
X147295809Y-64516000D01*
X147295809Y-64467619D01*
X147271619Y-64395047D01*
X147247428Y-64370857D01*
X147078095Y-64370857D01*
X147078095Y-64467619D01*
X147295809Y-64153142D02*
X146787809Y-64153142D01*
X147295809Y-63862857D01*
X146787809Y-63862857D01*
X147295809Y-63620952D02*
X146787809Y-63620952D01*
X146787809Y-63500000D01*
X146812000Y-63427428D01*
X146860380Y-63379047D01*
X146908761Y-63354857D01*
X147005523Y-63330666D01*
X147078095Y-63330666D01*
X147174857Y-63354857D01*
X147223238Y-63379047D01*
X147271619Y-63427428D01*
X147295809Y-63500000D01*
X147295809Y-63620952D01*
X147102285Y-62363047D02*
X147102285Y-61976000D01*
X147295809Y-62169523D02*
X146908761Y-62169523D01*
X147295809Y-61468000D02*
X147295809Y-61758285D01*
X147295809Y-61613142D02*
X146787809Y-61613142D01*
X146860380Y-61661523D01*
X146908761Y-61709904D01*
X146932952Y-61758285D01*
X146787809Y-61008380D02*
X146787809Y-61250285D01*
X147029714Y-61274476D01*
X147005523Y-61250285D01*
X146981333Y-61201904D01*
X146981333Y-61080952D01*
X147005523Y-61032571D01*
X147029714Y-61008380D01*
X147078095Y-60984190D01*
X147199047Y-60984190D01*
X147247428Y-61008380D01*
X147271619Y-61032571D01*
X147295809Y-61080952D01*
X147295809Y-61201904D01*
X147271619Y-61250285D01*
X147247428Y-61274476D01*
X146787809Y-60839047D02*
X147295809Y-60669714D01*
X146787809Y-60500380D01*
D11*
%TO.C,G\u002A\u002A\u002A*%
G36*
X82893401Y-65024019D02*
G01*
X82969750Y-65024097D01*
X83034108Y-65024263D01*
X83087534Y-65024547D01*
X83131089Y-65024980D01*
X83165830Y-65025589D01*
X83192819Y-65026407D01*
X83213116Y-65027462D01*
X83227779Y-65028784D01*
X83237869Y-65030403D01*
X83244445Y-65032348D01*
X83248568Y-65034651D01*
X83250629Y-65036565D01*
X83254455Y-65045616D01*
X83260196Y-65066570D01*
X83267908Y-65099712D01*
X83277651Y-65145325D01*
X83289484Y-65203694D01*
X83303466Y-65275100D01*
X83319654Y-65359829D01*
X83338108Y-65458163D01*
X83340073Y-65468718D01*
X83354206Y-65544307D01*
X83367774Y-65616166D01*
X83380527Y-65683025D01*
X83392218Y-65743613D01*
X83402598Y-65796660D01*
X83411417Y-65840895D01*
X83418428Y-65875047D01*
X83423382Y-65897846D01*
X83426013Y-65907978D01*
X83435398Y-65924283D01*
X83445259Y-65933676D01*
X83460914Y-65941112D01*
X83487143Y-65952582D01*
X83522313Y-65967438D01*
X83564789Y-65985029D01*
X83612940Y-66004708D01*
X83665131Y-66025825D01*
X83719729Y-66047731D01*
X83775101Y-66069776D01*
X83829614Y-66091312D01*
X83881634Y-66111690D01*
X83929528Y-66130260D01*
X83971663Y-66146373D01*
X84006405Y-66159381D01*
X84032122Y-66168634D01*
X84047180Y-66173483D01*
X84050101Y-66174056D01*
X84057210Y-66172386D01*
X84068975Y-66167051D01*
X84086155Y-66157557D01*
X84109509Y-66143413D01*
X84139795Y-66124127D01*
X84177771Y-66099208D01*
X84224198Y-66068163D01*
X84279832Y-66030501D01*
X84345433Y-65985730D01*
X84421760Y-65933358D01*
X84427413Y-65929472D01*
X84491373Y-65885657D01*
X84552248Y-65844282D01*
X84608981Y-65806046D01*
X84660510Y-65771645D01*
X84705778Y-65741781D01*
X84743724Y-65717150D01*
X84773291Y-65698452D01*
X84793417Y-65686385D01*
X84803045Y-65681649D01*
X84803160Y-65681627D01*
X84807908Y-65681559D01*
X84813744Y-65683285D01*
X84821445Y-65687524D01*
X84831787Y-65694998D01*
X84845548Y-65706428D01*
X84863504Y-65722533D01*
X84886432Y-65744034D01*
X84915108Y-65771652D01*
X84950311Y-65806108D01*
X84992816Y-65848121D01*
X85043400Y-65898413D01*
X85102840Y-65957704D01*
X85129480Y-65984310D01*
X85193601Y-66048447D01*
X85248368Y-66103426D01*
X85294480Y-66149990D01*
X85332634Y-66188883D01*
X85363530Y-66220849D01*
X85387867Y-66246633D01*
X85406343Y-66266977D01*
X85419656Y-66282626D01*
X85428506Y-66294324D01*
X85433591Y-66302815D01*
X85435609Y-66308842D01*
X85435722Y-66310366D01*
X85433421Y-66318263D01*
X85426250Y-66332606D01*
X85413803Y-66354017D01*
X85395676Y-66383121D01*
X85371465Y-66420541D01*
X85340767Y-66466901D01*
X85303176Y-66522826D01*
X85258288Y-66588937D01*
X85205699Y-66665861D01*
X85198414Y-66676485D01*
X85155362Y-66739404D01*
X85114576Y-66799298D01*
X85076780Y-66855080D01*
X85042703Y-66905666D01*
X85013071Y-66949969D01*
X84988609Y-66986903D01*
X84970045Y-67015382D01*
X84958106Y-67034321D01*
X84953610Y-67042352D01*
X84952268Y-67048008D01*
X84952372Y-67055571D01*
X84954359Y-67066198D01*
X84958664Y-67081043D01*
X84965724Y-67101263D01*
X84975973Y-67128014D01*
X84989848Y-67162451D01*
X85007784Y-67205730D01*
X85030218Y-67259006D01*
X85057584Y-67323436D01*
X85074987Y-67364259D01*
X85109884Y-67445568D01*
X85139796Y-67514206D01*
X85164930Y-67570622D01*
X85185493Y-67615265D01*
X85201695Y-67648584D01*
X85213741Y-67671028D01*
X85221840Y-67683047D01*
X85222888Y-67684131D01*
X85228448Y-67688571D01*
X85236070Y-67692811D01*
X85247006Y-67697137D01*
X85262511Y-67701838D01*
X85283839Y-67707200D01*
X85312241Y-67713510D01*
X85348973Y-67721054D01*
X85395288Y-67730120D01*
X85452438Y-67740994D01*
X85521679Y-67753963D01*
X85555777Y-67760310D01*
X85624772Y-67773141D01*
X85693067Y-67785850D01*
X85758649Y-67798059D01*
X85819503Y-67809396D01*
X85873615Y-67819483D01*
X85918972Y-67827947D01*
X85953558Y-67834411D01*
X85967071Y-67836942D01*
X86010148Y-67845756D01*
X86044805Y-67854345D01*
X86069072Y-67862170D01*
X86079960Y-67867737D01*
X86095417Y-67880253D01*
X86095417Y-68314541D01*
X86095392Y-68404118D01*
X86095298Y-68480638D01*
X86095108Y-68545156D01*
X86094794Y-68598726D01*
X86094328Y-68642403D01*
X86093682Y-68677240D01*
X86092828Y-68704293D01*
X86091739Y-68724616D01*
X86090385Y-68739263D01*
X86088741Y-68749289D01*
X86086777Y-68755747D01*
X86084466Y-68759693D01*
X86083625Y-68760620D01*
X86076420Y-68764171D01*
X86060215Y-68769080D01*
X86034379Y-68775478D01*
X85998280Y-68783500D01*
X85951287Y-68793275D01*
X85892770Y-68804938D01*
X85822096Y-68818619D01*
X85738634Y-68834450D01*
X85664766Y-68848281D01*
X85578638Y-68864369D01*
X85505322Y-68878164D01*
X85443746Y-68889900D01*
X85392841Y-68899810D01*
X85351534Y-68908131D01*
X85318755Y-68915095D01*
X85293432Y-68920937D01*
X85274495Y-68925891D01*
X85260873Y-68930192D01*
X85251494Y-68934075D01*
X85245288Y-68937772D01*
X85241834Y-68940812D01*
X85235533Y-68951261D01*
X85224892Y-68973313D01*
X85210548Y-69005363D01*
X85193140Y-69045809D01*
X85173306Y-69093050D01*
X85151684Y-69145483D01*
X85128911Y-69201506D01*
X85105626Y-69259515D01*
X85082466Y-69317909D01*
X85060070Y-69375086D01*
X85039075Y-69429442D01*
X85020120Y-69479376D01*
X85003842Y-69523285D01*
X84990880Y-69559567D01*
X84981872Y-69586619D01*
X84977454Y-69602839D01*
X84977111Y-69605703D01*
X84978274Y-69612609D01*
X84982143Y-69622666D01*
X84989284Y-69636760D01*
X85000265Y-69655776D01*
X85015652Y-69680600D01*
X85036014Y-69712116D01*
X85061917Y-69751211D01*
X85093928Y-69798771D01*
X85132616Y-69855680D01*
X85178547Y-69922824D01*
X85204217Y-69960237D01*
X85258864Y-70040082D01*
X85305561Y-70108885D01*
X85344581Y-70167071D01*
X85376202Y-70215064D01*
X85400697Y-70253288D01*
X85418342Y-70282166D01*
X85429413Y-70302123D01*
X85434185Y-70313583D01*
X85434378Y-70314619D01*
X85434720Y-70319792D01*
X85433898Y-70325315D01*
X85431179Y-70331985D01*
X85425834Y-70340601D01*
X85417129Y-70351961D01*
X85404333Y-70366862D01*
X85386715Y-70386102D01*
X85363543Y-70410481D01*
X85334086Y-70440794D01*
X85297610Y-70477841D01*
X85253386Y-70522419D01*
X85200681Y-70575327D01*
X85138764Y-70637362D01*
X85134953Y-70641178D01*
X85080627Y-70695399D01*
X85028936Y-70746636D01*
X84980791Y-70794010D01*
X84937101Y-70836644D01*
X84898776Y-70873659D01*
X84866724Y-70904177D01*
X84841856Y-70927319D01*
X84825080Y-70942208D01*
X84817308Y-70947964D01*
X84817254Y-70947979D01*
X84798930Y-70947828D01*
X84786951Y-70943793D01*
X84778201Y-70938244D01*
X84759053Y-70925515D01*
X84730725Y-70906434D01*
X84694437Y-70881830D01*
X84651408Y-70852531D01*
X84602858Y-70819365D01*
X84550005Y-70783162D01*
X84498780Y-70747988D01*
X84423361Y-70696167D01*
X84358678Y-70651797D01*
X84303858Y-70614307D01*
X84258029Y-70583125D01*
X84220317Y-70557680D01*
X84189850Y-70537401D01*
X84165755Y-70521717D01*
X84147158Y-70510057D01*
X84133188Y-70501849D01*
X84122971Y-70496521D01*
X84115634Y-70493504D01*
X84110305Y-70492226D01*
X84107698Y-70492056D01*
X84097795Y-70495283D01*
X84077393Y-70504347D01*
X84048377Y-70518326D01*
X84012632Y-70536295D01*
X83972043Y-70557329D01*
X83942112Y-70573195D01*
X83899360Y-70595793D01*
X83860234Y-70615970D01*
X83826601Y-70632803D01*
X83800327Y-70645370D01*
X83783278Y-70652749D01*
X83777845Y-70654333D01*
X83762704Y-70649402D01*
X83757495Y-70644949D01*
X83753263Y-70636615D01*
X83744157Y-70616284D01*
X83730601Y-70584983D01*
X83713017Y-70543743D01*
X83691830Y-70493593D01*
X83667464Y-70435561D01*
X83640342Y-70370678D01*
X83610888Y-70299972D01*
X83579526Y-70224473D01*
X83546681Y-70145210D01*
X83512775Y-70063212D01*
X83478232Y-69979508D01*
X83443477Y-69895128D01*
X83408933Y-69811101D01*
X83375024Y-69728457D01*
X83342173Y-69648224D01*
X83310806Y-69571431D01*
X83281344Y-69499109D01*
X83254213Y-69432286D01*
X83229836Y-69371991D01*
X83208637Y-69319255D01*
X83191039Y-69275105D01*
X83177467Y-69240571D01*
X83168344Y-69216684D01*
X83164095Y-69204471D01*
X83163833Y-69203213D01*
X83169569Y-69187454D01*
X83187616Y-69170636D01*
X83192365Y-69167308D01*
X83266964Y-69115796D01*
X83330611Y-69069580D01*
X83384808Y-69027327D01*
X83431060Y-68987701D01*
X83470871Y-68949368D01*
X83505743Y-68910995D01*
X83537180Y-68871245D01*
X83556275Y-68844345D01*
X83602557Y-68770911D01*
X83639537Y-68698867D01*
X83670128Y-68622535D01*
X83670199Y-68622333D01*
X83687543Y-68569795D01*
X83700271Y-68522118D01*
X83709003Y-68475326D01*
X83714358Y-68425445D01*
X83716955Y-68368499D01*
X83717466Y-68318945D01*
X83716986Y-68264348D01*
X83715395Y-68220682D01*
X83712469Y-68184795D01*
X83707984Y-68153535D01*
X83704410Y-68135500D01*
X83673143Y-68023683D01*
X83629877Y-67918740D01*
X83575292Y-67821352D01*
X83510068Y-67732199D01*
X83434886Y-67651961D01*
X83350424Y-67581317D01*
X83257364Y-67520948D01*
X83156384Y-67471533D01*
X83048166Y-67433753D01*
X82987444Y-67418534D01*
X82944808Y-67411756D01*
X82892232Y-67407245D01*
X82833708Y-67404999D01*
X82773225Y-67405019D01*
X82714771Y-67407305D01*
X82662338Y-67411857D01*
X82620555Y-67418534D01*
X82510322Y-67449439D01*
X82406483Y-67492348D01*
X82309797Y-67546466D01*
X82221028Y-67610997D01*
X82140935Y-67685147D01*
X82070280Y-67768121D01*
X82009824Y-67859124D01*
X81960329Y-67957361D01*
X81922555Y-68062036D01*
X81897263Y-68172355D01*
X81896937Y-68174323D01*
X81890907Y-68227653D01*
X81888334Y-68289521D01*
X81889079Y-68355207D01*
X81893003Y-68419991D01*
X81899969Y-68479153D01*
X81906991Y-68516500D01*
X81939322Y-68626601D01*
X81984099Y-68730923D01*
X82040735Y-68828414D01*
X82108645Y-68918024D01*
X82162182Y-68975111D01*
X82197623Y-69007171D01*
X82243823Y-69044489D01*
X82301265Y-69087431D01*
X82370435Y-69136364D01*
X82415634Y-69167308D01*
X82436078Y-69184493D01*
X82443979Y-69200327D01*
X82444167Y-69203213D01*
X82441523Y-69211576D01*
X82433873Y-69231935D01*
X82421643Y-69263260D01*
X82405255Y-69304522D01*
X82385133Y-69354693D01*
X82361701Y-69412742D01*
X82335383Y-69477640D01*
X82306602Y-69548358D01*
X82275784Y-69623868D01*
X82243350Y-69703139D01*
X82209725Y-69785142D01*
X82175334Y-69868848D01*
X82140599Y-69953228D01*
X82105945Y-70037253D01*
X82071795Y-70119893D01*
X82038573Y-70200120D01*
X82006703Y-70276903D01*
X81976609Y-70349213D01*
X81948715Y-70416022D01*
X81923444Y-70476300D01*
X81901221Y-70529017D01*
X81882468Y-70573145D01*
X81867611Y-70607655D01*
X81857072Y-70631516D01*
X81851276Y-70643700D01*
X81850505Y-70644949D01*
X81837041Y-70653218D01*
X81830227Y-70654333D01*
X81820724Y-70651096D01*
X81800717Y-70642005D01*
X81772073Y-70627987D01*
X81736662Y-70609972D01*
X81696353Y-70588888D01*
X81667049Y-70573245D01*
X81624345Y-70550576D01*
X81585133Y-70530345D01*
X81551309Y-70513487D01*
X81524774Y-70500932D01*
X81507425Y-70493615D01*
X81501867Y-70492107D01*
X81497591Y-70492283D01*
X81492777Y-70493238D01*
X81486513Y-70495567D01*
X81477886Y-70499863D01*
X81465985Y-70506719D01*
X81449897Y-70516732D01*
X81428708Y-70530493D01*
X81401507Y-70548599D01*
X81367381Y-70571641D01*
X81325418Y-70600216D01*
X81274705Y-70634915D01*
X81214329Y-70676335D01*
X81143378Y-70725069D01*
X81131653Y-70733125D01*
X81062962Y-70780311D01*
X81004933Y-70820128D01*
X80956598Y-70853202D01*
X80916991Y-70880157D01*
X80885145Y-70901621D01*
X80860093Y-70918217D01*
X80840869Y-70930572D01*
X80826506Y-70939311D01*
X80816037Y-70945060D01*
X80808496Y-70948444D01*
X80802916Y-70950090D01*
X80798330Y-70950622D01*
X80795485Y-70950667D01*
X80788144Y-70945759D01*
X80771654Y-70931515D01*
X80746762Y-70908655D01*
X80714218Y-70877899D01*
X80674773Y-70839966D01*
X80629176Y-70795575D01*
X80578176Y-70745447D01*
X80522522Y-70690301D01*
X80476655Y-70644557D01*
X80413773Y-70581651D01*
X80360155Y-70527916D01*
X80315073Y-70482560D01*
X80277797Y-70444790D01*
X80247601Y-70413814D01*
X80223755Y-70388839D01*
X80205532Y-70369073D01*
X80192202Y-70353723D01*
X80183039Y-70341997D01*
X80177313Y-70333101D01*
X80174297Y-70326243D01*
X80173261Y-70320632D01*
X80173479Y-70315473D01*
X80173572Y-70314710D01*
X80177280Y-70304688D01*
X80187045Y-70286529D01*
X80203166Y-70259772D01*
X80225942Y-70223957D01*
X80255671Y-70178625D01*
X80292651Y-70123317D01*
X80337182Y-70057572D01*
X80389560Y-69980931D01*
X80403744Y-69960266D01*
X80453477Y-69887737D01*
X80495685Y-69825881D01*
X80530937Y-69773811D01*
X80559799Y-69730643D01*
X80582839Y-69695488D01*
X80600627Y-69667461D01*
X80613729Y-69645675D01*
X80622714Y-69629243D01*
X80628149Y-69617280D01*
X80630603Y-69608899D01*
X80630889Y-69605732D01*
X80628263Y-69593685D01*
X80620812Y-69570238D01*
X80609174Y-69536994D01*
X80593988Y-69495555D01*
X80575893Y-69447526D01*
X80555527Y-69394508D01*
X80533530Y-69338107D01*
X80510540Y-69279924D01*
X80487195Y-69221563D01*
X80464135Y-69164627D01*
X80441998Y-69110720D01*
X80421424Y-69061444D01*
X80403050Y-69018403D01*
X80387515Y-68983201D01*
X80375459Y-68957439D01*
X80367520Y-68942722D01*
X80365844Y-68940490D01*
X80361449Y-68936721D01*
X80354924Y-68932998D01*
X80345195Y-68929085D01*
X80331186Y-68924746D01*
X80311821Y-68919745D01*
X80286025Y-68913847D01*
X80252724Y-68906814D01*
X80210841Y-68898412D01*
X80159301Y-68888403D01*
X80097030Y-68876554D01*
X80022952Y-68862626D01*
X79942563Y-68847610D01*
X79846934Y-68829663D01*
X79764729Y-68813975D01*
X79695458Y-68800443D01*
X79638630Y-68788965D01*
X79593758Y-68779440D01*
X79560352Y-68771764D01*
X79537923Y-68765837D01*
X79525981Y-68761555D01*
X79524025Y-68760275D01*
X79521601Y-68756745D01*
X79519525Y-68750659D01*
X79517763Y-68740944D01*
X79516280Y-68726529D01*
X79515044Y-68706341D01*
X79514018Y-68679308D01*
X79513171Y-68644359D01*
X79512467Y-68600421D01*
X79511872Y-68546423D01*
X79511353Y-68481293D01*
X79510876Y-68403959D01*
X79510511Y-68334571D01*
X79510203Y-68258731D01*
X79510049Y-68186599D01*
X79510041Y-68119500D01*
X79510174Y-68058759D01*
X79510441Y-68005704D01*
X79510836Y-67961658D01*
X79511352Y-67927947D01*
X79511984Y-67905897D01*
X79512605Y-67897322D01*
X79520150Y-67878072D01*
X79532316Y-67864278D01*
X79541945Y-67861188D01*
X79564182Y-67855841D01*
X79597746Y-67848498D01*
X79641359Y-67839416D01*
X79693742Y-67828854D01*
X79753616Y-67817070D01*
X79819703Y-67804322D01*
X79890723Y-67790870D01*
X79953555Y-67779159D01*
X80027753Y-67765309D01*
X80098103Y-67751943D01*
X80163326Y-67739320D01*
X80222141Y-67727697D01*
X80273269Y-67717334D01*
X80315431Y-67708490D01*
X80347346Y-67701423D01*
X80367734Y-67696392D01*
X80375027Y-67693923D01*
X80391384Y-67679618D01*
X80400499Y-67667971D01*
X80405211Y-67658363D01*
X80414831Y-67637148D01*
X80428758Y-67605712D01*
X80446386Y-67565438D01*
X80467112Y-67517709D01*
X80490333Y-67463911D01*
X80515446Y-67405426D01*
X80536050Y-67357228D01*
X80565919Y-67287103D01*
X80590621Y-67228753D01*
X80610597Y-67181002D01*
X80626289Y-67142675D01*
X80638137Y-67112597D01*
X80646582Y-67089594D01*
X80652066Y-67072489D01*
X80655029Y-67060109D01*
X80655912Y-67051279D01*
X80655156Y-67044823D01*
X80654312Y-67042144D01*
X80649020Y-67032792D01*
X80636442Y-67012912D01*
X80617305Y-66983590D01*
X80592337Y-66945915D01*
X80562265Y-66900973D01*
X80527815Y-66849852D01*
X80489715Y-66793638D01*
X80448692Y-66733418D01*
X80409498Y-66676148D01*
X80355768Y-66597609D01*
X80309804Y-66529973D01*
X80271210Y-66472630D01*
X80239591Y-66424971D01*
X80214551Y-66386385D01*
X80195696Y-66356265D01*
X80182631Y-66334000D01*
X80174960Y-66318980D01*
X80172288Y-66310597D01*
X80172278Y-66310261D01*
X80173492Y-66304850D01*
X80177601Y-66297160D01*
X80185302Y-66286449D01*
X80197293Y-66271974D01*
X80214271Y-66252992D01*
X80236936Y-66228760D01*
X80265983Y-66198535D01*
X80302112Y-66161575D01*
X80346020Y-66117136D01*
X80398405Y-66064476D01*
X80459965Y-66002852D01*
X80477619Y-65985210D01*
X80543707Y-65919307D01*
X80600568Y-65862885D01*
X80648842Y-65815339D01*
X80689170Y-65776063D01*
X80722193Y-65744453D01*
X80748551Y-65719902D01*
X80768885Y-65701806D01*
X80783835Y-65689559D01*
X80794044Y-65682555D01*
X80800150Y-65680189D01*
X80800411Y-65680181D01*
X80810412Y-65684273D01*
X80831674Y-65696450D01*
X80863986Y-65716574D01*
X80907141Y-65744510D01*
X80960929Y-65780121D01*
X81025142Y-65823269D01*
X81099571Y-65873819D01*
X81177445Y-65927126D01*
X81254923Y-65980232D01*
X81321617Y-66025713D01*
X81378284Y-66064060D01*
X81425683Y-66095765D01*
X81464573Y-66121319D01*
X81495713Y-66141214D01*
X81519860Y-66155940D01*
X81537774Y-66165988D01*
X81550212Y-66171851D01*
X81557935Y-66174019D01*
X81558748Y-66174056D01*
X81568413Y-66171483D01*
X81589490Y-66164201D01*
X81620337Y-66152860D01*
X81659315Y-66138113D01*
X81704782Y-66120612D01*
X81755097Y-66101008D01*
X81808620Y-66079954D01*
X81863709Y-66058102D01*
X81918724Y-66036103D01*
X81972024Y-66014609D01*
X82021968Y-65994273D01*
X82066915Y-65975746D01*
X82105225Y-65959680D01*
X82135256Y-65946727D01*
X82155367Y-65937539D01*
X82160279Y-65935058D01*
X82173063Y-65923179D01*
X82182026Y-65907978D01*
X82184711Y-65897639D01*
X82189696Y-65874691D01*
X82196733Y-65840406D01*
X82205574Y-65796053D01*
X82215969Y-65742905D01*
X82227671Y-65682231D01*
X82240431Y-65615301D01*
X82254000Y-65543388D01*
X82267947Y-65468738D01*
X82286586Y-65369198D01*
X82302955Y-65283277D01*
X82317117Y-65210678D01*
X82329134Y-65151102D01*
X82339066Y-65104252D01*
X82346976Y-65069830D01*
X82352925Y-65047539D01*
X82356974Y-65037079D01*
X82357353Y-65036586D01*
X82360355Y-65034001D01*
X82365029Y-65031796D01*
X82372435Y-65029939D01*
X82383633Y-65028402D01*
X82399682Y-65027154D01*
X82421644Y-65026165D01*
X82450577Y-65025406D01*
X82487541Y-65024847D01*
X82533597Y-65024458D01*
X82589805Y-65024208D01*
X82657224Y-65024069D01*
X82736914Y-65024010D01*
X82804000Y-65024000D01*
X82893401Y-65024019D01*
G37*
X82893401Y-65024019D02*
X82969750Y-65024097D01*
X83034108Y-65024263D01*
X83087534Y-65024547D01*
X83131089Y-65024980D01*
X83165830Y-65025589D01*
X83192819Y-65026407D01*
X83213116Y-65027462D01*
X83227779Y-65028784D01*
X83237869Y-65030403D01*
X83244445Y-65032348D01*
X83248568Y-65034651D01*
X83250629Y-65036565D01*
X83254455Y-65045616D01*
X83260196Y-65066570D01*
X83267908Y-65099712D01*
X83277651Y-65145325D01*
X83289484Y-65203694D01*
X83303466Y-65275100D01*
X83319654Y-65359829D01*
X83338108Y-65458163D01*
X83340073Y-65468718D01*
X83354206Y-65544307D01*
X83367774Y-65616166D01*
X83380527Y-65683025D01*
X83392218Y-65743613D01*
X83402598Y-65796660D01*
X83411417Y-65840895D01*
X83418428Y-65875047D01*
X83423382Y-65897846D01*
X83426013Y-65907978D01*
X83435398Y-65924283D01*
X83445259Y-65933676D01*
X83460914Y-65941112D01*
X83487143Y-65952582D01*
X83522313Y-65967438D01*
X83564789Y-65985029D01*
X83612940Y-66004708D01*
X83665131Y-66025825D01*
X83719729Y-66047731D01*
X83775101Y-66069776D01*
X83829614Y-66091312D01*
X83881634Y-66111690D01*
X83929528Y-66130260D01*
X83971663Y-66146373D01*
X84006405Y-66159381D01*
X84032122Y-66168634D01*
X84047180Y-66173483D01*
X84050101Y-66174056D01*
X84057210Y-66172386D01*
X84068975Y-66167051D01*
X84086155Y-66157557D01*
X84109509Y-66143413D01*
X84139795Y-66124127D01*
X84177771Y-66099208D01*
X84224198Y-66068163D01*
X84279832Y-66030501D01*
X84345433Y-65985730D01*
X84421760Y-65933358D01*
X84427413Y-65929472D01*
X84491373Y-65885657D01*
X84552248Y-65844282D01*
X84608981Y-65806046D01*
X84660510Y-65771645D01*
X84705778Y-65741781D01*
X84743724Y-65717150D01*
X84773291Y-65698452D01*
X84793417Y-65686385D01*
X84803045Y-65681649D01*
X84803160Y-65681627D01*
X84807908Y-65681559D01*
X84813744Y-65683285D01*
X84821445Y-65687524D01*
X84831787Y-65694998D01*
X84845548Y-65706428D01*
X84863504Y-65722533D01*
X84886432Y-65744034D01*
X84915108Y-65771652D01*
X84950311Y-65806108D01*
X84992816Y-65848121D01*
X85043400Y-65898413D01*
X85102840Y-65957704D01*
X85129480Y-65984310D01*
X85193601Y-66048447D01*
X85248368Y-66103426D01*
X85294480Y-66149990D01*
X85332634Y-66188883D01*
X85363530Y-66220849D01*
X85387867Y-66246633D01*
X85406343Y-66266977D01*
X85419656Y-66282626D01*
X85428506Y-66294324D01*
X85433591Y-66302815D01*
X85435609Y-66308842D01*
X85435722Y-66310366D01*
X85433421Y-66318263D01*
X85426250Y-66332606D01*
X85413803Y-66354017D01*
X85395676Y-66383121D01*
X85371465Y-66420541D01*
X85340767Y-66466901D01*
X85303176Y-66522826D01*
X85258288Y-66588937D01*
X85205699Y-66665861D01*
X85198414Y-66676485D01*
X85155362Y-66739404D01*
X85114576Y-66799298D01*
X85076780Y-66855080D01*
X85042703Y-66905666D01*
X85013071Y-66949969D01*
X84988609Y-66986903D01*
X84970045Y-67015382D01*
X84958106Y-67034321D01*
X84953610Y-67042352D01*
X84952268Y-67048008D01*
X84952372Y-67055571D01*
X84954359Y-67066198D01*
X84958664Y-67081043D01*
X84965724Y-67101263D01*
X84975973Y-67128014D01*
X84989848Y-67162451D01*
X85007784Y-67205730D01*
X85030218Y-67259006D01*
X85057584Y-67323436D01*
X85074987Y-67364259D01*
X85109884Y-67445568D01*
X85139796Y-67514206D01*
X85164930Y-67570622D01*
X85185493Y-67615265D01*
X85201695Y-67648584D01*
X85213741Y-67671028D01*
X85221840Y-67683047D01*
X85222888Y-67684131D01*
X85228448Y-67688571D01*
X85236070Y-67692811D01*
X85247006Y-67697137D01*
X85262511Y-67701838D01*
X85283839Y-67707200D01*
X85312241Y-67713510D01*
X85348973Y-67721054D01*
X85395288Y-67730120D01*
X85452438Y-67740994D01*
X85521679Y-67753963D01*
X85555777Y-67760310D01*
X85624772Y-67773141D01*
X85693067Y-67785850D01*
X85758649Y-67798059D01*
X85819503Y-67809396D01*
X85873615Y-67819483D01*
X85918972Y-67827947D01*
X85953558Y-67834411D01*
X85967071Y-67836942D01*
X86010148Y-67845756D01*
X86044805Y-67854345D01*
X86069072Y-67862170D01*
X86079960Y-67867737D01*
X86095417Y-67880253D01*
X86095417Y-68314541D01*
X86095392Y-68404118D01*
X86095298Y-68480638D01*
X86095108Y-68545156D01*
X86094794Y-68598726D01*
X86094328Y-68642403D01*
X86093682Y-68677240D01*
X86092828Y-68704293D01*
X86091739Y-68724616D01*
X86090385Y-68739263D01*
X86088741Y-68749289D01*
X86086777Y-68755747D01*
X86084466Y-68759693D01*
X86083625Y-68760620D01*
X86076420Y-68764171D01*
X86060215Y-68769080D01*
X86034379Y-68775478D01*
X85998280Y-68783500D01*
X85951287Y-68793275D01*
X85892770Y-68804938D01*
X85822096Y-68818619D01*
X85738634Y-68834450D01*
X85664766Y-68848281D01*
X85578638Y-68864369D01*
X85505322Y-68878164D01*
X85443746Y-68889900D01*
X85392841Y-68899810D01*
X85351534Y-68908131D01*
X85318755Y-68915095D01*
X85293432Y-68920937D01*
X85274495Y-68925891D01*
X85260873Y-68930192D01*
X85251494Y-68934075D01*
X85245288Y-68937772D01*
X85241834Y-68940812D01*
X85235533Y-68951261D01*
X85224892Y-68973313D01*
X85210548Y-69005363D01*
X85193140Y-69045809D01*
X85173306Y-69093050D01*
X85151684Y-69145483D01*
X85128911Y-69201506D01*
X85105626Y-69259515D01*
X85082466Y-69317909D01*
X85060070Y-69375086D01*
X85039075Y-69429442D01*
X85020120Y-69479376D01*
X85003842Y-69523285D01*
X84990880Y-69559567D01*
X84981872Y-69586619D01*
X84977454Y-69602839D01*
X84977111Y-69605703D01*
X84978274Y-69612609D01*
X84982143Y-69622666D01*
X84989284Y-69636760D01*
X85000265Y-69655776D01*
X85015652Y-69680600D01*
X85036014Y-69712116D01*
X85061917Y-69751211D01*
X85093928Y-69798771D01*
X85132616Y-69855680D01*
X85178547Y-69922824D01*
X85204217Y-69960237D01*
X85258864Y-70040082D01*
X85305561Y-70108885D01*
X85344581Y-70167071D01*
X85376202Y-70215064D01*
X85400697Y-70253288D01*
X85418342Y-70282166D01*
X85429413Y-70302123D01*
X85434185Y-70313583D01*
X85434378Y-70314619D01*
X85434720Y-70319792D01*
X85433898Y-70325315D01*
X85431179Y-70331985D01*
X85425834Y-70340601D01*
X85417129Y-70351961D01*
X85404333Y-70366862D01*
X85386715Y-70386102D01*
X85363543Y-70410481D01*
X85334086Y-70440794D01*
X85297610Y-70477841D01*
X85253386Y-70522419D01*
X85200681Y-70575327D01*
X85138764Y-70637362D01*
X85134953Y-70641178D01*
X85080627Y-70695399D01*
X85028936Y-70746636D01*
X84980791Y-70794010D01*
X84937101Y-70836644D01*
X84898776Y-70873659D01*
X84866724Y-70904177D01*
X84841856Y-70927319D01*
X84825080Y-70942208D01*
X84817308Y-70947964D01*
X84817254Y-70947979D01*
X84798930Y-70947828D01*
X84786951Y-70943793D01*
X84778201Y-70938244D01*
X84759053Y-70925515D01*
X84730725Y-70906434D01*
X84694437Y-70881830D01*
X84651408Y-70852531D01*
X84602858Y-70819365D01*
X84550005Y-70783162D01*
X84498780Y-70747988D01*
X84423361Y-70696167D01*
X84358678Y-70651797D01*
X84303858Y-70614307D01*
X84258029Y-70583125D01*
X84220317Y-70557680D01*
X84189850Y-70537401D01*
X84165755Y-70521717D01*
X84147158Y-70510057D01*
X84133188Y-70501849D01*
X84122971Y-70496521D01*
X84115634Y-70493504D01*
X84110305Y-70492226D01*
X84107698Y-70492056D01*
X84097795Y-70495283D01*
X84077393Y-70504347D01*
X84048377Y-70518326D01*
X84012632Y-70536295D01*
X83972043Y-70557329D01*
X83942112Y-70573195D01*
X83899360Y-70595793D01*
X83860234Y-70615970D01*
X83826601Y-70632803D01*
X83800327Y-70645370D01*
X83783278Y-70652749D01*
X83777845Y-70654333D01*
X83762704Y-70649402D01*
X83757495Y-70644949D01*
X83753263Y-70636615D01*
X83744157Y-70616284D01*
X83730601Y-70584983D01*
X83713017Y-70543743D01*
X83691830Y-70493593D01*
X83667464Y-70435561D01*
X83640342Y-70370678D01*
X83610888Y-70299972D01*
X83579526Y-70224473D01*
X83546681Y-70145210D01*
X83512775Y-70063212D01*
X83478232Y-69979508D01*
X83443477Y-69895128D01*
X83408933Y-69811101D01*
X83375024Y-69728457D01*
X83342173Y-69648224D01*
X83310806Y-69571431D01*
X83281344Y-69499109D01*
X83254213Y-69432286D01*
X83229836Y-69371991D01*
X83208637Y-69319255D01*
X83191039Y-69275105D01*
X83177467Y-69240571D01*
X83168344Y-69216684D01*
X83164095Y-69204471D01*
X83163833Y-69203213D01*
X83169569Y-69187454D01*
X83187616Y-69170636D01*
X83192365Y-69167308D01*
X83266964Y-69115796D01*
X83330611Y-69069580D01*
X83384808Y-69027327D01*
X83431060Y-68987701D01*
X83470871Y-68949368D01*
X83505743Y-68910995D01*
X83537180Y-68871245D01*
X83556275Y-68844345D01*
X83602557Y-68770911D01*
X83639537Y-68698867D01*
X83670128Y-68622535D01*
X83670199Y-68622333D01*
X83687543Y-68569795D01*
X83700271Y-68522118D01*
X83709003Y-68475326D01*
X83714358Y-68425445D01*
X83716955Y-68368499D01*
X83717466Y-68318945D01*
X83716986Y-68264348D01*
X83715395Y-68220682D01*
X83712469Y-68184795D01*
X83707984Y-68153535D01*
X83704410Y-68135500D01*
X83673143Y-68023683D01*
X83629877Y-67918740D01*
X83575292Y-67821352D01*
X83510068Y-67732199D01*
X83434886Y-67651961D01*
X83350424Y-67581317D01*
X83257364Y-67520948D01*
X83156384Y-67471533D01*
X83048166Y-67433753D01*
X82987444Y-67418534D01*
X82944808Y-67411756D01*
X82892232Y-67407245D01*
X82833708Y-67404999D01*
X82773225Y-67405019D01*
X82714771Y-67407305D01*
X82662338Y-67411857D01*
X82620555Y-67418534D01*
X82510322Y-67449439D01*
X82406483Y-67492348D01*
X82309797Y-67546466D01*
X82221028Y-67610997D01*
X82140935Y-67685147D01*
X82070280Y-67768121D01*
X82009824Y-67859124D01*
X81960329Y-67957361D01*
X81922555Y-68062036D01*
X81897263Y-68172355D01*
X81896937Y-68174323D01*
X81890907Y-68227653D01*
X81888334Y-68289521D01*
X81889079Y-68355207D01*
X81893003Y-68419991D01*
X81899969Y-68479153D01*
X81906991Y-68516500D01*
X81939322Y-68626601D01*
X81984099Y-68730923D01*
X82040735Y-68828414D01*
X82108645Y-68918024D01*
X82162182Y-68975111D01*
X82197623Y-69007171D01*
X82243823Y-69044489D01*
X82301265Y-69087431D01*
X82370435Y-69136364D01*
X82415634Y-69167308D01*
X82436078Y-69184493D01*
X82443979Y-69200327D01*
X82444167Y-69203213D01*
X82441523Y-69211576D01*
X82433873Y-69231935D01*
X82421643Y-69263260D01*
X82405255Y-69304522D01*
X82385133Y-69354693D01*
X82361701Y-69412742D01*
X82335383Y-69477640D01*
X82306602Y-69548358D01*
X82275784Y-69623868D01*
X82243350Y-69703139D01*
X82209725Y-69785142D01*
X82175334Y-69868848D01*
X82140599Y-69953228D01*
X82105945Y-70037253D01*
X82071795Y-70119893D01*
X82038573Y-70200120D01*
X82006703Y-70276903D01*
X81976609Y-70349213D01*
X81948715Y-70416022D01*
X81923444Y-70476300D01*
X81901221Y-70529017D01*
X81882468Y-70573145D01*
X81867611Y-70607655D01*
X81857072Y-70631516D01*
X81851276Y-70643700D01*
X81850505Y-70644949D01*
X81837041Y-70653218D01*
X81830227Y-70654333D01*
X81820724Y-70651096D01*
X81800717Y-70642005D01*
X81772073Y-70627987D01*
X81736662Y-70609972D01*
X81696353Y-70588888D01*
X81667049Y-70573245D01*
X81624345Y-70550576D01*
X81585133Y-70530345D01*
X81551309Y-70513487D01*
X81524774Y-70500932D01*
X81507425Y-70493615D01*
X81501867Y-70492107D01*
X81497591Y-70492283D01*
X81492777Y-70493238D01*
X81486513Y-70495567D01*
X81477886Y-70499863D01*
X81465985Y-70506719D01*
X81449897Y-70516732D01*
X81428708Y-70530493D01*
X81401507Y-70548599D01*
X81367381Y-70571641D01*
X81325418Y-70600216D01*
X81274705Y-70634915D01*
X81214329Y-70676335D01*
X81143378Y-70725069D01*
X81131653Y-70733125D01*
X81062962Y-70780311D01*
X81004933Y-70820128D01*
X80956598Y-70853202D01*
X80916991Y-70880157D01*
X80885145Y-70901621D01*
X80860093Y-70918217D01*
X80840869Y-70930572D01*
X80826506Y-70939311D01*
X80816037Y-70945060D01*
X80808496Y-70948444D01*
X80802916Y-70950090D01*
X80798330Y-70950622D01*
X80795485Y-70950667D01*
X80788144Y-70945759D01*
X80771654Y-70931515D01*
X80746762Y-70908655D01*
X80714218Y-70877899D01*
X80674773Y-70839966D01*
X80629176Y-70795575D01*
X80578176Y-70745447D01*
X80522522Y-70690301D01*
X80476655Y-70644557D01*
X80413773Y-70581651D01*
X80360155Y-70527916D01*
X80315073Y-70482560D01*
X80277797Y-70444790D01*
X80247601Y-70413814D01*
X80223755Y-70388839D01*
X80205532Y-70369073D01*
X80192202Y-70353723D01*
X80183039Y-70341997D01*
X80177313Y-70333101D01*
X80174297Y-70326243D01*
X80173261Y-70320632D01*
X80173479Y-70315473D01*
X80173572Y-70314710D01*
X80177280Y-70304688D01*
X80187045Y-70286529D01*
X80203166Y-70259772D01*
X80225942Y-70223957D01*
X80255671Y-70178625D01*
X80292651Y-70123317D01*
X80337182Y-70057572D01*
X80389560Y-69980931D01*
X80403744Y-69960266D01*
X80453477Y-69887737D01*
X80495685Y-69825881D01*
X80530937Y-69773811D01*
X80559799Y-69730643D01*
X80582839Y-69695488D01*
X80600627Y-69667461D01*
X80613729Y-69645675D01*
X80622714Y-69629243D01*
X80628149Y-69617280D01*
X80630603Y-69608899D01*
X80630889Y-69605732D01*
X80628263Y-69593685D01*
X80620812Y-69570238D01*
X80609174Y-69536994D01*
X80593988Y-69495555D01*
X80575893Y-69447526D01*
X80555527Y-69394508D01*
X80533530Y-69338107D01*
X80510540Y-69279924D01*
X80487195Y-69221563D01*
X80464135Y-69164627D01*
X80441998Y-69110720D01*
X80421424Y-69061444D01*
X80403050Y-69018403D01*
X80387515Y-68983201D01*
X80375459Y-68957439D01*
X80367520Y-68942722D01*
X80365844Y-68940490D01*
X80361449Y-68936721D01*
X80354924Y-68932998D01*
X80345195Y-68929085D01*
X80331186Y-68924746D01*
X80311821Y-68919745D01*
X80286025Y-68913847D01*
X80252724Y-68906814D01*
X80210841Y-68898412D01*
X80159301Y-68888403D01*
X80097030Y-68876554D01*
X80022952Y-68862626D01*
X79942563Y-68847610D01*
X79846934Y-68829663D01*
X79764729Y-68813975D01*
X79695458Y-68800443D01*
X79638630Y-68788965D01*
X79593758Y-68779440D01*
X79560352Y-68771764D01*
X79537923Y-68765837D01*
X79525981Y-68761555D01*
X79524025Y-68760275D01*
X79521601Y-68756745D01*
X79519525Y-68750659D01*
X79517763Y-68740944D01*
X79516280Y-68726529D01*
X79515044Y-68706341D01*
X79514018Y-68679308D01*
X79513171Y-68644359D01*
X79512467Y-68600421D01*
X79511872Y-68546423D01*
X79511353Y-68481293D01*
X79510876Y-68403959D01*
X79510511Y-68334571D01*
X79510203Y-68258731D01*
X79510049Y-68186599D01*
X79510041Y-68119500D01*
X79510174Y-68058759D01*
X79510441Y-68005704D01*
X79510836Y-67961658D01*
X79511352Y-67927947D01*
X79511984Y-67905897D01*
X79512605Y-67897322D01*
X79520150Y-67878072D01*
X79532316Y-67864278D01*
X79541945Y-67861188D01*
X79564182Y-67855841D01*
X79597746Y-67848498D01*
X79641359Y-67839416D01*
X79693742Y-67828854D01*
X79753616Y-67817070D01*
X79819703Y-67804322D01*
X79890723Y-67790870D01*
X79953555Y-67779159D01*
X80027753Y-67765309D01*
X80098103Y-67751943D01*
X80163326Y-67739320D01*
X80222141Y-67727697D01*
X80273269Y-67717334D01*
X80315431Y-67708490D01*
X80347346Y-67701423D01*
X80367734Y-67696392D01*
X80375027Y-67693923D01*
X80391384Y-67679618D01*
X80400499Y-67667971D01*
X80405211Y-67658363D01*
X80414831Y-67637148D01*
X80428758Y-67605712D01*
X80446386Y-67565438D01*
X80467112Y-67517709D01*
X80490333Y-67463911D01*
X80515446Y-67405426D01*
X80536050Y-67357228D01*
X80565919Y-67287103D01*
X80590621Y-67228753D01*
X80610597Y-67181002D01*
X80626289Y-67142675D01*
X80638137Y-67112597D01*
X80646582Y-67089594D01*
X80652066Y-67072489D01*
X80655029Y-67060109D01*
X80655912Y-67051279D01*
X80655156Y-67044823D01*
X80654312Y-67042144D01*
X80649020Y-67032792D01*
X80636442Y-67012912D01*
X80617305Y-66983590D01*
X80592337Y-66945915D01*
X80562265Y-66900973D01*
X80527815Y-66849852D01*
X80489715Y-66793638D01*
X80448692Y-66733418D01*
X80409498Y-66676148D01*
X80355768Y-66597609D01*
X80309804Y-66529973D01*
X80271210Y-66472630D01*
X80239591Y-66424971D01*
X80214551Y-66386385D01*
X80195696Y-66356265D01*
X80182631Y-66334000D01*
X80174960Y-66318980D01*
X80172288Y-66310597D01*
X80172278Y-66310261D01*
X80173492Y-66304850D01*
X80177601Y-66297160D01*
X80185302Y-66286449D01*
X80197293Y-66271974D01*
X80214271Y-66252992D01*
X80236936Y-66228760D01*
X80265983Y-66198535D01*
X80302112Y-66161575D01*
X80346020Y-66117136D01*
X80398405Y-66064476D01*
X80459965Y-66002852D01*
X80477619Y-65985210D01*
X80543707Y-65919307D01*
X80600568Y-65862885D01*
X80648842Y-65815339D01*
X80689170Y-65776063D01*
X80722193Y-65744453D01*
X80748551Y-65719902D01*
X80768885Y-65701806D01*
X80783835Y-65689559D01*
X80794044Y-65682555D01*
X80800150Y-65680189D01*
X80800411Y-65680181D01*
X80810412Y-65684273D01*
X80831674Y-65696450D01*
X80863986Y-65716574D01*
X80907141Y-65744510D01*
X80960929Y-65780121D01*
X81025142Y-65823269D01*
X81099571Y-65873819D01*
X81177445Y-65927126D01*
X81254923Y-65980232D01*
X81321617Y-66025713D01*
X81378284Y-66064060D01*
X81425683Y-66095765D01*
X81464573Y-66121319D01*
X81495713Y-66141214D01*
X81519860Y-66155940D01*
X81537774Y-66165988D01*
X81550212Y-66171851D01*
X81557935Y-66174019D01*
X81558748Y-66174056D01*
X81568413Y-66171483D01*
X81589490Y-66164201D01*
X81620337Y-66152860D01*
X81659315Y-66138113D01*
X81704782Y-66120612D01*
X81755097Y-66101008D01*
X81808620Y-66079954D01*
X81863709Y-66058102D01*
X81918724Y-66036103D01*
X81972024Y-66014609D01*
X82021968Y-65994273D01*
X82066915Y-65975746D01*
X82105225Y-65959680D01*
X82135256Y-65946727D01*
X82155367Y-65937539D01*
X82160279Y-65935058D01*
X82173063Y-65923179D01*
X82182026Y-65907978D01*
X82184711Y-65897639D01*
X82189696Y-65874691D01*
X82196733Y-65840406D01*
X82205574Y-65796053D01*
X82215969Y-65742905D01*
X82227671Y-65682231D01*
X82240431Y-65615301D01*
X82254000Y-65543388D01*
X82267947Y-65468738D01*
X82286586Y-65369198D01*
X82302955Y-65283277D01*
X82317117Y-65210678D01*
X82329134Y-65151102D01*
X82339066Y-65104252D01*
X82346976Y-65069830D01*
X82352925Y-65047539D01*
X82356974Y-65037079D01*
X82357353Y-65036586D01*
X82360355Y-65034001D01*
X82365029Y-65031796D01*
X82372435Y-65029939D01*
X82383633Y-65028402D01*
X82399682Y-65027154D01*
X82421644Y-65026165D01*
X82450577Y-65025406D01*
X82487541Y-65024847D01*
X82533597Y-65024458D01*
X82589805Y-65024208D01*
X82657224Y-65024069D01*
X82736914Y-65024010D01*
X82804000Y-65024000D01*
X82893401Y-65024019D01*
G36*
X85429875Y-71627675D02*
G01*
X85464905Y-71637001D01*
X85501064Y-71650639D01*
X85533355Y-71666434D01*
X85556781Y-71682235D01*
X85557054Y-71682474D01*
X85561150Y-71687426D01*
X85561563Y-71693746D01*
X85557164Y-71703304D01*
X85546826Y-71717975D01*
X85529421Y-71739630D01*
X85505253Y-71768446D01*
X85441481Y-71843886D01*
X85402329Y-71824137D01*
X85358332Y-71808679D01*
X85311927Y-71804130D01*
X85267473Y-71810675D01*
X85248356Y-71817697D01*
X85218801Y-71836911D01*
X85191207Y-71864831D01*
X85169928Y-71896505D01*
X85161688Y-71916279D01*
X85159303Y-71930677D01*
X85157344Y-71956793D01*
X85155800Y-71995061D01*
X85154660Y-72045915D01*
X85153912Y-72109792D01*
X85153544Y-72187126D01*
X85153500Y-72230305D01*
X85153500Y-72517000D01*
X84970055Y-72517000D01*
X84970055Y-71635056D01*
X85153500Y-71635056D01*
X85153500Y-71724610D01*
X85182992Y-71697384D01*
X85228785Y-71664100D01*
X85282374Y-71640014D01*
X85340031Y-71626178D01*
X85398026Y-71623645D01*
X85429875Y-71627675D01*
G37*
X85429875Y-71627675D02*
X85464905Y-71637001D01*
X85501064Y-71650639D01*
X85533355Y-71666434D01*
X85556781Y-71682235D01*
X85557054Y-71682474D01*
X85561150Y-71687426D01*
X85561563Y-71693746D01*
X85557164Y-71703304D01*
X85546826Y-71717975D01*
X85529421Y-71739630D01*
X85505253Y-71768446D01*
X85441481Y-71843886D01*
X85402329Y-71824137D01*
X85358332Y-71808679D01*
X85311927Y-71804130D01*
X85267473Y-71810675D01*
X85248356Y-71817697D01*
X85218801Y-71836911D01*
X85191207Y-71864831D01*
X85169928Y-71896505D01*
X85161688Y-71916279D01*
X85159303Y-71930677D01*
X85157344Y-71956793D01*
X85155800Y-71995061D01*
X85154660Y-72045915D01*
X85153912Y-72109792D01*
X85153544Y-72187126D01*
X85153500Y-72230305D01*
X85153500Y-72517000D01*
X84970055Y-72517000D01*
X84970055Y-71635056D01*
X85153500Y-71635056D01*
X85153500Y-71724610D01*
X85182992Y-71697384D01*
X85228785Y-71664100D01*
X85282374Y-71640014D01*
X85340031Y-71626178D01*
X85398026Y-71623645D01*
X85429875Y-71627675D01*
G36*
X81633833Y-71633097D02*
G01*
X81687428Y-71652396D01*
X81736668Y-71681302D01*
X81779808Y-71719297D01*
X81815102Y-71765863D01*
X81840803Y-71820483D01*
X81847605Y-71842913D01*
X81850303Y-71855320D01*
X81852535Y-71870818D01*
X81854343Y-71890738D01*
X81855766Y-71916409D01*
X81856847Y-71949164D01*
X81857625Y-71990332D01*
X81858141Y-72041245D01*
X81858436Y-72103232D01*
X81858550Y-72177624D01*
X81858555Y-72200982D01*
X81858555Y-72517000D01*
X81682890Y-72517000D01*
X81680764Y-72225958D01*
X81680212Y-72154013D01*
X81679655Y-72094765D01*
X81679019Y-72046801D01*
X81678230Y-72008709D01*
X81677215Y-71979076D01*
X81675898Y-71956487D01*
X81674205Y-71939531D01*
X81672062Y-71926793D01*
X81669395Y-71916861D01*
X81666130Y-71908321D01*
X81663800Y-71903167D01*
X81637226Y-71861134D01*
X81602480Y-71830239D01*
X81560605Y-71811161D01*
X81512833Y-71804583D01*
X81469584Y-71807256D01*
X81435361Y-71816608D01*
X81406040Y-71834203D01*
X81385777Y-71852718D01*
X81373709Y-71865357D01*
X81363681Y-71877065D01*
X81355490Y-71889243D01*
X81348933Y-71903288D01*
X81343808Y-71920601D01*
X81339911Y-71942582D01*
X81337041Y-71970630D01*
X81334993Y-72006145D01*
X81333567Y-72050525D01*
X81332557Y-72105171D01*
X81331763Y-72171483D01*
X81331189Y-72229486D01*
X81328403Y-72517000D01*
X81153000Y-72517000D01*
X81153000Y-71635056D01*
X81329389Y-71635056D01*
X81329389Y-71728575D01*
X81361667Y-71698822D01*
X81410839Y-71662321D01*
X81464387Y-71638016D01*
X81520567Y-71625389D01*
X81577631Y-71623922D01*
X81633833Y-71633097D01*
G37*
X81633833Y-71633097D02*
X81687428Y-71652396D01*
X81736668Y-71681302D01*
X81779808Y-71719297D01*
X81815102Y-71765863D01*
X81840803Y-71820483D01*
X81847605Y-71842913D01*
X81850303Y-71855320D01*
X81852535Y-71870818D01*
X81854343Y-71890738D01*
X81855766Y-71916409D01*
X81856847Y-71949164D01*
X81857625Y-71990332D01*
X81858141Y-72041245D01*
X81858436Y-72103232D01*
X81858550Y-72177624D01*
X81858555Y-72200982D01*
X81858555Y-72517000D01*
X81682890Y-72517000D01*
X81680764Y-72225958D01*
X81680212Y-72154013D01*
X81679655Y-72094765D01*
X81679019Y-72046801D01*
X81678230Y-72008709D01*
X81677215Y-71979076D01*
X81675898Y-71956487D01*
X81674205Y-71939531D01*
X81672062Y-71926793D01*
X81669395Y-71916861D01*
X81666130Y-71908321D01*
X81663800Y-71903167D01*
X81637226Y-71861134D01*
X81602480Y-71830239D01*
X81560605Y-71811161D01*
X81512833Y-71804583D01*
X81469584Y-71807256D01*
X81435361Y-71816608D01*
X81406040Y-71834203D01*
X81385777Y-71852718D01*
X81373709Y-71865357D01*
X81363681Y-71877065D01*
X81355490Y-71889243D01*
X81348933Y-71903288D01*
X81343808Y-71920601D01*
X81339911Y-71942582D01*
X81337041Y-71970630D01*
X81334993Y-72006145D01*
X81333567Y-72050525D01*
X81332557Y-72105171D01*
X81331763Y-72171483D01*
X81331189Y-72229486D01*
X81328403Y-72517000D01*
X81153000Y-72517000D01*
X81153000Y-71635056D01*
X81329389Y-71635056D01*
X81329389Y-71728575D01*
X81361667Y-71698822D01*
X81410839Y-71662321D01*
X81464387Y-71638016D01*
X81520567Y-71625389D01*
X81577631Y-71623922D01*
X81633833Y-71633097D01*
G36*
X86735891Y-71628227D02*
G01*
X86797861Y-71644289D01*
X86857120Y-71671620D01*
X86912024Y-71710444D01*
X86938372Y-71735316D01*
X86976464Y-71782711D01*
X87006290Y-71837976D01*
X87017632Y-71866466D01*
X87023485Y-71885137D01*
X87027847Y-71906013D01*
X87031031Y-71931869D01*
X87033354Y-71965479D01*
X87035128Y-72009617D01*
X87035588Y-72024875D01*
X87038961Y-72143056D01*
X86485676Y-72143056D01*
X86490648Y-72180097D01*
X86503713Y-72234954D01*
X86526812Y-72279912D01*
X86559882Y-72314902D01*
X86602857Y-72339854D01*
X86653067Y-72354246D01*
X86708184Y-72357260D01*
X86764300Y-72347843D01*
X86817969Y-72326957D01*
X86865743Y-72295561D01*
X86866797Y-72294680D01*
X86885259Y-72282574D01*
X86897895Y-72281766D01*
X86898198Y-72281942D01*
X86912500Y-72292097D01*
X86932060Y-72307814D01*
X86954231Y-72326726D01*
X86976366Y-72346467D01*
X86995819Y-72364670D01*
X87009942Y-72378969D01*
X87016090Y-72386997D01*
X87016167Y-72387422D01*
X87010762Y-72396534D01*
X86996342Y-72411233D01*
X86975594Y-72429224D01*
X86951207Y-72448212D01*
X86925871Y-72465902D01*
X86919283Y-72470115D01*
X86868754Y-72495052D01*
X86809390Y-72513334D01*
X86745178Y-72524209D01*
X86680102Y-72526923D01*
X86636388Y-72523593D01*
X86563928Y-72508148D01*
X86500578Y-72481955D01*
X86446166Y-72444895D01*
X86400516Y-72396845D01*
X86363456Y-72337686D01*
X86360532Y-72331803D01*
X86339992Y-72284401D01*
X86325457Y-72237318D01*
X86316351Y-72187205D01*
X86312099Y-72130714D01*
X86312126Y-72064496D01*
X86312513Y-72052084D01*
X86315469Y-71994739D01*
X86316160Y-71988181D01*
X86487000Y-71988181D01*
X86493862Y-71990222D01*
X86513683Y-71991946D01*
X86545311Y-71993312D01*
X86587595Y-71994278D01*
X86639387Y-71994803D01*
X86673796Y-71994889D01*
X86860592Y-71994889D01*
X86856536Y-71971958D01*
X86842060Y-71914425D01*
X86820776Y-71868830D01*
X86792075Y-71834433D01*
X86755345Y-71810495D01*
X86711879Y-71796651D01*
X86662540Y-71793042D01*
X86615575Y-71801507D01*
X86573426Y-71821029D01*
X86538537Y-71850595D01*
X86519922Y-71876411D01*
X86509204Y-71899657D01*
X86499008Y-71929280D01*
X86491077Y-71959363D01*
X86487152Y-71983990D01*
X86487000Y-71988181D01*
X86316160Y-71988181D01*
X86320429Y-71947728D01*
X86328199Y-71907327D01*
X86339585Y-71869811D01*
X86355391Y-71831453D01*
X86364246Y-71812750D01*
X86399175Y-71756124D01*
X86442899Y-71709218D01*
X86493771Y-71672252D01*
X86550151Y-71645449D01*
X86610393Y-71629029D01*
X86672854Y-71623214D01*
X86735891Y-71628227D01*
G37*
X86735891Y-71628227D02*
X86797861Y-71644289D01*
X86857120Y-71671620D01*
X86912024Y-71710444D01*
X86938372Y-71735316D01*
X86976464Y-71782711D01*
X87006290Y-71837976D01*
X87017632Y-71866466D01*
X87023485Y-71885137D01*
X87027847Y-71906013D01*
X87031031Y-71931869D01*
X87033354Y-71965479D01*
X87035128Y-72009617D01*
X87035588Y-72024875D01*
X87038961Y-72143056D01*
X86485676Y-72143056D01*
X86490648Y-72180097D01*
X86503713Y-72234954D01*
X86526812Y-72279912D01*
X86559882Y-72314902D01*
X86602857Y-72339854D01*
X86653067Y-72354246D01*
X86708184Y-72357260D01*
X86764300Y-72347843D01*
X86817969Y-72326957D01*
X86865743Y-72295561D01*
X86866797Y-72294680D01*
X86885259Y-72282574D01*
X86897895Y-72281766D01*
X86898198Y-72281942D01*
X86912500Y-72292097D01*
X86932060Y-72307814D01*
X86954231Y-72326726D01*
X86976366Y-72346467D01*
X86995819Y-72364670D01*
X87009942Y-72378969D01*
X87016090Y-72386997D01*
X87016167Y-72387422D01*
X87010762Y-72396534D01*
X86996342Y-72411233D01*
X86975594Y-72429224D01*
X86951207Y-72448212D01*
X86925871Y-72465902D01*
X86919283Y-72470115D01*
X86868754Y-72495052D01*
X86809390Y-72513334D01*
X86745178Y-72524209D01*
X86680102Y-72526923D01*
X86636388Y-72523593D01*
X86563928Y-72508148D01*
X86500578Y-72481955D01*
X86446166Y-72444895D01*
X86400516Y-72396845D01*
X86363456Y-72337686D01*
X86360532Y-72331803D01*
X86339992Y-72284401D01*
X86325457Y-72237318D01*
X86316351Y-72187205D01*
X86312099Y-72130714D01*
X86312126Y-72064496D01*
X86312513Y-72052084D01*
X86315469Y-71994739D01*
X86316160Y-71988181D01*
X86487000Y-71988181D01*
X86493862Y-71990222D01*
X86513683Y-71991946D01*
X86545311Y-71993312D01*
X86587595Y-71994278D01*
X86639387Y-71994803D01*
X86673796Y-71994889D01*
X86860592Y-71994889D01*
X86856536Y-71971958D01*
X86842060Y-71914425D01*
X86820776Y-71868830D01*
X86792075Y-71834433D01*
X86755345Y-71810495D01*
X86711879Y-71796651D01*
X86662540Y-71793042D01*
X86615575Y-71801507D01*
X86573426Y-71821029D01*
X86538537Y-71850595D01*
X86519922Y-71876411D01*
X86509204Y-71899657D01*
X86499008Y-71929280D01*
X86491077Y-71959363D01*
X86487152Y-71983990D01*
X86487000Y-71988181D01*
X86316160Y-71988181D01*
X86320429Y-71947728D01*
X86328199Y-71907327D01*
X86339585Y-71869811D01*
X86355391Y-71831453D01*
X86364246Y-71812750D01*
X86399175Y-71756124D01*
X86442899Y-71709218D01*
X86493771Y-71672252D01*
X86550151Y-71645449D01*
X86610393Y-71629029D01*
X86672854Y-71623214D01*
X86735891Y-71628227D01*
G36*
X85984351Y-71624953D02*
G01*
X86050938Y-71638268D01*
X86115779Y-71662832D01*
X86175862Y-71697543D01*
X86221121Y-71734375D01*
X86264750Y-71776015D01*
X86215361Y-71822163D01*
X86185748Y-71849789D01*
X86164357Y-71868762D01*
X86148927Y-71879873D01*
X86137193Y-71883910D01*
X86126893Y-71881666D01*
X86115764Y-71873929D01*
X86101884Y-71861790D01*
X86058962Y-71832439D01*
X86010376Y-71813398D01*
X85958900Y-71804762D01*
X85907310Y-71806627D01*
X85858380Y-71819088D01*
X85814886Y-71842242D01*
X85803064Y-71851499D01*
X85773884Y-71885128D01*
X85751145Y-71929416D01*
X85735393Y-71982206D01*
X85727171Y-72041336D01*
X85727024Y-72104647D01*
X85730446Y-72139456D01*
X85743264Y-72200571D01*
X85764102Y-72250385D01*
X85793417Y-72289510D01*
X85831664Y-72318559D01*
X85878398Y-72337882D01*
X85935057Y-72347291D01*
X85991228Y-72343070D01*
X86045048Y-72325634D01*
X86094655Y-72295396D01*
X86104127Y-72287661D01*
X86121265Y-72273909D01*
X86134346Y-72265069D01*
X86138871Y-72263248D01*
X86146071Y-72267912D01*
X86161200Y-72280405D01*
X86181998Y-72298790D01*
X86204778Y-72319784D01*
X86264750Y-72376072D01*
X86220903Y-72417197D01*
X86160803Y-72464424D01*
X86095320Y-72498692D01*
X86025126Y-72519787D01*
X85950891Y-72527497D01*
X85886009Y-72523487D01*
X85814863Y-72507326D01*
X85749440Y-72479186D01*
X85691234Y-72440035D01*
X85641735Y-72390841D01*
X85608631Y-72343584D01*
X85597902Y-72322487D01*
X85585342Y-72293691D01*
X85573434Y-72262936D01*
X85571924Y-72258697D01*
X85564882Y-72237948D01*
X85559762Y-72219880D01*
X85556258Y-72201639D01*
X85554061Y-72180374D01*
X85552865Y-72153230D01*
X85552362Y-72117354D01*
X85552249Y-72076028D01*
X85552303Y-72030423D01*
X85552760Y-71996048D01*
X85553950Y-71970021D01*
X85556203Y-71949462D01*
X85559852Y-71931489D01*
X85565225Y-71913221D01*
X85572654Y-71891776D01*
X85573738Y-71888744D01*
X85605521Y-71817093D01*
X85645584Y-71756841D01*
X85694113Y-71707842D01*
X85751296Y-71669954D01*
X85817321Y-71643033D01*
X85892375Y-71626935D01*
X85919028Y-71623985D01*
X85984351Y-71624953D01*
G37*
X85984351Y-71624953D02*
X86050938Y-71638268D01*
X86115779Y-71662832D01*
X86175862Y-71697543D01*
X86221121Y-71734375D01*
X86264750Y-71776015D01*
X86215361Y-71822163D01*
X86185748Y-71849789D01*
X86164357Y-71868762D01*
X86148927Y-71879873D01*
X86137193Y-71883910D01*
X86126893Y-71881666D01*
X86115764Y-71873929D01*
X86101884Y-71861790D01*
X86058962Y-71832439D01*
X86010376Y-71813398D01*
X85958900Y-71804762D01*
X85907310Y-71806627D01*
X85858380Y-71819088D01*
X85814886Y-71842242D01*
X85803064Y-71851499D01*
X85773884Y-71885128D01*
X85751145Y-71929416D01*
X85735393Y-71982206D01*
X85727171Y-72041336D01*
X85727024Y-72104647D01*
X85730446Y-72139456D01*
X85743264Y-72200571D01*
X85764102Y-72250385D01*
X85793417Y-72289510D01*
X85831664Y-72318559D01*
X85878398Y-72337882D01*
X85935057Y-72347291D01*
X85991228Y-72343070D01*
X86045048Y-72325634D01*
X86094655Y-72295396D01*
X86104127Y-72287661D01*
X86121265Y-72273909D01*
X86134346Y-72265069D01*
X86138871Y-72263248D01*
X86146071Y-72267912D01*
X86161200Y-72280405D01*
X86181998Y-72298790D01*
X86204778Y-72319784D01*
X86264750Y-72376072D01*
X86220903Y-72417197D01*
X86160803Y-72464424D01*
X86095320Y-72498692D01*
X86025126Y-72519787D01*
X85950891Y-72527497D01*
X85886009Y-72523487D01*
X85814863Y-72507326D01*
X85749440Y-72479186D01*
X85691234Y-72440035D01*
X85641735Y-72390841D01*
X85608631Y-72343584D01*
X85597902Y-72322487D01*
X85585342Y-72293691D01*
X85573434Y-72262936D01*
X85571924Y-72258697D01*
X85564882Y-72237948D01*
X85559762Y-72219880D01*
X85556258Y-72201639D01*
X85554061Y-72180374D01*
X85552865Y-72153230D01*
X85552362Y-72117354D01*
X85552249Y-72076028D01*
X85552303Y-72030423D01*
X85552760Y-71996048D01*
X85553950Y-71970021D01*
X85556203Y-71949462D01*
X85559852Y-71931489D01*
X85565225Y-71913221D01*
X85572654Y-71891776D01*
X85573738Y-71888744D01*
X85605521Y-71817093D01*
X85645584Y-71756841D01*
X85694113Y-71707842D01*
X85751296Y-71669954D01*
X85817321Y-71643033D01*
X85892375Y-71626935D01*
X85919028Y-71623985D01*
X85984351Y-71624953D01*
G36*
X84251791Y-71926097D02*
G01*
X84252342Y-71998011D01*
X84252896Y-72057228D01*
X84253526Y-72105159D01*
X84254309Y-72143218D01*
X84255318Y-72172818D01*
X84256630Y-72195371D01*
X84258318Y-72212292D01*
X84260458Y-72224992D01*
X84263124Y-72234885D01*
X84266392Y-72243383D01*
X84268902Y-72248889D01*
X84295638Y-72289983D01*
X84331414Y-72320892D01*
X84374447Y-72340492D01*
X84422958Y-72347655D01*
X84425082Y-72347667D01*
X84474864Y-72341512D01*
X84517725Y-72323439D01*
X84552708Y-72294035D01*
X84578858Y-72253887D01*
X84579313Y-72252917D01*
X84583414Y-72243897D01*
X84586781Y-72235186D01*
X84589485Y-72225360D01*
X84591600Y-72212993D01*
X84593200Y-72196662D01*
X84594356Y-72174941D01*
X84595141Y-72146407D01*
X84595630Y-72109634D01*
X84595894Y-72063199D01*
X84596006Y-72005677D01*
X84596040Y-71935644D01*
X84596042Y-71926097D01*
X84596111Y-71635056D01*
X84779555Y-71635056D01*
X84779555Y-72517000D01*
X84596111Y-72517000D01*
X84596111Y-72429693D01*
X84576708Y-72447517D01*
X84525458Y-72485415D01*
X84468084Y-72511554D01*
X84406864Y-72525312D01*
X84344073Y-72526065D01*
X84309434Y-72520653D01*
X84247549Y-72500333D01*
X84193122Y-72468691D01*
X84147373Y-72426830D01*
X84111520Y-72375854D01*
X84087728Y-72319963D01*
X84084466Y-72308686D01*
X84081763Y-72296805D01*
X84079568Y-72282934D01*
X84077827Y-72265687D01*
X84076489Y-72243679D01*
X84075502Y-72215523D01*
X84074814Y-72179835D01*
X84074372Y-72135229D01*
X84074124Y-72080320D01*
X84074018Y-72013720D01*
X84074000Y-71955455D01*
X84074000Y-71635056D01*
X84249665Y-71635056D01*
X84251791Y-71926097D01*
G37*
X84251791Y-71926097D02*
X84252342Y-71998011D01*
X84252896Y-72057228D01*
X84253526Y-72105159D01*
X84254309Y-72143218D01*
X84255318Y-72172818D01*
X84256630Y-72195371D01*
X84258318Y-72212292D01*
X84260458Y-72224992D01*
X84263124Y-72234885D01*
X84266392Y-72243383D01*
X84268902Y-72248889D01*
X84295638Y-72289983D01*
X84331414Y-72320892D01*
X84374447Y-72340492D01*
X84422958Y-72347655D01*
X84425082Y-72347667D01*
X84474864Y-72341512D01*
X84517725Y-72323439D01*
X84552708Y-72294035D01*
X84578858Y-72253887D01*
X84579313Y-72252917D01*
X84583414Y-72243897D01*
X84586781Y-72235186D01*
X84589485Y-72225360D01*
X84591600Y-72212993D01*
X84593200Y-72196662D01*
X84594356Y-72174941D01*
X84595141Y-72146407D01*
X84595630Y-72109634D01*
X84595894Y-72063199D01*
X84596006Y-72005677D01*
X84596040Y-71935644D01*
X84596042Y-71926097D01*
X84596111Y-71635056D01*
X84779555Y-71635056D01*
X84779555Y-72517000D01*
X84596111Y-72517000D01*
X84596111Y-72429693D01*
X84576708Y-72447517D01*
X84525458Y-72485415D01*
X84468084Y-72511554D01*
X84406864Y-72525312D01*
X84344073Y-72526065D01*
X84309434Y-72520653D01*
X84247549Y-72500333D01*
X84193122Y-72468691D01*
X84147373Y-72426830D01*
X84111520Y-72375854D01*
X84087728Y-72319963D01*
X84084466Y-72308686D01*
X84081763Y-72296805D01*
X84079568Y-72282934D01*
X84077827Y-72265687D01*
X84076489Y-72243679D01*
X84075502Y-72215523D01*
X84074814Y-72179835D01*
X84074372Y-72135229D01*
X84074124Y-72080320D01*
X84074018Y-72013720D01*
X84074000Y-71955455D01*
X84074000Y-71635056D01*
X84249665Y-71635056D01*
X84251791Y-71926097D01*
G36*
X83602364Y-71624654D02*
G01*
X83670503Y-71638644D01*
X83733549Y-71665637D01*
X83790847Y-71705397D01*
X83813459Y-71726263D01*
X83845102Y-71761123D01*
X83870192Y-71796841D01*
X83889368Y-71835525D01*
X83903273Y-71879280D01*
X83912546Y-71930213D01*
X83917827Y-71990432D01*
X83919757Y-72062042D01*
X83919799Y-72076028D01*
X83918387Y-72149787D01*
X83913739Y-72211780D01*
X83905229Y-72264107D01*
X83892236Y-72308869D01*
X83874137Y-72348166D01*
X83850307Y-72384099D01*
X83820124Y-72418769D01*
X83817259Y-72421712D01*
X83763588Y-72466984D01*
X83703739Y-72499588D01*
X83637401Y-72519688D01*
X83629794Y-72521125D01*
X83593458Y-72526936D01*
X83564531Y-72529411D01*
X83536740Y-72528666D01*
X83503812Y-72524815D01*
X83495444Y-72523591D01*
X83430372Y-72507102D01*
X83370299Y-72478672D01*
X83316822Y-72439799D01*
X83271537Y-72391982D01*
X83236043Y-72336720D01*
X83211935Y-72275510D01*
X83206341Y-72252260D01*
X83200858Y-72215141D01*
X83196857Y-72168201D01*
X83194452Y-72115665D01*
X83193756Y-72061757D01*
X83194128Y-72044874D01*
X83375974Y-72044874D01*
X83376418Y-72088818D01*
X83377996Y-72132654D01*
X83380616Y-72173347D01*
X83384183Y-72207862D01*
X83388604Y-72233162D01*
X83391667Y-72242746D01*
X83417591Y-72284282D01*
X83452464Y-72316200D01*
X83494170Y-72337636D01*
X83540591Y-72347729D01*
X83589610Y-72345614D01*
X83622837Y-72336945D01*
X83663794Y-72317017D01*
X83695186Y-72288495D01*
X83718911Y-72250711D01*
X83725926Y-72236021D01*
X83731068Y-72223070D01*
X83734627Y-72209361D01*
X83736895Y-72192397D01*
X83738161Y-72169680D01*
X83738719Y-72138714D01*
X83738857Y-72097000D01*
X83738861Y-72079556D01*
X83738566Y-72027005D01*
X83737383Y-71986139D01*
X83734862Y-71954535D01*
X83730556Y-71929773D01*
X83724016Y-71909432D01*
X83714793Y-71891092D01*
X83702439Y-71872331D01*
X83699787Y-71868638D01*
X83671922Y-71839355D01*
X83636863Y-71819684D01*
X83592676Y-71808721D01*
X83566000Y-71806192D01*
X83536715Y-71805238D01*
X83515651Y-71806985D01*
X83497009Y-71812510D01*
X83474994Y-71822893D01*
X83474326Y-71823236D01*
X83433181Y-71851719D01*
X83403040Y-71888824D01*
X83384476Y-71933806D01*
X83382393Y-71942754D01*
X83378868Y-71968807D01*
X83376760Y-72003859D01*
X83375974Y-72044874D01*
X83194128Y-72044874D01*
X83194883Y-72010702D01*
X83197945Y-71966724D01*
X83198545Y-71961277D01*
X83207885Y-71900017D01*
X83221133Y-71849396D01*
X83239814Y-71806146D01*
X83265455Y-71766998D01*
X83299579Y-71728684D01*
X83313336Y-71715312D01*
X83363000Y-71675965D01*
X83417404Y-71648056D01*
X83478857Y-71630611D01*
X83529783Y-71623900D01*
X83602364Y-71624654D01*
G37*
X83602364Y-71624654D02*
X83670503Y-71638644D01*
X83733549Y-71665637D01*
X83790847Y-71705397D01*
X83813459Y-71726263D01*
X83845102Y-71761123D01*
X83870192Y-71796841D01*
X83889368Y-71835525D01*
X83903273Y-71879280D01*
X83912546Y-71930213D01*
X83917827Y-71990432D01*
X83919757Y-72062042D01*
X83919799Y-72076028D01*
X83918387Y-72149787D01*
X83913739Y-72211780D01*
X83905229Y-72264107D01*
X83892236Y-72308869D01*
X83874137Y-72348166D01*
X83850307Y-72384099D01*
X83820124Y-72418769D01*
X83817259Y-72421712D01*
X83763588Y-72466984D01*
X83703739Y-72499588D01*
X83637401Y-72519688D01*
X83629794Y-72521125D01*
X83593458Y-72526936D01*
X83564531Y-72529411D01*
X83536740Y-72528666D01*
X83503812Y-72524815D01*
X83495444Y-72523591D01*
X83430372Y-72507102D01*
X83370299Y-72478672D01*
X83316822Y-72439799D01*
X83271537Y-72391982D01*
X83236043Y-72336720D01*
X83211935Y-72275510D01*
X83206341Y-72252260D01*
X83200858Y-72215141D01*
X83196857Y-72168201D01*
X83194452Y-72115665D01*
X83193756Y-72061757D01*
X83194128Y-72044874D01*
X83375974Y-72044874D01*
X83376418Y-72088818D01*
X83377996Y-72132654D01*
X83380616Y-72173347D01*
X83384183Y-72207862D01*
X83388604Y-72233162D01*
X83391667Y-72242746D01*
X83417591Y-72284282D01*
X83452464Y-72316200D01*
X83494170Y-72337636D01*
X83540591Y-72347729D01*
X83589610Y-72345614D01*
X83622837Y-72336945D01*
X83663794Y-72317017D01*
X83695186Y-72288495D01*
X83718911Y-72250711D01*
X83725926Y-72236021D01*
X83731068Y-72223070D01*
X83734627Y-72209361D01*
X83736895Y-72192397D01*
X83738161Y-72169680D01*
X83738719Y-72138714D01*
X83738857Y-72097000D01*
X83738861Y-72079556D01*
X83738566Y-72027005D01*
X83737383Y-71986139D01*
X83734862Y-71954535D01*
X83730556Y-71929773D01*
X83724016Y-71909432D01*
X83714793Y-71891092D01*
X83702439Y-71872331D01*
X83699787Y-71868638D01*
X83671922Y-71839355D01*
X83636863Y-71819684D01*
X83592676Y-71808721D01*
X83566000Y-71806192D01*
X83536715Y-71805238D01*
X83515651Y-71806985D01*
X83497009Y-71812510D01*
X83474994Y-71822893D01*
X83474326Y-71823236D01*
X83433181Y-71851719D01*
X83403040Y-71888824D01*
X83384476Y-71933806D01*
X83382393Y-71942754D01*
X83378868Y-71968807D01*
X83376760Y-72003859D01*
X83375974Y-72044874D01*
X83194128Y-72044874D01*
X83194883Y-72010702D01*
X83197945Y-71966724D01*
X83198545Y-71961277D01*
X83207885Y-71900017D01*
X83221133Y-71849396D01*
X83239814Y-71806146D01*
X83265455Y-71766998D01*
X83299579Y-71728684D01*
X83313336Y-71715312D01*
X83363000Y-71675965D01*
X83417404Y-71648056D01*
X83478857Y-71630611D01*
X83529783Y-71623900D01*
X83602364Y-71624654D01*
G36*
X82792562Y-71627720D02*
G01*
X82841922Y-71633704D01*
X82876675Y-71641043D01*
X82922492Y-71656191D01*
X82969559Y-71676633D01*
X83012918Y-71699953D01*
X83047607Y-71723733D01*
X83049448Y-71725240D01*
X83072647Y-71744491D01*
X83017698Y-71809237D01*
X82962750Y-71873983D01*
X82941583Y-71859842D01*
X82888012Y-71830270D01*
X82829052Y-71808430D01*
X82768911Y-71795471D01*
X82711796Y-71792547D01*
X82699097Y-71793457D01*
X82651528Y-71802415D01*
X82615907Y-71818774D01*
X82592098Y-71842648D01*
X82579966Y-71874150D01*
X82578222Y-71894809D01*
X82581627Y-71920292D01*
X82592627Y-71940677D01*
X82612402Y-71956539D01*
X82642130Y-71968455D01*
X82682991Y-71976999D01*
X82736162Y-71982749D01*
X82761667Y-71984425D01*
X82834872Y-71990598D01*
X82895839Y-72000604D01*
X82946096Y-72015188D01*
X82987175Y-72035101D01*
X83020607Y-72061088D01*
X83047920Y-72093897D01*
X83070647Y-72134277D01*
X83071304Y-72135678D01*
X83080073Y-72156399D01*
X83085539Y-72175813D01*
X83088449Y-72198395D01*
X83089551Y-72228625D01*
X83089656Y-72245485D01*
X83089350Y-72279073D01*
X83087721Y-72303176D01*
X83083863Y-72322414D01*
X83076869Y-72341406D01*
X83066523Y-72363369D01*
X83039988Y-72406622D01*
X83005936Y-72441844D01*
X82961649Y-72471614D01*
X82941583Y-72482029D01*
X82880724Y-72505357D01*
X82812199Y-72520789D01*
X82740452Y-72527674D01*
X82669925Y-72525364D01*
X82656261Y-72523728D01*
X82582384Y-72508136D01*
X82509291Y-72482416D01*
X82473444Y-72465508D01*
X82451680Y-72453079D01*
X82426513Y-72437040D01*
X82400539Y-72419275D01*
X82376349Y-72401666D01*
X82356539Y-72386096D01*
X82343702Y-72374448D01*
X82340271Y-72368833D01*
X82345685Y-72362848D01*
X82359263Y-72349138D01*
X82378972Y-72329728D01*
X82402774Y-72306642D01*
X82403316Y-72306120D01*
X82464772Y-72246934D01*
X82489466Y-72268616D01*
X82542723Y-72307333D01*
X82602199Y-72334850D01*
X82669814Y-72351993D01*
X82690424Y-72355041D01*
X82741292Y-72357846D01*
X82790784Y-72353848D01*
X82834662Y-72343620D01*
X82861902Y-72331888D01*
X82886541Y-72311703D01*
X82904580Y-72284643D01*
X82913721Y-72255140D01*
X82913158Y-72233112D01*
X82907126Y-72212933D01*
X82897469Y-72196949D01*
X82882486Y-72184444D01*
X82860478Y-72174701D01*
X82829745Y-72167007D01*
X82788587Y-72160644D01*
X82735303Y-72154898D01*
X82725101Y-72153948D01*
X82660803Y-72147080D01*
X82608446Y-72138957D01*
X82565869Y-72128790D01*
X82530910Y-72115791D01*
X82501405Y-72099171D01*
X82475195Y-72078140D01*
X82452301Y-72054412D01*
X82425733Y-72017409D01*
X82408656Y-71976261D01*
X82400078Y-71927913D01*
X82398593Y-71889056D01*
X82399561Y-71855414D01*
X82402908Y-71829922D01*
X82409788Y-71806670D01*
X82418889Y-71785097D01*
X82448525Y-71735725D01*
X82488684Y-71695000D01*
X82539840Y-71662542D01*
X82602467Y-71637972D01*
X82603129Y-71637772D01*
X82640716Y-71630058D01*
X82687674Y-71625845D01*
X82739718Y-71625083D01*
X82792562Y-71627720D01*
G37*
X82792562Y-71627720D02*
X82841922Y-71633704D01*
X82876675Y-71641043D01*
X82922492Y-71656191D01*
X82969559Y-71676633D01*
X83012918Y-71699953D01*
X83047607Y-71723733D01*
X83049448Y-71725240D01*
X83072647Y-71744491D01*
X83017698Y-71809237D01*
X82962750Y-71873983D01*
X82941583Y-71859842D01*
X82888012Y-71830270D01*
X82829052Y-71808430D01*
X82768911Y-71795471D01*
X82711796Y-71792547D01*
X82699097Y-71793457D01*
X82651528Y-71802415D01*
X82615907Y-71818774D01*
X82592098Y-71842648D01*
X82579966Y-71874150D01*
X82578222Y-71894809D01*
X82581627Y-71920292D01*
X82592627Y-71940677D01*
X82612402Y-71956539D01*
X82642130Y-71968455D01*
X82682991Y-71976999D01*
X82736162Y-71982749D01*
X82761667Y-71984425D01*
X82834872Y-71990598D01*
X82895839Y-72000604D01*
X82946096Y-72015188D01*
X82987175Y-72035101D01*
X83020607Y-72061088D01*
X83047920Y-72093897D01*
X83070647Y-72134277D01*
X83071304Y-72135678D01*
X83080073Y-72156399D01*
X83085539Y-72175813D01*
X83088449Y-72198395D01*
X83089551Y-72228625D01*
X83089656Y-72245485D01*
X83089350Y-72279073D01*
X83087721Y-72303176D01*
X83083863Y-72322414D01*
X83076869Y-72341406D01*
X83066523Y-72363369D01*
X83039988Y-72406622D01*
X83005936Y-72441844D01*
X82961649Y-72471614D01*
X82941583Y-72482029D01*
X82880724Y-72505357D01*
X82812199Y-72520789D01*
X82740452Y-72527674D01*
X82669925Y-72525364D01*
X82656261Y-72523728D01*
X82582384Y-72508136D01*
X82509291Y-72482416D01*
X82473444Y-72465508D01*
X82451680Y-72453079D01*
X82426513Y-72437040D01*
X82400539Y-72419275D01*
X82376349Y-72401666D01*
X82356539Y-72386096D01*
X82343702Y-72374448D01*
X82340271Y-72368833D01*
X82345685Y-72362848D01*
X82359263Y-72349138D01*
X82378972Y-72329728D01*
X82402774Y-72306642D01*
X82403316Y-72306120D01*
X82464772Y-72246934D01*
X82489466Y-72268616D01*
X82542723Y-72307333D01*
X82602199Y-72334850D01*
X82669814Y-72351993D01*
X82690424Y-72355041D01*
X82741292Y-72357846D01*
X82790784Y-72353848D01*
X82834662Y-72343620D01*
X82861902Y-72331888D01*
X82886541Y-72311703D01*
X82904580Y-72284643D01*
X82913721Y-72255140D01*
X82913158Y-72233112D01*
X82907126Y-72212933D01*
X82897469Y-72196949D01*
X82882486Y-72184444D01*
X82860478Y-72174701D01*
X82829745Y-72167007D01*
X82788587Y-72160644D01*
X82735303Y-72154898D01*
X82725101Y-72153948D01*
X82660803Y-72147080D01*
X82608446Y-72138957D01*
X82565869Y-72128790D01*
X82530910Y-72115791D01*
X82501405Y-72099171D01*
X82475195Y-72078140D01*
X82452301Y-72054412D01*
X82425733Y-72017409D01*
X82408656Y-71976261D01*
X82400078Y-71927913D01*
X82398593Y-71889056D01*
X82399561Y-71855414D01*
X82402908Y-71829922D01*
X82409788Y-71806670D01*
X82418889Y-71785097D01*
X82448525Y-71735725D01*
X82488684Y-71695000D01*
X82539840Y-71662542D01*
X82602467Y-71637972D01*
X82603129Y-71637772D01*
X82640716Y-71630058D01*
X82687674Y-71625845D01*
X82739718Y-71625083D01*
X82792562Y-71627720D01*
G36*
X80681501Y-71625367D02*
G01*
X80744692Y-71638574D01*
X80805494Y-71663283D01*
X80862208Y-71699646D01*
X80896176Y-71729703D01*
X80933431Y-71772569D01*
X80962095Y-71818964D01*
X80982849Y-71870921D01*
X80996375Y-71930472D01*
X81003355Y-71999648D01*
X81004711Y-72053097D01*
X81004833Y-72143056D01*
X80454500Y-72143056D01*
X80454500Y-72166940D01*
X80459820Y-72205049D01*
X80474200Y-72245434D01*
X80495266Y-72282096D01*
X80504809Y-72294121D01*
X80541327Y-72325404D01*
X80585147Y-72346237D01*
X80634041Y-72356572D01*
X80685777Y-72356361D01*
X80738125Y-72345559D01*
X80788856Y-72324117D01*
X80824691Y-72300880D01*
X80843806Y-72287044D01*
X80855793Y-72281181D01*
X80864230Y-72282078D01*
X80869475Y-72285684D01*
X80880061Y-72294571D01*
X80898215Y-72309859D01*
X80920725Y-72328842D01*
X80930750Y-72337303D01*
X80952839Y-72355916D01*
X80970662Y-72370870D01*
X80981607Y-72379974D01*
X80983667Y-72381636D01*
X80981651Y-72387855D01*
X80970560Y-72400138D01*
X80952858Y-72416423D01*
X80931007Y-72434652D01*
X80907470Y-72452764D01*
X80884711Y-72468700D01*
X80866223Y-72479857D01*
X80806723Y-72504708D01*
X80739906Y-72520892D01*
X80670112Y-72527692D01*
X80601682Y-72524392D01*
X80598886Y-72524019D01*
X80526477Y-72507821D01*
X80462556Y-72480425D01*
X80407501Y-72442181D01*
X80361693Y-72393442D01*
X80325512Y-72334559D01*
X80299338Y-72265883D01*
X80292936Y-72241022D01*
X80279147Y-72159764D01*
X80274378Y-72077810D01*
X80278343Y-71997573D01*
X80278780Y-71994889D01*
X80452682Y-71994889D01*
X80821389Y-71994889D01*
X80821389Y-71974532D01*
X80816718Y-71941803D01*
X80804299Y-71905313D01*
X80786517Y-71871118D01*
X80773707Y-71853563D01*
X80736876Y-71820716D01*
X80693935Y-71800123D01*
X80646534Y-71792250D01*
X80596321Y-71797564D01*
X80585700Y-71800362D01*
X80540864Y-71820319D01*
X80504442Y-71851075D01*
X80477390Y-71891446D01*
X80460665Y-71940253D01*
X80457471Y-71958784D01*
X80452682Y-71994889D01*
X80278780Y-71994889D01*
X80290759Y-71921472D01*
X80311340Y-71851923D01*
X80339803Y-71791341D01*
X80347335Y-71779083D01*
X80389181Y-71726494D01*
X80438831Y-71684489D01*
X80494587Y-71653221D01*
X80554750Y-71632843D01*
X80617621Y-71623507D01*
X80681501Y-71625367D01*
G37*
X80681501Y-71625367D02*
X80744692Y-71638574D01*
X80805494Y-71663283D01*
X80862208Y-71699646D01*
X80896176Y-71729703D01*
X80933431Y-71772569D01*
X80962095Y-71818964D01*
X80982849Y-71870921D01*
X80996375Y-71930472D01*
X81003355Y-71999648D01*
X81004711Y-72053097D01*
X81004833Y-72143056D01*
X80454500Y-72143056D01*
X80454500Y-72166940D01*
X80459820Y-72205049D01*
X80474200Y-72245434D01*
X80495266Y-72282096D01*
X80504809Y-72294121D01*
X80541327Y-72325404D01*
X80585147Y-72346237D01*
X80634041Y-72356572D01*
X80685777Y-72356361D01*
X80738125Y-72345559D01*
X80788856Y-72324117D01*
X80824691Y-72300880D01*
X80843806Y-72287044D01*
X80855793Y-72281181D01*
X80864230Y-72282078D01*
X80869475Y-72285684D01*
X80880061Y-72294571D01*
X80898215Y-72309859D01*
X80920725Y-72328842D01*
X80930750Y-72337303D01*
X80952839Y-72355916D01*
X80970662Y-72370870D01*
X80981607Y-72379974D01*
X80983667Y-72381636D01*
X80981651Y-72387855D01*
X80970560Y-72400138D01*
X80952858Y-72416423D01*
X80931007Y-72434652D01*
X80907470Y-72452764D01*
X80884711Y-72468700D01*
X80866223Y-72479857D01*
X80806723Y-72504708D01*
X80739906Y-72520892D01*
X80670112Y-72527692D01*
X80601682Y-72524392D01*
X80598886Y-72524019D01*
X80526477Y-72507821D01*
X80462556Y-72480425D01*
X80407501Y-72442181D01*
X80361693Y-72393442D01*
X80325512Y-72334559D01*
X80299338Y-72265883D01*
X80292936Y-72241022D01*
X80279147Y-72159764D01*
X80274378Y-72077810D01*
X80278343Y-71997573D01*
X80278780Y-71994889D01*
X80452682Y-71994889D01*
X80821389Y-71994889D01*
X80821389Y-71974532D01*
X80816718Y-71941803D01*
X80804299Y-71905313D01*
X80786517Y-71871118D01*
X80773707Y-71853563D01*
X80736876Y-71820716D01*
X80693935Y-71800123D01*
X80646534Y-71792250D01*
X80596321Y-71797564D01*
X80585700Y-71800362D01*
X80540864Y-71820319D01*
X80504442Y-71851075D01*
X80477390Y-71891446D01*
X80460665Y-71940253D01*
X80457471Y-71958784D01*
X80452682Y-71994889D01*
X80278780Y-71994889D01*
X80290759Y-71921472D01*
X80311340Y-71851923D01*
X80339803Y-71791341D01*
X80347335Y-71779083D01*
X80389181Y-71726494D01*
X80438831Y-71684489D01*
X80494587Y-71653221D01*
X80554750Y-71632843D01*
X80617621Y-71623507D01*
X80681501Y-71625367D01*
G36*
X78974259Y-71625264D02*
G01*
X79037028Y-71637355D01*
X79096770Y-71659659D01*
X79151702Y-71691936D01*
X79200043Y-71733944D01*
X79240009Y-71785445D01*
X79250589Y-71803614D01*
X79264339Y-71831107D01*
X79274826Y-71857780D01*
X79282561Y-71886343D01*
X79288057Y-71919505D01*
X79291824Y-71959978D01*
X79294375Y-72010472D01*
X79295367Y-72040750D01*
X79296313Y-72115617D01*
X79294158Y-72178724D01*
X79288458Y-72232170D01*
X79278765Y-72278054D01*
X79264635Y-72318477D01*
X79245623Y-72355536D01*
X79221282Y-72391332D01*
X79220839Y-72391917D01*
X79176164Y-72439405D01*
X79122347Y-72477589D01*
X79061509Y-72505662D01*
X78995772Y-72522817D01*
X78927260Y-72528246D01*
X78873707Y-72523892D01*
X78805834Y-72506619D01*
X78743485Y-72477070D01*
X78688409Y-72436281D01*
X78644578Y-72388276D01*
X78619615Y-72350071D01*
X78600292Y-72308457D01*
X78586227Y-72261549D01*
X78577037Y-72207465D01*
X78572342Y-72144322D01*
X78571982Y-72098479D01*
X78749283Y-72098479D01*
X78751791Y-72146247D01*
X78756598Y-72189589D01*
X78763447Y-72225279D01*
X78771865Y-72249668D01*
X78800266Y-72290877D01*
X78838300Y-72322047D01*
X78881065Y-72341074D01*
X78908137Y-72345756D01*
X78941442Y-72346734D01*
X78973893Y-72344111D01*
X78994711Y-72339410D01*
X79034677Y-72320947D01*
X79065332Y-72295059D01*
X79089987Y-72258778D01*
X79094570Y-72249848D01*
X79117472Y-72203331D01*
X79117468Y-72079707D01*
X79117100Y-72027641D01*
X79115674Y-71987100D01*
X79112704Y-71955511D01*
X79107701Y-71930299D01*
X79100177Y-71908891D01*
X79089645Y-71888713D01*
X79077788Y-71870351D01*
X79049957Y-71841410D01*
X79013547Y-71820696D01*
X78971621Y-71808462D01*
X78927243Y-71804962D01*
X78883476Y-71810449D01*
X78843384Y-71825176D01*
X78811140Y-71848298D01*
X78789692Y-71872660D01*
X78774103Y-71899434D01*
X78763133Y-71931870D01*
X78755540Y-71973213D01*
X78752193Y-72002566D01*
X78749332Y-72049510D01*
X78749283Y-72098479D01*
X78571982Y-72098479D01*
X78571759Y-72070236D01*
X78572707Y-72033695D01*
X78576436Y-71965756D01*
X78583064Y-71909348D01*
X78593419Y-71862041D01*
X78608327Y-71821407D01*
X78628616Y-71785018D01*
X78655114Y-71750446D01*
X78677429Y-71726403D01*
X78728584Y-71683828D01*
X78785627Y-71652667D01*
X78846776Y-71632680D01*
X78910248Y-71623625D01*
X78974259Y-71625264D01*
G37*
X78974259Y-71625264D02*
X79037028Y-71637355D01*
X79096770Y-71659659D01*
X79151702Y-71691936D01*
X79200043Y-71733944D01*
X79240009Y-71785445D01*
X79250589Y-71803614D01*
X79264339Y-71831107D01*
X79274826Y-71857780D01*
X79282561Y-71886343D01*
X79288057Y-71919505D01*
X79291824Y-71959978D01*
X79294375Y-72010472D01*
X79295367Y-72040750D01*
X79296313Y-72115617D01*
X79294158Y-72178724D01*
X79288458Y-72232170D01*
X79278765Y-72278054D01*
X79264635Y-72318477D01*
X79245623Y-72355536D01*
X79221282Y-72391332D01*
X79220839Y-72391917D01*
X79176164Y-72439405D01*
X79122347Y-72477589D01*
X79061509Y-72505662D01*
X78995772Y-72522817D01*
X78927260Y-72528246D01*
X78873707Y-72523892D01*
X78805834Y-72506619D01*
X78743485Y-72477070D01*
X78688409Y-72436281D01*
X78644578Y-72388276D01*
X78619615Y-72350071D01*
X78600292Y-72308457D01*
X78586227Y-72261549D01*
X78577037Y-72207465D01*
X78572342Y-72144322D01*
X78571982Y-72098479D01*
X78749283Y-72098479D01*
X78751791Y-72146247D01*
X78756598Y-72189589D01*
X78763447Y-72225279D01*
X78771865Y-72249668D01*
X78800266Y-72290877D01*
X78838300Y-72322047D01*
X78881065Y-72341074D01*
X78908137Y-72345756D01*
X78941442Y-72346734D01*
X78973893Y-72344111D01*
X78994711Y-72339410D01*
X79034677Y-72320947D01*
X79065332Y-72295059D01*
X79089987Y-72258778D01*
X79094570Y-72249848D01*
X79117472Y-72203331D01*
X79117468Y-72079707D01*
X79117100Y-72027641D01*
X79115674Y-71987100D01*
X79112704Y-71955511D01*
X79107701Y-71930299D01*
X79100177Y-71908891D01*
X79089645Y-71888713D01*
X79077788Y-71870351D01*
X79049957Y-71841410D01*
X79013547Y-71820696D01*
X78971621Y-71808462D01*
X78927243Y-71804962D01*
X78883476Y-71810449D01*
X78843384Y-71825176D01*
X78811140Y-71848298D01*
X78789692Y-71872660D01*
X78774103Y-71899434D01*
X78763133Y-71931870D01*
X78755540Y-71973213D01*
X78752193Y-72002566D01*
X78749332Y-72049510D01*
X78749283Y-72098479D01*
X78571982Y-72098479D01*
X78571759Y-72070236D01*
X78572707Y-72033695D01*
X78576436Y-71965756D01*
X78583064Y-71909348D01*
X78593419Y-71862041D01*
X78608327Y-71821407D01*
X78628616Y-71785018D01*
X78655114Y-71750446D01*
X78677429Y-71726403D01*
X78728584Y-71683828D01*
X78785627Y-71652667D01*
X78846776Y-71632680D01*
X78910248Y-71623625D01*
X78974259Y-71625264D01*
G36*
X85241356Y-73029389D02*
G01*
X85293569Y-73050448D01*
X85302006Y-73055291D01*
X85322110Y-73068323D01*
X85336624Y-73079428D01*
X85341873Y-73085330D01*
X85338333Y-73092576D01*
X85327572Y-73108008D01*
X85311600Y-73129139D01*
X85292431Y-73153484D01*
X85272074Y-73178559D01*
X85252544Y-73201877D01*
X85235850Y-73220953D01*
X85224006Y-73233302D01*
X85219375Y-73236667D01*
X85211789Y-73233463D01*
X85196322Y-73225320D01*
X85186506Y-73219816D01*
X85144395Y-73201981D01*
X85101112Y-73196981D01*
X85065365Y-73201377D01*
X85022222Y-73216565D01*
X84985237Y-73241842D01*
X84957656Y-73274889D01*
X84954372Y-73280669D01*
X84950463Y-73288303D01*
X84947227Y-73296125D01*
X84944582Y-73305512D01*
X84942446Y-73317842D01*
X84940737Y-73334494D01*
X84939374Y-73356844D01*
X84938274Y-73386271D01*
X84937356Y-73424152D01*
X84936538Y-73471865D01*
X84935739Y-73530788D01*
X84934875Y-73602298D01*
X84934778Y-73610611D01*
X84931250Y-73910472D01*
X84841292Y-73912447D01*
X84751333Y-73914422D01*
X84751333Y-73024578D01*
X84841292Y-73026553D01*
X84931250Y-73028528D01*
X84933359Y-73072968D01*
X84935469Y-73117409D01*
X84970742Y-73085695D01*
X85016313Y-73053789D01*
X85069107Y-73031936D01*
X85126177Y-73020404D01*
X85184576Y-73019465D01*
X85241356Y-73029389D01*
G37*
X85241356Y-73029389D02*
X85293569Y-73050448D01*
X85302006Y-73055291D01*
X85322110Y-73068323D01*
X85336624Y-73079428D01*
X85341873Y-73085330D01*
X85338333Y-73092576D01*
X85327572Y-73108008D01*
X85311600Y-73129139D01*
X85292431Y-73153484D01*
X85272074Y-73178559D01*
X85252544Y-73201877D01*
X85235850Y-73220953D01*
X85224006Y-73233302D01*
X85219375Y-73236667D01*
X85211789Y-73233463D01*
X85196322Y-73225320D01*
X85186506Y-73219816D01*
X85144395Y-73201981D01*
X85101112Y-73196981D01*
X85065365Y-73201377D01*
X85022222Y-73216565D01*
X84985237Y-73241842D01*
X84957656Y-73274889D01*
X84954372Y-73280669D01*
X84950463Y-73288303D01*
X84947227Y-73296125D01*
X84944582Y-73305512D01*
X84942446Y-73317842D01*
X84940737Y-73334494D01*
X84939374Y-73356844D01*
X84938274Y-73386271D01*
X84937356Y-73424152D01*
X84936538Y-73471865D01*
X84935739Y-73530788D01*
X84934875Y-73602298D01*
X84934778Y-73610611D01*
X84931250Y-73910472D01*
X84841292Y-73912447D01*
X84751333Y-73914422D01*
X84751333Y-73024578D01*
X84841292Y-73026553D01*
X84931250Y-73028528D01*
X84933359Y-73072968D01*
X84935469Y-73117409D01*
X84970742Y-73085695D01*
X85016313Y-73053789D01*
X85069107Y-73031936D01*
X85126177Y-73020404D01*
X85184576Y-73019465D01*
X85241356Y-73029389D01*
G36*
X82710430Y-73025446D02*
G01*
X82739703Y-73026665D01*
X82760880Y-73028481D01*
X82771198Y-73030716D01*
X82771687Y-73031145D01*
X82774282Y-73039039D01*
X82780171Y-73059140D01*
X82788960Y-73090033D01*
X82800254Y-73130304D01*
X82813657Y-73178540D01*
X82828774Y-73233326D01*
X82845210Y-73293250D01*
X82856963Y-73336298D01*
X82874033Y-73398922D01*
X82889979Y-73457394D01*
X82904416Y-73510297D01*
X82916956Y-73556214D01*
X82927213Y-73593730D01*
X82934799Y-73621428D01*
X82939327Y-73637892D01*
X82940463Y-73641950D01*
X82943090Y-73637466D01*
X82949373Y-73621296D01*
X82958693Y-73595200D01*
X82970431Y-73560941D01*
X82983967Y-73520279D01*
X82993187Y-73492020D01*
X83011924Y-73434157D01*
X83033206Y-73368434D01*
X83055291Y-73300231D01*
X83076435Y-73234931D01*
X83094150Y-73180222D01*
X83144412Y-73025000D01*
X83207190Y-73025000D01*
X83237367Y-73025264D01*
X83256481Y-73026518D01*
X83267578Y-73029455D01*
X83273704Y-73034768D01*
X83276931Y-73040875D01*
X83280536Y-73050822D01*
X83287975Y-73072720D01*
X83298761Y-73105085D01*
X83312404Y-73146435D01*
X83328417Y-73195288D01*
X83346311Y-73250161D01*
X83365599Y-73309572D01*
X83376254Y-73342500D01*
X83395949Y-73403297D01*
X83414401Y-73459988D01*
X83431138Y-73511151D01*
X83445693Y-73555363D01*
X83457596Y-73591204D01*
X83466379Y-73617249D01*
X83471571Y-73632079D01*
X83472734Y-73634952D01*
X83476042Y-73631258D01*
X83482032Y-73616274D01*
X83489865Y-73592372D01*
X83498698Y-73561926D01*
X83498988Y-73560869D01*
X83506407Y-73533796D01*
X83516895Y-73495528D01*
X83529789Y-73448481D01*
X83544429Y-73395070D01*
X83560153Y-73337708D01*
X83576298Y-73278811D01*
X83583499Y-73252542D01*
X83645875Y-73025000D01*
X83739993Y-73025000D01*
X83774589Y-73025213D01*
X83803462Y-73025798D01*
X83824027Y-73026671D01*
X83833698Y-73027748D01*
X83834111Y-73028032D01*
X83832020Y-73035098D01*
X83825984Y-73054481D01*
X83816359Y-73085058D01*
X83803502Y-73125708D01*
X83787769Y-73175308D01*
X83769516Y-73232735D01*
X83749098Y-73296868D01*
X83726874Y-73366583D01*
X83703197Y-73440758D01*
X83693610Y-73470768D01*
X83553109Y-73910472D01*
X83393855Y-73910472D01*
X83308482Y-73624722D01*
X83290020Y-73562897D01*
X83272599Y-73504500D01*
X83256683Y-73451089D01*
X83242735Y-73404220D01*
X83231218Y-73365451D01*
X83222595Y-73336338D01*
X83217329Y-73318438D01*
X83216127Y-73314278D01*
X83214152Y-73308843D01*
X83211802Y-73306856D01*
X83208684Y-73309420D01*
X83204403Y-73317641D01*
X83198565Y-73332621D01*
X83190776Y-73355466D01*
X83180641Y-73387280D01*
X83167765Y-73429166D01*
X83151756Y-73482229D01*
X83132217Y-73547573D01*
X83129198Y-73557695D01*
X83111028Y-73618596D01*
X83093609Y-73676918D01*
X83077471Y-73730887D01*
X83063144Y-73778735D01*
X83051159Y-73818691D01*
X83042045Y-73848985D01*
X83036333Y-73867846D01*
X83035703Y-73869903D01*
X83022155Y-73914000D01*
X82945244Y-73914000D01*
X82913809Y-73913543D01*
X82887977Y-73912307D01*
X82870765Y-73910490D01*
X82865201Y-73908708D01*
X82862572Y-73901258D01*
X82856111Y-73881740D01*
X82846261Y-73851537D01*
X82833463Y-73812031D01*
X82818159Y-73764604D01*
X82800791Y-73710636D01*
X82781801Y-73651511D01*
X82761630Y-73588609D01*
X82740721Y-73523313D01*
X82719515Y-73457003D01*
X82698453Y-73391063D01*
X82677979Y-73326873D01*
X82658533Y-73265816D01*
X82640558Y-73209272D01*
X82624495Y-73158625D01*
X82610786Y-73115255D01*
X82599873Y-73080544D01*
X82592198Y-73055875D01*
X82588202Y-73042628D01*
X82587826Y-73041250D01*
X82583748Y-73025000D01*
X82675819Y-73025000D01*
X82710430Y-73025446D01*
G37*
X82710430Y-73025446D02*
X82739703Y-73026665D01*
X82760880Y-73028481D01*
X82771198Y-73030716D01*
X82771687Y-73031145D01*
X82774282Y-73039039D01*
X82780171Y-73059140D01*
X82788960Y-73090033D01*
X82800254Y-73130304D01*
X82813657Y-73178540D01*
X82828774Y-73233326D01*
X82845210Y-73293250D01*
X82856963Y-73336298D01*
X82874033Y-73398922D01*
X82889979Y-73457394D01*
X82904416Y-73510297D01*
X82916956Y-73556214D01*
X82927213Y-73593730D01*
X82934799Y-73621428D01*
X82939327Y-73637892D01*
X82940463Y-73641950D01*
X82943090Y-73637466D01*
X82949373Y-73621296D01*
X82958693Y-73595200D01*
X82970431Y-73560941D01*
X82983967Y-73520279D01*
X82993187Y-73492020D01*
X83011924Y-73434157D01*
X83033206Y-73368434D01*
X83055291Y-73300231D01*
X83076435Y-73234931D01*
X83094150Y-73180222D01*
X83144412Y-73025000D01*
X83207190Y-73025000D01*
X83237367Y-73025264D01*
X83256481Y-73026518D01*
X83267578Y-73029455D01*
X83273704Y-73034768D01*
X83276931Y-73040875D01*
X83280536Y-73050822D01*
X83287975Y-73072720D01*
X83298761Y-73105085D01*
X83312404Y-73146435D01*
X83328417Y-73195288D01*
X83346311Y-73250161D01*
X83365599Y-73309572D01*
X83376254Y-73342500D01*
X83395949Y-73403297D01*
X83414401Y-73459988D01*
X83431138Y-73511151D01*
X83445693Y-73555363D01*
X83457596Y-73591204D01*
X83466379Y-73617249D01*
X83471571Y-73632079D01*
X83472734Y-73634952D01*
X83476042Y-73631258D01*
X83482032Y-73616274D01*
X83489865Y-73592372D01*
X83498698Y-73561926D01*
X83498988Y-73560869D01*
X83506407Y-73533796D01*
X83516895Y-73495528D01*
X83529789Y-73448481D01*
X83544429Y-73395070D01*
X83560153Y-73337708D01*
X83576298Y-73278811D01*
X83583499Y-73252542D01*
X83645875Y-73025000D01*
X83739993Y-73025000D01*
X83774589Y-73025213D01*
X83803462Y-73025798D01*
X83824027Y-73026671D01*
X83833698Y-73027748D01*
X83834111Y-73028032D01*
X83832020Y-73035098D01*
X83825984Y-73054481D01*
X83816359Y-73085058D01*
X83803502Y-73125708D01*
X83787769Y-73175308D01*
X83769516Y-73232735D01*
X83749098Y-73296868D01*
X83726874Y-73366583D01*
X83703197Y-73440758D01*
X83693610Y-73470768D01*
X83553109Y-73910472D01*
X83393855Y-73910472D01*
X83308482Y-73624722D01*
X83290020Y-73562897D01*
X83272599Y-73504500D01*
X83256683Y-73451089D01*
X83242735Y-73404220D01*
X83231218Y-73365451D01*
X83222595Y-73336338D01*
X83217329Y-73318438D01*
X83216127Y-73314278D01*
X83214152Y-73308843D01*
X83211802Y-73306856D01*
X83208684Y-73309420D01*
X83204403Y-73317641D01*
X83198565Y-73332621D01*
X83190776Y-73355466D01*
X83180641Y-73387280D01*
X83167765Y-73429166D01*
X83151756Y-73482229D01*
X83132217Y-73547573D01*
X83129198Y-73557695D01*
X83111028Y-73618596D01*
X83093609Y-73676918D01*
X83077471Y-73730887D01*
X83063144Y-73778735D01*
X83051159Y-73818691D01*
X83042045Y-73848985D01*
X83036333Y-73867846D01*
X83035703Y-73869903D01*
X83022155Y-73914000D01*
X82945244Y-73914000D01*
X82913809Y-73913543D01*
X82887977Y-73912307D01*
X82870765Y-73910490D01*
X82865201Y-73908708D01*
X82862572Y-73901258D01*
X82856111Y-73881740D01*
X82846261Y-73851537D01*
X82833463Y-73812031D01*
X82818159Y-73764604D01*
X82800791Y-73710636D01*
X82781801Y-73651511D01*
X82761630Y-73588609D01*
X82740721Y-73523313D01*
X82719515Y-73457003D01*
X82698453Y-73391063D01*
X82677979Y-73326873D01*
X82658533Y-73265816D01*
X82640558Y-73209272D01*
X82624495Y-73158625D01*
X82610786Y-73115255D01*
X82599873Y-73080544D01*
X82592198Y-73055875D01*
X82588202Y-73042628D01*
X82587826Y-73041250D01*
X82583748Y-73025000D01*
X82675819Y-73025000D01*
X82710430Y-73025446D01*
G36*
X81624959Y-73021801D02*
G01*
X81649741Y-73023326D01*
X81669165Y-73026853D01*
X81687606Y-73033189D01*
X81709436Y-73043143D01*
X81710389Y-73043602D01*
X81735092Y-73056012D01*
X81756011Y-73067393D01*
X81768670Y-73075307D01*
X81768770Y-73075384D01*
X81772660Y-73078785D01*
X81774484Y-73082781D01*
X81773311Y-73088725D01*
X81768208Y-73097974D01*
X81758240Y-73111879D01*
X81742476Y-73131796D01*
X81719983Y-73159080D01*
X81689828Y-73195083D01*
X81670386Y-73218203D01*
X81653275Y-73238545D01*
X81616808Y-73218697D01*
X81572414Y-73201883D01*
X81526100Y-73197423D01*
X81480784Y-73204965D01*
X81439380Y-73224154D01*
X81415485Y-73243153D01*
X81403705Y-73254955D01*
X81393901Y-73266371D01*
X81385892Y-73278769D01*
X81379498Y-73293514D01*
X81374535Y-73311972D01*
X81370824Y-73335510D01*
X81368182Y-73365495D01*
X81366428Y-73403293D01*
X81365381Y-73450269D01*
X81364860Y-73507791D01*
X81364683Y-73577225D01*
X81364667Y-73625979D01*
X81364667Y-73914000D01*
X81276251Y-73914000D01*
X81235851Y-73913543D01*
X81208084Y-73912077D01*
X81191497Y-73909464D01*
X81184639Y-73905564D01*
X81184463Y-73905181D01*
X81183894Y-73896731D01*
X81183413Y-73875407D01*
X81183025Y-73842448D01*
X81182735Y-73799089D01*
X81182546Y-73746569D01*
X81182462Y-73686125D01*
X81182489Y-73618994D01*
X81182630Y-73546414D01*
X81182890Y-73469621D01*
X81182920Y-73462445D01*
X81184750Y-73028528D01*
X81361139Y-73028528D01*
X81363252Y-73073130D01*
X81365366Y-73117732D01*
X81394132Y-73091744D01*
X81416016Y-73074935D01*
X81444381Y-73057024D01*
X81469629Y-73043614D01*
X81492133Y-73033487D01*
X81510976Y-73027019D01*
X81530583Y-73023402D01*
X81555377Y-73021823D01*
X81589782Y-73021472D01*
X81590444Y-73021472D01*
X81624959Y-73021801D01*
G37*
X81624959Y-73021801D02*
X81649741Y-73023326D01*
X81669165Y-73026853D01*
X81687606Y-73033189D01*
X81709436Y-73043143D01*
X81710389Y-73043602D01*
X81735092Y-73056012D01*
X81756011Y-73067393D01*
X81768670Y-73075307D01*
X81768770Y-73075384D01*
X81772660Y-73078785D01*
X81774484Y-73082781D01*
X81773311Y-73088725D01*
X81768208Y-73097974D01*
X81758240Y-73111879D01*
X81742476Y-73131796D01*
X81719983Y-73159080D01*
X81689828Y-73195083D01*
X81670386Y-73218203D01*
X81653275Y-73238545D01*
X81616808Y-73218697D01*
X81572414Y-73201883D01*
X81526100Y-73197423D01*
X81480784Y-73204965D01*
X81439380Y-73224154D01*
X81415485Y-73243153D01*
X81403705Y-73254955D01*
X81393901Y-73266371D01*
X81385892Y-73278769D01*
X81379498Y-73293514D01*
X81374535Y-73311972D01*
X81370824Y-73335510D01*
X81368182Y-73365495D01*
X81366428Y-73403293D01*
X81365381Y-73450269D01*
X81364860Y-73507791D01*
X81364683Y-73577225D01*
X81364667Y-73625979D01*
X81364667Y-73914000D01*
X81276251Y-73914000D01*
X81235851Y-73913543D01*
X81208084Y-73912077D01*
X81191497Y-73909464D01*
X81184639Y-73905564D01*
X81184463Y-73905181D01*
X81183894Y-73896731D01*
X81183413Y-73875407D01*
X81183025Y-73842448D01*
X81182735Y-73799089D01*
X81182546Y-73746569D01*
X81182462Y-73686125D01*
X81182489Y-73618994D01*
X81182630Y-73546414D01*
X81182890Y-73469621D01*
X81182920Y-73462445D01*
X81184750Y-73028528D01*
X81361139Y-73028528D01*
X81363252Y-73073130D01*
X81365366Y-73117732D01*
X81394132Y-73091744D01*
X81416016Y-73074935D01*
X81444381Y-73057024D01*
X81469629Y-73043614D01*
X81492133Y-73033487D01*
X81510976Y-73027019D01*
X81530583Y-73023402D01*
X81555377Y-73021823D01*
X81589782Y-73021472D01*
X81590444Y-73021472D01*
X81624959Y-73021801D01*
G36*
X79934112Y-71633473D02*
G01*
X79990741Y-71655092D01*
X80041565Y-71687489D01*
X80071898Y-71715785D01*
X80093584Y-71741154D01*
X80111150Y-71766213D01*
X80125013Y-71792794D01*
X80135586Y-71822725D01*
X80143286Y-71857836D01*
X80148527Y-71899958D01*
X80151725Y-71950918D01*
X80153296Y-72012549D01*
X80153661Y-72076028D01*
X80153295Y-72143024D01*
X80152024Y-72197907D01*
X80149589Y-72242660D01*
X80145731Y-72279267D01*
X80140191Y-72309709D01*
X80132710Y-72335972D01*
X80123029Y-72360037D01*
X80114258Y-72377668D01*
X80080252Y-72427162D01*
X80036547Y-72467955D01*
X79985318Y-72498972D01*
X79928739Y-72519137D01*
X79868985Y-72527375D01*
X79817791Y-72524270D01*
X79764664Y-72510595D01*
X79712439Y-72487377D01*
X79666779Y-72457272D01*
X79657013Y-72448944D01*
X79629000Y-72423636D01*
X79629000Y-73118364D01*
X79658115Y-73092060D01*
X79706929Y-73057184D01*
X79763346Y-73032952D01*
X79824497Y-73020546D01*
X79833084Y-73019833D01*
X79898987Y-73021401D01*
X79958946Y-73035709D01*
X80013504Y-73062964D01*
X80063202Y-73103373D01*
X80070295Y-73110608D01*
X80106978Y-73156011D01*
X80132195Y-73204560D01*
X80147720Y-73260033D01*
X80151376Y-73283159D01*
X80153171Y-73304797D01*
X80154650Y-73339055D01*
X80155790Y-73384442D01*
X80156566Y-73439469D01*
X80156957Y-73502648D01*
X80156939Y-73572488D01*
X80156669Y-73624722D01*
X80154639Y-73910472D01*
X80064969Y-73912445D01*
X79975300Y-73914417D01*
X79973247Y-73616111D01*
X79972726Y-73543337D01*
X79972208Y-73483298D01*
X79971621Y-73434619D01*
X79970892Y-73395925D01*
X79969949Y-73365840D01*
X79968718Y-73342988D01*
X79967127Y-73325996D01*
X79965103Y-73313486D01*
X79962573Y-73304084D01*
X79959465Y-73296414D01*
X79955965Y-73289583D01*
X79926900Y-73248726D01*
X79890484Y-73219735D01*
X79847349Y-73203003D01*
X79808917Y-73198709D01*
X79756518Y-73204138D01*
X79712099Y-73221185D01*
X79675709Y-73249823D01*
X79647987Y-73288915D01*
X79644215Y-73296339D01*
X79641100Y-73304109D01*
X79638569Y-73313604D01*
X79636547Y-73326203D01*
X79634962Y-73343284D01*
X79633738Y-73366226D01*
X79632803Y-73396407D01*
X79632082Y-73435205D01*
X79631501Y-73483999D01*
X79630988Y-73544168D01*
X79630475Y-73615903D01*
X79628423Y-73914000D01*
X79541693Y-73914000D01*
X79508033Y-73913638D01*
X79479665Y-73912649D01*
X79459480Y-73911184D01*
X79450370Y-73909390D01*
X79450259Y-73909296D01*
X79449739Y-73901839D01*
X79449235Y-73881019D01*
X79448751Y-73847586D01*
X79448288Y-73802289D01*
X79447851Y-73745876D01*
X79447443Y-73679097D01*
X79447066Y-73602701D01*
X79446724Y-73517437D01*
X79446419Y-73424053D01*
X79446155Y-73323298D01*
X79445936Y-73215922D01*
X79445763Y-73102674D01*
X79445640Y-72984302D01*
X79445571Y-72861555D01*
X79445555Y-72769824D01*
X79445555Y-72072635D01*
X79630147Y-72072635D01*
X79631370Y-72122295D01*
X79634506Y-72169303D01*
X79639461Y-72209880D01*
X79646141Y-72240250D01*
X79646206Y-72240458D01*
X79662611Y-72275543D01*
X79686928Y-72306484D01*
X79715753Y-72329530D01*
X79735166Y-72338460D01*
X79766450Y-72344622D01*
X79804180Y-72346658D01*
X79841279Y-72344473D01*
X79863790Y-72340187D01*
X79898832Y-72323429D01*
X79929409Y-72294856D01*
X79953287Y-72256589D01*
X79954368Y-72254232D01*
X79960229Y-72240392D01*
X79964537Y-72227080D01*
X79967530Y-72211856D01*
X79969447Y-72192280D01*
X79970527Y-72165912D01*
X79971010Y-72130311D01*
X79971134Y-72083083D01*
X79970725Y-72025789D01*
X79969183Y-71980440D01*
X79966121Y-71944892D01*
X79961152Y-71916997D01*
X79953891Y-71894611D01*
X79943949Y-71875588D01*
X79930941Y-71857782D01*
X79930417Y-71857144D01*
X79901266Y-71829992D01*
X79865948Y-71813011D01*
X79822170Y-71805266D01*
X79801592Y-71804544D01*
X79752570Y-71809270D01*
X79712682Y-71824173D01*
X79681254Y-71849839D01*
X79657610Y-71886852D01*
X79641075Y-71935797D01*
X79638890Y-71945500D01*
X79633813Y-71980460D01*
X79630930Y-72024097D01*
X79630147Y-72072635D01*
X79445555Y-72072635D01*
X79445555Y-71635056D01*
X79629000Y-71635056D01*
X79629000Y-71720667D01*
X79659479Y-71695692D01*
X79706807Y-71664370D01*
X79761742Y-71640314D01*
X79815064Y-71626608D01*
X79874584Y-71623642D01*
X79934112Y-71633473D01*
G37*
X79934112Y-71633473D02*
X79990741Y-71655092D01*
X80041565Y-71687489D01*
X80071898Y-71715785D01*
X80093584Y-71741154D01*
X80111150Y-71766213D01*
X80125013Y-71792794D01*
X80135586Y-71822725D01*
X80143286Y-71857836D01*
X80148527Y-71899958D01*
X80151725Y-71950918D01*
X80153296Y-72012549D01*
X80153661Y-72076028D01*
X80153295Y-72143024D01*
X80152024Y-72197907D01*
X80149589Y-72242660D01*
X80145731Y-72279267D01*
X80140191Y-72309709D01*
X80132710Y-72335972D01*
X80123029Y-72360037D01*
X80114258Y-72377668D01*
X80080252Y-72427162D01*
X80036547Y-72467955D01*
X79985318Y-72498972D01*
X79928739Y-72519137D01*
X79868985Y-72527375D01*
X79817791Y-72524270D01*
X79764664Y-72510595D01*
X79712439Y-72487377D01*
X79666779Y-72457272D01*
X79657013Y-72448944D01*
X79629000Y-72423636D01*
X79629000Y-73118364D01*
X79658115Y-73092060D01*
X79706929Y-73057184D01*
X79763346Y-73032952D01*
X79824497Y-73020546D01*
X79833084Y-73019833D01*
X79898987Y-73021401D01*
X79958946Y-73035709D01*
X80013504Y-73062964D01*
X80063202Y-73103373D01*
X80070295Y-73110608D01*
X80106978Y-73156011D01*
X80132195Y-73204560D01*
X80147720Y-73260033D01*
X80151376Y-73283159D01*
X80153171Y-73304797D01*
X80154650Y-73339055D01*
X80155790Y-73384442D01*
X80156566Y-73439469D01*
X80156957Y-73502648D01*
X80156939Y-73572488D01*
X80156669Y-73624722D01*
X80154639Y-73910472D01*
X80064969Y-73912445D01*
X79975300Y-73914417D01*
X79973247Y-73616111D01*
X79972726Y-73543337D01*
X79972208Y-73483298D01*
X79971621Y-73434619D01*
X79970892Y-73395925D01*
X79969949Y-73365840D01*
X79968718Y-73342988D01*
X79967127Y-73325996D01*
X79965103Y-73313486D01*
X79962573Y-73304084D01*
X79959465Y-73296414D01*
X79955965Y-73289583D01*
X79926900Y-73248726D01*
X79890484Y-73219735D01*
X79847349Y-73203003D01*
X79808917Y-73198709D01*
X79756518Y-73204138D01*
X79712099Y-73221185D01*
X79675709Y-73249823D01*
X79647987Y-73288915D01*
X79644215Y-73296339D01*
X79641100Y-73304109D01*
X79638569Y-73313604D01*
X79636547Y-73326203D01*
X79634962Y-73343284D01*
X79633738Y-73366226D01*
X79632803Y-73396407D01*
X79632082Y-73435205D01*
X79631501Y-73483999D01*
X79630988Y-73544168D01*
X79630475Y-73615903D01*
X79628423Y-73914000D01*
X79541693Y-73914000D01*
X79508033Y-73913638D01*
X79479665Y-73912649D01*
X79459480Y-73911184D01*
X79450370Y-73909390D01*
X79450259Y-73909296D01*
X79449739Y-73901839D01*
X79449235Y-73881019D01*
X79448751Y-73847586D01*
X79448288Y-73802289D01*
X79447851Y-73745876D01*
X79447443Y-73679097D01*
X79447066Y-73602701D01*
X79446724Y-73517437D01*
X79446419Y-73424053D01*
X79446155Y-73323298D01*
X79445936Y-73215922D01*
X79445763Y-73102674D01*
X79445640Y-72984302D01*
X79445571Y-72861555D01*
X79445555Y-72769824D01*
X79445555Y-72072635D01*
X79630147Y-72072635D01*
X79631370Y-72122295D01*
X79634506Y-72169303D01*
X79639461Y-72209880D01*
X79646141Y-72240250D01*
X79646206Y-72240458D01*
X79662611Y-72275543D01*
X79686928Y-72306484D01*
X79715753Y-72329530D01*
X79735166Y-72338460D01*
X79766450Y-72344622D01*
X79804180Y-72346658D01*
X79841279Y-72344473D01*
X79863790Y-72340187D01*
X79898832Y-72323429D01*
X79929409Y-72294856D01*
X79953287Y-72256589D01*
X79954368Y-72254232D01*
X79960229Y-72240392D01*
X79964537Y-72227080D01*
X79967530Y-72211856D01*
X79969447Y-72192280D01*
X79970527Y-72165912D01*
X79971010Y-72130311D01*
X79971134Y-72083083D01*
X79970725Y-72025789D01*
X79969183Y-71980440D01*
X79966121Y-71944892D01*
X79961152Y-71916997D01*
X79953891Y-71894611D01*
X79943949Y-71875588D01*
X79930941Y-71857782D01*
X79930417Y-71857144D01*
X79901266Y-71829992D01*
X79865948Y-71813011D01*
X79822170Y-71805266D01*
X79801592Y-71804544D01*
X79752570Y-71809270D01*
X79712682Y-71824173D01*
X79681254Y-71849839D01*
X79657610Y-71886852D01*
X79641075Y-71935797D01*
X79638890Y-71945500D01*
X79633813Y-71980460D01*
X79630930Y-72024097D01*
X79630147Y-72072635D01*
X79445555Y-72072635D01*
X79445555Y-71635056D01*
X79629000Y-71635056D01*
X79629000Y-71720667D01*
X79659479Y-71695692D01*
X79706807Y-71664370D01*
X79761742Y-71640314D01*
X79815064Y-71626608D01*
X79874584Y-71623642D01*
X79934112Y-71633473D01*
G36*
X85771587Y-73021770D02*
G01*
X85838679Y-73038253D01*
X85901187Y-73067855D01*
X85958399Y-73110380D01*
X85972459Y-73123670D01*
X86007159Y-73161961D01*
X86033910Y-73201230D01*
X86053524Y-73243880D01*
X86066811Y-73292316D01*
X86074582Y-73348941D01*
X86077650Y-73416159D01*
X86077778Y-73435705D01*
X86077778Y-73540056D01*
X85527175Y-73540056D01*
X85530431Y-73555931D01*
X85533726Y-73573466D01*
X85537601Y-73595976D01*
X85538210Y-73599700D01*
X85552342Y-73646063D01*
X85577706Y-73685131D01*
X85612938Y-73715959D01*
X85656668Y-73737604D01*
X85707529Y-73749121D01*
X85756190Y-73750189D01*
X85808274Y-73742119D01*
X85855206Y-73724014D01*
X85901510Y-73694124D01*
X85901933Y-73693800D01*
X85934228Y-73669010D01*
X85995419Y-73721508D01*
X86019698Y-73742815D01*
X86039418Y-73761031D01*
X86052424Y-73774104D01*
X86056611Y-73779795D01*
X86051750Y-73786984D01*
X86038871Y-73800815D01*
X86020528Y-73818582D01*
X86016042Y-73822725D01*
X85961221Y-73863578D01*
X85896924Y-73894861D01*
X85848754Y-73910200D01*
X85811630Y-73916618D01*
X85766051Y-73919802D01*
X85717296Y-73919759D01*
X85670643Y-73916497D01*
X85631371Y-73910024D01*
X85630773Y-73909880D01*
X85564437Y-73886975D01*
X85505969Y-73852594D01*
X85455951Y-73807346D01*
X85414968Y-73751841D01*
X85383603Y-73686688D01*
X85367479Y-73634850D01*
X85360881Y-73597546D01*
X85356555Y-73550330D01*
X85354502Y-73497218D01*
X85354721Y-73442225D01*
X85357214Y-73389366D01*
X85358337Y-73378361D01*
X85531799Y-73378361D01*
X85533097Y-73388122D01*
X85533218Y-73388256D01*
X85540972Y-73389233D01*
X85560932Y-73390112D01*
X85591196Y-73390853D01*
X85629860Y-73391421D01*
X85675019Y-73391778D01*
X85719921Y-73391889D01*
X85902991Y-73391889D01*
X85898027Y-73358375D01*
X85884923Y-73308130D01*
X85862275Y-73264208D01*
X85831649Y-73228627D01*
X85794610Y-73203405D01*
X85770762Y-73194306D01*
X85732109Y-73188610D01*
X85689306Y-73190393D01*
X85648867Y-73199056D01*
X85628363Y-73207352D01*
X85593367Y-73232253D01*
X85564432Y-73266502D01*
X85550443Y-73292620D01*
X85543774Y-73312355D01*
X85537921Y-73336125D01*
X85533668Y-73359578D01*
X85531799Y-73378361D01*
X85358337Y-73378361D01*
X85361982Y-73342656D01*
X85367417Y-73312489D01*
X85390144Y-73241281D01*
X85422539Y-73178256D01*
X85463684Y-73124419D01*
X85512661Y-73080773D01*
X85568553Y-73048324D01*
X85626509Y-73028944D01*
X85700626Y-73018602D01*
X85771587Y-73021770D01*
G37*
X85771587Y-73021770D02*
X85838679Y-73038253D01*
X85901187Y-73067855D01*
X85958399Y-73110380D01*
X85972459Y-73123670D01*
X86007159Y-73161961D01*
X86033910Y-73201230D01*
X86053524Y-73243880D01*
X86066811Y-73292316D01*
X86074582Y-73348941D01*
X86077650Y-73416159D01*
X86077778Y-73435705D01*
X86077778Y-73540056D01*
X85527175Y-73540056D01*
X85530431Y-73555931D01*
X85533726Y-73573466D01*
X85537601Y-73595976D01*
X85538210Y-73599700D01*
X85552342Y-73646063D01*
X85577706Y-73685131D01*
X85612938Y-73715959D01*
X85656668Y-73737604D01*
X85707529Y-73749121D01*
X85756190Y-73750189D01*
X85808274Y-73742119D01*
X85855206Y-73724014D01*
X85901510Y-73694124D01*
X85901933Y-73693800D01*
X85934228Y-73669010D01*
X85995419Y-73721508D01*
X86019698Y-73742815D01*
X86039418Y-73761031D01*
X86052424Y-73774104D01*
X86056611Y-73779795D01*
X86051750Y-73786984D01*
X86038871Y-73800815D01*
X86020528Y-73818582D01*
X86016042Y-73822725D01*
X85961221Y-73863578D01*
X85896924Y-73894861D01*
X85848754Y-73910200D01*
X85811630Y-73916618D01*
X85766051Y-73919802D01*
X85717296Y-73919759D01*
X85670643Y-73916497D01*
X85631371Y-73910024D01*
X85630773Y-73909880D01*
X85564437Y-73886975D01*
X85505969Y-73852594D01*
X85455951Y-73807346D01*
X85414968Y-73751841D01*
X85383603Y-73686688D01*
X85367479Y-73634850D01*
X85360881Y-73597546D01*
X85356555Y-73550330D01*
X85354502Y-73497218D01*
X85354721Y-73442225D01*
X85357214Y-73389366D01*
X85358337Y-73378361D01*
X85531799Y-73378361D01*
X85533097Y-73388122D01*
X85533218Y-73388256D01*
X85540972Y-73389233D01*
X85560932Y-73390112D01*
X85591196Y-73390853D01*
X85629860Y-73391421D01*
X85675019Y-73391778D01*
X85719921Y-73391889D01*
X85902991Y-73391889D01*
X85898027Y-73358375D01*
X85884923Y-73308130D01*
X85862275Y-73264208D01*
X85831649Y-73228627D01*
X85794610Y-73203405D01*
X85770762Y-73194306D01*
X85732109Y-73188610D01*
X85689306Y-73190393D01*
X85648867Y-73199056D01*
X85628363Y-73207352D01*
X85593367Y-73232253D01*
X85564432Y-73266502D01*
X85550443Y-73292620D01*
X85543774Y-73312355D01*
X85537921Y-73336125D01*
X85533668Y-73359578D01*
X85531799Y-73378361D01*
X85358337Y-73378361D01*
X85361982Y-73342656D01*
X85367417Y-73312489D01*
X85390144Y-73241281D01*
X85422539Y-73178256D01*
X85463684Y-73124419D01*
X85512661Y-73080773D01*
X85568553Y-73048324D01*
X85626509Y-73028944D01*
X85700626Y-73018602D01*
X85771587Y-73021770D01*
G36*
X84235548Y-73018908D02*
G01*
X84300684Y-73025501D01*
X84361128Y-73038480D01*
X84409276Y-73055905D01*
X84445492Y-73076819D01*
X84480240Y-73104497D01*
X84509314Y-73135166D01*
X84526675Y-73161250D01*
X84534274Y-73177230D01*
X84540659Y-73193754D01*
X84545934Y-73212163D01*
X84550203Y-73233801D01*
X84553571Y-73260007D01*
X84556142Y-73292124D01*
X84558021Y-73331495D01*
X84559312Y-73379459D01*
X84560121Y-73437359D01*
X84560550Y-73506538D01*
X84560706Y-73588335D01*
X84560711Y-73598264D01*
X84560833Y-73914000D01*
X84377389Y-73914000D01*
X84377389Y-73835898D01*
X84356273Y-73859947D01*
X84331737Y-73882594D01*
X84302212Y-73899065D01*
X84265371Y-73910121D01*
X84218888Y-73916521D01*
X84176305Y-73918724D01*
X84125777Y-73918946D01*
X84086855Y-73916515D01*
X84057255Y-73911279D01*
X84054602Y-73910562D01*
X83995409Y-73887676D01*
X83943832Y-73854933D01*
X83901648Y-73813730D01*
X83871252Y-73766725D01*
X83862263Y-73747022D01*
X83856537Y-73729328D01*
X83853356Y-73709454D01*
X83852001Y-73683210D01*
X83851750Y-73652945D01*
X83851913Y-73639177D01*
X84017931Y-73639177D01*
X84022083Y-73671798D01*
X84037042Y-73701634D01*
X84058276Y-73722352D01*
X84078454Y-73734379D01*
X84101286Y-73742589D01*
X84129645Y-73747492D01*
X84166404Y-73749595D01*
X84211583Y-73749464D01*
X84252105Y-73748131D01*
X84281635Y-73745726D01*
X84303277Y-73741831D01*
X84320136Y-73736030D01*
X84323603Y-73734411D01*
X84346505Y-73718694D01*
X84362471Y-73696264D01*
X84372292Y-73665159D01*
X84376760Y-73623412D01*
X84377234Y-73601272D01*
X84377389Y-73539015D01*
X84234514Y-73541299D01*
X84184337Y-73542263D01*
X84146187Y-73543461D01*
X84117980Y-73545081D01*
X84097633Y-73547311D01*
X84083061Y-73550338D01*
X84072180Y-73554351D01*
X84068396Y-73556273D01*
X84041281Y-73578248D01*
X84024395Y-73606938D01*
X84017931Y-73639177D01*
X83851913Y-73639177D01*
X83852170Y-73617526D01*
X83853885Y-73591994D01*
X83857577Y-73572136D01*
X83863931Y-73553739D01*
X83870054Y-73540056D01*
X83899860Y-73492827D01*
X83940849Y-73452078D01*
X83990758Y-73420008D01*
X83996389Y-73417250D01*
X84042250Y-73395417D01*
X84209819Y-73393093D01*
X84377389Y-73390770D01*
X84377362Y-73326065D01*
X84375507Y-73283502D01*
X84368980Y-73250640D01*
X84356284Y-73226308D01*
X84335922Y-73209334D01*
X84306396Y-73198546D01*
X84266208Y-73192771D01*
X84213860Y-73190839D01*
X84204528Y-73190808D01*
X84165619Y-73191055D01*
X84137696Y-73192071D01*
X84117639Y-73194265D01*
X84102326Y-73198044D01*
X84088638Y-73203817D01*
X84083055Y-73206704D01*
X84063454Y-73219321D01*
X84048827Y-73232539D01*
X84045472Y-73237237D01*
X84036045Y-73247233D01*
X84028392Y-73248323D01*
X84017028Y-73241766D01*
X83998838Y-73228955D01*
X83976530Y-73212068D01*
X83952816Y-73193283D01*
X83930406Y-73174778D01*
X83912008Y-73158730D01*
X83900333Y-73147319D01*
X83897611Y-73143217D01*
X83903027Y-73132509D01*
X83917316Y-73116651D01*
X83937533Y-73098208D01*
X83960738Y-73079746D01*
X83983987Y-73063833D01*
X83997228Y-73056325D01*
X84046561Y-73037409D01*
X84105030Y-73024866D01*
X84169178Y-73018697D01*
X84235548Y-73018908D01*
G37*
X84235548Y-73018908D02*
X84300684Y-73025501D01*
X84361128Y-73038480D01*
X84409276Y-73055905D01*
X84445492Y-73076819D01*
X84480240Y-73104497D01*
X84509314Y-73135166D01*
X84526675Y-73161250D01*
X84534274Y-73177230D01*
X84540659Y-73193754D01*
X84545934Y-73212163D01*
X84550203Y-73233801D01*
X84553571Y-73260007D01*
X84556142Y-73292124D01*
X84558021Y-73331495D01*
X84559312Y-73379459D01*
X84560121Y-73437359D01*
X84560550Y-73506538D01*
X84560706Y-73588335D01*
X84560711Y-73598264D01*
X84560833Y-73914000D01*
X84377389Y-73914000D01*
X84377389Y-73835898D01*
X84356273Y-73859947D01*
X84331737Y-73882594D01*
X84302212Y-73899065D01*
X84265371Y-73910121D01*
X84218888Y-73916521D01*
X84176305Y-73918724D01*
X84125777Y-73918946D01*
X84086855Y-73916515D01*
X84057255Y-73911279D01*
X84054602Y-73910562D01*
X83995409Y-73887676D01*
X83943832Y-73854933D01*
X83901648Y-73813730D01*
X83871252Y-73766725D01*
X83862263Y-73747022D01*
X83856537Y-73729328D01*
X83853356Y-73709454D01*
X83852001Y-73683210D01*
X83851750Y-73652945D01*
X83851913Y-73639177D01*
X84017931Y-73639177D01*
X84022083Y-73671798D01*
X84037042Y-73701634D01*
X84058276Y-73722352D01*
X84078454Y-73734379D01*
X84101286Y-73742589D01*
X84129645Y-73747492D01*
X84166404Y-73749595D01*
X84211583Y-73749464D01*
X84252105Y-73748131D01*
X84281635Y-73745726D01*
X84303277Y-73741831D01*
X84320136Y-73736030D01*
X84323603Y-73734411D01*
X84346505Y-73718694D01*
X84362471Y-73696264D01*
X84372292Y-73665159D01*
X84376760Y-73623412D01*
X84377234Y-73601272D01*
X84377389Y-73539015D01*
X84234514Y-73541299D01*
X84184337Y-73542263D01*
X84146187Y-73543461D01*
X84117980Y-73545081D01*
X84097633Y-73547311D01*
X84083061Y-73550338D01*
X84072180Y-73554351D01*
X84068396Y-73556273D01*
X84041281Y-73578248D01*
X84024395Y-73606938D01*
X84017931Y-73639177D01*
X83851913Y-73639177D01*
X83852170Y-73617526D01*
X83853885Y-73591994D01*
X83857577Y-73572136D01*
X83863931Y-73553739D01*
X83870054Y-73540056D01*
X83899860Y-73492827D01*
X83940849Y-73452078D01*
X83990758Y-73420008D01*
X83996389Y-73417250D01*
X84042250Y-73395417D01*
X84209819Y-73393093D01*
X84377389Y-73390770D01*
X84377362Y-73326065D01*
X84375507Y-73283502D01*
X84368980Y-73250640D01*
X84356284Y-73226308D01*
X84335922Y-73209334D01*
X84306396Y-73198546D01*
X84266208Y-73192771D01*
X84213860Y-73190839D01*
X84204528Y-73190808D01*
X84165619Y-73191055D01*
X84137696Y-73192071D01*
X84117639Y-73194265D01*
X84102326Y-73198044D01*
X84088638Y-73203817D01*
X84083055Y-73206704D01*
X84063454Y-73219321D01*
X84048827Y-73232539D01*
X84045472Y-73237237D01*
X84036045Y-73247233D01*
X84028392Y-73248323D01*
X84017028Y-73241766D01*
X83998838Y-73228955D01*
X83976530Y-73212068D01*
X83952816Y-73193283D01*
X83930406Y-73174778D01*
X83912008Y-73158730D01*
X83900333Y-73147319D01*
X83897611Y-73143217D01*
X83903027Y-73132509D01*
X83917316Y-73116651D01*
X83937533Y-73098208D01*
X83960738Y-73079746D01*
X83983987Y-73063833D01*
X83997228Y-73056325D01*
X84046561Y-73037409D01*
X84105030Y-73024866D01*
X84169178Y-73018697D01*
X84235548Y-73018908D01*
G36*
X82486500Y-73914000D02*
G01*
X82310111Y-73914000D01*
X82310111Y-73820636D01*
X82280995Y-73846940D01*
X82258717Y-73864045D01*
X82230127Y-73882018D01*
X82205939Y-73894743D01*
X82180828Y-73905532D01*
X82158214Y-73912332D01*
X82132887Y-73916238D01*
X82099636Y-73918342D01*
X82092179Y-73918622D01*
X82046811Y-73918654D01*
X82011876Y-73915344D01*
X81996139Y-73911609D01*
X81935584Y-73884706D01*
X81884324Y-73847852D01*
X81843210Y-73801991D01*
X81813091Y-73748072D01*
X81794945Y-73687706D01*
X81789010Y-73646161D01*
X81784962Y-73595942D01*
X81782725Y-73539655D01*
X81782227Y-73480063D01*
X81964660Y-73480063D01*
X81965408Y-73525135D01*
X81967456Y-73565304D01*
X81970829Y-73596776D01*
X81972314Y-73604972D01*
X81984932Y-73650025D01*
X82002190Y-73683642D01*
X82025982Y-73708228D01*
X82058206Y-73726188D01*
X82071969Y-73731404D01*
X82113998Y-73742174D01*
X82152996Y-73742959D01*
X82195157Y-73734043D01*
X82232951Y-73715644D01*
X82264328Y-73685433D01*
X82288030Y-73644731D01*
X82293350Y-73630974D01*
X82298396Y-73614182D01*
X82302017Y-73595540D01*
X82304428Y-73572413D01*
X82305844Y-73542170D01*
X82306483Y-73502176D01*
X82306583Y-73469500D01*
X82305903Y-73412121D01*
X82303519Y-73366512D01*
X82298918Y-73330383D01*
X82291588Y-73301442D01*
X82281013Y-73277400D01*
X82266681Y-73255964D01*
X82255843Y-73243155D01*
X82230239Y-73220692D01*
X82200144Y-73206634D01*
X82162270Y-73199787D01*
X82133659Y-73198637D01*
X82084028Y-73203906D01*
X82043217Y-73220162D01*
X82011064Y-73247535D01*
X81987406Y-73286155D01*
X81974162Y-73326599D01*
X81969963Y-73353354D01*
X81966963Y-73390379D01*
X81965187Y-73433880D01*
X81964660Y-73480063D01*
X81782227Y-73480063D01*
X81782225Y-73479903D01*
X81783385Y-73419290D01*
X81786130Y-73360419D01*
X81790385Y-73305895D01*
X81796074Y-73258320D01*
X81803122Y-73220300D01*
X81809079Y-73200082D01*
X81835602Y-73149020D01*
X81873422Y-73103585D01*
X81920148Y-73065959D01*
X81973393Y-73038324D01*
X81993953Y-73031164D01*
X82056925Y-73018945D01*
X82119006Y-73020806D01*
X82180171Y-73036742D01*
X82240396Y-73066746D01*
X82272844Y-73089043D01*
X82310111Y-73117179D01*
X82310111Y-72672222D01*
X82486500Y-72672222D01*
X82486500Y-73914000D01*
G37*
X82486500Y-73914000D02*
X82310111Y-73914000D01*
X82310111Y-73820636D01*
X82280995Y-73846940D01*
X82258717Y-73864045D01*
X82230127Y-73882018D01*
X82205939Y-73894743D01*
X82180828Y-73905532D01*
X82158214Y-73912332D01*
X82132887Y-73916238D01*
X82099636Y-73918342D01*
X82092179Y-73918622D01*
X82046811Y-73918654D01*
X82011876Y-73915344D01*
X81996139Y-73911609D01*
X81935584Y-73884706D01*
X81884324Y-73847852D01*
X81843210Y-73801991D01*
X81813091Y-73748072D01*
X81794945Y-73687706D01*
X81789010Y-73646161D01*
X81784962Y-73595942D01*
X81782725Y-73539655D01*
X81782227Y-73480063D01*
X81964660Y-73480063D01*
X81965408Y-73525135D01*
X81967456Y-73565304D01*
X81970829Y-73596776D01*
X81972314Y-73604972D01*
X81984932Y-73650025D01*
X82002190Y-73683642D01*
X82025982Y-73708228D01*
X82058206Y-73726188D01*
X82071969Y-73731404D01*
X82113998Y-73742174D01*
X82152996Y-73742959D01*
X82195157Y-73734043D01*
X82232951Y-73715644D01*
X82264328Y-73685433D01*
X82288030Y-73644731D01*
X82293350Y-73630974D01*
X82298396Y-73614182D01*
X82302017Y-73595540D01*
X82304428Y-73572413D01*
X82305844Y-73542170D01*
X82306483Y-73502176D01*
X82306583Y-73469500D01*
X82305903Y-73412121D01*
X82303519Y-73366512D01*
X82298918Y-73330383D01*
X82291588Y-73301442D01*
X82281013Y-73277400D01*
X82266681Y-73255964D01*
X82255843Y-73243155D01*
X82230239Y-73220692D01*
X82200144Y-73206634D01*
X82162270Y-73199787D01*
X82133659Y-73198637D01*
X82084028Y-73203906D01*
X82043217Y-73220162D01*
X82011064Y-73247535D01*
X81987406Y-73286155D01*
X81974162Y-73326599D01*
X81969963Y-73353354D01*
X81966963Y-73390379D01*
X81965187Y-73433880D01*
X81964660Y-73480063D01*
X81782227Y-73480063D01*
X81782225Y-73479903D01*
X81783385Y-73419290D01*
X81786130Y-73360419D01*
X81790385Y-73305895D01*
X81796074Y-73258320D01*
X81803122Y-73220300D01*
X81809079Y-73200082D01*
X81835602Y-73149020D01*
X81873422Y-73103585D01*
X81920148Y-73065959D01*
X81973393Y-73038324D01*
X81993953Y-73031164D01*
X82056925Y-73018945D01*
X82119006Y-73020806D01*
X82180171Y-73036742D01*
X82240396Y-73066746D01*
X82272844Y-73089043D01*
X82310111Y-73117179D01*
X82310111Y-72672222D01*
X82486500Y-72672222D01*
X82486500Y-73914000D01*
G36*
X80678463Y-73021986D02*
G01*
X80714925Y-73023413D01*
X80743255Y-73026079D01*
X80766431Y-73030241D01*
X80782282Y-73034513D01*
X80844012Y-73057930D01*
X80893476Y-73087027D01*
X80931745Y-73122878D01*
X80959891Y-73166554D01*
X80978984Y-73219128D01*
X80982782Y-73235250D01*
X80985024Y-73253673D01*
X80986903Y-73285977D01*
X80988413Y-73331934D01*
X80989549Y-73391320D01*
X80990307Y-73463907D01*
X80990680Y-73549469D01*
X80990722Y-73593320D01*
X80990722Y-73914000D01*
X80814333Y-73914000D01*
X80814333Y-73833451D01*
X80783671Y-73863543D01*
X80752409Y-73888298D01*
X80715663Y-73905553D01*
X80671172Y-73915985D01*
X80616678Y-73920267D01*
X80593218Y-73920425D01*
X80558479Y-73919224D01*
X80525073Y-73916530D01*
X80498091Y-73912816D01*
X80488458Y-73910686D01*
X80426180Y-73887312D01*
X80374159Y-73854365D01*
X80332523Y-73811946D01*
X80304829Y-73767374D01*
X80293754Y-73743676D01*
X80286905Y-73724228D01*
X80283293Y-73704118D01*
X80281925Y-73678435D01*
X80281795Y-73656321D01*
X80450116Y-73656321D01*
X80455210Y-73676666D01*
X80468829Y-73703479D01*
X80489207Y-73723654D01*
X80517792Y-73737748D01*
X80556035Y-73746320D01*
X80605384Y-73749927D01*
X80645218Y-73749848D01*
X80684656Y-73748550D01*
X80712979Y-73746530D01*
X80733177Y-73743359D01*
X80748242Y-73738609D01*
X80758107Y-73733676D01*
X80778368Y-73717852D01*
X80793079Y-73695761D01*
X80803178Y-73665135D01*
X80809606Y-73623705D01*
X80811231Y-73605320D01*
X80816153Y-73540056D01*
X80683770Y-73540056D01*
X80630213Y-73540559D01*
X80585214Y-73542010D01*
X80550450Y-73544321D01*
X80527597Y-73547404D01*
X80523290Y-73548474D01*
X80489058Y-73565054D01*
X80464648Y-73590067D01*
X80451266Y-73621245D01*
X80450116Y-73656321D01*
X80281795Y-73656321D01*
X80281775Y-73653093D01*
X80282384Y-73619019D01*
X80284659Y-73594033D01*
X80289520Y-73573131D01*
X80297886Y-73551312D01*
X80302273Y-73541527D01*
X80330282Y-73495875D01*
X80368635Y-73455504D01*
X80413679Y-73423881D01*
X80438648Y-73412001D01*
X80452750Y-73406777D01*
X80466988Y-73402724D01*
X80483505Y-73399635D01*
X80504440Y-73397305D01*
X80531937Y-73395525D01*
X80568135Y-73394091D01*
X80615175Y-73392796D01*
X80645000Y-73392100D01*
X80810805Y-73388361D01*
X80809796Y-73322263D01*
X80807952Y-73283032D01*
X80802840Y-73254724D01*
X80792997Y-73234263D01*
X80776957Y-73218576D01*
X80753906Y-73204919D01*
X80739225Y-73198626D01*
X80722541Y-73194480D01*
X80700594Y-73192072D01*
X80670126Y-73190992D01*
X80641472Y-73190807D01*
X80598130Y-73191196D01*
X80565980Y-73192829D01*
X80542114Y-73196401D01*
X80523622Y-73202607D01*
X80507597Y-73212144D01*
X80491130Y-73225708D01*
X80489528Y-73227148D01*
X80461412Y-73252549D01*
X80394456Y-73201334D01*
X80368500Y-73181258D01*
X80347232Y-73164382D01*
X80332837Y-73152472D01*
X80327500Y-73147292D01*
X80327500Y-73147284D01*
X80330948Y-73140011D01*
X80339133Y-73126694D01*
X80357207Y-73106662D01*
X80384905Y-73084838D01*
X80418412Y-73063728D01*
X80453910Y-73045840D01*
X80474548Y-73037708D01*
X80494694Y-73031301D01*
X80513972Y-73026819D01*
X80535558Y-73023933D01*
X80562629Y-73022315D01*
X80598364Y-73021636D01*
X80630889Y-73021544D01*
X80678463Y-73021986D01*
G37*
X80678463Y-73021986D02*
X80714925Y-73023413D01*
X80743255Y-73026079D01*
X80766431Y-73030241D01*
X80782282Y-73034513D01*
X80844012Y-73057930D01*
X80893476Y-73087027D01*
X80931745Y-73122878D01*
X80959891Y-73166554D01*
X80978984Y-73219128D01*
X80982782Y-73235250D01*
X80985024Y-73253673D01*
X80986903Y-73285977D01*
X80988413Y-73331934D01*
X80989549Y-73391320D01*
X80990307Y-73463907D01*
X80990680Y-73549469D01*
X80990722Y-73593320D01*
X80990722Y-73914000D01*
X80814333Y-73914000D01*
X80814333Y-73833451D01*
X80783671Y-73863543D01*
X80752409Y-73888298D01*
X80715663Y-73905553D01*
X80671172Y-73915985D01*
X80616678Y-73920267D01*
X80593218Y-73920425D01*
X80558479Y-73919224D01*
X80525073Y-73916530D01*
X80498091Y-73912816D01*
X80488458Y-73910686D01*
X80426180Y-73887312D01*
X80374159Y-73854365D01*
X80332523Y-73811946D01*
X80304829Y-73767374D01*
X80293754Y-73743676D01*
X80286905Y-73724228D01*
X80283293Y-73704118D01*
X80281925Y-73678435D01*
X80281795Y-73656321D01*
X80450116Y-73656321D01*
X80455210Y-73676666D01*
X80468829Y-73703479D01*
X80489207Y-73723654D01*
X80517792Y-73737748D01*
X80556035Y-73746320D01*
X80605384Y-73749927D01*
X80645218Y-73749848D01*
X80684656Y-73748550D01*
X80712979Y-73746530D01*
X80733177Y-73743359D01*
X80748242Y-73738609D01*
X80758107Y-73733676D01*
X80778368Y-73717852D01*
X80793079Y-73695761D01*
X80803178Y-73665135D01*
X80809606Y-73623705D01*
X80811231Y-73605320D01*
X80816153Y-73540056D01*
X80683770Y-73540056D01*
X80630213Y-73540559D01*
X80585214Y-73542010D01*
X80550450Y-73544321D01*
X80527597Y-73547404D01*
X80523290Y-73548474D01*
X80489058Y-73565054D01*
X80464648Y-73590067D01*
X80451266Y-73621245D01*
X80450116Y-73656321D01*
X80281795Y-73656321D01*
X80281775Y-73653093D01*
X80282384Y-73619019D01*
X80284659Y-73594033D01*
X80289520Y-73573131D01*
X80297886Y-73551312D01*
X80302273Y-73541527D01*
X80330282Y-73495875D01*
X80368635Y-73455504D01*
X80413679Y-73423881D01*
X80438648Y-73412001D01*
X80452750Y-73406777D01*
X80466988Y-73402724D01*
X80483505Y-73399635D01*
X80504440Y-73397305D01*
X80531937Y-73395525D01*
X80568135Y-73394091D01*
X80615175Y-73392796D01*
X80645000Y-73392100D01*
X80810805Y-73388361D01*
X80809796Y-73322263D01*
X80807952Y-73283032D01*
X80802840Y-73254724D01*
X80792997Y-73234263D01*
X80776957Y-73218576D01*
X80753906Y-73204919D01*
X80739225Y-73198626D01*
X80722541Y-73194480D01*
X80700594Y-73192072D01*
X80670126Y-73190992D01*
X80641472Y-73190807D01*
X80598130Y-73191196D01*
X80565980Y-73192829D01*
X80542114Y-73196401D01*
X80523622Y-73202607D01*
X80507597Y-73212144D01*
X80491130Y-73225708D01*
X80489528Y-73227148D01*
X80461412Y-73252549D01*
X80394456Y-73201334D01*
X80368500Y-73181258D01*
X80347232Y-73164382D01*
X80332837Y-73152472D01*
X80327500Y-73147292D01*
X80327500Y-73147284D01*
X80330948Y-73140011D01*
X80339133Y-73126694D01*
X80357207Y-73106662D01*
X80384905Y-73084838D01*
X80418412Y-73063728D01*
X80453910Y-73045840D01*
X80474548Y-73037708D01*
X80494694Y-73031301D01*
X80513972Y-73026819D01*
X80535558Y-73023933D01*
X80562629Y-73022315D01*
X80598364Y-73021636D01*
X80630889Y-73021544D01*
X80678463Y-73021986D01*
D12*
%TO.C,C4*%
X82657733Y-92073000D02*
X82950267Y-92073000D01*
X82657733Y-93093000D02*
X82950267Y-93093000D01*
%TO.C,L1*%
X100110000Y-56064000D02*
X100110000Y-66364000D01*
X110710000Y-56064000D02*
X110710000Y-66364000D01*
%TO.C,D1*%
X97110000Y-63118000D02*
X97110000Y-59818000D01*
X97110000Y-59818000D02*
X90210000Y-59818000D01*
X97110000Y-63118000D02*
X90210000Y-63118000D01*
%TO.C,U3*%
X111760000Y-90658000D02*
X108310000Y-90658000D01*
X111760000Y-90658000D02*
X113710000Y-90658000D01*
X111760000Y-95778000D02*
X109810000Y-95778000D01*
X111760000Y-95778000D02*
X113710000Y-95778000D01*
%TO.C,C3*%
X130424437Y-71448000D02*
X129360000Y-72512437D01*
X138815563Y-71448000D02*
X139880000Y-72512437D01*
X138815563Y-71448000D02*
X135930000Y-71448000D01*
X130424437Y-71448000D02*
X133310000Y-71448000D01*
X129360000Y-72512437D02*
X129360000Y-81968000D01*
X139880000Y-72512437D02*
X139880000Y-81968000D01*
X139880000Y-81968000D02*
X135930000Y-81968000D01*
X129360000Y-81968000D02*
X133310000Y-81968000D01*
%TO.C,J2*%
X94294000Y-105858000D02*
X94294000Y-107188000D01*
X92964000Y-105858000D02*
X94294000Y-105858000D01*
X91694000Y-105858000D02*
X91694000Y-108518000D01*
X91694000Y-108518000D02*
X84014000Y-108518000D01*
X91694000Y-105858000D02*
X84014000Y-105858000D01*
X84014000Y-105858000D02*
X84014000Y-108518000D01*
%TO.C,C8*%
X89057500Y-77250500D02*
X89057500Y-77875500D01*
X88745000Y-77563000D02*
X89370000Y-77563000D01*
X89610000Y-80943563D02*
X90674437Y-82008000D01*
X89610000Y-77552437D02*
X90674437Y-76488000D01*
X89610000Y-77552437D02*
X89610000Y-78188000D01*
X89610000Y-80943563D02*
X89610000Y-80308000D01*
X90674437Y-82008000D02*
X95130000Y-82008000D01*
X90674437Y-76488000D02*
X95130000Y-76488000D01*
X95130000Y-76488000D02*
X95130000Y-78188000D01*
X95130000Y-82008000D02*
X95130000Y-80308000D01*
%TO.C,C2*%
X146777500Y-73395500D02*
X146152500Y-73395500D01*
X146465000Y-73083000D02*
X146465000Y-73708000D01*
X143084437Y-73948000D02*
X142020000Y-75012437D01*
X146475563Y-73948000D02*
X147540000Y-75012437D01*
X146475563Y-73948000D02*
X145840000Y-73948000D01*
X143084437Y-73948000D02*
X143720000Y-73948000D01*
X142020000Y-75012437D02*
X142020000Y-79468000D01*
X147540000Y-75012437D02*
X147540000Y-79468000D01*
X147540000Y-79468000D02*
X145840000Y-79468000D01*
X142020000Y-79468000D02*
X143720000Y-79468000D01*
%TO.C,C1*%
X136617500Y-58409500D02*
X135992500Y-58409500D01*
X136305000Y-58097000D02*
X136305000Y-58722000D01*
X132924437Y-58962000D02*
X131860000Y-60026437D01*
X136315563Y-58962000D02*
X137380000Y-60026437D01*
X136315563Y-58962000D02*
X135680000Y-58962000D01*
X132924437Y-58962000D02*
X133560000Y-58962000D01*
X131860000Y-60026437D02*
X131860000Y-64482000D01*
X137380000Y-60026437D02*
X137380000Y-64482000D01*
X137380000Y-64482000D02*
X135680000Y-64482000D01*
X131860000Y-64482000D02*
X133560000Y-64482000D01*
%TO.C,X1*%
X80750000Y-97774000D02*
X80500000Y-97774000D01*
X80750000Y-98314000D02*
X80750000Y-97774000D01*
X84350000Y-95344000D02*
X84350000Y-95774000D01*
X80750000Y-95344000D02*
X84350000Y-95344000D01*
X80750000Y-95774000D02*
X80750000Y-95344000D01*
X80500000Y-95774000D02*
X80750000Y-95774000D01*
X84350000Y-97774000D02*
X84350000Y-98314000D01*
X80750000Y-100744000D02*
X80750000Y-100314000D01*
X84350000Y-100744000D02*
X80750000Y-100744000D01*
X84350000Y-100314000D02*
X84350000Y-100744000D01*
%TO.C,C5*%
X102214437Y-71349000D02*
X101150000Y-72413437D01*
X108605563Y-71349000D02*
X109670000Y-72413437D01*
X108605563Y-71349000D02*
X106720000Y-71349000D01*
X102214437Y-71349000D02*
X104100000Y-71349000D01*
X101150000Y-72413437D02*
X101150000Y-79869000D01*
X109670000Y-72413437D02*
X109670000Y-79869000D01*
X109670000Y-79869000D02*
X106720000Y-79869000D01*
X101150000Y-79869000D02*
X104100000Y-79869000D01*
%TO.C,RV2*%
X126920000Y-100188000D02*
X126920000Y-94948000D01*
X132160000Y-100188000D02*
X132160000Y-94948000D01*
X126920000Y-100188000D02*
X128300000Y-100188000D01*
X130780000Y-100188000D02*
X132160000Y-100188000D01*
X126920000Y-94948000D02*
X127501000Y-94948000D01*
X129280000Y-94948000D02*
X129800000Y-94948000D01*
X131580000Y-94948000D02*
X132160000Y-94948000D01*
%TO.C,RV1*%
X104220000Y-103044000D02*
X104220000Y-108284000D01*
X98980000Y-103044000D02*
X98980000Y-108284000D01*
X104220000Y-103044000D02*
X102840000Y-103044000D01*
X100360000Y-103044000D02*
X98980000Y-103044000D01*
X104220000Y-108284000D02*
X103639000Y-108284000D01*
X101860000Y-108284000D02*
X101340000Y-108284000D01*
X99560000Y-108284000D02*
X98980000Y-108284000D01*
D13*
%TO.C,U2*%
X89765000Y-96293000D02*
X89765000Y-96518000D01*
X93115000Y-96293000D02*
X93115000Y-96593000D01*
X93115000Y-99643000D02*
X93115000Y-99343000D01*
X89765000Y-99643000D02*
X89765000Y-99343000D01*
X89765000Y-96293000D02*
X93115000Y-96293000D01*
X89765000Y-99643000D02*
X93115000Y-99643000D01*
X89765000Y-96518000D02*
X88540000Y-96518000D01*
D12*
%TO.C,U1*%
X125850000Y-64913000D02*
X125850000Y-63413000D01*
X125850000Y-63413000D02*
X124900000Y-63413000D01*
X124900000Y-63413000D02*
X124900000Y-58288000D01*
X115450000Y-64913000D02*
X115450000Y-63413000D01*
X115450000Y-63413000D02*
X116400000Y-63413000D01*
X116400000Y-63413000D02*
X116400000Y-62313000D01*
%TO.C,R3*%
X111505276Y-85075500D02*
X112014724Y-85075500D01*
X111505276Y-86120500D02*
X112014724Y-86120500D01*
%TO.C,R2*%
X101854724Y-98566500D02*
X101345276Y-98566500D01*
X101854724Y-97521500D02*
X101345276Y-97521500D01*
%TO.C,R1*%
X101854724Y-93740500D02*
X101345276Y-93740500D01*
X101854724Y-92695500D02*
X101345276Y-92695500D01*
%TO.C,J3*%
X149860000Y-92068000D02*
X149860000Y-107068000D01*
X149860000Y-107068000D02*
X134860000Y-107068000D01*
X134860000Y-107068000D02*
X134860000Y-92068000D01*
X134860000Y-92068000D02*
X149860000Y-92068000D01*
X149660000Y-99568000D02*
X148660000Y-98568000D01*
X149660000Y-99568000D02*
X148660000Y-100568000D01*
%TO.C,J1*%
X143450000Y-67718000D02*
X146110000Y-67718000D01*
X143450000Y-62578000D02*
X143450000Y-67718000D01*
X146110000Y-62578000D02*
X146110000Y-67718000D01*
X143450000Y-62578000D02*
X146110000Y-62578000D01*
X143450000Y-61308000D02*
X143450000Y-59978000D01*
X143450000Y-59978000D02*
X144780000Y-59978000D01*
%TO.C,C11*%
X109795000Y-100284233D02*
X109795000Y-100576767D01*
X108775000Y-100284233D02*
X108775000Y-100576767D01*
%TO.C,C10*%
X120140000Y-89554267D02*
X120140000Y-89261733D01*
X121160000Y-89554267D02*
X121160000Y-89261733D01*
%TO.C,C9*%
X90680000Y-90531733D02*
X90680000Y-90824267D01*
X89660000Y-90531733D02*
X89660000Y-90824267D01*
%TO.C,C7*%
X94490000Y-90531733D02*
X94490000Y-90824267D01*
X93470000Y-90531733D02*
X93470000Y-90824267D01*
%TO.C,C6*%
X86870000Y-90531733D02*
X86870000Y-90824267D01*
X85850000Y-90531733D02*
X85850000Y-90824267D01*
%TO.C,C4*%
D13*
X82637333Y-91510142D02*
X82589714Y-91557761D01*
X82446857Y-91605380D01*
X82351619Y-91605380D01*
X82208761Y-91557761D01*
X82113523Y-91462523D01*
X82065904Y-91367285D01*
X82018285Y-91176809D01*
X82018285Y-91033952D01*
X82065904Y-90843476D01*
X82113523Y-90748238D01*
X82208761Y-90653000D01*
X82351619Y-90605380D01*
X82446857Y-90605380D01*
X82589714Y-90653000D01*
X82637333Y-90700619D01*
X83494476Y-90938714D02*
X83494476Y-91605380D01*
X83256380Y-90557761D02*
X83018285Y-91272047D01*
X83637333Y-91272047D01*
%TO.C,SW1*%
X120078666Y-106786761D02*
X120221523Y-106834380D01*
X120459619Y-106834380D01*
X120554857Y-106786761D01*
X120602476Y-106739142D01*
X120650095Y-106643904D01*
X120650095Y-106548666D01*
X120602476Y-106453428D01*
X120554857Y-106405809D01*
X120459619Y-106358190D01*
X120269142Y-106310571D01*
X120173904Y-106262952D01*
X120126285Y-106215333D01*
X120078666Y-106120095D01*
X120078666Y-106024857D01*
X120126285Y-105929619D01*
X120173904Y-105882000D01*
X120269142Y-105834380D01*
X120507238Y-105834380D01*
X120650095Y-105882000D01*
X120983428Y-105834380D02*
X121221523Y-106834380D01*
X121412000Y-106120095D01*
X121602476Y-106834380D01*
X121840571Y-105834380D01*
X122745333Y-106834380D02*
X122173904Y-106834380D01*
X122459619Y-106834380D02*
X122459619Y-105834380D01*
X122364380Y-105977238D01*
X122269142Y-106072476D01*
X122173904Y-106120095D01*
%TO.C,L1*%
X112112380Y-61380666D02*
X112112380Y-61856857D01*
X111112380Y-61856857D01*
X112112380Y-60523523D02*
X112112380Y-61094952D01*
X112112380Y-60809238D02*
X111112380Y-60809238D01*
X111255238Y-60904476D01*
X111350476Y-60999714D01*
X111398095Y-61094952D01*
%TO.C,D1*%
X91971904Y-64420380D02*
X91971904Y-63420380D01*
X92210000Y-63420380D01*
X92352857Y-63468000D01*
X92448095Y-63563238D01*
X92495714Y-63658476D01*
X92543333Y-63848952D01*
X92543333Y-63991809D01*
X92495714Y-64182285D01*
X92448095Y-64277523D01*
X92352857Y-64372761D01*
X92210000Y-64420380D01*
X91971904Y-64420380D01*
X93495714Y-64420380D02*
X92924285Y-64420380D01*
X93210000Y-64420380D02*
X93210000Y-63420380D01*
X93114761Y-63563238D01*
X93019523Y-63658476D01*
X92924285Y-63706095D01*
%TO.C,U3*%
X110998095Y-89270380D02*
X110998095Y-90079904D01*
X111045714Y-90175142D01*
X111093333Y-90222761D01*
X111188571Y-90270380D01*
X111379047Y-90270380D01*
X111474285Y-90222761D01*
X111521904Y-90175142D01*
X111569523Y-90079904D01*
X111569523Y-89270380D01*
X111950476Y-89270380D02*
X112569523Y-89270380D01*
X112236190Y-89651333D01*
X112379047Y-89651333D01*
X112474285Y-89698952D01*
X112521904Y-89746571D01*
X112569523Y-89841809D01*
X112569523Y-90079904D01*
X112521904Y-90175142D01*
X112474285Y-90222761D01*
X112379047Y-90270380D01*
X112093333Y-90270380D01*
X111998095Y-90222761D01*
X111950476Y-90175142D01*
%TO.C,H4*%
X144272095Y-112847380D02*
X144272095Y-111847380D01*
X144272095Y-112323571D02*
X144843523Y-112323571D01*
X144843523Y-112847380D02*
X144843523Y-111847380D01*
X145748285Y-112180714D02*
X145748285Y-112847380D01*
X145510190Y-111799761D02*
X145272095Y-112514047D01*
X145891142Y-112514047D01*
%TO.C,H3*%
X82804095Y-112847380D02*
X82804095Y-111847380D01*
X82804095Y-112323571D02*
X83375523Y-112323571D01*
X83375523Y-112847380D02*
X83375523Y-111847380D01*
X83756476Y-111847380D02*
X84375523Y-111847380D01*
X84042190Y-112228333D01*
X84185047Y-112228333D01*
X84280285Y-112275952D01*
X84327904Y-112323571D01*
X84375523Y-112418809D01*
X84375523Y-112656904D01*
X84327904Y-112752142D01*
X84280285Y-112799761D01*
X84185047Y-112847380D01*
X83899333Y-112847380D01*
X83804095Y-112799761D01*
X83756476Y-112752142D01*
%TO.C,H2*%
X147828095Y-58872380D02*
X147828095Y-57872380D01*
X147828095Y-58348571D02*
X148399523Y-58348571D01*
X148399523Y-58872380D02*
X148399523Y-57872380D01*
X148828095Y-57967619D02*
X148875714Y-57920000D01*
X148970952Y-57872380D01*
X149209047Y-57872380D01*
X149304285Y-57920000D01*
X149351904Y-57967619D01*
X149399523Y-58062857D01*
X149399523Y-58158095D01*
X149351904Y-58300952D01*
X148780476Y-58872380D01*
X149399523Y-58872380D01*
%TO.C,H1*%
X79248095Y-58872380D02*
X79248095Y-57872380D01*
X79248095Y-58348571D02*
X79819523Y-58348571D01*
X79819523Y-58872380D02*
X79819523Y-57872380D01*
X80819523Y-58872380D02*
X80248095Y-58872380D01*
X80533809Y-58872380D02*
X80533809Y-57872380D01*
X80438571Y-58015238D01*
X80343333Y-58110476D01*
X80248095Y-58158095D01*
%TO.C,C3*%
X141177142Y-76874666D02*
X141224761Y-76922285D01*
X141272380Y-77065142D01*
X141272380Y-77160380D01*
X141224761Y-77303238D01*
X141129523Y-77398476D01*
X141034285Y-77446095D01*
X140843809Y-77493714D01*
X140700952Y-77493714D01*
X140510476Y-77446095D01*
X140415238Y-77398476D01*
X140320000Y-77303238D01*
X140272380Y-77160380D01*
X140272380Y-77065142D01*
X140320000Y-76922285D01*
X140367619Y-76874666D01*
X140272380Y-76541333D02*
X140272380Y-75922285D01*
X140653333Y-76255619D01*
X140653333Y-76112761D01*
X140700952Y-76017523D01*
X140748571Y-75969904D01*
X140843809Y-75922285D01*
X141081904Y-75922285D01*
X141177142Y-75969904D01*
X141224761Y-76017523D01*
X141272380Y-76112761D01*
X141272380Y-76398476D01*
X141224761Y-76493714D01*
X141177142Y-76541333D01*
%TO.C,J2*%
X94746380Y-107521333D02*
X95460666Y-107521333D01*
X95603523Y-107568952D01*
X95698761Y-107664190D01*
X95746380Y-107807047D01*
X95746380Y-107902285D01*
X94841619Y-107092761D02*
X94794000Y-107045142D01*
X94746380Y-106949904D01*
X94746380Y-106711809D01*
X94794000Y-106616571D01*
X94841619Y-106568952D01*
X94936857Y-106521333D01*
X95032095Y-106521333D01*
X95174952Y-106568952D01*
X95746380Y-107140380D01*
X95746380Y-106521333D01*
%TO.C,C8*%
X92203333Y-75905142D02*
X92155714Y-75952761D01*
X92012857Y-76000380D01*
X91917619Y-76000380D01*
X91774761Y-75952761D01*
X91679523Y-75857523D01*
X91631904Y-75762285D01*
X91584285Y-75571809D01*
X91584285Y-75428952D01*
X91631904Y-75238476D01*
X91679523Y-75143238D01*
X91774761Y-75048000D01*
X91917619Y-75000380D01*
X92012857Y-75000380D01*
X92155714Y-75048000D01*
X92203333Y-75095619D01*
X92774761Y-75428952D02*
X92679523Y-75381333D01*
X92631904Y-75333714D01*
X92584285Y-75238476D01*
X92584285Y-75190857D01*
X92631904Y-75095619D01*
X92679523Y-75048000D01*
X92774761Y-75000380D01*
X92965238Y-75000380D01*
X93060476Y-75048000D01*
X93108095Y-75095619D01*
X93155714Y-75190857D01*
X93155714Y-75238476D01*
X93108095Y-75333714D01*
X93060476Y-75381333D01*
X92965238Y-75428952D01*
X92774761Y-75428952D01*
X92679523Y-75476571D01*
X92631904Y-75524190D01*
X92584285Y-75619428D01*
X92584285Y-75809904D01*
X92631904Y-75905142D01*
X92679523Y-75952761D01*
X92774761Y-76000380D01*
X92965238Y-76000380D01*
X93060476Y-75952761D01*
X93108095Y-75905142D01*
X93155714Y-75809904D01*
X93155714Y-75619428D01*
X93108095Y-75524190D01*
X93060476Y-75476571D01*
X92965238Y-75428952D01*
%TO.C,C2*%
X148837142Y-76874666D02*
X148884761Y-76922285D01*
X148932380Y-77065142D01*
X148932380Y-77160380D01*
X148884761Y-77303238D01*
X148789523Y-77398476D01*
X148694285Y-77446095D01*
X148503809Y-77493714D01*
X148360952Y-77493714D01*
X148170476Y-77446095D01*
X148075238Y-77398476D01*
X147980000Y-77303238D01*
X147932380Y-77160380D01*
X147932380Y-77065142D01*
X147980000Y-76922285D01*
X148027619Y-76874666D01*
X148027619Y-76493714D02*
X147980000Y-76446095D01*
X147932380Y-76350857D01*
X147932380Y-76112761D01*
X147980000Y-76017523D01*
X148027619Y-75969904D01*
X148122857Y-75922285D01*
X148218095Y-75922285D01*
X148360952Y-75969904D01*
X148932380Y-76541333D01*
X148932380Y-75922285D01*
%TO.C,C1*%
X138677142Y-61888666D02*
X138724761Y-61936285D01*
X138772380Y-62079142D01*
X138772380Y-62174380D01*
X138724761Y-62317238D01*
X138629523Y-62412476D01*
X138534285Y-62460095D01*
X138343809Y-62507714D01*
X138200952Y-62507714D01*
X138010476Y-62460095D01*
X137915238Y-62412476D01*
X137820000Y-62317238D01*
X137772380Y-62174380D01*
X137772380Y-62079142D01*
X137820000Y-61936285D01*
X137867619Y-61888666D01*
X138772380Y-60936285D02*
X138772380Y-61507714D01*
X138772380Y-61222000D02*
X137772380Y-61222000D01*
X137915238Y-61317238D01*
X138010476Y-61412476D01*
X138058095Y-61507714D01*
%TO.C,X1*%
X84852380Y-98853523D02*
X85852380Y-98186857D01*
X84852380Y-98186857D02*
X85852380Y-98853523D01*
X85852380Y-97282095D02*
X85852380Y-97853523D01*
X85852380Y-97567809D02*
X84852380Y-97567809D01*
X84995238Y-97663047D01*
X85090476Y-97758285D01*
X85138095Y-97853523D01*
%TO.C,C5*%
X110967142Y-75775666D02*
X111014761Y-75823285D01*
X111062380Y-75966142D01*
X111062380Y-76061380D01*
X111014761Y-76204238D01*
X110919523Y-76299476D01*
X110824285Y-76347095D01*
X110633809Y-76394714D01*
X110490952Y-76394714D01*
X110300476Y-76347095D01*
X110205238Y-76299476D01*
X110110000Y-76204238D01*
X110062380Y-76061380D01*
X110062380Y-75966142D01*
X110110000Y-75823285D01*
X110157619Y-75775666D01*
X110062380Y-74870904D02*
X110062380Y-75347095D01*
X110538571Y-75394714D01*
X110490952Y-75347095D01*
X110443333Y-75251857D01*
X110443333Y-75013761D01*
X110490952Y-74918523D01*
X110538571Y-74870904D01*
X110633809Y-74823285D01*
X110871904Y-74823285D01*
X110967142Y-74870904D01*
X111014761Y-74918523D01*
X111062380Y-75013761D01*
X111062380Y-75251857D01*
X111014761Y-75347095D01*
X110967142Y-75394714D01*
%TO.C,RV2*%
X126242380Y-98163238D02*
X125766190Y-98496571D01*
X126242380Y-98734666D02*
X125242380Y-98734666D01*
X125242380Y-98353714D01*
X125290000Y-98258476D01*
X125337619Y-98210857D01*
X125432857Y-98163238D01*
X125575714Y-98163238D01*
X125670952Y-98210857D01*
X125718571Y-98258476D01*
X125766190Y-98353714D01*
X125766190Y-98734666D01*
X125242380Y-97877523D02*
X126242380Y-97544190D01*
X125242380Y-97210857D01*
X125337619Y-96925142D02*
X125290000Y-96877523D01*
X125242380Y-96782285D01*
X125242380Y-96544190D01*
X125290000Y-96448952D01*
X125337619Y-96401333D01*
X125432857Y-96353714D01*
X125528095Y-96353714D01*
X125670952Y-96401333D01*
X126242380Y-96972761D01*
X126242380Y-96353714D01*
%TO.C,RV1*%
X105802380Y-106259238D02*
X105326190Y-106592571D01*
X105802380Y-106830666D02*
X104802380Y-106830666D01*
X104802380Y-106449714D01*
X104850000Y-106354476D01*
X104897619Y-106306857D01*
X104992857Y-106259238D01*
X105135714Y-106259238D01*
X105230952Y-106306857D01*
X105278571Y-106354476D01*
X105326190Y-106449714D01*
X105326190Y-106830666D01*
X104802380Y-105973523D02*
X105802380Y-105640190D01*
X104802380Y-105306857D01*
X105802380Y-104449714D02*
X105802380Y-105021142D01*
X105802380Y-104735428D02*
X104802380Y-104735428D01*
X104945238Y-104830666D01*
X105040476Y-104925904D01*
X105088095Y-105021142D01*
%TO.C,U2*%
X90678095Y-94820380D02*
X90678095Y-95629904D01*
X90725714Y-95725142D01*
X90773333Y-95772761D01*
X90868571Y-95820380D01*
X91059047Y-95820380D01*
X91154285Y-95772761D01*
X91201904Y-95725142D01*
X91249523Y-95629904D01*
X91249523Y-94820380D01*
X91678095Y-94915619D02*
X91725714Y-94868000D01*
X91820952Y-94820380D01*
X92059047Y-94820380D01*
X92154285Y-94868000D01*
X92201904Y-94915619D01*
X92249523Y-95010857D01*
X92249523Y-95106095D01*
X92201904Y-95248952D01*
X91630476Y-95820380D01*
X92249523Y-95820380D01*
%TO.C,U1*%
X126752380Y-67124904D02*
X127561904Y-67124904D01*
X127657142Y-67077285D01*
X127704761Y-67029666D01*
X127752380Y-66934428D01*
X127752380Y-66743952D01*
X127704761Y-66648714D01*
X127657142Y-66601095D01*
X127561904Y-66553476D01*
X126752380Y-66553476D01*
X127752380Y-65553476D02*
X127752380Y-66124904D01*
X127752380Y-65839190D02*
X126752380Y-65839190D01*
X126895238Y-65934428D01*
X126990476Y-66029666D01*
X127038095Y-66124904D01*
%TO.C,R3*%
X111593333Y-84620380D02*
X111260000Y-84144190D01*
X111021904Y-84620380D02*
X111021904Y-83620380D01*
X111402857Y-83620380D01*
X111498095Y-83668000D01*
X111545714Y-83715619D01*
X111593333Y-83810857D01*
X111593333Y-83953714D01*
X111545714Y-84048952D01*
X111498095Y-84096571D01*
X111402857Y-84144190D01*
X111021904Y-84144190D01*
X111926666Y-83620380D02*
X112545714Y-83620380D01*
X112212380Y-84001333D01*
X112355238Y-84001333D01*
X112450476Y-84048952D01*
X112498095Y-84096571D01*
X112545714Y-84191809D01*
X112545714Y-84429904D01*
X112498095Y-84525142D01*
X112450476Y-84572761D01*
X112355238Y-84620380D01*
X112069523Y-84620380D01*
X111974285Y-84572761D01*
X111926666Y-84525142D01*
%TO.C,R2*%
X101433333Y-99926380D02*
X101100000Y-99450190D01*
X100861904Y-99926380D02*
X100861904Y-98926380D01*
X101242857Y-98926380D01*
X101338095Y-98974000D01*
X101385714Y-99021619D01*
X101433333Y-99116857D01*
X101433333Y-99259714D01*
X101385714Y-99354952D01*
X101338095Y-99402571D01*
X101242857Y-99450190D01*
X100861904Y-99450190D01*
X101814285Y-99021619D02*
X101861904Y-98974000D01*
X101957142Y-98926380D01*
X102195238Y-98926380D01*
X102290476Y-98974000D01*
X102338095Y-99021619D01*
X102385714Y-99116857D01*
X102385714Y-99212095D01*
X102338095Y-99354952D01*
X101766666Y-99926380D01*
X102385714Y-99926380D01*
%TO.C,R1*%
X101433333Y-95100380D02*
X101100000Y-94624190D01*
X100861904Y-95100380D02*
X100861904Y-94100380D01*
X101242857Y-94100380D01*
X101338095Y-94148000D01*
X101385714Y-94195619D01*
X101433333Y-94290857D01*
X101433333Y-94433714D01*
X101385714Y-94528952D01*
X101338095Y-94576571D01*
X101242857Y-94624190D01*
X100861904Y-94624190D01*
X102385714Y-95100380D02*
X101814285Y-95100380D01*
X102100000Y-95100380D02*
X102100000Y-94100380D01*
X102004761Y-94243238D01*
X101909523Y-94338476D01*
X101814285Y-94386095D01*
%TO.C,J3*%
X132612380Y-99901333D02*
X133326666Y-99901333D01*
X133469523Y-99948952D01*
X133564761Y-100044190D01*
X133612380Y-100187047D01*
X133612380Y-100282285D01*
X132612380Y-99520380D02*
X132612380Y-98901333D01*
X132993333Y-99234666D01*
X132993333Y-99091809D01*
X133040952Y-98996571D01*
X133088571Y-98948952D01*
X133183809Y-98901333D01*
X133421904Y-98901333D01*
X133517142Y-98948952D01*
X133564761Y-98996571D01*
X133612380Y-99091809D01*
X133612380Y-99377523D01*
X133564761Y-99472761D01*
X133517142Y-99520380D01*
%TO.C,J1*%
X144446666Y-58430380D02*
X144446666Y-59144666D01*
X144399047Y-59287523D01*
X144303809Y-59382761D01*
X144160952Y-59430380D01*
X144065714Y-59430380D01*
X145446666Y-59430380D02*
X144875238Y-59430380D01*
X145160952Y-59430380D02*
X145160952Y-58430380D01*
X145065714Y-58573238D01*
X144970476Y-58668476D01*
X144875238Y-58716095D01*
%TO.C,C11*%
X111072142Y-101073357D02*
X111119761Y-101120976D01*
X111167380Y-101263833D01*
X111167380Y-101359071D01*
X111119761Y-101501928D01*
X111024523Y-101597166D01*
X110929285Y-101644785D01*
X110738809Y-101692404D01*
X110595952Y-101692404D01*
X110405476Y-101644785D01*
X110310238Y-101597166D01*
X110215000Y-101501928D01*
X110167380Y-101359071D01*
X110167380Y-101263833D01*
X110215000Y-101120976D01*
X110262619Y-101073357D01*
X111167380Y-100120976D02*
X111167380Y-100692404D01*
X111167380Y-100406690D02*
X110167380Y-100406690D01*
X110310238Y-100501928D01*
X110405476Y-100597166D01*
X110453095Y-100692404D01*
X111167380Y-99168595D02*
X111167380Y-99740023D01*
X111167380Y-99454309D02*
X110167380Y-99454309D01*
X110310238Y-99549547D01*
X110405476Y-99644785D01*
X110453095Y-99740023D01*
%TO.C,C10*%
X119577142Y-90050857D02*
X119624761Y-90098476D01*
X119672380Y-90241333D01*
X119672380Y-90336571D01*
X119624761Y-90479428D01*
X119529523Y-90574666D01*
X119434285Y-90622285D01*
X119243809Y-90669904D01*
X119100952Y-90669904D01*
X118910476Y-90622285D01*
X118815238Y-90574666D01*
X118720000Y-90479428D01*
X118672380Y-90336571D01*
X118672380Y-90241333D01*
X118720000Y-90098476D01*
X118767619Y-90050857D01*
X119672380Y-89098476D02*
X119672380Y-89669904D01*
X119672380Y-89384190D02*
X118672380Y-89384190D01*
X118815238Y-89479428D01*
X118910476Y-89574666D01*
X118958095Y-89669904D01*
X118672380Y-88479428D02*
X118672380Y-88384190D01*
X118720000Y-88288952D01*
X118767619Y-88241333D01*
X118862857Y-88193714D01*
X119053333Y-88146095D01*
X119291428Y-88146095D01*
X119481904Y-88193714D01*
X119577142Y-88241333D01*
X119624761Y-88288952D01*
X119672380Y-88384190D01*
X119672380Y-88479428D01*
X119624761Y-88574666D01*
X119577142Y-88622285D01*
X119481904Y-88669904D01*
X119291428Y-88717523D01*
X119053333Y-88717523D01*
X118862857Y-88669904D01*
X118767619Y-88622285D01*
X118720000Y-88574666D01*
X118672380Y-88479428D01*
%TO.C,C9*%
X91957142Y-90844666D02*
X92004761Y-90892285D01*
X92052380Y-91035142D01*
X92052380Y-91130380D01*
X92004761Y-91273238D01*
X91909523Y-91368476D01*
X91814285Y-91416095D01*
X91623809Y-91463714D01*
X91480952Y-91463714D01*
X91290476Y-91416095D01*
X91195238Y-91368476D01*
X91100000Y-91273238D01*
X91052380Y-91130380D01*
X91052380Y-91035142D01*
X91100000Y-90892285D01*
X91147619Y-90844666D01*
X92052380Y-90368476D02*
X92052380Y-90178000D01*
X92004761Y-90082761D01*
X91957142Y-90035142D01*
X91814285Y-89939904D01*
X91623809Y-89892285D01*
X91242857Y-89892285D01*
X91147619Y-89939904D01*
X91100000Y-89987523D01*
X91052380Y-90082761D01*
X91052380Y-90273238D01*
X91100000Y-90368476D01*
X91147619Y-90416095D01*
X91242857Y-90463714D01*
X91480952Y-90463714D01*
X91576190Y-90416095D01*
X91623809Y-90368476D01*
X91671428Y-90273238D01*
X91671428Y-90082761D01*
X91623809Y-89987523D01*
X91576190Y-89939904D01*
X91480952Y-89892285D01*
%TO.C,C7*%
X95767142Y-90844666D02*
X95814761Y-90892285D01*
X95862380Y-91035142D01*
X95862380Y-91130380D01*
X95814761Y-91273238D01*
X95719523Y-91368476D01*
X95624285Y-91416095D01*
X95433809Y-91463714D01*
X95290952Y-91463714D01*
X95100476Y-91416095D01*
X95005238Y-91368476D01*
X94910000Y-91273238D01*
X94862380Y-91130380D01*
X94862380Y-91035142D01*
X94910000Y-90892285D01*
X94957619Y-90844666D01*
X94862380Y-90511333D02*
X94862380Y-89844666D01*
X95862380Y-90273238D01*
%TO.C,C6*%
X88147142Y-90844666D02*
X88194761Y-90892285D01*
X88242380Y-91035142D01*
X88242380Y-91130380D01*
X88194761Y-91273238D01*
X88099523Y-91368476D01*
X88004285Y-91416095D01*
X87813809Y-91463714D01*
X87670952Y-91463714D01*
X87480476Y-91416095D01*
X87385238Y-91368476D01*
X87290000Y-91273238D01*
X87242380Y-91130380D01*
X87242380Y-91035142D01*
X87290000Y-90892285D01*
X87337619Y-90844666D01*
X87242380Y-89987523D02*
X87242380Y-90178000D01*
X87290000Y-90273238D01*
X87337619Y-90320857D01*
X87480476Y-90416095D01*
X87670952Y-90463714D01*
X88051904Y-90463714D01*
X88147142Y-90416095D01*
X88194761Y-90368476D01*
X88242380Y-90273238D01*
X88242380Y-90082761D01*
X88194761Y-89987523D01*
X88147142Y-89939904D01*
X88051904Y-89892285D01*
X87813809Y-89892285D01*
X87718571Y-89939904D01*
X87670952Y-89987523D01*
X87623333Y-90082761D01*
X87623333Y-90273238D01*
X87670952Y-90368476D01*
X87718571Y-90416095D01*
X87813809Y-90463714D01*
%TD*%
M02*
