%TF.GenerationSoftware,KiCad,Pcbnew,5.1.9*%
%TF.CreationDate,2021-03-27T23:39:32+08:00*%
%TF.ProjectId,ad-9833,61642d39-3833-4332-9e6b-696361645f70,rev?*%
%TF.SameCoordinates,Original*%
%TF.FileFunction,Copper,L1,Top*%
%TF.FilePolarity,Positive*%
%FSLAX46Y46*%
G04 Gerber Fmt 4.6, Leading zero omitted, Abs format (unit mm)*
G04 Created by KiCad (PCBNEW 5.1.9) date 2021-03-27 23:39:32*
%MOMM*%
%LPD*%
G01*
G04 APERTURE LIST*
%TA.AperFunction,ComponentPad*%
%ADD10C,1.524000*%
%TD*%
%TA.AperFunction,SMDPad,CuDef*%
%ADD11R,4.500000X4.000000*%
%TD*%
%TA.AperFunction,SMDPad,CuDef*%
%ADD12R,3.500000X1.800000*%
%TD*%
%TA.AperFunction,ComponentPad*%
%ADD13C,0.700000*%
%TD*%
%TA.AperFunction,ComponentPad*%
%ADD14C,4.400000*%
%TD*%
%TA.AperFunction,ComponentPad*%
%ADD15O,1.700000X1.700000*%
%TD*%
%TA.AperFunction,ComponentPad*%
%ADD16R,1.700000X1.700000*%
%TD*%
%TA.AperFunction,SMDPad,CuDef*%
%ADD17R,1.500000X1.600000*%
%TD*%
%TA.AperFunction,SMDPad,CuDef*%
%ADD18R,1.300000X2.000000*%
%TD*%
%TA.AperFunction,SMDPad,CuDef*%
%ADD19R,2.000000X2.000000*%
%TD*%
%TA.AperFunction,SMDPad,CuDef*%
%ADD20R,1.400000X0.300000*%
%TD*%
%TA.AperFunction,SMDPad,CuDef*%
%ADD21R,10.800000X9.400000*%
%TD*%
%TA.AperFunction,SMDPad,CuDef*%
%ADD22R,1.100000X4.600000*%
%TD*%
%TA.AperFunction,ComponentPad*%
%ADD23O,2.500000X1.600000*%
%TD*%
%TA.AperFunction,ComponentPad*%
%ADD24O,7.000000X3.500000*%
%TD*%
%TA.AperFunction,ViaPad*%
%ADD25C,0.800000*%
%TD*%
%TA.AperFunction,Conductor*%
%ADD26C,0.250000*%
%TD*%
%TA.AperFunction,Conductor*%
%ADD27C,0.508000*%
%TD*%
%TA.AperFunction,Conductor*%
%ADD28C,0.254000*%
%TD*%
%TA.AperFunction,Conductor*%
%ADD29C,0.100000*%
%TD*%
G04 APERTURE END LIST*
%TO.P,C4,2*%
%TO.N,+2V5*%
%TA.AperFunction,SMDPad,CuDef*%
G36*
G01*
X83129000Y-92820500D02*
X83129000Y-92345500D01*
G75*
G02*
X83366500Y-92108000I237500J0D01*
G01*
X83966500Y-92108000D01*
G75*
G02*
X84204000Y-92345500I0J-237500D01*
G01*
X84204000Y-92820500D01*
G75*
G02*
X83966500Y-93058000I-237500J0D01*
G01*
X83366500Y-93058000D01*
G75*
G02*
X83129000Y-92820500I0J237500D01*
G01*
G37*
%TD.AperFunction*%
%TO.P,C4,1*%
%TO.N,GND*%
%TA.AperFunction,SMDPad,CuDef*%
G36*
G01*
X81404000Y-92820500D02*
X81404000Y-92345500D01*
G75*
G02*
X81641500Y-92108000I237500J0D01*
G01*
X82241500Y-92108000D01*
G75*
G02*
X82479000Y-92345500I0J-237500D01*
G01*
X82479000Y-92820500D01*
G75*
G02*
X82241500Y-93058000I-237500J0D01*
G01*
X81641500Y-93058000D01*
G75*
G02*
X81404000Y-92820500I0J237500D01*
G01*
G37*
%TD.AperFunction*%
%TD*%
D10*
%TO.P,SW1,6*%
%TO.N,N/C*%
X123412000Y-108132000D03*
%TO.P,SW1,5*%
X121412000Y-108132000D03*
%TO.P,SW1,4*%
X119412000Y-108132000D03*
%TO.P,SW1,3*%
%TO.N,GND*%
X123412000Y-103632000D03*
%TO.P,SW1,2*%
%TO.N,Net-(R2-Pad2)*%
X121412000Y-103632000D03*
%TO.P,SW1,1*%
%TO.N,Net-(RV1-Pad2)*%
X119412000Y-103632000D03*
%TD*%
D11*
%TO.P,L1,2*%
%TO.N,+5V*%
X105410000Y-65914000D03*
%TO.P,L1,1*%
%TO.N,Net-(D1-Pad1)*%
X105410000Y-56514000D03*
%TD*%
D12*
%TO.P,D1,2*%
%TO.N,GND*%
X90210000Y-61468000D03*
%TO.P,D1,1*%
%TO.N,Net-(D1-Pad1)*%
X95210000Y-61468000D03*
%TD*%
%TO.P,U3,8*%
%TO.N,N/C*%
%TA.AperFunction,SMDPad,CuDef*%
G36*
G01*
X113260000Y-91463000D02*
X113260000Y-91163000D01*
G75*
G02*
X113410000Y-91013000I150000J0D01*
G01*
X115060000Y-91013000D01*
G75*
G02*
X115210000Y-91163000I0J-150000D01*
G01*
X115210000Y-91463000D01*
G75*
G02*
X115060000Y-91613000I-150000J0D01*
G01*
X113410000Y-91613000D01*
G75*
G02*
X113260000Y-91463000I0J150000D01*
G01*
G37*
%TD.AperFunction*%
%TO.P,U3,7*%
%TO.N,+15V*%
%TA.AperFunction,SMDPad,CuDef*%
G36*
G01*
X113260000Y-92733000D02*
X113260000Y-92433000D01*
G75*
G02*
X113410000Y-92283000I150000J0D01*
G01*
X115060000Y-92283000D01*
G75*
G02*
X115210000Y-92433000I0J-150000D01*
G01*
X115210000Y-92733000D01*
G75*
G02*
X115060000Y-92883000I-150000J0D01*
G01*
X113410000Y-92883000D01*
G75*
G02*
X113260000Y-92733000I0J150000D01*
G01*
G37*
%TD.AperFunction*%
%TO.P,U3,6*%
%TO.N,Net-(J3-Pad1)*%
%TA.AperFunction,SMDPad,CuDef*%
G36*
G01*
X113260000Y-94003000D02*
X113260000Y-93703000D01*
G75*
G02*
X113410000Y-93553000I150000J0D01*
G01*
X115060000Y-93553000D01*
G75*
G02*
X115210000Y-93703000I0J-150000D01*
G01*
X115210000Y-94003000D01*
G75*
G02*
X115060000Y-94153000I-150000J0D01*
G01*
X113410000Y-94153000D01*
G75*
G02*
X113260000Y-94003000I0J150000D01*
G01*
G37*
%TD.AperFunction*%
%TO.P,U3,5*%
%TO.N,N/C*%
%TA.AperFunction,SMDPad,CuDef*%
G36*
G01*
X113260000Y-95273000D02*
X113260000Y-94973000D01*
G75*
G02*
X113410000Y-94823000I150000J0D01*
G01*
X115060000Y-94823000D01*
G75*
G02*
X115210000Y-94973000I0J-150000D01*
G01*
X115210000Y-95273000D01*
G75*
G02*
X115060000Y-95423000I-150000J0D01*
G01*
X113410000Y-95423000D01*
G75*
G02*
X113260000Y-95273000I0J150000D01*
G01*
G37*
%TD.AperFunction*%
%TO.P,U3,4*%
%TO.N,-15V*%
%TA.AperFunction,SMDPad,CuDef*%
G36*
G01*
X108310000Y-95273000D02*
X108310000Y-94973000D01*
G75*
G02*
X108460000Y-94823000I150000J0D01*
G01*
X110110000Y-94823000D01*
G75*
G02*
X110260000Y-94973000I0J-150000D01*
G01*
X110260000Y-95273000D01*
G75*
G02*
X110110000Y-95423000I-150000J0D01*
G01*
X108460000Y-95423000D01*
G75*
G02*
X108310000Y-95273000I0J150000D01*
G01*
G37*
%TD.AperFunction*%
%TO.P,U3,3*%
%TO.N,Net-(R1-Pad1)*%
%TA.AperFunction,SMDPad,CuDef*%
G36*
G01*
X108310000Y-94003000D02*
X108310000Y-93703000D01*
G75*
G02*
X108460000Y-93553000I150000J0D01*
G01*
X110110000Y-93553000D01*
G75*
G02*
X110260000Y-93703000I0J-150000D01*
G01*
X110260000Y-94003000D01*
G75*
G02*
X110110000Y-94153000I-150000J0D01*
G01*
X108460000Y-94153000D01*
G75*
G02*
X108310000Y-94003000I0J150000D01*
G01*
G37*
%TD.AperFunction*%
%TO.P,U3,2*%
%TO.N,Net-(R3-Pad2)*%
%TA.AperFunction,SMDPad,CuDef*%
G36*
G01*
X108310000Y-92733000D02*
X108310000Y-92433000D01*
G75*
G02*
X108460000Y-92283000I150000J0D01*
G01*
X110110000Y-92283000D01*
G75*
G02*
X110260000Y-92433000I0J-150000D01*
G01*
X110260000Y-92733000D01*
G75*
G02*
X110110000Y-92883000I-150000J0D01*
G01*
X108460000Y-92883000D01*
G75*
G02*
X108310000Y-92733000I0J150000D01*
G01*
G37*
%TD.AperFunction*%
%TO.P,U3,1*%
%TO.N,N/C*%
%TA.AperFunction,SMDPad,CuDef*%
G36*
G01*
X108310000Y-91463000D02*
X108310000Y-91163000D01*
G75*
G02*
X108460000Y-91013000I150000J0D01*
G01*
X110110000Y-91013000D01*
G75*
G02*
X110260000Y-91163000I0J-150000D01*
G01*
X110260000Y-91463000D01*
G75*
G02*
X110110000Y-91613000I-150000J0D01*
G01*
X108460000Y-91613000D01*
G75*
G02*
X108310000Y-91463000I0J150000D01*
G01*
G37*
%TD.AperFunction*%
%TD*%
D13*
%TO.P,H4,1*%
%TO.N,N/C*%
X149756726Y-109323274D03*
X148590000Y-108840000D03*
X147423274Y-109323274D03*
X146940000Y-110490000D03*
X147423274Y-111656726D03*
X148590000Y-112140000D03*
X149756726Y-111656726D03*
X150240000Y-110490000D03*
D14*
X148590000Y-110490000D03*
%TD*%
D13*
%TO.P,H3,1*%
%TO.N,N/C*%
X81176726Y-109323274D03*
X80010000Y-108840000D03*
X78843274Y-109323274D03*
X78360000Y-110490000D03*
X78843274Y-111656726D03*
X80010000Y-112140000D03*
X81176726Y-111656726D03*
X81660000Y-110490000D03*
D14*
X80010000Y-110490000D03*
%TD*%
D13*
%TO.P,H2,1*%
%TO.N,N/C*%
X149756726Y-53443274D03*
X148590000Y-52960000D03*
X147423274Y-53443274D03*
X146940000Y-54610000D03*
X147423274Y-55776726D03*
X148590000Y-56260000D03*
X149756726Y-55776726D03*
X150240000Y-54610000D03*
D14*
X148590000Y-54610000D03*
%TD*%
D13*
%TO.P,H1,1*%
%TO.N,N/C*%
X81176726Y-53443274D03*
X80010000Y-52960000D03*
X78843274Y-53443274D03*
X78360000Y-54610000D03*
X78843274Y-55776726D03*
X80010000Y-56260000D03*
X81176726Y-55776726D03*
X81660000Y-54610000D03*
D14*
X80010000Y-54610000D03*
%TD*%
%TO.P,C3,2*%
%TO.N,GND*%
%TA.AperFunction,SMDPad,CuDef*%
G36*
G01*
X133819999Y-78808000D02*
X135420001Y-78808000D01*
G75*
G02*
X135670000Y-79057999I0J-249999D01*
G01*
X135670000Y-83158001D01*
G75*
G02*
X135420001Y-83408000I-249999J0D01*
G01*
X133819999Y-83408000D01*
G75*
G02*
X133570000Y-83158001I0J249999D01*
G01*
X133570000Y-79057999D01*
G75*
G02*
X133819999Y-78808000I249999J0D01*
G01*
G37*
%TD.AperFunction*%
%TO.P,C3,1*%
%TO.N,+15V*%
%TA.AperFunction,SMDPad,CuDef*%
G36*
G01*
X133819999Y-70008000D02*
X135420001Y-70008000D01*
G75*
G02*
X135670000Y-70257999I0J-249999D01*
G01*
X135670000Y-74358001D01*
G75*
G02*
X135420001Y-74608000I-249999J0D01*
G01*
X133819999Y-74608000D01*
G75*
G02*
X133570000Y-74358001I0J249999D01*
G01*
X133570000Y-70257999D01*
G75*
G02*
X133819999Y-70008000I249999J0D01*
G01*
G37*
%TD.AperFunction*%
%TD*%
D15*
%TO.P,J2,4*%
%TO.N,GND*%
X85344000Y-107188000D03*
%TO.P,J2,3*%
%TO.N,/FSYNC*%
X87884000Y-107188000D03*
%TO.P,J2,2*%
%TO.N,/SDA*%
X90424000Y-107188000D03*
D16*
%TO.P,J2,1*%
%TO.N,/SCL*%
X92964000Y-107188000D03*
%TD*%
%TO.P,C8,2*%
%TO.N,GND*%
%TA.AperFunction,SMDPad,CuDef*%
G36*
G01*
X93070000Y-79798000D02*
X93070000Y-78698000D01*
G75*
G02*
X93320000Y-78448000I250000J0D01*
G01*
X95820000Y-78448000D01*
G75*
G02*
X96070000Y-78698000I0J-250000D01*
G01*
X96070000Y-79798000D01*
G75*
G02*
X95820000Y-80048000I-250000J0D01*
G01*
X93320000Y-80048000D01*
G75*
G02*
X93070000Y-79798000I0J250000D01*
G01*
G37*
%TD.AperFunction*%
%TO.P,C8,1*%
%TO.N,+5V*%
%TA.AperFunction,SMDPad,CuDef*%
G36*
G01*
X88670000Y-79798000D02*
X88670000Y-78698000D01*
G75*
G02*
X88920000Y-78448000I250000J0D01*
G01*
X91420000Y-78448000D01*
G75*
G02*
X91670000Y-78698000I0J-250000D01*
G01*
X91670000Y-79798000D01*
G75*
G02*
X91420000Y-80048000I-250000J0D01*
G01*
X88920000Y-80048000D01*
G75*
G02*
X88670000Y-79798000I0J250000D01*
G01*
G37*
%TD.AperFunction*%
%TD*%
%TO.P,C2,2*%
%TO.N,-15V*%
%TA.AperFunction,SMDPad,CuDef*%
G36*
G01*
X144230000Y-77408000D02*
X145330000Y-77408000D01*
G75*
G02*
X145580000Y-77658000I0J-250000D01*
G01*
X145580000Y-80158000D01*
G75*
G02*
X145330000Y-80408000I-250000J0D01*
G01*
X144230000Y-80408000D01*
G75*
G02*
X143980000Y-80158000I0J250000D01*
G01*
X143980000Y-77658000D01*
G75*
G02*
X144230000Y-77408000I250000J0D01*
G01*
G37*
%TD.AperFunction*%
%TO.P,C2,1*%
%TO.N,GND*%
%TA.AperFunction,SMDPad,CuDef*%
G36*
G01*
X144230000Y-73008000D02*
X145330000Y-73008000D01*
G75*
G02*
X145580000Y-73258000I0J-250000D01*
G01*
X145580000Y-75758000D01*
G75*
G02*
X145330000Y-76008000I-250000J0D01*
G01*
X144230000Y-76008000D01*
G75*
G02*
X143980000Y-75758000I0J250000D01*
G01*
X143980000Y-73258000D01*
G75*
G02*
X144230000Y-73008000I250000J0D01*
G01*
G37*
%TD.AperFunction*%
%TD*%
%TO.P,C1,2*%
%TO.N,GND*%
%TA.AperFunction,SMDPad,CuDef*%
G36*
G01*
X134070000Y-62422000D02*
X135170000Y-62422000D01*
G75*
G02*
X135420000Y-62672000I0J-250000D01*
G01*
X135420000Y-65172000D01*
G75*
G02*
X135170000Y-65422000I-250000J0D01*
G01*
X134070000Y-65422000D01*
G75*
G02*
X133820000Y-65172000I0J250000D01*
G01*
X133820000Y-62672000D01*
G75*
G02*
X134070000Y-62422000I250000J0D01*
G01*
G37*
%TD.AperFunction*%
%TO.P,C1,1*%
%TO.N,+15V*%
%TA.AperFunction,SMDPad,CuDef*%
G36*
G01*
X134070000Y-58022000D02*
X135170000Y-58022000D01*
G75*
G02*
X135420000Y-58272000I0J-250000D01*
G01*
X135420000Y-60772000D01*
G75*
G02*
X135170000Y-61022000I-250000J0D01*
G01*
X134070000Y-61022000D01*
G75*
G02*
X133820000Y-60772000I0J250000D01*
G01*
X133820000Y-58272000D01*
G75*
G02*
X134070000Y-58022000I250000J0D01*
G01*
G37*
%TD.AperFunction*%
%TD*%
D17*
%TO.P,X1,4*%
%TO.N,+2V5*%
X83650000Y-96774000D03*
%TO.P,X1,3*%
%TO.N,Net-(U2-Pad5)*%
X83650000Y-99314000D03*
%TO.P,X1,2*%
%TO.N,GND*%
X81450000Y-99314000D03*
%TO.P,X1,1*%
%TO.N,N/C*%
X81450000Y-96774000D03*
%TD*%
%TO.P,C5,2*%
%TO.N,GND*%
%TA.AperFunction,SMDPad,CuDef*%
G36*
G01*
X104609999Y-76959000D02*
X106210001Y-76959000D01*
G75*
G02*
X106460000Y-77208999I0J-249999D01*
G01*
X106460000Y-81209001D01*
G75*
G02*
X106210001Y-81459000I-249999J0D01*
G01*
X104609999Y-81459000D01*
G75*
G02*
X104360000Y-81209001I0J249999D01*
G01*
X104360000Y-77208999D01*
G75*
G02*
X104609999Y-76959000I249999J0D01*
G01*
G37*
%TD.AperFunction*%
%TO.P,C5,1*%
%TO.N,+5V*%
%TA.AperFunction,SMDPad,CuDef*%
G36*
G01*
X104609999Y-69759000D02*
X106210001Y-69759000D01*
G75*
G02*
X106460000Y-70008999I0J-249999D01*
G01*
X106460000Y-74009001D01*
G75*
G02*
X106210001Y-74259000I-249999J0D01*
G01*
X104609999Y-74259000D01*
G75*
G02*
X104360000Y-74009001I0J249999D01*
G01*
X104360000Y-70008999D01*
G75*
G02*
X104609999Y-69759000I249999J0D01*
G01*
G37*
%TD.AperFunction*%
%TD*%
D18*
%TO.P,RV2,3*%
%TO.N,Net-(J3-Pad1)*%
X130690000Y-95568000D03*
D19*
%TO.P,RV2,2*%
X129540000Y-99568000D03*
D18*
%TO.P,RV2,1*%
%TO.N,Net-(R3-Pad2)*%
X128390000Y-95568000D03*
%TD*%
%TO.P,RV1,3*%
%TO.N,-15V*%
X100450000Y-107664000D03*
D19*
%TO.P,RV1,2*%
%TO.N,Net-(RV1-Pad2)*%
X101600000Y-103664000D03*
D18*
%TO.P,RV1,1*%
%TO.N,+15V*%
X102750000Y-107664000D03*
%TD*%
D20*
%TO.P,U2,10*%
%TO.N,Net-(R1-Pad2)*%
X93640000Y-96968000D03*
%TO.P,U2,9*%
%TO.N,GND*%
X93640000Y-97468000D03*
%TO.P,U2,8*%
%TO.N,/FSYNC*%
X93640000Y-97968000D03*
%TO.P,U2,7*%
%TO.N,/SCL*%
X93640000Y-98468000D03*
%TO.P,U2,6*%
%TO.N,/SDA*%
X93640000Y-98968000D03*
%TO.P,U2,5*%
%TO.N,Net-(U2-Pad5)*%
X89240000Y-98968000D03*
%TO.P,U2,4*%
%TO.N,GND*%
X89240000Y-98468000D03*
%TO.P,U2,3*%
%TO.N,+2V5*%
X89240000Y-97968000D03*
%TO.P,U2,2*%
%TO.N,+5V*%
X89240000Y-97468000D03*
%TO.P,U2,1*%
%TO.N,Net-(C6-Pad2)*%
X89240000Y-96968000D03*
%TD*%
D21*
%TO.P,U1,3*%
%TO.N,GND*%
X120650000Y-69738000D03*
D22*
%TO.P,U1,5*%
X117250000Y-60588000D03*
%TO.P,U1,4*%
%TO.N,+5V*%
X118950000Y-60588000D03*
%TO.P,U1,3*%
%TO.N,GND*%
X120650000Y-60588000D03*
%TO.P,U1,2*%
%TO.N,Net-(D1-Pad1)*%
X122350000Y-60588000D03*
%TO.P,U1,1*%
%TO.N,+15V*%
X124050000Y-60588000D03*
%TD*%
%TO.P,R3,2*%
%TO.N,Net-(R3-Pad2)*%
%TA.AperFunction,SMDPad,CuDef*%
G36*
G01*
X112185000Y-85835500D02*
X112185000Y-85360500D01*
G75*
G02*
X112422500Y-85123000I237500J0D01*
G01*
X112922500Y-85123000D01*
G75*
G02*
X113160000Y-85360500I0J-237500D01*
G01*
X113160000Y-85835500D01*
G75*
G02*
X112922500Y-86073000I-237500J0D01*
G01*
X112422500Y-86073000D01*
G75*
G02*
X112185000Y-85835500I0J237500D01*
G01*
G37*
%TD.AperFunction*%
%TO.P,R3,1*%
%TO.N,GND*%
%TA.AperFunction,SMDPad,CuDef*%
G36*
G01*
X110360000Y-85835500D02*
X110360000Y-85360500D01*
G75*
G02*
X110597500Y-85123000I237500J0D01*
G01*
X111097500Y-85123000D01*
G75*
G02*
X111335000Y-85360500I0J-237500D01*
G01*
X111335000Y-85835500D01*
G75*
G02*
X111097500Y-86073000I-237500J0D01*
G01*
X110597500Y-86073000D01*
G75*
G02*
X110360000Y-85835500I0J237500D01*
G01*
G37*
%TD.AperFunction*%
%TD*%
%TO.P,R2,2*%
%TO.N,Net-(R2-Pad2)*%
%TA.AperFunction,SMDPad,CuDef*%
G36*
G01*
X101175000Y-97806500D02*
X101175000Y-98281500D01*
G75*
G02*
X100937500Y-98519000I-237500J0D01*
G01*
X100437500Y-98519000D01*
G75*
G02*
X100200000Y-98281500I0J237500D01*
G01*
X100200000Y-97806500D01*
G75*
G02*
X100437500Y-97569000I237500J0D01*
G01*
X100937500Y-97569000D01*
G75*
G02*
X101175000Y-97806500I0J-237500D01*
G01*
G37*
%TD.AperFunction*%
%TO.P,R2,1*%
%TO.N,Net-(R1-Pad1)*%
%TA.AperFunction,SMDPad,CuDef*%
G36*
G01*
X103000000Y-97806500D02*
X103000000Y-98281500D01*
G75*
G02*
X102762500Y-98519000I-237500J0D01*
G01*
X102262500Y-98519000D01*
G75*
G02*
X102025000Y-98281500I0J237500D01*
G01*
X102025000Y-97806500D01*
G75*
G02*
X102262500Y-97569000I237500J0D01*
G01*
X102762500Y-97569000D01*
G75*
G02*
X103000000Y-97806500I0J-237500D01*
G01*
G37*
%TD.AperFunction*%
%TD*%
%TO.P,R1,2*%
%TO.N,Net-(R1-Pad2)*%
%TA.AperFunction,SMDPad,CuDef*%
G36*
G01*
X101175000Y-92980500D02*
X101175000Y-93455500D01*
G75*
G02*
X100937500Y-93693000I-237500J0D01*
G01*
X100437500Y-93693000D01*
G75*
G02*
X100200000Y-93455500I0J237500D01*
G01*
X100200000Y-92980500D01*
G75*
G02*
X100437500Y-92743000I237500J0D01*
G01*
X100937500Y-92743000D01*
G75*
G02*
X101175000Y-92980500I0J-237500D01*
G01*
G37*
%TD.AperFunction*%
%TO.P,R1,1*%
%TO.N,Net-(R1-Pad1)*%
%TA.AperFunction,SMDPad,CuDef*%
G36*
G01*
X103000000Y-92980500D02*
X103000000Y-93455500D01*
G75*
G02*
X102762500Y-93693000I-237500J0D01*
G01*
X102262500Y-93693000D01*
G75*
G02*
X102025000Y-93455500I0J237500D01*
G01*
X102025000Y-92980500D01*
G75*
G02*
X102262500Y-92743000I237500J0D01*
G01*
X102762500Y-92743000D01*
G75*
G02*
X103000000Y-92980500I0J-237500D01*
G01*
G37*
%TD.AperFunction*%
%TD*%
D23*
%TO.P,J3,2*%
%TO.N,GND*%
X137160000Y-97028000D03*
%TO.P,J3,1*%
%TO.N,Net-(J3-Pad1)*%
X137160000Y-99568000D03*
D24*
%TO.P,J3,2*%
%TO.N,GND*%
X142240000Y-104648000D03*
X142240000Y-94488000D03*
%TD*%
D15*
%TO.P,J1,3*%
%TO.N,-15V*%
X144780000Y-66388000D03*
%TO.P,J1,2*%
%TO.N,GND*%
X144780000Y-63848000D03*
D16*
%TO.P,J1,1*%
%TO.N,+15V*%
X144780000Y-61308000D03*
%TD*%
%TO.P,C11,2*%
%TO.N,GND*%
%TA.AperFunction,SMDPad,CuDef*%
G36*
G01*
X109047500Y-100755500D02*
X109522500Y-100755500D01*
G75*
G02*
X109760000Y-100993000I0J-237500D01*
G01*
X109760000Y-101593000D01*
G75*
G02*
X109522500Y-101830500I-237500J0D01*
G01*
X109047500Y-101830500D01*
G75*
G02*
X108810000Y-101593000I0J237500D01*
G01*
X108810000Y-100993000D01*
G75*
G02*
X109047500Y-100755500I237500J0D01*
G01*
G37*
%TD.AperFunction*%
%TO.P,C11,1*%
%TO.N,-15V*%
%TA.AperFunction,SMDPad,CuDef*%
G36*
G01*
X109047500Y-99030500D02*
X109522500Y-99030500D01*
G75*
G02*
X109760000Y-99268000I0J-237500D01*
G01*
X109760000Y-99868000D01*
G75*
G02*
X109522500Y-100105500I-237500J0D01*
G01*
X109047500Y-100105500D01*
G75*
G02*
X108810000Y-99868000I0J237500D01*
G01*
X108810000Y-99268000D01*
G75*
G02*
X109047500Y-99030500I237500J0D01*
G01*
G37*
%TD.AperFunction*%
%TD*%
%TO.P,C10,2*%
%TO.N,GND*%
%TA.AperFunction,SMDPad,CuDef*%
G36*
G01*
X120887500Y-89083000D02*
X120412500Y-89083000D01*
G75*
G02*
X120175000Y-88845500I0J237500D01*
G01*
X120175000Y-88245500D01*
G75*
G02*
X120412500Y-88008000I237500J0D01*
G01*
X120887500Y-88008000D01*
G75*
G02*
X121125000Y-88245500I0J-237500D01*
G01*
X121125000Y-88845500D01*
G75*
G02*
X120887500Y-89083000I-237500J0D01*
G01*
G37*
%TD.AperFunction*%
%TO.P,C10,1*%
%TO.N,+15V*%
%TA.AperFunction,SMDPad,CuDef*%
G36*
G01*
X120887500Y-90808000D02*
X120412500Y-90808000D01*
G75*
G02*
X120175000Y-90570500I0J237500D01*
G01*
X120175000Y-89970500D01*
G75*
G02*
X120412500Y-89733000I237500J0D01*
G01*
X120887500Y-89733000D01*
G75*
G02*
X121125000Y-89970500I0J-237500D01*
G01*
X121125000Y-90570500D01*
G75*
G02*
X120887500Y-90808000I-237500J0D01*
G01*
G37*
%TD.AperFunction*%
%TD*%
%TO.P,C9,2*%
%TO.N,GND*%
%TA.AperFunction,SMDPad,CuDef*%
G36*
G01*
X89932500Y-91003000D02*
X90407500Y-91003000D01*
G75*
G02*
X90645000Y-91240500I0J-237500D01*
G01*
X90645000Y-91840500D01*
G75*
G02*
X90407500Y-92078000I-237500J0D01*
G01*
X89932500Y-92078000D01*
G75*
G02*
X89695000Y-91840500I0J237500D01*
G01*
X89695000Y-91240500D01*
G75*
G02*
X89932500Y-91003000I237500J0D01*
G01*
G37*
%TD.AperFunction*%
%TO.P,C9,1*%
%TO.N,+5V*%
%TA.AperFunction,SMDPad,CuDef*%
G36*
G01*
X89932500Y-89278000D02*
X90407500Y-89278000D01*
G75*
G02*
X90645000Y-89515500I0J-237500D01*
G01*
X90645000Y-90115500D01*
G75*
G02*
X90407500Y-90353000I-237500J0D01*
G01*
X89932500Y-90353000D01*
G75*
G02*
X89695000Y-90115500I0J237500D01*
G01*
X89695000Y-89515500D01*
G75*
G02*
X89932500Y-89278000I237500J0D01*
G01*
G37*
%TD.AperFunction*%
%TD*%
%TO.P,C7,2*%
%TO.N,GND*%
%TA.AperFunction,SMDPad,CuDef*%
G36*
G01*
X93742500Y-91003000D02*
X94217500Y-91003000D01*
G75*
G02*
X94455000Y-91240500I0J-237500D01*
G01*
X94455000Y-91840500D01*
G75*
G02*
X94217500Y-92078000I-237500J0D01*
G01*
X93742500Y-92078000D01*
G75*
G02*
X93505000Y-91840500I0J237500D01*
G01*
X93505000Y-91240500D01*
G75*
G02*
X93742500Y-91003000I237500J0D01*
G01*
G37*
%TD.AperFunction*%
%TO.P,C7,1*%
%TO.N,+5V*%
%TA.AperFunction,SMDPad,CuDef*%
G36*
G01*
X93742500Y-89278000D02*
X94217500Y-89278000D01*
G75*
G02*
X94455000Y-89515500I0J-237500D01*
G01*
X94455000Y-90115500D01*
G75*
G02*
X94217500Y-90353000I-237500J0D01*
G01*
X93742500Y-90353000D01*
G75*
G02*
X93505000Y-90115500I0J237500D01*
G01*
X93505000Y-89515500D01*
G75*
G02*
X93742500Y-89278000I237500J0D01*
G01*
G37*
%TD.AperFunction*%
%TD*%
%TO.P,C6,2*%
%TO.N,Net-(C6-Pad2)*%
%TA.AperFunction,SMDPad,CuDef*%
G36*
G01*
X86122500Y-91003000D02*
X86597500Y-91003000D01*
G75*
G02*
X86835000Y-91240500I0J-237500D01*
G01*
X86835000Y-91840500D01*
G75*
G02*
X86597500Y-92078000I-237500J0D01*
G01*
X86122500Y-92078000D01*
G75*
G02*
X85885000Y-91840500I0J237500D01*
G01*
X85885000Y-91240500D01*
G75*
G02*
X86122500Y-91003000I237500J0D01*
G01*
G37*
%TD.AperFunction*%
%TO.P,C6,1*%
%TO.N,+5V*%
%TA.AperFunction,SMDPad,CuDef*%
G36*
G01*
X86122500Y-89278000D02*
X86597500Y-89278000D01*
G75*
G02*
X86835000Y-89515500I0J-237500D01*
G01*
X86835000Y-90115500D01*
G75*
G02*
X86597500Y-90353000I-237500J0D01*
G01*
X86122500Y-90353000D01*
G75*
G02*
X85885000Y-90115500I0J237500D01*
G01*
X85885000Y-89515500D01*
G75*
G02*
X86122500Y-89278000I237500J0D01*
G01*
G37*
%TD.AperFunction*%
%TD*%
D25*
%TO.N,GND*%
X80010000Y-66802000D03*
X80010000Y-71882000D03*
X85090000Y-71882000D03*
X80010000Y-76962000D03*
X85090000Y-76962000D03*
X80010000Y-82042000D03*
X85090000Y-82042000D03*
X80010000Y-87122000D03*
X85090000Y-87122000D03*
X95504000Y-85598000D03*
X100584000Y-85598000D03*
X100584000Y-80518000D03*
X85090000Y-66802000D03*
X90170000Y-66802000D03*
X95250000Y-66802000D03*
X100330000Y-66802000D03*
X100584000Y-75438000D03*
X128778000Y-103632000D03*
X133858000Y-103632000D03*
X128778000Y-107696000D03*
X133858000Y-107696000D03*
X109728000Y-107696000D03*
X114808000Y-107696000D03*
X80010000Y-61722000D03*
X85090000Y-61722000D03*
X90170000Y-56642000D03*
X95250000Y-56642000D03*
X100330000Y-56642000D03*
X85090000Y-56642000D03*
X88392000Y-102108000D03*
X93472000Y-102108000D03*
X113030000Y-88646000D03*
X118110000Y-88646000D03*
X118110000Y-98552000D03*
X113030000Y-98552000D03*
X123952000Y-93980000D03*
X105664000Y-100076000D03*
X88392000Y-94488000D03*
X93472000Y-94488000D03*
X113284000Y-64262000D03*
X113284000Y-74422000D03*
X113284000Y-59182000D03*
X113284000Y-69342000D03*
X116586000Y-77724000D03*
X121666000Y-77724000D03*
X95504000Y-75438000D03*
X100584000Y-90678000D03*
X137922000Y-75184000D03*
X137922000Y-65024000D03*
X137922000Y-80264000D03*
X137922000Y-70104000D03*
X141732000Y-75184000D03*
X141732000Y-70104000D03*
X141732000Y-80264000D03*
X141732000Y-65024000D03*
X126746000Y-77724000D03*
X130048000Y-81026000D03*
X127254000Y-57404000D03*
X131826000Y-57404000D03*
%TO.N,+15V*%
X106140000Y-107664000D03*
X123597500Y-90270500D03*
%TO.N,-15V*%
X105664000Y-96012000D03*
X100450000Y-110610000D03*
%TD*%
D26*
%TO.N,GND*%
X92016000Y-97468000D02*
X93640000Y-97468000D01*
X91016000Y-98468000D02*
X92016000Y-97468000D01*
X89240000Y-98468000D02*
X91016000Y-98468000D01*
D27*
%TO.N,+15V*%
X102750000Y-107664000D02*
X106140000Y-107664000D01*
X106140000Y-107664000D02*
X106140000Y-107664000D01*
X123597500Y-90270500D02*
X120650000Y-90270500D01*
X142994000Y-59522000D02*
X144780000Y-61308000D01*
X134620000Y-59522000D02*
X142994000Y-59522000D01*
X124050000Y-60588000D02*
X124050000Y-55782000D01*
X124050000Y-55782000D02*
X125984000Y-53848000D01*
X125984000Y-53848000D02*
X133096000Y-53848000D01*
X134620000Y-55372000D02*
X134620000Y-59522000D01*
X133096000Y-53848000D02*
X134620000Y-55372000D01*
X118337500Y-92583000D02*
X120650000Y-90270500D01*
X132252000Y-72308000D02*
X134620000Y-72308000D01*
X130556000Y-70612000D02*
X132252000Y-72308000D01*
X130556000Y-62484000D02*
X130556000Y-70612000D01*
X128660000Y-60588000D02*
X130556000Y-62484000D01*
X124050000Y-60588000D02*
X128660000Y-60588000D01*
X114235000Y-92583000D02*
X118337500Y-92583000D01*
%TO.N,-15V*%
X144780000Y-66388000D02*
X148430000Y-66388000D01*
X148430000Y-66388000D02*
X149860000Y-67818000D01*
X149860000Y-67818000D02*
X149860000Y-80518000D01*
X149860000Y-80518000D02*
X148590000Y-81788000D01*
X148590000Y-81788000D02*
X146050000Y-81788000D01*
X144780000Y-80518000D02*
X144780000Y-78508000D01*
X146050000Y-81788000D02*
X144780000Y-80518000D01*
X106553000Y-95123000D02*
X105664000Y-96012000D01*
X105664000Y-96012000D02*
X105664000Y-96012000D01*
X100450000Y-107664000D02*
X100450000Y-110610000D01*
X100450000Y-110610000D02*
X100450000Y-110610000D01*
X106553000Y-95123000D02*
X109285000Y-95123000D01*
X109285000Y-95123000D02*
X109285000Y-99568000D01*
%TO.N,+5V*%
X86360000Y-89815500D02*
X90170000Y-89815500D01*
X93980000Y-89815500D02*
X90170000Y-89815500D01*
X90170000Y-79248000D02*
X90170000Y-89815500D01*
X90170000Y-79248000D02*
X90170000Y-73660000D01*
X91821000Y-72009000D02*
X105410000Y-72009000D01*
X90170000Y-73660000D02*
X91821000Y-72009000D01*
X105410000Y-65914000D02*
X105410000Y-72009000D01*
X105410000Y-65914000D02*
X105410000Y-62738000D01*
X105410000Y-62738000D02*
X113030000Y-55118000D01*
X113030000Y-55118000D02*
X117348000Y-55118000D01*
X118950000Y-56720000D02*
X118950000Y-60588000D01*
X117348000Y-55118000D02*
X118950000Y-56720000D01*
D26*
X86360000Y-89815500D02*
X85444500Y-89815500D01*
X85444500Y-89815500D02*
X85090000Y-90170000D01*
X87443600Y-97468000D02*
X89240000Y-97468000D01*
X85090000Y-95114400D02*
X87443600Y-97468000D01*
X85090000Y-90170000D02*
X85090000Y-95114400D01*
%TO.N,Net-(C6-Pad2)*%
X86360000Y-91540500D02*
X86360000Y-95747990D01*
X87580010Y-96968000D02*
X89240000Y-96968000D01*
X86360000Y-95747990D02*
X87580010Y-96968000D01*
D27*
%TO.N,Net-(D1-Pad1)*%
X122350000Y-55548000D02*
X122350000Y-60588000D01*
X105410000Y-56514000D02*
X105410000Y-53594000D01*
X105410000Y-53594000D02*
X106680000Y-52324000D01*
X106680000Y-52324000D02*
X120904000Y-52324000D01*
X122350000Y-53770000D02*
X122350000Y-55548000D01*
X120904000Y-52324000D02*
X122350000Y-53770000D01*
X95210000Y-61468000D02*
X103378000Y-61468000D01*
X105410000Y-59436000D02*
X105410000Y-56514000D01*
X103378000Y-61468000D02*
X105410000Y-59436000D01*
D26*
%TO.N,/FSYNC*%
X96698000Y-97968000D02*
X93640000Y-97968000D01*
X97790000Y-99060000D02*
X96698000Y-97968000D01*
X97790000Y-107442000D02*
X97790000Y-99060000D01*
X96266000Y-108966000D02*
X97790000Y-107442000D01*
X89662000Y-108966000D02*
X96266000Y-108966000D01*
X87884000Y-107188000D02*
X89662000Y-108966000D01*
%TO.N,/SDA*%
X96012000Y-99568000D02*
X95412000Y-98968000D01*
X95250000Y-105410000D02*
X96012000Y-104648000D01*
X96012000Y-104648000D02*
X96012000Y-99568000D01*
X92202000Y-105410000D02*
X95250000Y-105410000D01*
X95412000Y-98968000D02*
X93640000Y-98968000D01*
X90424000Y-107188000D02*
X92202000Y-105410000D01*
%TO.N,/SCL*%
X95928000Y-98468000D02*
X93640000Y-98468000D01*
X97028000Y-99568000D02*
X95928000Y-98468000D01*
X95504000Y-107188000D02*
X97028000Y-105664000D01*
X97028000Y-105664000D02*
X97028000Y-99568000D01*
X92964000Y-107188000D02*
X95504000Y-107188000D01*
%TO.N,Net-(J3-Pad1)*%
X114235000Y-93853000D02*
X118237000Y-93853000D01*
X123952000Y-99568000D02*
X129540000Y-99568000D01*
X118237000Y-93853000D02*
X123952000Y-99568000D01*
X129540000Y-99568000D02*
X137160000Y-99568000D01*
X129540000Y-98044000D02*
X129540000Y-99568000D01*
X130690000Y-96894000D02*
X129540000Y-98044000D01*
X130690000Y-95568000D02*
X130690000Y-96894000D01*
D28*
%TO.N,Net-(R1-Pad2)*%
X100687500Y-93218000D02*
X100838000Y-93218000D01*
D26*
X93640000Y-96968000D02*
X95952000Y-96968000D01*
X99702000Y-93218000D02*
X100687500Y-93218000D01*
X95952000Y-96968000D02*
X99702000Y-93218000D01*
%TO.N,Net-(R1-Pad1)*%
X102512500Y-93218000D02*
X102512500Y-98044000D01*
X106553000Y-93853000D02*
X109285000Y-93853000D01*
X105918000Y-93218000D02*
X106553000Y-93853000D01*
X102512500Y-93218000D02*
X105918000Y-93218000D01*
%TO.N,Net-(R2-Pad2)*%
X119634000Y-101854000D02*
X121412000Y-103632000D01*
X115570000Y-101854000D02*
X119634000Y-101854000D01*
X114554000Y-102870000D02*
X115570000Y-101854000D01*
X104648000Y-102870000D02*
X114554000Y-102870000D01*
X100687500Y-98909500D02*
X104648000Y-102870000D01*
X100687500Y-98044000D02*
X100687500Y-98909500D01*
%TO.N,Net-(R3-Pad2)*%
X110386500Y-87884000D02*
X112672500Y-85598000D01*
X106426000Y-88392000D02*
X106934000Y-87884000D01*
X106426000Y-92202000D02*
X106426000Y-88392000D01*
X106934000Y-87884000D02*
X110386500Y-87884000D01*
X106807000Y-92583000D02*
X106426000Y-92202000D01*
X109285000Y-92583000D02*
X106807000Y-92583000D01*
X128390000Y-92322000D02*
X128390000Y-95568000D01*
X121666000Y-85598000D02*
X128390000Y-92322000D01*
X112672500Y-85598000D02*
X121666000Y-85598000D01*
%TO.N,Net-(RV1-Pad2)*%
X119380000Y-103664000D02*
X119412000Y-103632000D01*
X101600000Y-103664000D02*
X119380000Y-103664000D01*
%TO.N,Net-(U2-Pad5)*%
X87249000Y-99314000D02*
X83650000Y-99314000D01*
X87595000Y-98968000D02*
X87249000Y-99314000D01*
X89240000Y-98968000D02*
X87595000Y-98968000D01*
%TO.N,+2V5*%
X83666500Y-96757500D02*
X83650000Y-96774000D01*
X83666500Y-92583000D02*
X83666500Y-96757500D01*
X87300000Y-97968000D02*
X89240000Y-97968000D01*
X86106000Y-96774000D02*
X87300000Y-97968000D01*
X83650000Y-96774000D02*
X86106000Y-96774000D01*
%TD*%
D28*
%TO.N,GND*%
X150150821Y-50944823D02*
X150437412Y-50997343D01*
X150715586Y-51084026D01*
X150981267Y-51203599D01*
X151230610Y-51354332D01*
X151459955Y-51534012D01*
X151665988Y-51740045D01*
X151845668Y-51969390D01*
X151996401Y-52218733D01*
X152115974Y-52484414D01*
X152202657Y-52762588D01*
X152255177Y-53049179D01*
X152273000Y-53343832D01*
X152273000Y-85217000D01*
X132005606Y-85217000D01*
X130196606Y-83408000D01*
X132931928Y-83408000D01*
X132944188Y-83532482D01*
X132980498Y-83652180D01*
X133039463Y-83762494D01*
X133118815Y-83859185D01*
X133215506Y-83938537D01*
X133325820Y-83997502D01*
X133445518Y-84033812D01*
X133570000Y-84046072D01*
X134334250Y-84043000D01*
X134493000Y-83884250D01*
X134493000Y-81235000D01*
X134747000Y-81235000D01*
X134747000Y-83884250D01*
X134905750Y-84043000D01*
X135670000Y-84046072D01*
X135794482Y-84033812D01*
X135914180Y-83997502D01*
X136024494Y-83938537D01*
X136121185Y-83859185D01*
X136200537Y-83762494D01*
X136259502Y-83652180D01*
X136295812Y-83532482D01*
X136308072Y-83408000D01*
X136305000Y-81393750D01*
X136146250Y-81235000D01*
X134747000Y-81235000D01*
X134493000Y-81235000D01*
X133093750Y-81235000D01*
X132935000Y-81393750D01*
X132931928Y-83408000D01*
X130196606Y-83408000D01*
X126073803Y-79285197D01*
X126054557Y-79269403D01*
X126032601Y-79257667D01*
X126008776Y-79250440D01*
X125984000Y-79248000D01*
X112701606Y-79248000D01*
X112261606Y-78808000D01*
X132931928Y-78808000D01*
X132935000Y-80822250D01*
X133093750Y-80981000D01*
X134493000Y-80981000D01*
X134493000Y-78331750D01*
X134747000Y-78331750D01*
X134747000Y-80981000D01*
X136146250Y-80981000D01*
X136305000Y-80822250D01*
X136308072Y-78808000D01*
X136295812Y-78683518D01*
X136259502Y-78563820D01*
X136200537Y-78453506D01*
X136121185Y-78356815D01*
X136024494Y-78277463D01*
X135914180Y-78218498D01*
X135794482Y-78182188D01*
X135670000Y-78169928D01*
X134905750Y-78173000D01*
X134747000Y-78331750D01*
X134493000Y-78331750D01*
X134334250Y-78173000D01*
X133570000Y-78169928D01*
X133445518Y-78182188D01*
X133325820Y-78218498D01*
X133215506Y-78277463D01*
X133118815Y-78356815D01*
X133039463Y-78453506D01*
X132980498Y-78563820D01*
X132944188Y-78683518D01*
X132931928Y-78808000D01*
X112261606Y-78808000D01*
X112141000Y-78687394D01*
X112141000Y-76008000D01*
X143341928Y-76008000D01*
X143354188Y-76132482D01*
X143390498Y-76252180D01*
X143449463Y-76362494D01*
X143528815Y-76459185D01*
X143625506Y-76538537D01*
X143735820Y-76597502D01*
X143855518Y-76633812D01*
X143980000Y-76646072D01*
X144494250Y-76643000D01*
X144653000Y-76484250D01*
X144653000Y-74635000D01*
X144907000Y-74635000D01*
X144907000Y-76484250D01*
X145065750Y-76643000D01*
X145580000Y-76646072D01*
X145704482Y-76633812D01*
X145824180Y-76597502D01*
X145934494Y-76538537D01*
X146031185Y-76459185D01*
X146110537Y-76362494D01*
X146169502Y-76252180D01*
X146205812Y-76132482D01*
X146218072Y-76008000D01*
X146215000Y-74793750D01*
X146056250Y-74635000D01*
X144907000Y-74635000D01*
X144653000Y-74635000D01*
X143503750Y-74635000D01*
X143345000Y-74793750D01*
X143341928Y-76008000D01*
X112141000Y-76008000D01*
X112141000Y-74438000D01*
X114611928Y-74438000D01*
X114624188Y-74562482D01*
X114660498Y-74682180D01*
X114719463Y-74792494D01*
X114798815Y-74889185D01*
X114895506Y-74968537D01*
X115005820Y-75027502D01*
X115125518Y-75063812D01*
X115250000Y-75076072D01*
X120364250Y-75073000D01*
X120523000Y-74914250D01*
X120523000Y-69865000D01*
X120777000Y-69865000D01*
X120777000Y-74914250D01*
X120935750Y-75073000D01*
X126050000Y-75076072D01*
X126174482Y-75063812D01*
X126294180Y-75027502D01*
X126404494Y-74968537D01*
X126501185Y-74889185D01*
X126580537Y-74792494D01*
X126639502Y-74682180D01*
X126675812Y-74562482D01*
X126688072Y-74438000D01*
X126685000Y-70023750D01*
X126526250Y-69865000D01*
X120777000Y-69865000D01*
X120523000Y-69865000D01*
X114773750Y-69865000D01*
X114615000Y-70023750D01*
X114611928Y-74438000D01*
X112141000Y-74438000D01*
X112141000Y-65038000D01*
X114611928Y-65038000D01*
X114615000Y-69452250D01*
X114773750Y-69611000D01*
X120523000Y-69611000D01*
X120523000Y-64561750D01*
X120777000Y-64561750D01*
X120777000Y-69611000D01*
X126526250Y-69611000D01*
X126685000Y-69452250D01*
X126688072Y-65038000D01*
X126675812Y-64913518D01*
X126639502Y-64793820D01*
X126580537Y-64683506D01*
X126501185Y-64586815D01*
X126404494Y-64507463D01*
X126294180Y-64448498D01*
X126174482Y-64412188D01*
X126050000Y-64399928D01*
X120935750Y-64403000D01*
X120777000Y-64561750D01*
X120523000Y-64561750D01*
X120364250Y-64403000D01*
X115250000Y-64399928D01*
X115125518Y-64412188D01*
X115005820Y-64448498D01*
X114895506Y-64507463D01*
X114798815Y-64586815D01*
X114719463Y-64683506D01*
X114660498Y-64793820D01*
X114624188Y-64913518D01*
X114611928Y-65038000D01*
X112141000Y-65038000D01*
X112141000Y-62888000D01*
X116061928Y-62888000D01*
X116074188Y-63012482D01*
X116110498Y-63132180D01*
X116169463Y-63242494D01*
X116248815Y-63339185D01*
X116345506Y-63418537D01*
X116455820Y-63477502D01*
X116575518Y-63513812D01*
X116700000Y-63526072D01*
X116964250Y-63523000D01*
X117123000Y-63364250D01*
X117123000Y-60715000D01*
X116223750Y-60715000D01*
X116065000Y-60873750D01*
X116061928Y-62888000D01*
X112141000Y-62888000D01*
X112141000Y-58288000D01*
X116061928Y-58288000D01*
X116065000Y-60302250D01*
X116223750Y-60461000D01*
X117123000Y-60461000D01*
X117123000Y-57811750D01*
X116964250Y-57653000D01*
X116700000Y-57649928D01*
X116575518Y-57662188D01*
X116455820Y-57698498D01*
X116345506Y-57757463D01*
X116248815Y-57836815D01*
X116169463Y-57933506D01*
X116110498Y-58043820D01*
X116074188Y-58163518D01*
X116061928Y-58288000D01*
X112141000Y-58288000D01*
X112141000Y-57084631D01*
X113345631Y-55880000D01*
X117032370Y-55880000D01*
X118188000Y-57035631D01*
X118188000Y-57784961D01*
X118154494Y-57757463D01*
X118044180Y-57698498D01*
X117924482Y-57662188D01*
X117800000Y-57649928D01*
X117535750Y-57653000D01*
X117377000Y-57811750D01*
X117377000Y-60461000D01*
X117397000Y-60461000D01*
X117397000Y-60715000D01*
X117377000Y-60715000D01*
X117377000Y-63364250D01*
X117535750Y-63523000D01*
X117800000Y-63526072D01*
X117924482Y-63513812D01*
X118044180Y-63477502D01*
X118154494Y-63418537D01*
X118220465Y-63364396D01*
X118300415Y-63388649D01*
X118400000Y-63398457D01*
X119500000Y-63398457D01*
X119599585Y-63388649D01*
X119679535Y-63364396D01*
X119745506Y-63418537D01*
X119855820Y-63477502D01*
X119975518Y-63513812D01*
X120100000Y-63526072D01*
X120364250Y-63523000D01*
X120523000Y-63364250D01*
X120523000Y-60715000D01*
X120503000Y-60715000D01*
X120503000Y-60461000D01*
X120523000Y-60461000D01*
X120523000Y-57811750D01*
X120364250Y-57653000D01*
X120100000Y-57649928D01*
X119975518Y-57662188D01*
X119855820Y-57698498D01*
X119745506Y-57757463D01*
X119712000Y-57784961D01*
X119712000Y-56757422D01*
X119715686Y-56719999D01*
X119712000Y-56682574D01*
X119700974Y-56570622D01*
X119657402Y-56426985D01*
X119586645Y-56294608D01*
X119491422Y-56178578D01*
X119462353Y-56154722D01*
X117913284Y-54605654D01*
X117889422Y-54576578D01*
X117773392Y-54481355D01*
X117641015Y-54410598D01*
X117497378Y-54367026D01*
X117385426Y-54356000D01*
X117385423Y-54356000D01*
X117348000Y-54352314D01*
X117310577Y-54356000D01*
X113067422Y-54356000D01*
X113029999Y-54352314D01*
X112992576Y-54356000D01*
X112992574Y-54356000D01*
X112880622Y-54367026D01*
X112736985Y-54410598D01*
X112604608Y-54481355D01*
X112488578Y-54576578D01*
X112464721Y-54605648D01*
X104897649Y-62172721D01*
X104868579Y-62196578D01*
X104844722Y-62225648D01*
X104844721Y-62225649D01*
X104773355Y-62312608D01*
X104702599Y-62444985D01*
X104659027Y-62588622D01*
X104644314Y-62738000D01*
X104648001Y-62775433D01*
X104648001Y-63403543D01*
X103160000Y-63403543D01*
X103060415Y-63413351D01*
X102964657Y-63442399D01*
X102876405Y-63489571D01*
X102799052Y-63553052D01*
X102735571Y-63630405D01*
X102688399Y-63718657D01*
X102659351Y-63814415D01*
X102649543Y-63914000D01*
X102649543Y-67914000D01*
X102659351Y-68013585D01*
X102688399Y-68109343D01*
X102735571Y-68197595D01*
X102799052Y-68274948D01*
X102876405Y-68338429D01*
X102964657Y-68385601D01*
X103060415Y-68414649D01*
X103160000Y-68424457D01*
X104648000Y-68424457D01*
X104648001Y-69248543D01*
X104609999Y-69248543D01*
X104461641Y-69263155D01*
X104318985Y-69306429D01*
X104187512Y-69376703D01*
X104072275Y-69471275D01*
X103977703Y-69586512D01*
X103907429Y-69717985D01*
X103864155Y-69860641D01*
X103849543Y-70008999D01*
X103849543Y-71247000D01*
X91858423Y-71247000D01*
X91821000Y-71243314D01*
X91783577Y-71247000D01*
X91783574Y-71247000D01*
X91671622Y-71258026D01*
X91527985Y-71301598D01*
X91494676Y-71319402D01*
X91395607Y-71372355D01*
X91353219Y-71407143D01*
X91279578Y-71467578D01*
X91255716Y-71496654D01*
X89657649Y-73094721D01*
X89628579Y-73118578D01*
X89604722Y-73147648D01*
X89604721Y-73147649D01*
X89533355Y-73234608D01*
X89462599Y-73366985D01*
X89419027Y-73510622D01*
X89404314Y-73660000D01*
X89408001Y-73697433D01*
X89408000Y-77937543D01*
X88920000Y-77937543D01*
X88771642Y-77952155D01*
X88628986Y-77995429D01*
X88497513Y-78065703D01*
X88382276Y-78160276D01*
X88287703Y-78275513D01*
X88217429Y-78406986D01*
X88174155Y-78549642D01*
X88159543Y-78698000D01*
X88159543Y-79798000D01*
X88174155Y-79946358D01*
X88217429Y-80089014D01*
X88287703Y-80220487D01*
X88382276Y-80335724D01*
X88497513Y-80430297D01*
X88628986Y-80500571D01*
X88771642Y-80543845D01*
X88920000Y-80558457D01*
X89408000Y-80558457D01*
X89408001Y-88983016D01*
X89403615Y-88986615D01*
X89348723Y-89053500D01*
X87181277Y-89053500D01*
X87126385Y-88986615D01*
X87013043Y-88893596D01*
X86883731Y-88824478D01*
X86743419Y-88781915D01*
X86597500Y-88767543D01*
X86122500Y-88767543D01*
X85976581Y-88781915D01*
X85836269Y-88824478D01*
X85706957Y-88893596D01*
X85593615Y-88986615D01*
X85500596Y-89099957D01*
X85457432Y-89180712D01*
X85444500Y-89179438D01*
X85413412Y-89182500D01*
X85320410Y-89191660D01*
X85201090Y-89227855D01*
X85091123Y-89286634D01*
X84994736Y-89365736D01*
X84974912Y-89389892D01*
X84664388Y-89700415D01*
X84640236Y-89720236D01*
X84561134Y-89816624D01*
X84502355Y-89926591D01*
X84486917Y-89977485D01*
X84466160Y-90045911D01*
X84453938Y-90170000D01*
X84457000Y-90201088D01*
X84457000Y-91785113D01*
X84382043Y-91723596D01*
X84252731Y-91654478D01*
X84112419Y-91611915D01*
X83966500Y-91597543D01*
X83366500Y-91597543D01*
X83220581Y-91611915D01*
X83080269Y-91654478D01*
X82974614Y-91710951D01*
X82930185Y-91656815D01*
X82833494Y-91577463D01*
X82723180Y-91518498D01*
X82603482Y-91482188D01*
X82479000Y-91469928D01*
X82227250Y-91473000D01*
X82068500Y-91631750D01*
X82068500Y-92456000D01*
X82088500Y-92456000D01*
X82088500Y-92710000D01*
X82068500Y-92710000D01*
X82068500Y-93534250D01*
X82227250Y-93693000D01*
X82479000Y-93696072D01*
X82603482Y-93683812D01*
X82723180Y-93647502D01*
X82833494Y-93588537D01*
X82930185Y-93509185D01*
X82974614Y-93455049D01*
X83033500Y-93486524D01*
X83033501Y-95463543D01*
X82900000Y-95463543D01*
X82800415Y-95473351D01*
X82704657Y-95502399D01*
X82616405Y-95549571D01*
X82550000Y-95604067D01*
X82483595Y-95549571D01*
X82395343Y-95502399D01*
X82299585Y-95473351D01*
X82200000Y-95463543D01*
X80700000Y-95463543D01*
X80600415Y-95473351D01*
X80504657Y-95502399D01*
X80416405Y-95549571D01*
X80339052Y-95613052D01*
X80275571Y-95690405D01*
X80228399Y-95778657D01*
X80199351Y-95874415D01*
X80189543Y-95974000D01*
X80189543Y-97574000D01*
X80199351Y-97673585D01*
X80228399Y-97769343D01*
X80275571Y-97857595D01*
X80339052Y-97934948D01*
X80377397Y-97966417D01*
X80345506Y-97983463D01*
X80248815Y-98062815D01*
X80169463Y-98159506D01*
X80110498Y-98269820D01*
X80074188Y-98389518D01*
X80061928Y-98514000D01*
X80065000Y-99028250D01*
X80223750Y-99187000D01*
X81323000Y-99187000D01*
X81323000Y-99167000D01*
X81577000Y-99167000D01*
X81577000Y-99187000D01*
X81597000Y-99187000D01*
X81597000Y-99441000D01*
X81577000Y-99441000D01*
X81577000Y-100590250D01*
X81735750Y-100749000D01*
X82200000Y-100752072D01*
X82324482Y-100739812D01*
X82444180Y-100703502D01*
X82554494Y-100644537D01*
X82651185Y-100565185D01*
X82655843Y-100559509D01*
X82704657Y-100585601D01*
X82800415Y-100614649D01*
X82900000Y-100624457D01*
X84400000Y-100624457D01*
X84499585Y-100614649D01*
X84595343Y-100585601D01*
X84683595Y-100538429D01*
X84760948Y-100474948D01*
X84824429Y-100397595D01*
X84871601Y-100309343D01*
X84900649Y-100213585D01*
X84910457Y-100114000D01*
X84910457Y-99947000D01*
X87217912Y-99947000D01*
X87249000Y-99950062D01*
X87280088Y-99947000D01*
X87373090Y-99937840D01*
X87492410Y-99901645D01*
X87602377Y-99842866D01*
X87698764Y-99763764D01*
X87718585Y-99739612D01*
X87857197Y-99601000D01*
X88382234Y-99601000D01*
X88440415Y-99618649D01*
X88540000Y-99628457D01*
X89940000Y-99628457D01*
X90039585Y-99618649D01*
X90135343Y-99589601D01*
X90223595Y-99542429D01*
X90300948Y-99478948D01*
X90364429Y-99401595D01*
X90411601Y-99313343D01*
X90440649Y-99217585D01*
X90450457Y-99118000D01*
X90450457Y-98997827D01*
X90464943Y-98980727D01*
X90525621Y-98871346D01*
X90563794Y-98752229D01*
X90575000Y-98649750D01*
X90416250Y-98491000D01*
X90328808Y-98491000D01*
X90309933Y-98468000D01*
X90328808Y-98445000D01*
X90416250Y-98445000D01*
X90575000Y-98286250D01*
X90563794Y-98183771D01*
X90525621Y-98064654D01*
X90464943Y-97955273D01*
X90450457Y-97938173D01*
X90450457Y-97818000D01*
X90440649Y-97718415D01*
X90440523Y-97718000D01*
X90440649Y-97717585D01*
X90450457Y-97618000D01*
X90450457Y-97318000D01*
X90440649Y-97218415D01*
X90440523Y-97218000D01*
X90440649Y-97217585D01*
X90450457Y-97118000D01*
X90450457Y-96818000D01*
X90440649Y-96718415D01*
X90411601Y-96622657D01*
X90364429Y-96534405D01*
X90300948Y-96457052D01*
X90223595Y-96393571D01*
X90135343Y-96346399D01*
X90039585Y-96317351D01*
X89940000Y-96307543D01*
X88540000Y-96307543D01*
X88440415Y-96317351D01*
X88382234Y-96335000D01*
X87842207Y-96335000D01*
X86993000Y-95485793D01*
X86993000Y-92473117D01*
X87013043Y-92462404D01*
X87126385Y-92369385D01*
X87219404Y-92256043D01*
X87288522Y-92126731D01*
X87303304Y-92078000D01*
X89056928Y-92078000D01*
X89069188Y-92202482D01*
X89105498Y-92322180D01*
X89164463Y-92432494D01*
X89243815Y-92529185D01*
X89340506Y-92608537D01*
X89450820Y-92667502D01*
X89570518Y-92703812D01*
X89695000Y-92716072D01*
X89884250Y-92713000D01*
X90043000Y-92554250D01*
X90043000Y-91667500D01*
X90297000Y-91667500D01*
X90297000Y-92554250D01*
X90455750Y-92713000D01*
X90645000Y-92716072D01*
X90769482Y-92703812D01*
X90889180Y-92667502D01*
X90999494Y-92608537D01*
X91096185Y-92529185D01*
X91175537Y-92432494D01*
X91234502Y-92322180D01*
X91270812Y-92202482D01*
X91283072Y-92078000D01*
X92866928Y-92078000D01*
X92879188Y-92202482D01*
X92915498Y-92322180D01*
X92974463Y-92432494D01*
X93053815Y-92529185D01*
X93150506Y-92608537D01*
X93260820Y-92667502D01*
X93380518Y-92703812D01*
X93505000Y-92716072D01*
X93694250Y-92713000D01*
X93853000Y-92554250D01*
X93853000Y-91667500D01*
X94107000Y-91667500D01*
X94107000Y-92554250D01*
X94265750Y-92713000D01*
X94455000Y-92716072D01*
X94579482Y-92703812D01*
X94699180Y-92667502D01*
X94809494Y-92608537D01*
X94906185Y-92529185D01*
X94985537Y-92432494D01*
X95044502Y-92322180D01*
X95080812Y-92202482D01*
X95093072Y-92078000D01*
X95090000Y-91826250D01*
X94931250Y-91667500D01*
X94107000Y-91667500D01*
X93853000Y-91667500D01*
X93028750Y-91667500D01*
X92870000Y-91826250D01*
X92866928Y-92078000D01*
X91283072Y-92078000D01*
X91280000Y-91826250D01*
X91121250Y-91667500D01*
X90297000Y-91667500D01*
X90043000Y-91667500D01*
X89218750Y-91667500D01*
X89060000Y-91826250D01*
X89056928Y-92078000D01*
X87303304Y-92078000D01*
X87331085Y-91986419D01*
X87345457Y-91840500D01*
X87345457Y-91240500D01*
X87331085Y-91094581D01*
X87288522Y-90954269D01*
X87219404Y-90824957D01*
X87126385Y-90711615D01*
X87085426Y-90678000D01*
X87126385Y-90644385D01*
X87181277Y-90577500D01*
X89222736Y-90577500D01*
X89164463Y-90648506D01*
X89105498Y-90758820D01*
X89069188Y-90878518D01*
X89056928Y-91003000D01*
X89060000Y-91254750D01*
X89218750Y-91413500D01*
X90043000Y-91413500D01*
X90043000Y-91393500D01*
X90297000Y-91393500D01*
X90297000Y-91413500D01*
X91121250Y-91413500D01*
X91280000Y-91254750D01*
X91283072Y-91003000D01*
X91270812Y-90878518D01*
X91234502Y-90758820D01*
X91175537Y-90648506D01*
X91117264Y-90577500D01*
X93032736Y-90577500D01*
X92974463Y-90648506D01*
X92915498Y-90758820D01*
X92879188Y-90878518D01*
X92866928Y-91003000D01*
X92870000Y-91254750D01*
X93028750Y-91413500D01*
X93853000Y-91413500D01*
X93853000Y-91393500D01*
X94107000Y-91393500D01*
X94107000Y-91413500D01*
X94931250Y-91413500D01*
X95090000Y-91254750D01*
X95093072Y-91003000D01*
X95080812Y-90878518D01*
X95044502Y-90758820D01*
X94985537Y-90648506D01*
X94906185Y-90551815D01*
X94852049Y-90507386D01*
X94908522Y-90401731D01*
X94951085Y-90261419D01*
X94965457Y-90115500D01*
X94965457Y-89515500D01*
X94951085Y-89369581D01*
X94908522Y-89229269D01*
X94839404Y-89099957D01*
X94746385Y-88986615D01*
X94633043Y-88893596D01*
X94503731Y-88824478D01*
X94363419Y-88781915D01*
X94217500Y-88767543D01*
X93742500Y-88767543D01*
X93596581Y-88781915D01*
X93456269Y-88824478D01*
X93326957Y-88893596D01*
X93213615Y-88986615D01*
X93158723Y-89053500D01*
X90991277Y-89053500D01*
X90936385Y-88986615D01*
X90932000Y-88983016D01*
X90932000Y-85123000D01*
X109721928Y-85123000D01*
X109725000Y-85312250D01*
X109883750Y-85471000D01*
X110720500Y-85471000D01*
X110720500Y-84646750D01*
X110561750Y-84488000D01*
X110360000Y-84484928D01*
X110235518Y-84497188D01*
X110115820Y-84533498D01*
X110005506Y-84592463D01*
X109908815Y-84671815D01*
X109829463Y-84768506D01*
X109770498Y-84878820D01*
X109734188Y-84998518D01*
X109721928Y-85123000D01*
X90932000Y-85123000D01*
X90932000Y-81459000D01*
X103721928Y-81459000D01*
X103734188Y-81583482D01*
X103770498Y-81703180D01*
X103829463Y-81813494D01*
X103908815Y-81910185D01*
X104005506Y-81989537D01*
X104115820Y-82048502D01*
X104235518Y-82084812D01*
X104360000Y-82097072D01*
X105124250Y-82094000D01*
X105283000Y-81935250D01*
X105283000Y-79336000D01*
X105537000Y-79336000D01*
X105537000Y-81935250D01*
X105695750Y-82094000D01*
X106460000Y-82097072D01*
X106584482Y-82084812D01*
X106704180Y-82048502D01*
X106814494Y-81989537D01*
X106911185Y-81910185D01*
X106990537Y-81813494D01*
X107049502Y-81703180D01*
X107085812Y-81583482D01*
X107098072Y-81459000D01*
X107095000Y-79494750D01*
X106936250Y-79336000D01*
X105537000Y-79336000D01*
X105283000Y-79336000D01*
X103883750Y-79336000D01*
X103725000Y-79494750D01*
X103721928Y-81459000D01*
X90932000Y-81459000D01*
X90932000Y-80558457D01*
X91420000Y-80558457D01*
X91568358Y-80543845D01*
X91711014Y-80500571D01*
X91842487Y-80430297D01*
X91957724Y-80335724D01*
X92052297Y-80220487D01*
X92122571Y-80089014D01*
X92135012Y-80048000D01*
X92431928Y-80048000D01*
X92444188Y-80172482D01*
X92480498Y-80292180D01*
X92539463Y-80402494D01*
X92618815Y-80499185D01*
X92715506Y-80578537D01*
X92825820Y-80637502D01*
X92945518Y-80673812D01*
X93070000Y-80686072D01*
X94284250Y-80683000D01*
X94443000Y-80524250D01*
X94443000Y-79375000D01*
X94697000Y-79375000D01*
X94697000Y-80524250D01*
X94855750Y-80683000D01*
X96070000Y-80686072D01*
X96194482Y-80673812D01*
X96314180Y-80637502D01*
X96424494Y-80578537D01*
X96521185Y-80499185D01*
X96600537Y-80402494D01*
X96659502Y-80292180D01*
X96695812Y-80172482D01*
X96708072Y-80048000D01*
X96705000Y-79533750D01*
X96546250Y-79375000D01*
X94697000Y-79375000D01*
X94443000Y-79375000D01*
X92593750Y-79375000D01*
X92435000Y-79533750D01*
X92431928Y-80048000D01*
X92135012Y-80048000D01*
X92165845Y-79946358D01*
X92180457Y-79798000D01*
X92180457Y-78698000D01*
X92165845Y-78549642D01*
X92135013Y-78448000D01*
X92431928Y-78448000D01*
X92435000Y-78962250D01*
X92593750Y-79121000D01*
X94443000Y-79121000D01*
X94443000Y-77971750D01*
X94697000Y-77971750D01*
X94697000Y-79121000D01*
X96546250Y-79121000D01*
X96705000Y-78962250D01*
X96708072Y-78448000D01*
X96695812Y-78323518D01*
X96659502Y-78203820D01*
X96600537Y-78093506D01*
X96521185Y-77996815D01*
X96424494Y-77917463D01*
X96314180Y-77858498D01*
X96194482Y-77822188D01*
X96070000Y-77809928D01*
X94855750Y-77813000D01*
X94697000Y-77971750D01*
X94443000Y-77971750D01*
X94284250Y-77813000D01*
X93070000Y-77809928D01*
X92945518Y-77822188D01*
X92825820Y-77858498D01*
X92715506Y-77917463D01*
X92618815Y-77996815D01*
X92539463Y-78093506D01*
X92480498Y-78203820D01*
X92444188Y-78323518D01*
X92431928Y-78448000D01*
X92135013Y-78448000D01*
X92122571Y-78406986D01*
X92052297Y-78275513D01*
X91957724Y-78160276D01*
X91842487Y-78065703D01*
X91711014Y-77995429D01*
X91568358Y-77952155D01*
X91420000Y-77937543D01*
X90932000Y-77937543D01*
X90932000Y-76959000D01*
X103721928Y-76959000D01*
X103725000Y-78923250D01*
X103883750Y-79082000D01*
X105283000Y-79082000D01*
X105283000Y-76482750D01*
X105537000Y-76482750D01*
X105537000Y-79082000D01*
X106936250Y-79082000D01*
X107095000Y-78923250D01*
X107098072Y-76959000D01*
X107085812Y-76834518D01*
X107049502Y-76714820D01*
X106990537Y-76604506D01*
X106911185Y-76507815D01*
X106814494Y-76428463D01*
X106704180Y-76369498D01*
X106584482Y-76333188D01*
X106460000Y-76320928D01*
X105695750Y-76324000D01*
X105537000Y-76482750D01*
X105283000Y-76482750D01*
X105124250Y-76324000D01*
X104360000Y-76320928D01*
X104235518Y-76333188D01*
X104115820Y-76369498D01*
X104005506Y-76428463D01*
X103908815Y-76507815D01*
X103829463Y-76604506D01*
X103770498Y-76714820D01*
X103734188Y-76834518D01*
X103721928Y-76959000D01*
X90932000Y-76959000D01*
X90932000Y-73975630D01*
X92136630Y-72771000D01*
X103849543Y-72771000D01*
X103849543Y-74009001D01*
X103864155Y-74157359D01*
X103907429Y-74300015D01*
X103977703Y-74431488D01*
X104072275Y-74546725D01*
X104187512Y-74641297D01*
X104318985Y-74711571D01*
X104461641Y-74754845D01*
X104609999Y-74769457D01*
X106210001Y-74769457D01*
X106358359Y-74754845D01*
X106501015Y-74711571D01*
X106632488Y-74641297D01*
X106747725Y-74546725D01*
X106842297Y-74431488D01*
X106912571Y-74300015D01*
X106955845Y-74157359D01*
X106970457Y-74009001D01*
X106970457Y-70008999D01*
X106955845Y-69860641D01*
X106912571Y-69717985D01*
X106842297Y-69586512D01*
X106747725Y-69471275D01*
X106632488Y-69376703D01*
X106501015Y-69306429D01*
X106358359Y-69263155D01*
X106210001Y-69248543D01*
X106172000Y-69248543D01*
X106172000Y-68424457D01*
X107660000Y-68424457D01*
X107759585Y-68414649D01*
X107855343Y-68385601D01*
X107943595Y-68338429D01*
X108020948Y-68274948D01*
X108084429Y-68197595D01*
X108131601Y-68109343D01*
X108160649Y-68013585D01*
X108170457Y-67914000D01*
X108170457Y-63914000D01*
X108160649Y-63814415D01*
X108131601Y-63718657D01*
X108084429Y-63630405D01*
X108020948Y-63553052D01*
X107943595Y-63489571D01*
X107855343Y-63442399D01*
X107759585Y-63413351D01*
X107660000Y-63403543D01*
X106172000Y-63403543D01*
X106172000Y-63053630D01*
X110998000Y-58227631D01*
X110998000Y-79629000D01*
X111000440Y-79653776D01*
X111007667Y-79677601D01*
X111019403Y-79699557D01*
X111035197Y-79718803D01*
X111670197Y-80353803D01*
X111689443Y-80369597D01*
X111711399Y-80381333D01*
X111735224Y-80388560D01*
X111760000Y-80391000D01*
X125296394Y-80391000D01*
X131228197Y-86322803D01*
X131247443Y-86338597D01*
X131269399Y-86350333D01*
X131293224Y-86357560D01*
X131318000Y-86360000D01*
X152273000Y-86360000D01*
X152273000Y-111756168D01*
X152255177Y-112050821D01*
X152202657Y-112337412D01*
X152115974Y-112615586D01*
X151996401Y-112881267D01*
X151845668Y-113130610D01*
X151665988Y-113359955D01*
X151459955Y-113565988D01*
X151230610Y-113745668D01*
X150981267Y-113896401D01*
X150715586Y-114015974D01*
X150437412Y-114102657D01*
X150150821Y-114155177D01*
X149856168Y-114173000D01*
X78743832Y-114173000D01*
X78449179Y-114155177D01*
X78162588Y-114102657D01*
X77884414Y-114015974D01*
X77618733Y-113896401D01*
X77369390Y-113745668D01*
X77140045Y-113565988D01*
X76934012Y-113359955D01*
X76754332Y-113130610D01*
X76603599Y-112881267D01*
X76484026Y-112615586D01*
X76397343Y-112337412D01*
X76344823Y-112050821D01*
X76327000Y-111756168D01*
X76327000Y-110223285D01*
X77302000Y-110223285D01*
X77302000Y-110756715D01*
X77406067Y-111279895D01*
X77610201Y-111772719D01*
X77906559Y-112216249D01*
X78283751Y-112593441D01*
X78727281Y-112889799D01*
X79220105Y-113093933D01*
X79743285Y-113198000D01*
X80276715Y-113198000D01*
X80799895Y-113093933D01*
X81292719Y-112889799D01*
X81736249Y-112593441D01*
X82113441Y-112216249D01*
X82409799Y-111772719D01*
X82613933Y-111279895D01*
X82718000Y-110756715D01*
X82718000Y-110223285D01*
X82613933Y-109700105D01*
X82409799Y-109207281D01*
X82113441Y-108763751D01*
X81736249Y-108386559D01*
X81292719Y-108090201D01*
X80799895Y-107886067D01*
X80276715Y-107782000D01*
X79743285Y-107782000D01*
X79220105Y-107886067D01*
X78727281Y-108090201D01*
X78283751Y-108386559D01*
X77906559Y-108763751D01*
X77610201Y-109207281D01*
X77406067Y-109700105D01*
X77302000Y-110223285D01*
X76327000Y-110223285D01*
X76327000Y-107544891D01*
X83902519Y-107544891D01*
X83999843Y-107819252D01*
X84148822Y-108069355D01*
X84343731Y-108285588D01*
X84577080Y-108459641D01*
X84839901Y-108584825D01*
X84987110Y-108629476D01*
X85217000Y-108508155D01*
X85217000Y-107315000D01*
X84023186Y-107315000D01*
X83902519Y-107544891D01*
X76327000Y-107544891D01*
X76327000Y-106831109D01*
X83902519Y-106831109D01*
X84023186Y-107061000D01*
X85217000Y-107061000D01*
X85217000Y-105867845D01*
X85471000Y-105867845D01*
X85471000Y-107061000D01*
X85491000Y-107061000D01*
X85491000Y-107315000D01*
X85471000Y-107315000D01*
X85471000Y-108508155D01*
X85700890Y-108629476D01*
X85848099Y-108584825D01*
X86110920Y-108459641D01*
X86344269Y-108285588D01*
X86539178Y-108069355D01*
X86680795Y-107831611D01*
X86829172Y-108053675D01*
X87018325Y-108242828D01*
X87240746Y-108391444D01*
X87487886Y-108493813D01*
X87750249Y-108546000D01*
X88017751Y-108546000D01*
X88280114Y-108493813D01*
X88290368Y-108489565D01*
X89192416Y-109391613D01*
X89212236Y-109415764D01*
X89308623Y-109494866D01*
X89418590Y-109553645D01*
X89537910Y-109589840D01*
X89662000Y-109602062D01*
X89693088Y-109599000D01*
X96234912Y-109599000D01*
X96266000Y-109602062D01*
X96297088Y-109599000D01*
X96390090Y-109589840D01*
X96509410Y-109553645D01*
X96619377Y-109494866D01*
X96715764Y-109415764D01*
X96735584Y-109391613D01*
X98215614Y-107911583D01*
X98239764Y-107891764D01*
X98318866Y-107795377D01*
X98377645Y-107685410D01*
X98413840Y-107566090D01*
X98423000Y-107473088D01*
X98423000Y-107473087D01*
X98426062Y-107442001D01*
X98423000Y-107410915D01*
X98423000Y-106664000D01*
X99289543Y-106664000D01*
X99289543Y-108664000D01*
X99299351Y-108763585D01*
X99328399Y-108859343D01*
X99375571Y-108947595D01*
X99439052Y-109024948D01*
X99516405Y-109088429D01*
X99604657Y-109135601D01*
X99688001Y-109160883D01*
X99688001Y-110116056D01*
X99645341Y-110179901D01*
X99576894Y-110345146D01*
X99542000Y-110520570D01*
X99542000Y-110699430D01*
X99576894Y-110874854D01*
X99645341Y-111040099D01*
X99744711Y-111188816D01*
X99871184Y-111315289D01*
X100019901Y-111414659D01*
X100185146Y-111483106D01*
X100360570Y-111518000D01*
X100539430Y-111518000D01*
X100714854Y-111483106D01*
X100880099Y-111414659D01*
X101028816Y-111315289D01*
X101155289Y-111188816D01*
X101254659Y-111040099D01*
X101323106Y-110874854D01*
X101358000Y-110699430D01*
X101358000Y-110520570D01*
X101323106Y-110345146D01*
X101272630Y-110223285D01*
X145882000Y-110223285D01*
X145882000Y-110756715D01*
X145986067Y-111279895D01*
X146190201Y-111772719D01*
X146486559Y-112216249D01*
X146863751Y-112593441D01*
X147307281Y-112889799D01*
X147800105Y-113093933D01*
X148323285Y-113198000D01*
X148856715Y-113198000D01*
X149379895Y-113093933D01*
X149872719Y-112889799D01*
X150316249Y-112593441D01*
X150693441Y-112216249D01*
X150989799Y-111772719D01*
X151193933Y-111279895D01*
X151298000Y-110756715D01*
X151298000Y-110223285D01*
X151193933Y-109700105D01*
X150989799Y-109207281D01*
X150693441Y-108763751D01*
X150316249Y-108386559D01*
X149872719Y-108090201D01*
X149379895Y-107886067D01*
X148856715Y-107782000D01*
X148323285Y-107782000D01*
X147800105Y-107886067D01*
X147307281Y-108090201D01*
X146863751Y-108386559D01*
X146486559Y-108763751D01*
X146190201Y-109207281D01*
X145986067Y-109700105D01*
X145882000Y-110223285D01*
X101272630Y-110223285D01*
X101254659Y-110179901D01*
X101212000Y-110116058D01*
X101212000Y-109160883D01*
X101295343Y-109135601D01*
X101383595Y-109088429D01*
X101460948Y-109024948D01*
X101524429Y-108947595D01*
X101571601Y-108859343D01*
X101600000Y-108765724D01*
X101628399Y-108859343D01*
X101675571Y-108947595D01*
X101739052Y-109024948D01*
X101816405Y-109088429D01*
X101904657Y-109135601D01*
X102000415Y-109164649D01*
X102100000Y-109174457D01*
X103400000Y-109174457D01*
X103499585Y-109164649D01*
X103595343Y-109135601D01*
X103683595Y-109088429D01*
X103760948Y-109024948D01*
X103824429Y-108947595D01*
X103871601Y-108859343D01*
X103900649Y-108763585D01*
X103910457Y-108664000D01*
X103910457Y-108426000D01*
X105646058Y-108426000D01*
X105709901Y-108468659D01*
X105875146Y-108537106D01*
X106050570Y-108572000D01*
X106229430Y-108572000D01*
X106404854Y-108537106D01*
X106570099Y-108468659D01*
X106718816Y-108369289D01*
X106845289Y-108242816D01*
X106944659Y-108094099D01*
X106980771Y-108006916D01*
X118142000Y-108006916D01*
X118142000Y-108257084D01*
X118190805Y-108502445D01*
X118286541Y-108733571D01*
X118425527Y-108941578D01*
X118602422Y-109118473D01*
X118810429Y-109257459D01*
X119041555Y-109353195D01*
X119286916Y-109402000D01*
X119537084Y-109402000D01*
X119782445Y-109353195D01*
X120013571Y-109257459D01*
X120221578Y-109118473D01*
X120398473Y-108941578D01*
X120412000Y-108921333D01*
X120425527Y-108941578D01*
X120602422Y-109118473D01*
X120810429Y-109257459D01*
X121041555Y-109353195D01*
X121286916Y-109402000D01*
X121537084Y-109402000D01*
X121782445Y-109353195D01*
X122013571Y-109257459D01*
X122221578Y-109118473D01*
X122398473Y-108941578D01*
X122412000Y-108921333D01*
X122425527Y-108941578D01*
X122602422Y-109118473D01*
X122810429Y-109257459D01*
X123041555Y-109353195D01*
X123286916Y-109402000D01*
X123537084Y-109402000D01*
X123782445Y-109353195D01*
X124013571Y-109257459D01*
X124221578Y-109118473D01*
X124398473Y-108941578D01*
X124537459Y-108733571D01*
X124633195Y-108502445D01*
X124682000Y-108257084D01*
X124682000Y-108006916D01*
X124633195Y-107761555D01*
X124537459Y-107530429D01*
X124398473Y-107322422D01*
X124221578Y-107145527D01*
X124013571Y-107006541D01*
X123782445Y-106910805D01*
X123537084Y-106862000D01*
X123286916Y-106862000D01*
X123041555Y-106910805D01*
X122810429Y-107006541D01*
X122602422Y-107145527D01*
X122425527Y-107322422D01*
X122412000Y-107342667D01*
X122398473Y-107322422D01*
X122221578Y-107145527D01*
X122013571Y-107006541D01*
X121782445Y-106910805D01*
X121537084Y-106862000D01*
X121286916Y-106862000D01*
X121041555Y-106910805D01*
X120810429Y-107006541D01*
X120602422Y-107145527D01*
X120425527Y-107322422D01*
X120412000Y-107342667D01*
X120398473Y-107322422D01*
X120221578Y-107145527D01*
X120013571Y-107006541D01*
X119782445Y-106910805D01*
X119537084Y-106862000D01*
X119286916Y-106862000D01*
X119041555Y-106910805D01*
X118810429Y-107006541D01*
X118602422Y-107145527D01*
X118425527Y-107322422D01*
X118286541Y-107530429D01*
X118190805Y-107761555D01*
X118142000Y-108006916D01*
X106980771Y-108006916D01*
X107013106Y-107928854D01*
X107048000Y-107753430D01*
X107048000Y-107574570D01*
X107013106Y-107399146D01*
X106944659Y-107233901D01*
X106845289Y-107085184D01*
X106718816Y-106958711D01*
X106570099Y-106859341D01*
X106404854Y-106790894D01*
X106229430Y-106756000D01*
X106050570Y-106756000D01*
X105875146Y-106790894D01*
X105709901Y-106859341D01*
X105646058Y-106902000D01*
X103910457Y-106902000D01*
X103910457Y-106664000D01*
X103900649Y-106564415D01*
X103871601Y-106468657D01*
X103824429Y-106380405D01*
X103760948Y-106303052D01*
X103683595Y-106239571D01*
X103595343Y-106192399D01*
X103499585Y-106163351D01*
X103400000Y-106153543D01*
X102100000Y-106153543D01*
X102000415Y-106163351D01*
X101904657Y-106192399D01*
X101816405Y-106239571D01*
X101739052Y-106303052D01*
X101675571Y-106380405D01*
X101628399Y-106468657D01*
X101600000Y-106562276D01*
X101571601Y-106468657D01*
X101524429Y-106380405D01*
X101460948Y-106303052D01*
X101383595Y-106239571D01*
X101295343Y-106192399D01*
X101199585Y-106163351D01*
X101100000Y-106153543D01*
X99800000Y-106153543D01*
X99700415Y-106163351D01*
X99604657Y-106192399D01*
X99516405Y-106239571D01*
X99439052Y-106303052D01*
X99375571Y-106380405D01*
X99328399Y-106468657D01*
X99299351Y-106564415D01*
X99289543Y-106664000D01*
X98423000Y-106664000D01*
X98423000Y-99091085D01*
X98426062Y-99059999D01*
X98421638Y-99015085D01*
X98413840Y-98935910D01*
X98377645Y-98816590D01*
X98318866Y-98706623D01*
X98239764Y-98610236D01*
X98215613Y-98590416D01*
X97167584Y-97542387D01*
X97147764Y-97518236D01*
X97051377Y-97439134D01*
X96941410Y-97380355D01*
X96822090Y-97344160D01*
X96729088Y-97335000D01*
X96698000Y-97331938D01*
X96666912Y-97335000D01*
X96480197Y-97335000D01*
X99873545Y-93941652D01*
X99908615Y-93984385D01*
X100021957Y-94077404D01*
X100151269Y-94146522D01*
X100291581Y-94189085D01*
X100437500Y-94203457D01*
X100937500Y-94203457D01*
X101083419Y-94189085D01*
X101223731Y-94146522D01*
X101353043Y-94077404D01*
X101466385Y-93984385D01*
X101559404Y-93871043D01*
X101600000Y-93795092D01*
X101640596Y-93871043D01*
X101733615Y-93984385D01*
X101846957Y-94077404D01*
X101879500Y-94094799D01*
X101879501Y-97167201D01*
X101846957Y-97184596D01*
X101733615Y-97277615D01*
X101640596Y-97390957D01*
X101600000Y-97466908D01*
X101559404Y-97390957D01*
X101466385Y-97277615D01*
X101353043Y-97184596D01*
X101223731Y-97115478D01*
X101083419Y-97072915D01*
X100937500Y-97058543D01*
X100437500Y-97058543D01*
X100291581Y-97072915D01*
X100151269Y-97115478D01*
X100021957Y-97184596D01*
X99908615Y-97277615D01*
X99815596Y-97390957D01*
X99746478Y-97520269D01*
X99703915Y-97660581D01*
X99689543Y-97806500D01*
X99689543Y-98281500D01*
X99703915Y-98427419D01*
X99746478Y-98567731D01*
X99815596Y-98697043D01*
X99908615Y-98810385D01*
X100021957Y-98903404D01*
X100052443Y-98919699D01*
X100063660Y-99033589D01*
X100099856Y-99152910D01*
X100154956Y-99255994D01*
X100158635Y-99262877D01*
X100237737Y-99359264D01*
X100261883Y-99379080D01*
X103913803Y-103031000D01*
X103110457Y-103031000D01*
X103110457Y-102664000D01*
X103100649Y-102564415D01*
X103071601Y-102468657D01*
X103024429Y-102380405D01*
X102960948Y-102303052D01*
X102883595Y-102239571D01*
X102795343Y-102192399D01*
X102699585Y-102163351D01*
X102600000Y-102153543D01*
X100600000Y-102153543D01*
X100500415Y-102163351D01*
X100404657Y-102192399D01*
X100316405Y-102239571D01*
X100239052Y-102303052D01*
X100175571Y-102380405D01*
X100128399Y-102468657D01*
X100099351Y-102564415D01*
X100089543Y-102664000D01*
X100089543Y-104664000D01*
X100099351Y-104763585D01*
X100128399Y-104859343D01*
X100175571Y-104947595D01*
X100239052Y-105024948D01*
X100316405Y-105088429D01*
X100404657Y-105135601D01*
X100500415Y-105164649D01*
X100600000Y-105174457D01*
X102600000Y-105174457D01*
X102699585Y-105164649D01*
X102761052Y-105146003D01*
X138157573Y-105146003D01*
X138237947Y-105443368D01*
X138436388Y-105867439D01*
X138713748Y-106244648D01*
X139059369Y-106560498D01*
X139459968Y-106802852D01*
X139900150Y-106962396D01*
X140363000Y-107033000D01*
X142113000Y-107033000D01*
X142113000Y-104775000D01*
X142367000Y-104775000D01*
X142367000Y-107033000D01*
X144117000Y-107033000D01*
X144579850Y-106962396D01*
X145020032Y-106802852D01*
X145420631Y-106560498D01*
X145766252Y-106244648D01*
X146043612Y-105867439D01*
X146242053Y-105443368D01*
X146322427Y-105146003D01*
X146212625Y-104775000D01*
X142367000Y-104775000D01*
X142113000Y-104775000D01*
X138267375Y-104775000D01*
X138157573Y-105146003D01*
X102761052Y-105146003D01*
X102795343Y-105135601D01*
X102883595Y-105088429D01*
X102960948Y-105024948D01*
X103024429Y-104947595D01*
X103071601Y-104859343D01*
X103100649Y-104763585D01*
X103110457Y-104664000D01*
X103110457Y-104297000D01*
X118328923Y-104297000D01*
X118425527Y-104441578D01*
X118602422Y-104618473D01*
X118810429Y-104757459D01*
X119041555Y-104853195D01*
X119286916Y-104902000D01*
X119537084Y-104902000D01*
X119782445Y-104853195D01*
X120013571Y-104757459D01*
X120221578Y-104618473D01*
X120398473Y-104441578D01*
X120412000Y-104421333D01*
X120425527Y-104441578D01*
X120602422Y-104618473D01*
X120810429Y-104757459D01*
X121041555Y-104853195D01*
X121286916Y-104902000D01*
X121537084Y-104902000D01*
X121782445Y-104853195D01*
X122013571Y-104757459D01*
X122221578Y-104618473D01*
X122242486Y-104597565D01*
X122626040Y-104597565D01*
X122693020Y-104837656D01*
X122942048Y-104954756D01*
X123209135Y-105021023D01*
X123484017Y-105033910D01*
X123756133Y-104992922D01*
X124015023Y-104899636D01*
X124130980Y-104837656D01*
X124197960Y-104597565D01*
X123412000Y-103811605D01*
X122626040Y-104597565D01*
X122242486Y-104597565D01*
X122398473Y-104441578D01*
X122419310Y-104410393D01*
X122446435Y-104417960D01*
X123232395Y-103632000D01*
X123591605Y-103632000D01*
X124377565Y-104417960D01*
X124617656Y-104350980D01*
X124712163Y-104149997D01*
X138157573Y-104149997D01*
X138267375Y-104521000D01*
X142113000Y-104521000D01*
X142113000Y-102263000D01*
X142367000Y-102263000D01*
X142367000Y-104521000D01*
X146212625Y-104521000D01*
X146322427Y-104149997D01*
X146242053Y-103852632D01*
X146043612Y-103428561D01*
X145766252Y-103051352D01*
X145420631Y-102735502D01*
X145020032Y-102493148D01*
X144579850Y-102333604D01*
X144117000Y-102263000D01*
X142367000Y-102263000D01*
X142113000Y-102263000D01*
X140363000Y-102263000D01*
X139900150Y-102333604D01*
X139459968Y-102493148D01*
X139059369Y-102735502D01*
X138713748Y-103051352D01*
X138436388Y-103428561D01*
X138237947Y-103852632D01*
X138157573Y-104149997D01*
X124712163Y-104149997D01*
X124734756Y-104101952D01*
X124801023Y-103834865D01*
X124813910Y-103559983D01*
X124772922Y-103287867D01*
X124679636Y-103028977D01*
X124617656Y-102913020D01*
X124377565Y-102846040D01*
X123591605Y-103632000D01*
X123232395Y-103632000D01*
X122446435Y-102846040D01*
X122419310Y-102853607D01*
X122398473Y-102822422D01*
X122242486Y-102666435D01*
X122626040Y-102666435D01*
X123412000Y-103452395D01*
X124197960Y-102666435D01*
X124130980Y-102426344D01*
X123881952Y-102309244D01*
X123614865Y-102242977D01*
X123339983Y-102230090D01*
X123067867Y-102271078D01*
X122808977Y-102364364D01*
X122693020Y-102426344D01*
X122626040Y-102666435D01*
X122242486Y-102666435D01*
X122221578Y-102645527D01*
X122013571Y-102506541D01*
X121782445Y-102410805D01*
X121537084Y-102362000D01*
X121286916Y-102362000D01*
X121078628Y-102403431D01*
X120103584Y-101428387D01*
X120083764Y-101404236D01*
X119987377Y-101325134D01*
X119877410Y-101266355D01*
X119758090Y-101230160D01*
X119665088Y-101221000D01*
X119634000Y-101217938D01*
X119602912Y-101221000D01*
X115601088Y-101221000D01*
X115570000Y-101217938D01*
X115538912Y-101221000D01*
X115445910Y-101230160D01*
X115326590Y-101266355D01*
X115216623Y-101325134D01*
X115120236Y-101404236D01*
X115100420Y-101428382D01*
X114291803Y-102237000D01*
X110247857Y-102237000D01*
X110290537Y-102184994D01*
X110349502Y-102074680D01*
X110385812Y-101954982D01*
X110398072Y-101830500D01*
X110395000Y-101578750D01*
X110236250Y-101420000D01*
X109412000Y-101420000D01*
X109412000Y-101440000D01*
X109158000Y-101440000D01*
X109158000Y-101420000D01*
X108333750Y-101420000D01*
X108175000Y-101578750D01*
X108171928Y-101830500D01*
X108184188Y-101954982D01*
X108220498Y-102074680D01*
X108279463Y-102184994D01*
X108322143Y-102237000D01*
X104910197Y-102237000D01*
X101474137Y-98800940D01*
X101559404Y-98697043D01*
X101600000Y-98621092D01*
X101640596Y-98697043D01*
X101733615Y-98810385D01*
X101846957Y-98903404D01*
X101976269Y-98972522D01*
X102116581Y-99015085D01*
X102262500Y-99029457D01*
X102762500Y-99029457D01*
X102908419Y-99015085D01*
X103048731Y-98972522D01*
X103178043Y-98903404D01*
X103291385Y-98810385D01*
X103384404Y-98697043D01*
X103453522Y-98567731D01*
X103496085Y-98427419D01*
X103510457Y-98281500D01*
X103510457Y-97806500D01*
X103496085Y-97660581D01*
X103453522Y-97520269D01*
X103384404Y-97390957D01*
X103291385Y-97277615D01*
X103178043Y-97184596D01*
X103145500Y-97167202D01*
X103145500Y-94094798D01*
X103178043Y-94077404D01*
X103291385Y-93984385D01*
X103384404Y-93871043D01*
X103395117Y-93851000D01*
X105655803Y-93851000D01*
X106083416Y-94278613D01*
X106103236Y-94302764D01*
X106199623Y-94381866D01*
X106261737Y-94415067D01*
X106259985Y-94415598D01*
X106198364Y-94448535D01*
X106127607Y-94486355D01*
X106103687Y-94505986D01*
X106011578Y-94581578D01*
X105987721Y-94610649D01*
X105474456Y-95123914D01*
X105399146Y-95138894D01*
X105233901Y-95207341D01*
X105085184Y-95306711D01*
X104958711Y-95433184D01*
X104859341Y-95581901D01*
X104790894Y-95747146D01*
X104756000Y-95922570D01*
X104756000Y-96101430D01*
X104790894Y-96276854D01*
X104859341Y-96442099D01*
X104958711Y-96590816D01*
X105085184Y-96717289D01*
X105233901Y-96816659D01*
X105399146Y-96885106D01*
X105574570Y-96920000D01*
X105753430Y-96920000D01*
X105928854Y-96885106D01*
X106094099Y-96816659D01*
X106242816Y-96717289D01*
X106369289Y-96590816D01*
X106468659Y-96442099D01*
X106537106Y-96276854D01*
X106552086Y-96201544D01*
X106868631Y-95885000D01*
X108213244Y-95885000D01*
X108331151Y-95920767D01*
X108460000Y-95933457D01*
X108523000Y-95933457D01*
X108523001Y-98735516D01*
X108518615Y-98739115D01*
X108425596Y-98852457D01*
X108356478Y-98981769D01*
X108313915Y-99122081D01*
X108299543Y-99268000D01*
X108299543Y-99868000D01*
X108313915Y-100013919D01*
X108356478Y-100154231D01*
X108412951Y-100259886D01*
X108358815Y-100304315D01*
X108279463Y-100401006D01*
X108220498Y-100511320D01*
X108184188Y-100631018D01*
X108171928Y-100755500D01*
X108175000Y-101007250D01*
X108333750Y-101166000D01*
X109158000Y-101166000D01*
X109158000Y-101146000D01*
X109412000Y-101146000D01*
X109412000Y-101166000D01*
X110236250Y-101166000D01*
X110395000Y-101007250D01*
X110398072Y-100755500D01*
X110385812Y-100631018D01*
X110349502Y-100511320D01*
X110290537Y-100401006D01*
X110211185Y-100304315D01*
X110157049Y-100259886D01*
X110213522Y-100154231D01*
X110256085Y-100013919D01*
X110270457Y-99868000D01*
X110270457Y-99268000D01*
X110256085Y-99122081D01*
X110213522Y-98981769D01*
X110144404Y-98852457D01*
X110051385Y-98739115D01*
X110047000Y-98735516D01*
X110047000Y-95933457D01*
X110110000Y-95933457D01*
X110238849Y-95920767D01*
X110362746Y-95883183D01*
X110476930Y-95822150D01*
X110577014Y-95740014D01*
X110659150Y-95639930D01*
X110720183Y-95525746D01*
X110757767Y-95401849D01*
X110770457Y-95273000D01*
X110770457Y-94973000D01*
X110757767Y-94844151D01*
X110720183Y-94720254D01*
X110659150Y-94606070D01*
X110577014Y-94505986D01*
X110555098Y-94488000D01*
X110577014Y-94470014D01*
X110659150Y-94369930D01*
X110720183Y-94255746D01*
X110757767Y-94131849D01*
X110770457Y-94003000D01*
X110770457Y-93703000D01*
X110757767Y-93574151D01*
X110720183Y-93450254D01*
X110659150Y-93336070D01*
X110577014Y-93235986D01*
X110555098Y-93218000D01*
X110577014Y-93200014D01*
X110659150Y-93099930D01*
X110720183Y-92985746D01*
X110757767Y-92861849D01*
X110770457Y-92733000D01*
X110770457Y-92433000D01*
X110757767Y-92304151D01*
X110720183Y-92180254D01*
X110659150Y-92066070D01*
X110577014Y-91965986D01*
X110555098Y-91948000D01*
X110577014Y-91930014D01*
X110659150Y-91829930D01*
X110720183Y-91715746D01*
X110757767Y-91591849D01*
X110770457Y-91463000D01*
X110770457Y-91163000D01*
X110757767Y-91034151D01*
X110720183Y-90910254D01*
X110659150Y-90796070D01*
X110577014Y-90695986D01*
X110476930Y-90613850D01*
X110362746Y-90552817D01*
X110238849Y-90515233D01*
X110110000Y-90502543D01*
X108460000Y-90502543D01*
X108331151Y-90515233D01*
X108207254Y-90552817D01*
X108093070Y-90613850D01*
X107992986Y-90695986D01*
X107910850Y-90796070D01*
X107849817Y-90910254D01*
X107812233Y-91034151D01*
X107799543Y-91163000D01*
X107799543Y-91463000D01*
X107812233Y-91591849D01*
X107849817Y-91715746D01*
X107910850Y-91829930D01*
X107992986Y-91930014D01*
X108014902Y-91948000D01*
X108012465Y-91950000D01*
X107069196Y-91950000D01*
X107059000Y-91939803D01*
X107059000Y-88654197D01*
X107196197Y-88517000D01*
X110355412Y-88517000D01*
X110386500Y-88520062D01*
X110417588Y-88517000D01*
X110426838Y-88516089D01*
X110435829Y-88515203D01*
X110510590Y-88507840D01*
X110629910Y-88471645D01*
X110739877Y-88412866D01*
X110836264Y-88333764D01*
X110856084Y-88309613D01*
X111157697Y-88008000D01*
X119536928Y-88008000D01*
X119540000Y-88259750D01*
X119698750Y-88418500D01*
X120523000Y-88418500D01*
X120523000Y-87531750D01*
X120777000Y-87531750D01*
X120777000Y-88418500D01*
X121601250Y-88418500D01*
X121760000Y-88259750D01*
X121763072Y-88008000D01*
X121750812Y-87883518D01*
X121714502Y-87763820D01*
X121655537Y-87653506D01*
X121576185Y-87556815D01*
X121479494Y-87477463D01*
X121369180Y-87418498D01*
X121249482Y-87382188D01*
X121125000Y-87369928D01*
X120935750Y-87373000D01*
X120777000Y-87531750D01*
X120523000Y-87531750D01*
X120364250Y-87373000D01*
X120175000Y-87369928D01*
X120050518Y-87382188D01*
X119930820Y-87418498D01*
X119820506Y-87477463D01*
X119723815Y-87556815D01*
X119644463Y-87653506D01*
X119585498Y-87763820D01*
X119549188Y-87883518D01*
X119536928Y-88008000D01*
X111157697Y-88008000D01*
X112582240Y-86583457D01*
X112922500Y-86583457D01*
X113068419Y-86569085D01*
X113208731Y-86526522D01*
X113338043Y-86457404D01*
X113451385Y-86364385D01*
X113544404Y-86251043D01*
X113555117Y-86231000D01*
X121403803Y-86231000D01*
X127757000Y-92584198D01*
X127757001Y-94057543D01*
X127740000Y-94057543D01*
X127640415Y-94067351D01*
X127544657Y-94096399D01*
X127456405Y-94143571D01*
X127379052Y-94207052D01*
X127315571Y-94284405D01*
X127268399Y-94372657D01*
X127239351Y-94468415D01*
X127229543Y-94568000D01*
X127229543Y-96568000D01*
X127239351Y-96667585D01*
X127268399Y-96763343D01*
X127315571Y-96851595D01*
X127379052Y-96928948D01*
X127456405Y-96992429D01*
X127544657Y-97039601D01*
X127640415Y-97068649D01*
X127740000Y-97078457D01*
X129040000Y-97078457D01*
X129139585Y-97068649D01*
X129235343Y-97039601D01*
X129323595Y-96992429D01*
X129400948Y-96928948D01*
X129464429Y-96851595D01*
X129511601Y-96763343D01*
X129540000Y-96669724D01*
X129568399Y-96763343D01*
X129615571Y-96851595D01*
X129679052Y-96928948D01*
X129723433Y-96965370D01*
X129114387Y-97574416D01*
X129090236Y-97594236D01*
X129011134Y-97690624D01*
X128952355Y-97800591D01*
X128934385Y-97859831D01*
X128916160Y-97919911D01*
X128903938Y-98044000D01*
X128905272Y-98057543D01*
X128540000Y-98057543D01*
X128440415Y-98067351D01*
X128344657Y-98096399D01*
X128256405Y-98143571D01*
X128179052Y-98207052D01*
X128115571Y-98284405D01*
X128068399Y-98372657D01*
X128039351Y-98468415D01*
X128029543Y-98568000D01*
X128029543Y-98935000D01*
X124214197Y-98935000D01*
X118706584Y-93427387D01*
X118686764Y-93403236D01*
X118590377Y-93324134D01*
X118564649Y-93310382D01*
X118630515Y-93290402D01*
X118762892Y-93219645D01*
X118878922Y-93124422D01*
X118902784Y-93095346D01*
X120679674Y-91318457D01*
X120887500Y-91318457D01*
X121033419Y-91304085D01*
X121173731Y-91261522D01*
X121303043Y-91192404D01*
X121416385Y-91099385D01*
X121471277Y-91032500D01*
X123103558Y-91032500D01*
X123167401Y-91075159D01*
X123332646Y-91143606D01*
X123508070Y-91178500D01*
X123686930Y-91178500D01*
X123862354Y-91143606D01*
X124027599Y-91075159D01*
X124176316Y-90975789D01*
X124302789Y-90849316D01*
X124402159Y-90700599D01*
X124470606Y-90535354D01*
X124505500Y-90359930D01*
X124505500Y-90181070D01*
X124470606Y-90005646D01*
X124402159Y-89840401D01*
X124302789Y-89691684D01*
X124176316Y-89565211D01*
X124027599Y-89465841D01*
X123862354Y-89397394D01*
X123686930Y-89362500D01*
X123508070Y-89362500D01*
X123332646Y-89397394D01*
X123167401Y-89465841D01*
X123103558Y-89508500D01*
X121597264Y-89508500D01*
X121655537Y-89437494D01*
X121714502Y-89327180D01*
X121750812Y-89207482D01*
X121763072Y-89083000D01*
X121760000Y-88831250D01*
X121601250Y-88672500D01*
X120777000Y-88672500D01*
X120777000Y-88692500D01*
X120523000Y-88692500D01*
X120523000Y-88672500D01*
X119698750Y-88672500D01*
X119540000Y-88831250D01*
X119536928Y-89083000D01*
X119549188Y-89207482D01*
X119585498Y-89327180D01*
X119644463Y-89437494D01*
X119723815Y-89534185D01*
X119777951Y-89578614D01*
X119721478Y-89684269D01*
X119678915Y-89824581D01*
X119664543Y-89970500D01*
X119664543Y-90178326D01*
X118021870Y-91821000D01*
X115613923Y-91821000D01*
X115670183Y-91715746D01*
X115707767Y-91591849D01*
X115720457Y-91463000D01*
X115720457Y-91163000D01*
X115707767Y-91034151D01*
X115670183Y-90910254D01*
X115609150Y-90796070D01*
X115527014Y-90695986D01*
X115426930Y-90613850D01*
X115312746Y-90552817D01*
X115188849Y-90515233D01*
X115060000Y-90502543D01*
X113410000Y-90502543D01*
X113281151Y-90515233D01*
X113157254Y-90552817D01*
X113043070Y-90613850D01*
X112942986Y-90695986D01*
X112860850Y-90796070D01*
X112799817Y-90910254D01*
X112762233Y-91034151D01*
X112749543Y-91163000D01*
X112749543Y-91463000D01*
X112762233Y-91591849D01*
X112799817Y-91715746D01*
X112860850Y-91829930D01*
X112942986Y-91930014D01*
X112964902Y-91948000D01*
X112942986Y-91965986D01*
X112860850Y-92066070D01*
X112799817Y-92180254D01*
X112762233Y-92304151D01*
X112749543Y-92433000D01*
X112749543Y-92733000D01*
X112762233Y-92861849D01*
X112799817Y-92985746D01*
X112860850Y-93099930D01*
X112942986Y-93200014D01*
X112964902Y-93218000D01*
X112942986Y-93235986D01*
X112860850Y-93336070D01*
X112799817Y-93450254D01*
X112762233Y-93574151D01*
X112749543Y-93703000D01*
X112749543Y-94003000D01*
X112762233Y-94131849D01*
X112799817Y-94255746D01*
X112860850Y-94369930D01*
X112942986Y-94470014D01*
X112964902Y-94488000D01*
X112942986Y-94505986D01*
X112860850Y-94606070D01*
X112799817Y-94720254D01*
X112762233Y-94844151D01*
X112749543Y-94973000D01*
X112749543Y-95273000D01*
X112762233Y-95401849D01*
X112799817Y-95525746D01*
X112860850Y-95639930D01*
X112942986Y-95740014D01*
X113043070Y-95822150D01*
X113157254Y-95883183D01*
X113281151Y-95920767D01*
X113410000Y-95933457D01*
X115060000Y-95933457D01*
X115188849Y-95920767D01*
X115312746Y-95883183D01*
X115426930Y-95822150D01*
X115527014Y-95740014D01*
X115609150Y-95639930D01*
X115670183Y-95525746D01*
X115707767Y-95401849D01*
X115720457Y-95273000D01*
X115720457Y-94973000D01*
X115707767Y-94844151D01*
X115670183Y-94720254D01*
X115609150Y-94606070D01*
X115527014Y-94505986D01*
X115505098Y-94488000D01*
X115507535Y-94486000D01*
X117974803Y-94486000D01*
X123482416Y-99993613D01*
X123502236Y-100017764D01*
X123598623Y-100096866D01*
X123708590Y-100155645D01*
X123827907Y-100191839D01*
X123827910Y-100191840D01*
X123952000Y-100204062D01*
X123983088Y-100201000D01*
X128029543Y-100201000D01*
X128029543Y-100568000D01*
X128039351Y-100667585D01*
X128068399Y-100763343D01*
X128115571Y-100851595D01*
X128179052Y-100928948D01*
X128256405Y-100992429D01*
X128344657Y-101039601D01*
X128440415Y-101068649D01*
X128540000Y-101078457D01*
X130540000Y-101078457D01*
X130639585Y-101068649D01*
X130735343Y-101039601D01*
X130823595Y-100992429D01*
X130900948Y-100928948D01*
X130964429Y-100851595D01*
X131011601Y-100763343D01*
X131040649Y-100667585D01*
X131050457Y-100568000D01*
X131050457Y-100201000D01*
X135565220Y-100201000D01*
X135617176Y-100298202D01*
X135780630Y-100497370D01*
X135979798Y-100660824D01*
X136207028Y-100782281D01*
X136453587Y-100857074D01*
X136645750Y-100876000D01*
X137674250Y-100876000D01*
X137866413Y-100857074D01*
X138112972Y-100782281D01*
X138340202Y-100660824D01*
X138539370Y-100497370D01*
X138702824Y-100298202D01*
X138824281Y-100070972D01*
X138899074Y-99824413D01*
X138924328Y-99568000D01*
X138899074Y-99311587D01*
X138824281Y-99065028D01*
X138702824Y-98837798D01*
X138539370Y-98638630D01*
X138340202Y-98475176D01*
X138131417Y-98363578D01*
X138276483Y-98305166D01*
X138512839Y-98150601D01*
X138714500Y-97952895D01*
X138873715Y-97719646D01*
X138984367Y-97459818D01*
X139001904Y-97377039D01*
X138879915Y-97155000D01*
X137287000Y-97155000D01*
X137287000Y-97175000D01*
X137033000Y-97175000D01*
X137033000Y-97155000D01*
X135440085Y-97155000D01*
X135318096Y-97377039D01*
X135335633Y-97459818D01*
X135446285Y-97719646D01*
X135605500Y-97952895D01*
X135807161Y-98150601D01*
X136043517Y-98305166D01*
X136188583Y-98363578D01*
X135979798Y-98475176D01*
X135780630Y-98638630D01*
X135617176Y-98837798D01*
X135565220Y-98935000D01*
X131050457Y-98935000D01*
X131050457Y-98568000D01*
X131040649Y-98468415D01*
X131011601Y-98372657D01*
X130964429Y-98284405D01*
X130900948Y-98207052D01*
X130823595Y-98143571D01*
X130735343Y-98096399D01*
X130639585Y-98067351D01*
X130540000Y-98057543D01*
X130421654Y-98057543D01*
X131115613Y-97363584D01*
X131139764Y-97343764D01*
X131218866Y-97247377D01*
X131277645Y-97137410D01*
X131295528Y-97078457D01*
X131340000Y-97078457D01*
X131439585Y-97068649D01*
X131535343Y-97039601D01*
X131623595Y-96992429D01*
X131700948Y-96928948D01*
X131764429Y-96851595D01*
X131811601Y-96763343D01*
X131837198Y-96678961D01*
X135318096Y-96678961D01*
X135440085Y-96901000D01*
X137033000Y-96901000D01*
X137033000Y-95593000D01*
X137287000Y-95593000D01*
X137287000Y-96901000D01*
X138879915Y-96901000D01*
X139001904Y-96678961D01*
X138984367Y-96596182D01*
X138873715Y-96336354D01*
X138714500Y-96103105D01*
X138512839Y-95905399D01*
X138276483Y-95750834D01*
X138014514Y-95645350D01*
X137737000Y-95593000D01*
X137287000Y-95593000D01*
X137033000Y-95593000D01*
X136583000Y-95593000D01*
X136305486Y-95645350D01*
X136043517Y-95750834D01*
X135807161Y-95905399D01*
X135605500Y-96103105D01*
X135446285Y-96336354D01*
X135335633Y-96596182D01*
X135318096Y-96678961D01*
X131837198Y-96678961D01*
X131840649Y-96667585D01*
X131850457Y-96568000D01*
X131850457Y-94986003D01*
X138157573Y-94986003D01*
X138237947Y-95283368D01*
X138436388Y-95707439D01*
X138713748Y-96084648D01*
X139059369Y-96400498D01*
X139459968Y-96642852D01*
X139900150Y-96802396D01*
X140363000Y-96873000D01*
X142113000Y-96873000D01*
X142113000Y-94615000D01*
X142367000Y-94615000D01*
X142367000Y-96873000D01*
X144117000Y-96873000D01*
X144579850Y-96802396D01*
X145020032Y-96642852D01*
X145420631Y-96400498D01*
X145766252Y-96084648D01*
X146043612Y-95707439D01*
X146242053Y-95283368D01*
X146322427Y-94986003D01*
X146212625Y-94615000D01*
X142367000Y-94615000D01*
X142113000Y-94615000D01*
X138267375Y-94615000D01*
X138157573Y-94986003D01*
X131850457Y-94986003D01*
X131850457Y-94568000D01*
X131840649Y-94468415D01*
X131811601Y-94372657D01*
X131764429Y-94284405D01*
X131700948Y-94207052D01*
X131623595Y-94143571D01*
X131535343Y-94096399D01*
X131439585Y-94067351D01*
X131340000Y-94057543D01*
X130040000Y-94057543D01*
X129940415Y-94067351D01*
X129844657Y-94096399D01*
X129756405Y-94143571D01*
X129679052Y-94207052D01*
X129615571Y-94284405D01*
X129568399Y-94372657D01*
X129540000Y-94466276D01*
X129511601Y-94372657D01*
X129464429Y-94284405D01*
X129400948Y-94207052D01*
X129323595Y-94143571D01*
X129235343Y-94096399D01*
X129139585Y-94067351D01*
X129040000Y-94057543D01*
X129023000Y-94057543D01*
X129023000Y-93989997D01*
X138157573Y-93989997D01*
X138267375Y-94361000D01*
X142113000Y-94361000D01*
X142113000Y-92103000D01*
X142367000Y-92103000D01*
X142367000Y-94361000D01*
X146212625Y-94361000D01*
X146322427Y-93989997D01*
X146242053Y-93692632D01*
X146043612Y-93268561D01*
X145766252Y-92891352D01*
X145420631Y-92575502D01*
X145020032Y-92333148D01*
X144579850Y-92173604D01*
X144117000Y-92103000D01*
X142367000Y-92103000D01*
X142113000Y-92103000D01*
X140363000Y-92103000D01*
X139900150Y-92173604D01*
X139459968Y-92333148D01*
X139059369Y-92575502D01*
X138713748Y-92891352D01*
X138436388Y-93268561D01*
X138237947Y-93692632D01*
X138157573Y-93989997D01*
X129023000Y-93989997D01*
X129023000Y-92353088D01*
X129026062Y-92322000D01*
X129013840Y-92197910D01*
X129006467Y-92173604D01*
X128977645Y-92078590D01*
X128918866Y-91968623D01*
X128839764Y-91872236D01*
X128815620Y-91852422D01*
X122135584Y-85172387D01*
X122115764Y-85148236D01*
X122019377Y-85069134D01*
X121909410Y-85010355D01*
X121790090Y-84974160D01*
X121697088Y-84965000D01*
X121666000Y-84961938D01*
X121634912Y-84965000D01*
X113555117Y-84965000D01*
X113544404Y-84944957D01*
X113451385Y-84831615D01*
X113338043Y-84738596D01*
X113208731Y-84669478D01*
X113068419Y-84626915D01*
X112922500Y-84612543D01*
X112422500Y-84612543D01*
X112276581Y-84626915D01*
X112136269Y-84669478D01*
X112006957Y-84738596D01*
X111897546Y-84828389D01*
X111865537Y-84768506D01*
X111786185Y-84671815D01*
X111689494Y-84592463D01*
X111579180Y-84533498D01*
X111459482Y-84497188D01*
X111335000Y-84484928D01*
X111133250Y-84488000D01*
X110974500Y-84646750D01*
X110974500Y-85471000D01*
X110994500Y-85471000D01*
X110994500Y-85725000D01*
X110974500Y-85725000D01*
X110974500Y-85745000D01*
X110720500Y-85745000D01*
X110720500Y-85725000D01*
X109883750Y-85725000D01*
X109725000Y-85883750D01*
X109721928Y-86073000D01*
X109734188Y-86197482D01*
X109770498Y-86317180D01*
X109829463Y-86427494D01*
X109908815Y-86524185D01*
X110005506Y-86603537D01*
X110115820Y-86662502D01*
X110235518Y-86698812D01*
X110360000Y-86711072D01*
X110561750Y-86708000D01*
X110720498Y-86549252D01*
X110720498Y-86654805D01*
X110124303Y-87251000D01*
X106965085Y-87251000D01*
X106933999Y-87247938D01*
X106902913Y-87251000D01*
X106902912Y-87251000D01*
X106809910Y-87260160D01*
X106690590Y-87296355D01*
X106580623Y-87355134D01*
X106484236Y-87434236D01*
X106464416Y-87458387D01*
X106000383Y-87922420D01*
X105976237Y-87942236D01*
X105956421Y-87966382D01*
X105956419Y-87966384D01*
X105897134Y-88038624D01*
X105838356Y-88148590D01*
X105802160Y-88267911D01*
X105789938Y-88392000D01*
X105793001Y-88423098D01*
X105793000Y-92170912D01*
X105789938Y-92202000D01*
X105793000Y-92233087D01*
X105802160Y-92326089D01*
X105838355Y-92445409D01*
X105897134Y-92555376D01*
X105919014Y-92582038D01*
X105918000Y-92581938D01*
X105886912Y-92585000D01*
X103395117Y-92585000D01*
X103384404Y-92564957D01*
X103291385Y-92451615D01*
X103178043Y-92358596D01*
X103048731Y-92289478D01*
X102908419Y-92246915D01*
X102762500Y-92232543D01*
X102262500Y-92232543D01*
X102116581Y-92246915D01*
X101976269Y-92289478D01*
X101846957Y-92358596D01*
X101733615Y-92451615D01*
X101640596Y-92564957D01*
X101600000Y-92640908D01*
X101559404Y-92564957D01*
X101466385Y-92451615D01*
X101353043Y-92358596D01*
X101223731Y-92289478D01*
X101083419Y-92246915D01*
X100937500Y-92232543D01*
X100437500Y-92232543D01*
X100291581Y-92246915D01*
X100151269Y-92289478D01*
X100021957Y-92358596D01*
X99908615Y-92451615D01*
X99815596Y-92564957D01*
X99804883Y-92585000D01*
X99733088Y-92585000D01*
X99702000Y-92581938D01*
X99670912Y-92585000D01*
X99577910Y-92594160D01*
X99458590Y-92630355D01*
X99348623Y-92689134D01*
X99252236Y-92768236D01*
X99232416Y-92792387D01*
X95689803Y-96335000D01*
X94497766Y-96335000D01*
X94439585Y-96317351D01*
X94340000Y-96307543D01*
X92940000Y-96307543D01*
X92840415Y-96317351D01*
X92744657Y-96346399D01*
X92656405Y-96393571D01*
X92579052Y-96457052D01*
X92515571Y-96534405D01*
X92468399Y-96622657D01*
X92439351Y-96718415D01*
X92429543Y-96818000D01*
X92429543Y-96938173D01*
X92415057Y-96955273D01*
X92354379Y-97064654D01*
X92316206Y-97183771D01*
X92305000Y-97286250D01*
X92463750Y-97445000D01*
X92551192Y-97445000D01*
X92570067Y-97468000D01*
X92551192Y-97491000D01*
X92463750Y-97491000D01*
X92305000Y-97649750D01*
X92316206Y-97752229D01*
X92354379Y-97871346D01*
X92415057Y-97980727D01*
X92429543Y-97997827D01*
X92429543Y-98118000D01*
X92439351Y-98217585D01*
X92439477Y-98218000D01*
X92439351Y-98218415D01*
X92429543Y-98318000D01*
X92429543Y-98618000D01*
X92439351Y-98717585D01*
X92439477Y-98718000D01*
X92439351Y-98718415D01*
X92429543Y-98818000D01*
X92429543Y-99118000D01*
X92439351Y-99217585D01*
X92468399Y-99313343D01*
X92515571Y-99401595D01*
X92579052Y-99478948D01*
X92656405Y-99542429D01*
X92744657Y-99589601D01*
X92840415Y-99618649D01*
X92940000Y-99628457D01*
X94340000Y-99628457D01*
X94439585Y-99618649D01*
X94497766Y-99601000D01*
X95149803Y-99601000D01*
X95379001Y-99830199D01*
X95379000Y-104385803D01*
X94987803Y-104777000D01*
X92233088Y-104777000D01*
X92202000Y-104773938D01*
X92170912Y-104777000D01*
X92077910Y-104786160D01*
X91958590Y-104822355D01*
X91848623Y-104881134D01*
X91752236Y-104960236D01*
X91732416Y-104984387D01*
X90830368Y-105886435D01*
X90820114Y-105882187D01*
X90557751Y-105830000D01*
X90290249Y-105830000D01*
X90027886Y-105882187D01*
X89780746Y-105984556D01*
X89558325Y-106133172D01*
X89369172Y-106322325D01*
X89220556Y-106544746D01*
X89154000Y-106705426D01*
X89087444Y-106544746D01*
X88938828Y-106322325D01*
X88749675Y-106133172D01*
X88527254Y-105984556D01*
X88280114Y-105882187D01*
X88017751Y-105830000D01*
X87750249Y-105830000D01*
X87487886Y-105882187D01*
X87240746Y-105984556D01*
X87018325Y-106133172D01*
X86829172Y-106322325D01*
X86680795Y-106544389D01*
X86539178Y-106306645D01*
X86344269Y-106090412D01*
X86110920Y-105916359D01*
X85848099Y-105791175D01*
X85700890Y-105746524D01*
X85471000Y-105867845D01*
X85217000Y-105867845D01*
X84987110Y-105746524D01*
X84839901Y-105791175D01*
X84577080Y-105916359D01*
X84343731Y-106090412D01*
X84148822Y-106306645D01*
X83999843Y-106556748D01*
X83902519Y-106831109D01*
X76327000Y-106831109D01*
X76327000Y-100114000D01*
X80061928Y-100114000D01*
X80074188Y-100238482D01*
X80110498Y-100358180D01*
X80169463Y-100468494D01*
X80248815Y-100565185D01*
X80345506Y-100644537D01*
X80455820Y-100703502D01*
X80575518Y-100739812D01*
X80700000Y-100752072D01*
X81164250Y-100749000D01*
X81323000Y-100590250D01*
X81323000Y-99441000D01*
X80223750Y-99441000D01*
X80065000Y-99599750D01*
X80061928Y-100114000D01*
X76327000Y-100114000D01*
X76327000Y-93058000D01*
X80765928Y-93058000D01*
X80778188Y-93182482D01*
X80814498Y-93302180D01*
X80873463Y-93412494D01*
X80952815Y-93509185D01*
X81049506Y-93588537D01*
X81159820Y-93647502D01*
X81279518Y-93683812D01*
X81404000Y-93696072D01*
X81655750Y-93693000D01*
X81814500Y-93534250D01*
X81814500Y-92710000D01*
X80927750Y-92710000D01*
X80769000Y-92868750D01*
X80765928Y-93058000D01*
X76327000Y-93058000D01*
X76327000Y-92108000D01*
X80765928Y-92108000D01*
X80769000Y-92297250D01*
X80927750Y-92456000D01*
X81814500Y-92456000D01*
X81814500Y-91631750D01*
X81655750Y-91473000D01*
X81404000Y-91469928D01*
X81279518Y-91482188D01*
X81159820Y-91518498D01*
X81049506Y-91577463D01*
X80952815Y-91656815D01*
X80873463Y-91753506D01*
X80814498Y-91863820D01*
X80778188Y-91983518D01*
X80765928Y-92108000D01*
X76327000Y-92108000D01*
X76327000Y-62368000D01*
X87821928Y-62368000D01*
X87834188Y-62492482D01*
X87870498Y-62612180D01*
X87929463Y-62722494D01*
X88008815Y-62819185D01*
X88105506Y-62898537D01*
X88215820Y-62957502D01*
X88335518Y-62993812D01*
X88460000Y-63006072D01*
X89924250Y-63003000D01*
X90083000Y-62844250D01*
X90083000Y-61595000D01*
X90337000Y-61595000D01*
X90337000Y-62844250D01*
X90495750Y-63003000D01*
X91960000Y-63006072D01*
X92084482Y-62993812D01*
X92204180Y-62957502D01*
X92314494Y-62898537D01*
X92411185Y-62819185D01*
X92490537Y-62722494D01*
X92549502Y-62612180D01*
X92585812Y-62492482D01*
X92598072Y-62368000D01*
X92595000Y-61753750D01*
X92436250Y-61595000D01*
X90337000Y-61595000D01*
X90083000Y-61595000D01*
X87983750Y-61595000D01*
X87825000Y-61753750D01*
X87821928Y-62368000D01*
X76327000Y-62368000D01*
X76327000Y-60568000D01*
X87821928Y-60568000D01*
X87825000Y-61182250D01*
X87983750Y-61341000D01*
X90083000Y-61341000D01*
X90083000Y-60091750D01*
X90337000Y-60091750D01*
X90337000Y-61341000D01*
X92436250Y-61341000D01*
X92595000Y-61182250D01*
X92598072Y-60568000D01*
X92949543Y-60568000D01*
X92949543Y-62368000D01*
X92959351Y-62467585D01*
X92988399Y-62563343D01*
X93035571Y-62651595D01*
X93099052Y-62728948D01*
X93176405Y-62792429D01*
X93264657Y-62839601D01*
X93360415Y-62868649D01*
X93460000Y-62878457D01*
X96960000Y-62878457D01*
X97059585Y-62868649D01*
X97155343Y-62839601D01*
X97243595Y-62792429D01*
X97320948Y-62728948D01*
X97384429Y-62651595D01*
X97431601Y-62563343D01*
X97460649Y-62467585D01*
X97470457Y-62368000D01*
X97470457Y-62230000D01*
X103340577Y-62230000D01*
X103378000Y-62233686D01*
X103415423Y-62230000D01*
X103415426Y-62230000D01*
X103527378Y-62218974D01*
X103671015Y-62175402D01*
X103803392Y-62104645D01*
X103919422Y-62009422D01*
X103943284Y-61980346D01*
X105922353Y-60001278D01*
X105951422Y-59977422D01*
X105990399Y-59929928D01*
X106046645Y-59861393D01*
X106117401Y-59729016D01*
X106117402Y-59729015D01*
X106160974Y-59585378D01*
X106172000Y-59473426D01*
X106172000Y-59473423D01*
X106175686Y-59436000D01*
X106172000Y-59398577D01*
X106172000Y-59024457D01*
X107660000Y-59024457D01*
X107759585Y-59014649D01*
X107855343Y-58985601D01*
X107943595Y-58938429D01*
X108020948Y-58874948D01*
X108084429Y-58797595D01*
X108131601Y-58709343D01*
X108160649Y-58613585D01*
X108170457Y-58514000D01*
X108170457Y-54514000D01*
X108160649Y-54414415D01*
X108131601Y-54318657D01*
X108084429Y-54230405D01*
X108020948Y-54153052D01*
X107943595Y-54089571D01*
X107855343Y-54042399D01*
X107759585Y-54013351D01*
X107660000Y-54003543D01*
X106172000Y-54003543D01*
X106172000Y-53909630D01*
X106995631Y-53086000D01*
X120588370Y-53086000D01*
X121588000Y-54085631D01*
X121588001Y-55510565D01*
X121588000Y-55510575D01*
X121588000Y-57784961D01*
X121554494Y-57757463D01*
X121444180Y-57698498D01*
X121324482Y-57662188D01*
X121200000Y-57649928D01*
X120935750Y-57653000D01*
X120777000Y-57811750D01*
X120777000Y-60461000D01*
X120797000Y-60461000D01*
X120797000Y-60715000D01*
X120777000Y-60715000D01*
X120777000Y-63364250D01*
X120935750Y-63523000D01*
X121200000Y-63526072D01*
X121324482Y-63513812D01*
X121444180Y-63477502D01*
X121554494Y-63418537D01*
X121620465Y-63364396D01*
X121700415Y-63388649D01*
X121800000Y-63398457D01*
X122900000Y-63398457D01*
X122999585Y-63388649D01*
X123095343Y-63359601D01*
X123183595Y-63312429D01*
X123200000Y-63298966D01*
X123216405Y-63312429D01*
X123304657Y-63359601D01*
X123400415Y-63388649D01*
X123500000Y-63398457D01*
X124600000Y-63398457D01*
X124699585Y-63388649D01*
X124795343Y-63359601D01*
X124883595Y-63312429D01*
X124960948Y-63248948D01*
X125024429Y-63171595D01*
X125071601Y-63083343D01*
X125100649Y-62987585D01*
X125110457Y-62888000D01*
X125110457Y-61350000D01*
X128344370Y-61350000D01*
X129794000Y-62799631D01*
X129794001Y-70574567D01*
X129790314Y-70612000D01*
X129805027Y-70761378D01*
X129848599Y-70905015D01*
X129919355Y-71037392D01*
X129990721Y-71124351D01*
X130014579Y-71153422D01*
X130043649Y-71177279D01*
X131686721Y-72820352D01*
X131710578Y-72849422D01*
X131826608Y-72944645D01*
X131958985Y-73015402D01*
X132102622Y-73058974D01*
X132214574Y-73070000D01*
X132214576Y-73070000D01*
X132251999Y-73073686D01*
X132289422Y-73070000D01*
X133059543Y-73070000D01*
X133059543Y-74358001D01*
X133074155Y-74506359D01*
X133117429Y-74649015D01*
X133187703Y-74780488D01*
X133282275Y-74895725D01*
X133397512Y-74990297D01*
X133528985Y-75060571D01*
X133671641Y-75103845D01*
X133819999Y-75118457D01*
X135420001Y-75118457D01*
X135568359Y-75103845D01*
X135711015Y-75060571D01*
X135842488Y-74990297D01*
X135957725Y-74895725D01*
X136052297Y-74780488D01*
X136122571Y-74649015D01*
X136165845Y-74506359D01*
X136180457Y-74358001D01*
X136180457Y-73008000D01*
X143341928Y-73008000D01*
X143345000Y-74222250D01*
X143503750Y-74381000D01*
X144653000Y-74381000D01*
X144653000Y-72531750D01*
X144907000Y-72531750D01*
X144907000Y-74381000D01*
X146056250Y-74381000D01*
X146215000Y-74222250D01*
X146218072Y-73008000D01*
X146205812Y-72883518D01*
X146169502Y-72763820D01*
X146110537Y-72653506D01*
X146031185Y-72556815D01*
X145934494Y-72477463D01*
X145824180Y-72418498D01*
X145704482Y-72382188D01*
X145580000Y-72369928D01*
X145065750Y-72373000D01*
X144907000Y-72531750D01*
X144653000Y-72531750D01*
X144494250Y-72373000D01*
X143980000Y-72369928D01*
X143855518Y-72382188D01*
X143735820Y-72418498D01*
X143625506Y-72477463D01*
X143528815Y-72556815D01*
X143449463Y-72653506D01*
X143390498Y-72763820D01*
X143354188Y-72883518D01*
X143341928Y-73008000D01*
X136180457Y-73008000D01*
X136180457Y-70257999D01*
X136165845Y-70109641D01*
X136122571Y-69966985D01*
X136052297Y-69835512D01*
X135957725Y-69720275D01*
X135842488Y-69625703D01*
X135711015Y-69555429D01*
X135568359Y-69512155D01*
X135420001Y-69497543D01*
X133819999Y-69497543D01*
X133671641Y-69512155D01*
X133528985Y-69555429D01*
X133397512Y-69625703D01*
X133282275Y-69720275D01*
X133187703Y-69835512D01*
X133117429Y-69966985D01*
X133074155Y-70109641D01*
X133059543Y-70257999D01*
X133059543Y-71546000D01*
X132567631Y-71546000D01*
X131318000Y-70296370D01*
X131318000Y-65422000D01*
X133181928Y-65422000D01*
X133194188Y-65546482D01*
X133230498Y-65666180D01*
X133289463Y-65776494D01*
X133368815Y-65873185D01*
X133465506Y-65952537D01*
X133575820Y-66011502D01*
X133695518Y-66047812D01*
X133820000Y-66060072D01*
X134334250Y-66057000D01*
X134493000Y-65898250D01*
X134493000Y-64049000D01*
X134747000Y-64049000D01*
X134747000Y-65898250D01*
X134905750Y-66057000D01*
X135420000Y-66060072D01*
X135544482Y-66047812D01*
X135664180Y-66011502D01*
X135774494Y-65952537D01*
X135871185Y-65873185D01*
X135950537Y-65776494D01*
X136009502Y-65666180D01*
X136045812Y-65546482D01*
X136058072Y-65422000D01*
X136055000Y-64207750D01*
X136052140Y-64204890D01*
X143338524Y-64204890D01*
X143383175Y-64352099D01*
X143508359Y-64614920D01*
X143682412Y-64848269D01*
X143898645Y-65043178D01*
X144136389Y-65184795D01*
X143914325Y-65333172D01*
X143725172Y-65522325D01*
X143576556Y-65744746D01*
X143474187Y-65991886D01*
X143422000Y-66254249D01*
X143422000Y-66521751D01*
X143474187Y-66784114D01*
X143576556Y-67031254D01*
X143725172Y-67253675D01*
X143914325Y-67442828D01*
X144136746Y-67591444D01*
X144383886Y-67693813D01*
X144646249Y-67746000D01*
X144913751Y-67746000D01*
X145176114Y-67693813D01*
X145423254Y-67591444D01*
X145645675Y-67442828D01*
X145834828Y-67253675D01*
X145904101Y-67150000D01*
X148114370Y-67150000D01*
X149098000Y-68133631D01*
X149098001Y-80202368D01*
X148274370Y-81026000D01*
X146365631Y-81026000D01*
X145943284Y-80603654D01*
X145962297Y-80580487D01*
X146032571Y-80449014D01*
X146075845Y-80306358D01*
X146090457Y-80158000D01*
X146090457Y-77658000D01*
X146075845Y-77509642D01*
X146032571Y-77366986D01*
X145962297Y-77235513D01*
X145867724Y-77120276D01*
X145752487Y-77025703D01*
X145621014Y-76955429D01*
X145478358Y-76912155D01*
X145330000Y-76897543D01*
X144230000Y-76897543D01*
X144081642Y-76912155D01*
X143938986Y-76955429D01*
X143807513Y-77025703D01*
X143692276Y-77120276D01*
X143597703Y-77235513D01*
X143527429Y-77366986D01*
X143484155Y-77509642D01*
X143469543Y-77658000D01*
X143469543Y-80158000D01*
X143484155Y-80306358D01*
X143527429Y-80449014D01*
X143597703Y-80580487D01*
X143692276Y-80695724D01*
X143807513Y-80790297D01*
X143938986Y-80860571D01*
X144081642Y-80903845D01*
X144124472Y-80908063D01*
X144143355Y-80943392D01*
X144182983Y-80991678D01*
X144238578Y-81059422D01*
X144267654Y-81083284D01*
X145484721Y-82300352D01*
X145508578Y-82329422D01*
X145624608Y-82424645D01*
X145756985Y-82495402D01*
X145900622Y-82538974D01*
X146012574Y-82550000D01*
X146012576Y-82550000D01*
X146049999Y-82553686D01*
X146087422Y-82550000D01*
X148552577Y-82550000D01*
X148590000Y-82553686D01*
X148627423Y-82550000D01*
X148627426Y-82550000D01*
X148739378Y-82538974D01*
X148883015Y-82495402D01*
X149015392Y-82424645D01*
X149131422Y-82329422D01*
X149155284Y-82300346D01*
X150372352Y-81083279D01*
X150401422Y-81059422D01*
X150496645Y-80943392D01*
X150567402Y-80811015D01*
X150610974Y-80667378D01*
X150622000Y-80555426D01*
X150622000Y-80555424D01*
X150625686Y-80518001D01*
X150622000Y-80480578D01*
X150622000Y-67855422D01*
X150625686Y-67817999D01*
X150622000Y-67780574D01*
X150610974Y-67668622D01*
X150567402Y-67524985D01*
X150496645Y-67392608D01*
X150401422Y-67276578D01*
X150372353Y-67252722D01*
X148995284Y-65875654D01*
X148971422Y-65846578D01*
X148855392Y-65751355D01*
X148723015Y-65680598D01*
X148579378Y-65637026D01*
X148467426Y-65626000D01*
X148467423Y-65626000D01*
X148430000Y-65622314D01*
X148392577Y-65626000D01*
X145904101Y-65626000D01*
X145834828Y-65522325D01*
X145645675Y-65333172D01*
X145423611Y-65184795D01*
X145661355Y-65043178D01*
X145877588Y-64848269D01*
X146051641Y-64614920D01*
X146176825Y-64352099D01*
X146221476Y-64204890D01*
X146100155Y-63975000D01*
X144907000Y-63975000D01*
X144907000Y-63995000D01*
X144653000Y-63995000D01*
X144653000Y-63975000D01*
X143459845Y-63975000D01*
X143338524Y-64204890D01*
X136052140Y-64204890D01*
X135896250Y-64049000D01*
X134747000Y-64049000D01*
X134493000Y-64049000D01*
X133343750Y-64049000D01*
X133185000Y-64207750D01*
X133181928Y-65422000D01*
X131318000Y-65422000D01*
X131318000Y-62521423D01*
X131321686Y-62484000D01*
X131318000Y-62446574D01*
X131315580Y-62422000D01*
X133181928Y-62422000D01*
X133185000Y-63636250D01*
X133343750Y-63795000D01*
X134493000Y-63795000D01*
X134493000Y-61945750D01*
X134747000Y-61945750D01*
X134747000Y-63795000D01*
X135896250Y-63795000D01*
X136055000Y-63636250D01*
X136058072Y-62422000D01*
X136045812Y-62297518D01*
X136009502Y-62177820D01*
X135950537Y-62067506D01*
X135871185Y-61970815D01*
X135774494Y-61891463D01*
X135664180Y-61832498D01*
X135544482Y-61796188D01*
X135420000Y-61783928D01*
X134905750Y-61787000D01*
X134747000Y-61945750D01*
X134493000Y-61945750D01*
X134334250Y-61787000D01*
X133820000Y-61783928D01*
X133695518Y-61796188D01*
X133575820Y-61832498D01*
X133465506Y-61891463D01*
X133368815Y-61970815D01*
X133289463Y-62067506D01*
X133230498Y-62177820D01*
X133194188Y-62297518D01*
X133181928Y-62422000D01*
X131315580Y-62422000D01*
X131306974Y-62334622D01*
X131263402Y-62190985D01*
X131215494Y-62101355D01*
X131192645Y-62058607D01*
X131121279Y-61971648D01*
X131097422Y-61942578D01*
X131068353Y-61918722D01*
X129225284Y-60075654D01*
X129201422Y-60046578D01*
X129085392Y-59951355D01*
X128953015Y-59880598D01*
X128809378Y-59837026D01*
X128697426Y-59826000D01*
X128697423Y-59826000D01*
X128660000Y-59822314D01*
X128622577Y-59826000D01*
X125110457Y-59826000D01*
X125110457Y-58288000D01*
X125100649Y-58188415D01*
X125071601Y-58092657D01*
X125024429Y-58004405D01*
X124960948Y-57927052D01*
X124883595Y-57863571D01*
X124812000Y-57825302D01*
X124812000Y-56097630D01*
X126299631Y-54610000D01*
X132780370Y-54610000D01*
X133858000Y-55687631D01*
X133858001Y-57545460D01*
X133778986Y-57569429D01*
X133647513Y-57639703D01*
X133532276Y-57734276D01*
X133437703Y-57849513D01*
X133367429Y-57980986D01*
X133324155Y-58123642D01*
X133309543Y-58272000D01*
X133309543Y-60772000D01*
X133324155Y-60920358D01*
X133367429Y-61063014D01*
X133437703Y-61194487D01*
X133532276Y-61309724D01*
X133647513Y-61404297D01*
X133778986Y-61474571D01*
X133921642Y-61517845D01*
X134070000Y-61532457D01*
X135170000Y-61532457D01*
X135318358Y-61517845D01*
X135461014Y-61474571D01*
X135592487Y-61404297D01*
X135707724Y-61309724D01*
X135802297Y-61194487D01*
X135872571Y-61063014D01*
X135915845Y-60920358D01*
X135930457Y-60772000D01*
X135930457Y-60284000D01*
X142678370Y-60284000D01*
X143419543Y-61025174D01*
X143419543Y-62158000D01*
X143429351Y-62257585D01*
X143458399Y-62353343D01*
X143505571Y-62441595D01*
X143569052Y-62518948D01*
X143646405Y-62582429D01*
X143734657Y-62629601D01*
X143830415Y-62658649D01*
X143886097Y-62664133D01*
X143682412Y-62847731D01*
X143508359Y-63081080D01*
X143383175Y-63343901D01*
X143338524Y-63491110D01*
X143459845Y-63721000D01*
X144653000Y-63721000D01*
X144653000Y-63701000D01*
X144907000Y-63701000D01*
X144907000Y-63721000D01*
X146100155Y-63721000D01*
X146221476Y-63491110D01*
X146176825Y-63343901D01*
X146051641Y-63081080D01*
X145877588Y-62847731D01*
X145673903Y-62664133D01*
X145729585Y-62658649D01*
X145825343Y-62629601D01*
X145913595Y-62582429D01*
X145990948Y-62518948D01*
X146054429Y-62441595D01*
X146101601Y-62353343D01*
X146130649Y-62257585D01*
X146140457Y-62158000D01*
X146140457Y-60458000D01*
X146130649Y-60358415D01*
X146101601Y-60262657D01*
X146054429Y-60174405D01*
X145990948Y-60097052D01*
X145913595Y-60033571D01*
X145825343Y-59986399D01*
X145729585Y-59957351D01*
X145630000Y-59947543D01*
X144497174Y-59947543D01*
X143559284Y-59009654D01*
X143535422Y-58980578D01*
X143419392Y-58885355D01*
X143287015Y-58814598D01*
X143143378Y-58771026D01*
X143031426Y-58760000D01*
X143031423Y-58760000D01*
X142994000Y-58756314D01*
X142956577Y-58760000D01*
X135930457Y-58760000D01*
X135930457Y-58272000D01*
X135915845Y-58123642D01*
X135872571Y-57980986D01*
X135802297Y-57849513D01*
X135707724Y-57734276D01*
X135592487Y-57639703D01*
X135461014Y-57569429D01*
X135382000Y-57545460D01*
X135382000Y-55409422D01*
X135385686Y-55371999D01*
X135382000Y-55334574D01*
X135370974Y-55222622D01*
X135327402Y-55078985D01*
X135256645Y-54946608D01*
X135161422Y-54830578D01*
X135132353Y-54806722D01*
X134668916Y-54343285D01*
X145882000Y-54343285D01*
X145882000Y-54876715D01*
X145986067Y-55399895D01*
X146190201Y-55892719D01*
X146486559Y-56336249D01*
X146863751Y-56713441D01*
X147307281Y-57009799D01*
X147800105Y-57213933D01*
X148323285Y-57318000D01*
X148856715Y-57318000D01*
X149379895Y-57213933D01*
X149872719Y-57009799D01*
X150316249Y-56713441D01*
X150693441Y-56336249D01*
X150989799Y-55892719D01*
X151193933Y-55399895D01*
X151298000Y-54876715D01*
X151298000Y-54343285D01*
X151193933Y-53820105D01*
X150989799Y-53327281D01*
X150693441Y-52883751D01*
X150316249Y-52506559D01*
X149872719Y-52210201D01*
X149379895Y-52006067D01*
X148856715Y-51902000D01*
X148323285Y-51902000D01*
X147800105Y-52006067D01*
X147307281Y-52210201D01*
X146863751Y-52506559D01*
X146486559Y-52883751D01*
X146190201Y-53327281D01*
X145986067Y-53820105D01*
X145882000Y-54343285D01*
X134668916Y-54343285D01*
X133661284Y-53335654D01*
X133637422Y-53306578D01*
X133521392Y-53211355D01*
X133389015Y-53140598D01*
X133245378Y-53097026D01*
X133133426Y-53086000D01*
X133133423Y-53086000D01*
X133096000Y-53082314D01*
X133058577Y-53086000D01*
X126021422Y-53086000D01*
X125983999Y-53082314D01*
X125946576Y-53086000D01*
X125946574Y-53086000D01*
X125834622Y-53097026D01*
X125690985Y-53140598D01*
X125558608Y-53211355D01*
X125442578Y-53306578D01*
X125418721Y-53335648D01*
X123537649Y-55216721D01*
X123508579Y-55240578D01*
X123484722Y-55269648D01*
X123484721Y-55269649D01*
X123413355Y-55356608D01*
X123342599Y-55488985D01*
X123299027Y-55632622D01*
X123284314Y-55782000D01*
X123288001Y-55819433D01*
X123288001Y-57825302D01*
X123216405Y-57863571D01*
X123200000Y-57877034D01*
X123183595Y-57863571D01*
X123112000Y-57825302D01*
X123112000Y-53807423D01*
X123115686Y-53770000D01*
X123108656Y-53698622D01*
X123100974Y-53620622D01*
X123057402Y-53476985D01*
X122986646Y-53344609D01*
X122986645Y-53344607D01*
X122915279Y-53257648D01*
X122891422Y-53228578D01*
X122862353Y-53204722D01*
X121469284Y-51811654D01*
X121445422Y-51782578D01*
X121329392Y-51687355D01*
X121197015Y-51616598D01*
X121053378Y-51573026D01*
X120941426Y-51562000D01*
X120941423Y-51562000D01*
X120904000Y-51558314D01*
X120866577Y-51562000D01*
X106717422Y-51562000D01*
X106679999Y-51558314D01*
X106642576Y-51562000D01*
X106642574Y-51562000D01*
X106530622Y-51573026D01*
X106386985Y-51616598D01*
X106254608Y-51687355D01*
X106138578Y-51782578D01*
X106114721Y-51811648D01*
X104897649Y-53028721D01*
X104868579Y-53052578D01*
X104844722Y-53081648D01*
X104844721Y-53081649D01*
X104773355Y-53168608D01*
X104702599Y-53300985D01*
X104659027Y-53444622D01*
X104644314Y-53594000D01*
X104648001Y-53631433D01*
X104648001Y-54003543D01*
X103160000Y-54003543D01*
X103060415Y-54013351D01*
X102964657Y-54042399D01*
X102876405Y-54089571D01*
X102799052Y-54153052D01*
X102735571Y-54230405D01*
X102688399Y-54318657D01*
X102659351Y-54414415D01*
X102649543Y-54514000D01*
X102649543Y-58514000D01*
X102659351Y-58613585D01*
X102688399Y-58709343D01*
X102735571Y-58797595D01*
X102799052Y-58874948D01*
X102876405Y-58938429D01*
X102964657Y-58985601D01*
X103060415Y-59014649D01*
X103160000Y-59024457D01*
X104648000Y-59024457D01*
X104648000Y-59120369D01*
X103062370Y-60706000D01*
X97470457Y-60706000D01*
X97470457Y-60568000D01*
X97460649Y-60468415D01*
X97431601Y-60372657D01*
X97384429Y-60284405D01*
X97320948Y-60207052D01*
X97243595Y-60143571D01*
X97155343Y-60096399D01*
X97059585Y-60067351D01*
X96960000Y-60057543D01*
X93460000Y-60057543D01*
X93360415Y-60067351D01*
X93264657Y-60096399D01*
X93176405Y-60143571D01*
X93099052Y-60207052D01*
X93035571Y-60284405D01*
X92988399Y-60372657D01*
X92959351Y-60468415D01*
X92949543Y-60568000D01*
X92598072Y-60568000D01*
X92585812Y-60443518D01*
X92549502Y-60323820D01*
X92490537Y-60213506D01*
X92411185Y-60116815D01*
X92314494Y-60037463D01*
X92204180Y-59978498D01*
X92084482Y-59942188D01*
X91960000Y-59929928D01*
X90495750Y-59933000D01*
X90337000Y-60091750D01*
X90083000Y-60091750D01*
X89924250Y-59933000D01*
X88460000Y-59929928D01*
X88335518Y-59942188D01*
X88215820Y-59978498D01*
X88105506Y-60037463D01*
X88008815Y-60116815D01*
X87929463Y-60213506D01*
X87870498Y-60323820D01*
X87834188Y-60443518D01*
X87821928Y-60568000D01*
X76327000Y-60568000D01*
X76327000Y-54343285D01*
X77302000Y-54343285D01*
X77302000Y-54876715D01*
X77406067Y-55399895D01*
X77610201Y-55892719D01*
X77906559Y-56336249D01*
X78283751Y-56713441D01*
X78727281Y-57009799D01*
X79220105Y-57213933D01*
X79743285Y-57318000D01*
X80276715Y-57318000D01*
X80799895Y-57213933D01*
X81292719Y-57009799D01*
X81736249Y-56713441D01*
X82113441Y-56336249D01*
X82409799Y-55892719D01*
X82613933Y-55399895D01*
X82718000Y-54876715D01*
X82718000Y-54343285D01*
X82613933Y-53820105D01*
X82409799Y-53327281D01*
X82113441Y-52883751D01*
X81736249Y-52506559D01*
X81292719Y-52210201D01*
X80799895Y-52006067D01*
X80276715Y-51902000D01*
X79743285Y-51902000D01*
X79220105Y-52006067D01*
X78727281Y-52210201D01*
X78283751Y-52506559D01*
X77906559Y-52883751D01*
X77610201Y-53327281D01*
X77406067Y-53820105D01*
X77302000Y-54343285D01*
X76327000Y-54343285D01*
X76327000Y-53343832D01*
X76344823Y-53049179D01*
X76397343Y-52762588D01*
X76484026Y-52484414D01*
X76603599Y-52218733D01*
X76754332Y-51969390D01*
X76934012Y-51740045D01*
X77140045Y-51534012D01*
X77369390Y-51354332D01*
X77618733Y-51203599D01*
X77884414Y-51084026D01*
X78162588Y-50997343D01*
X78449179Y-50944823D01*
X78743832Y-50927000D01*
X149856168Y-50927000D01*
X150150821Y-50944823D01*
%TA.AperFunction,Conductor*%
D29*
G36*
X150150821Y-50944823D02*
G01*
X150437412Y-50997343D01*
X150715586Y-51084026D01*
X150981267Y-51203599D01*
X151230610Y-51354332D01*
X151459955Y-51534012D01*
X151665988Y-51740045D01*
X151845668Y-51969390D01*
X151996401Y-52218733D01*
X152115974Y-52484414D01*
X152202657Y-52762588D01*
X152255177Y-53049179D01*
X152273000Y-53343832D01*
X152273000Y-85217000D01*
X132005606Y-85217000D01*
X130196606Y-83408000D01*
X132931928Y-83408000D01*
X132944188Y-83532482D01*
X132980498Y-83652180D01*
X133039463Y-83762494D01*
X133118815Y-83859185D01*
X133215506Y-83938537D01*
X133325820Y-83997502D01*
X133445518Y-84033812D01*
X133570000Y-84046072D01*
X134334250Y-84043000D01*
X134493000Y-83884250D01*
X134493000Y-81235000D01*
X134747000Y-81235000D01*
X134747000Y-83884250D01*
X134905750Y-84043000D01*
X135670000Y-84046072D01*
X135794482Y-84033812D01*
X135914180Y-83997502D01*
X136024494Y-83938537D01*
X136121185Y-83859185D01*
X136200537Y-83762494D01*
X136259502Y-83652180D01*
X136295812Y-83532482D01*
X136308072Y-83408000D01*
X136305000Y-81393750D01*
X136146250Y-81235000D01*
X134747000Y-81235000D01*
X134493000Y-81235000D01*
X133093750Y-81235000D01*
X132935000Y-81393750D01*
X132931928Y-83408000D01*
X130196606Y-83408000D01*
X126073803Y-79285197D01*
X126054557Y-79269403D01*
X126032601Y-79257667D01*
X126008776Y-79250440D01*
X125984000Y-79248000D01*
X112701606Y-79248000D01*
X112261606Y-78808000D01*
X132931928Y-78808000D01*
X132935000Y-80822250D01*
X133093750Y-80981000D01*
X134493000Y-80981000D01*
X134493000Y-78331750D01*
X134747000Y-78331750D01*
X134747000Y-80981000D01*
X136146250Y-80981000D01*
X136305000Y-80822250D01*
X136308072Y-78808000D01*
X136295812Y-78683518D01*
X136259502Y-78563820D01*
X136200537Y-78453506D01*
X136121185Y-78356815D01*
X136024494Y-78277463D01*
X135914180Y-78218498D01*
X135794482Y-78182188D01*
X135670000Y-78169928D01*
X134905750Y-78173000D01*
X134747000Y-78331750D01*
X134493000Y-78331750D01*
X134334250Y-78173000D01*
X133570000Y-78169928D01*
X133445518Y-78182188D01*
X133325820Y-78218498D01*
X133215506Y-78277463D01*
X133118815Y-78356815D01*
X133039463Y-78453506D01*
X132980498Y-78563820D01*
X132944188Y-78683518D01*
X132931928Y-78808000D01*
X112261606Y-78808000D01*
X112141000Y-78687394D01*
X112141000Y-76008000D01*
X143341928Y-76008000D01*
X143354188Y-76132482D01*
X143390498Y-76252180D01*
X143449463Y-76362494D01*
X143528815Y-76459185D01*
X143625506Y-76538537D01*
X143735820Y-76597502D01*
X143855518Y-76633812D01*
X143980000Y-76646072D01*
X144494250Y-76643000D01*
X144653000Y-76484250D01*
X144653000Y-74635000D01*
X144907000Y-74635000D01*
X144907000Y-76484250D01*
X145065750Y-76643000D01*
X145580000Y-76646072D01*
X145704482Y-76633812D01*
X145824180Y-76597502D01*
X145934494Y-76538537D01*
X146031185Y-76459185D01*
X146110537Y-76362494D01*
X146169502Y-76252180D01*
X146205812Y-76132482D01*
X146218072Y-76008000D01*
X146215000Y-74793750D01*
X146056250Y-74635000D01*
X144907000Y-74635000D01*
X144653000Y-74635000D01*
X143503750Y-74635000D01*
X143345000Y-74793750D01*
X143341928Y-76008000D01*
X112141000Y-76008000D01*
X112141000Y-74438000D01*
X114611928Y-74438000D01*
X114624188Y-74562482D01*
X114660498Y-74682180D01*
X114719463Y-74792494D01*
X114798815Y-74889185D01*
X114895506Y-74968537D01*
X115005820Y-75027502D01*
X115125518Y-75063812D01*
X115250000Y-75076072D01*
X120364250Y-75073000D01*
X120523000Y-74914250D01*
X120523000Y-69865000D01*
X120777000Y-69865000D01*
X120777000Y-74914250D01*
X120935750Y-75073000D01*
X126050000Y-75076072D01*
X126174482Y-75063812D01*
X126294180Y-75027502D01*
X126404494Y-74968537D01*
X126501185Y-74889185D01*
X126580537Y-74792494D01*
X126639502Y-74682180D01*
X126675812Y-74562482D01*
X126688072Y-74438000D01*
X126685000Y-70023750D01*
X126526250Y-69865000D01*
X120777000Y-69865000D01*
X120523000Y-69865000D01*
X114773750Y-69865000D01*
X114615000Y-70023750D01*
X114611928Y-74438000D01*
X112141000Y-74438000D01*
X112141000Y-65038000D01*
X114611928Y-65038000D01*
X114615000Y-69452250D01*
X114773750Y-69611000D01*
X120523000Y-69611000D01*
X120523000Y-64561750D01*
X120777000Y-64561750D01*
X120777000Y-69611000D01*
X126526250Y-69611000D01*
X126685000Y-69452250D01*
X126688072Y-65038000D01*
X126675812Y-64913518D01*
X126639502Y-64793820D01*
X126580537Y-64683506D01*
X126501185Y-64586815D01*
X126404494Y-64507463D01*
X126294180Y-64448498D01*
X126174482Y-64412188D01*
X126050000Y-64399928D01*
X120935750Y-64403000D01*
X120777000Y-64561750D01*
X120523000Y-64561750D01*
X120364250Y-64403000D01*
X115250000Y-64399928D01*
X115125518Y-64412188D01*
X115005820Y-64448498D01*
X114895506Y-64507463D01*
X114798815Y-64586815D01*
X114719463Y-64683506D01*
X114660498Y-64793820D01*
X114624188Y-64913518D01*
X114611928Y-65038000D01*
X112141000Y-65038000D01*
X112141000Y-62888000D01*
X116061928Y-62888000D01*
X116074188Y-63012482D01*
X116110498Y-63132180D01*
X116169463Y-63242494D01*
X116248815Y-63339185D01*
X116345506Y-63418537D01*
X116455820Y-63477502D01*
X116575518Y-63513812D01*
X116700000Y-63526072D01*
X116964250Y-63523000D01*
X117123000Y-63364250D01*
X117123000Y-60715000D01*
X116223750Y-60715000D01*
X116065000Y-60873750D01*
X116061928Y-62888000D01*
X112141000Y-62888000D01*
X112141000Y-58288000D01*
X116061928Y-58288000D01*
X116065000Y-60302250D01*
X116223750Y-60461000D01*
X117123000Y-60461000D01*
X117123000Y-57811750D01*
X116964250Y-57653000D01*
X116700000Y-57649928D01*
X116575518Y-57662188D01*
X116455820Y-57698498D01*
X116345506Y-57757463D01*
X116248815Y-57836815D01*
X116169463Y-57933506D01*
X116110498Y-58043820D01*
X116074188Y-58163518D01*
X116061928Y-58288000D01*
X112141000Y-58288000D01*
X112141000Y-57084631D01*
X113345631Y-55880000D01*
X117032370Y-55880000D01*
X118188000Y-57035631D01*
X118188000Y-57784961D01*
X118154494Y-57757463D01*
X118044180Y-57698498D01*
X117924482Y-57662188D01*
X117800000Y-57649928D01*
X117535750Y-57653000D01*
X117377000Y-57811750D01*
X117377000Y-60461000D01*
X117397000Y-60461000D01*
X117397000Y-60715000D01*
X117377000Y-60715000D01*
X117377000Y-63364250D01*
X117535750Y-63523000D01*
X117800000Y-63526072D01*
X117924482Y-63513812D01*
X118044180Y-63477502D01*
X118154494Y-63418537D01*
X118220465Y-63364396D01*
X118300415Y-63388649D01*
X118400000Y-63398457D01*
X119500000Y-63398457D01*
X119599585Y-63388649D01*
X119679535Y-63364396D01*
X119745506Y-63418537D01*
X119855820Y-63477502D01*
X119975518Y-63513812D01*
X120100000Y-63526072D01*
X120364250Y-63523000D01*
X120523000Y-63364250D01*
X120523000Y-60715000D01*
X120503000Y-60715000D01*
X120503000Y-60461000D01*
X120523000Y-60461000D01*
X120523000Y-57811750D01*
X120364250Y-57653000D01*
X120100000Y-57649928D01*
X119975518Y-57662188D01*
X119855820Y-57698498D01*
X119745506Y-57757463D01*
X119712000Y-57784961D01*
X119712000Y-56757422D01*
X119715686Y-56719999D01*
X119712000Y-56682574D01*
X119700974Y-56570622D01*
X119657402Y-56426985D01*
X119586645Y-56294608D01*
X119491422Y-56178578D01*
X119462353Y-56154722D01*
X117913284Y-54605654D01*
X117889422Y-54576578D01*
X117773392Y-54481355D01*
X117641015Y-54410598D01*
X117497378Y-54367026D01*
X117385426Y-54356000D01*
X117385423Y-54356000D01*
X117348000Y-54352314D01*
X117310577Y-54356000D01*
X113067422Y-54356000D01*
X113029999Y-54352314D01*
X112992576Y-54356000D01*
X112992574Y-54356000D01*
X112880622Y-54367026D01*
X112736985Y-54410598D01*
X112604608Y-54481355D01*
X112488578Y-54576578D01*
X112464721Y-54605648D01*
X104897649Y-62172721D01*
X104868579Y-62196578D01*
X104844722Y-62225648D01*
X104844721Y-62225649D01*
X104773355Y-62312608D01*
X104702599Y-62444985D01*
X104659027Y-62588622D01*
X104644314Y-62738000D01*
X104648001Y-62775433D01*
X104648001Y-63403543D01*
X103160000Y-63403543D01*
X103060415Y-63413351D01*
X102964657Y-63442399D01*
X102876405Y-63489571D01*
X102799052Y-63553052D01*
X102735571Y-63630405D01*
X102688399Y-63718657D01*
X102659351Y-63814415D01*
X102649543Y-63914000D01*
X102649543Y-67914000D01*
X102659351Y-68013585D01*
X102688399Y-68109343D01*
X102735571Y-68197595D01*
X102799052Y-68274948D01*
X102876405Y-68338429D01*
X102964657Y-68385601D01*
X103060415Y-68414649D01*
X103160000Y-68424457D01*
X104648000Y-68424457D01*
X104648001Y-69248543D01*
X104609999Y-69248543D01*
X104461641Y-69263155D01*
X104318985Y-69306429D01*
X104187512Y-69376703D01*
X104072275Y-69471275D01*
X103977703Y-69586512D01*
X103907429Y-69717985D01*
X103864155Y-69860641D01*
X103849543Y-70008999D01*
X103849543Y-71247000D01*
X91858423Y-71247000D01*
X91821000Y-71243314D01*
X91783577Y-71247000D01*
X91783574Y-71247000D01*
X91671622Y-71258026D01*
X91527985Y-71301598D01*
X91494676Y-71319402D01*
X91395607Y-71372355D01*
X91353219Y-71407143D01*
X91279578Y-71467578D01*
X91255716Y-71496654D01*
X89657649Y-73094721D01*
X89628579Y-73118578D01*
X89604722Y-73147648D01*
X89604721Y-73147649D01*
X89533355Y-73234608D01*
X89462599Y-73366985D01*
X89419027Y-73510622D01*
X89404314Y-73660000D01*
X89408001Y-73697433D01*
X89408000Y-77937543D01*
X88920000Y-77937543D01*
X88771642Y-77952155D01*
X88628986Y-77995429D01*
X88497513Y-78065703D01*
X88382276Y-78160276D01*
X88287703Y-78275513D01*
X88217429Y-78406986D01*
X88174155Y-78549642D01*
X88159543Y-78698000D01*
X88159543Y-79798000D01*
X88174155Y-79946358D01*
X88217429Y-80089014D01*
X88287703Y-80220487D01*
X88382276Y-80335724D01*
X88497513Y-80430297D01*
X88628986Y-80500571D01*
X88771642Y-80543845D01*
X88920000Y-80558457D01*
X89408000Y-80558457D01*
X89408001Y-88983016D01*
X89403615Y-88986615D01*
X89348723Y-89053500D01*
X87181277Y-89053500D01*
X87126385Y-88986615D01*
X87013043Y-88893596D01*
X86883731Y-88824478D01*
X86743419Y-88781915D01*
X86597500Y-88767543D01*
X86122500Y-88767543D01*
X85976581Y-88781915D01*
X85836269Y-88824478D01*
X85706957Y-88893596D01*
X85593615Y-88986615D01*
X85500596Y-89099957D01*
X85457432Y-89180712D01*
X85444500Y-89179438D01*
X85413412Y-89182500D01*
X85320410Y-89191660D01*
X85201090Y-89227855D01*
X85091123Y-89286634D01*
X84994736Y-89365736D01*
X84974912Y-89389892D01*
X84664388Y-89700415D01*
X84640236Y-89720236D01*
X84561134Y-89816624D01*
X84502355Y-89926591D01*
X84486917Y-89977485D01*
X84466160Y-90045911D01*
X84453938Y-90170000D01*
X84457000Y-90201088D01*
X84457000Y-91785113D01*
X84382043Y-91723596D01*
X84252731Y-91654478D01*
X84112419Y-91611915D01*
X83966500Y-91597543D01*
X83366500Y-91597543D01*
X83220581Y-91611915D01*
X83080269Y-91654478D01*
X82974614Y-91710951D01*
X82930185Y-91656815D01*
X82833494Y-91577463D01*
X82723180Y-91518498D01*
X82603482Y-91482188D01*
X82479000Y-91469928D01*
X82227250Y-91473000D01*
X82068500Y-91631750D01*
X82068500Y-92456000D01*
X82088500Y-92456000D01*
X82088500Y-92710000D01*
X82068500Y-92710000D01*
X82068500Y-93534250D01*
X82227250Y-93693000D01*
X82479000Y-93696072D01*
X82603482Y-93683812D01*
X82723180Y-93647502D01*
X82833494Y-93588537D01*
X82930185Y-93509185D01*
X82974614Y-93455049D01*
X83033500Y-93486524D01*
X83033501Y-95463543D01*
X82900000Y-95463543D01*
X82800415Y-95473351D01*
X82704657Y-95502399D01*
X82616405Y-95549571D01*
X82550000Y-95604067D01*
X82483595Y-95549571D01*
X82395343Y-95502399D01*
X82299585Y-95473351D01*
X82200000Y-95463543D01*
X80700000Y-95463543D01*
X80600415Y-95473351D01*
X80504657Y-95502399D01*
X80416405Y-95549571D01*
X80339052Y-95613052D01*
X80275571Y-95690405D01*
X80228399Y-95778657D01*
X80199351Y-95874415D01*
X80189543Y-95974000D01*
X80189543Y-97574000D01*
X80199351Y-97673585D01*
X80228399Y-97769343D01*
X80275571Y-97857595D01*
X80339052Y-97934948D01*
X80377397Y-97966417D01*
X80345506Y-97983463D01*
X80248815Y-98062815D01*
X80169463Y-98159506D01*
X80110498Y-98269820D01*
X80074188Y-98389518D01*
X80061928Y-98514000D01*
X80065000Y-99028250D01*
X80223750Y-99187000D01*
X81323000Y-99187000D01*
X81323000Y-99167000D01*
X81577000Y-99167000D01*
X81577000Y-99187000D01*
X81597000Y-99187000D01*
X81597000Y-99441000D01*
X81577000Y-99441000D01*
X81577000Y-100590250D01*
X81735750Y-100749000D01*
X82200000Y-100752072D01*
X82324482Y-100739812D01*
X82444180Y-100703502D01*
X82554494Y-100644537D01*
X82651185Y-100565185D01*
X82655843Y-100559509D01*
X82704657Y-100585601D01*
X82800415Y-100614649D01*
X82900000Y-100624457D01*
X84400000Y-100624457D01*
X84499585Y-100614649D01*
X84595343Y-100585601D01*
X84683595Y-100538429D01*
X84760948Y-100474948D01*
X84824429Y-100397595D01*
X84871601Y-100309343D01*
X84900649Y-100213585D01*
X84910457Y-100114000D01*
X84910457Y-99947000D01*
X87217912Y-99947000D01*
X87249000Y-99950062D01*
X87280088Y-99947000D01*
X87373090Y-99937840D01*
X87492410Y-99901645D01*
X87602377Y-99842866D01*
X87698764Y-99763764D01*
X87718585Y-99739612D01*
X87857197Y-99601000D01*
X88382234Y-99601000D01*
X88440415Y-99618649D01*
X88540000Y-99628457D01*
X89940000Y-99628457D01*
X90039585Y-99618649D01*
X90135343Y-99589601D01*
X90223595Y-99542429D01*
X90300948Y-99478948D01*
X90364429Y-99401595D01*
X90411601Y-99313343D01*
X90440649Y-99217585D01*
X90450457Y-99118000D01*
X90450457Y-98997827D01*
X90464943Y-98980727D01*
X90525621Y-98871346D01*
X90563794Y-98752229D01*
X90575000Y-98649750D01*
X90416250Y-98491000D01*
X90328808Y-98491000D01*
X90309933Y-98468000D01*
X90328808Y-98445000D01*
X90416250Y-98445000D01*
X90575000Y-98286250D01*
X90563794Y-98183771D01*
X90525621Y-98064654D01*
X90464943Y-97955273D01*
X90450457Y-97938173D01*
X90450457Y-97818000D01*
X90440649Y-97718415D01*
X90440523Y-97718000D01*
X90440649Y-97717585D01*
X90450457Y-97618000D01*
X90450457Y-97318000D01*
X90440649Y-97218415D01*
X90440523Y-97218000D01*
X90440649Y-97217585D01*
X90450457Y-97118000D01*
X90450457Y-96818000D01*
X90440649Y-96718415D01*
X90411601Y-96622657D01*
X90364429Y-96534405D01*
X90300948Y-96457052D01*
X90223595Y-96393571D01*
X90135343Y-96346399D01*
X90039585Y-96317351D01*
X89940000Y-96307543D01*
X88540000Y-96307543D01*
X88440415Y-96317351D01*
X88382234Y-96335000D01*
X87842207Y-96335000D01*
X86993000Y-95485793D01*
X86993000Y-92473117D01*
X87013043Y-92462404D01*
X87126385Y-92369385D01*
X87219404Y-92256043D01*
X87288522Y-92126731D01*
X87303304Y-92078000D01*
X89056928Y-92078000D01*
X89069188Y-92202482D01*
X89105498Y-92322180D01*
X89164463Y-92432494D01*
X89243815Y-92529185D01*
X89340506Y-92608537D01*
X89450820Y-92667502D01*
X89570518Y-92703812D01*
X89695000Y-92716072D01*
X89884250Y-92713000D01*
X90043000Y-92554250D01*
X90043000Y-91667500D01*
X90297000Y-91667500D01*
X90297000Y-92554250D01*
X90455750Y-92713000D01*
X90645000Y-92716072D01*
X90769482Y-92703812D01*
X90889180Y-92667502D01*
X90999494Y-92608537D01*
X91096185Y-92529185D01*
X91175537Y-92432494D01*
X91234502Y-92322180D01*
X91270812Y-92202482D01*
X91283072Y-92078000D01*
X92866928Y-92078000D01*
X92879188Y-92202482D01*
X92915498Y-92322180D01*
X92974463Y-92432494D01*
X93053815Y-92529185D01*
X93150506Y-92608537D01*
X93260820Y-92667502D01*
X93380518Y-92703812D01*
X93505000Y-92716072D01*
X93694250Y-92713000D01*
X93853000Y-92554250D01*
X93853000Y-91667500D01*
X94107000Y-91667500D01*
X94107000Y-92554250D01*
X94265750Y-92713000D01*
X94455000Y-92716072D01*
X94579482Y-92703812D01*
X94699180Y-92667502D01*
X94809494Y-92608537D01*
X94906185Y-92529185D01*
X94985537Y-92432494D01*
X95044502Y-92322180D01*
X95080812Y-92202482D01*
X95093072Y-92078000D01*
X95090000Y-91826250D01*
X94931250Y-91667500D01*
X94107000Y-91667500D01*
X93853000Y-91667500D01*
X93028750Y-91667500D01*
X92870000Y-91826250D01*
X92866928Y-92078000D01*
X91283072Y-92078000D01*
X91280000Y-91826250D01*
X91121250Y-91667500D01*
X90297000Y-91667500D01*
X90043000Y-91667500D01*
X89218750Y-91667500D01*
X89060000Y-91826250D01*
X89056928Y-92078000D01*
X87303304Y-92078000D01*
X87331085Y-91986419D01*
X87345457Y-91840500D01*
X87345457Y-91240500D01*
X87331085Y-91094581D01*
X87288522Y-90954269D01*
X87219404Y-90824957D01*
X87126385Y-90711615D01*
X87085426Y-90678000D01*
X87126385Y-90644385D01*
X87181277Y-90577500D01*
X89222736Y-90577500D01*
X89164463Y-90648506D01*
X89105498Y-90758820D01*
X89069188Y-90878518D01*
X89056928Y-91003000D01*
X89060000Y-91254750D01*
X89218750Y-91413500D01*
X90043000Y-91413500D01*
X90043000Y-91393500D01*
X90297000Y-91393500D01*
X90297000Y-91413500D01*
X91121250Y-91413500D01*
X91280000Y-91254750D01*
X91283072Y-91003000D01*
X91270812Y-90878518D01*
X91234502Y-90758820D01*
X91175537Y-90648506D01*
X91117264Y-90577500D01*
X93032736Y-90577500D01*
X92974463Y-90648506D01*
X92915498Y-90758820D01*
X92879188Y-90878518D01*
X92866928Y-91003000D01*
X92870000Y-91254750D01*
X93028750Y-91413500D01*
X93853000Y-91413500D01*
X93853000Y-91393500D01*
X94107000Y-91393500D01*
X94107000Y-91413500D01*
X94931250Y-91413500D01*
X95090000Y-91254750D01*
X95093072Y-91003000D01*
X95080812Y-90878518D01*
X95044502Y-90758820D01*
X94985537Y-90648506D01*
X94906185Y-90551815D01*
X94852049Y-90507386D01*
X94908522Y-90401731D01*
X94951085Y-90261419D01*
X94965457Y-90115500D01*
X94965457Y-89515500D01*
X94951085Y-89369581D01*
X94908522Y-89229269D01*
X94839404Y-89099957D01*
X94746385Y-88986615D01*
X94633043Y-88893596D01*
X94503731Y-88824478D01*
X94363419Y-88781915D01*
X94217500Y-88767543D01*
X93742500Y-88767543D01*
X93596581Y-88781915D01*
X93456269Y-88824478D01*
X93326957Y-88893596D01*
X93213615Y-88986615D01*
X93158723Y-89053500D01*
X90991277Y-89053500D01*
X90936385Y-88986615D01*
X90932000Y-88983016D01*
X90932000Y-85123000D01*
X109721928Y-85123000D01*
X109725000Y-85312250D01*
X109883750Y-85471000D01*
X110720500Y-85471000D01*
X110720500Y-84646750D01*
X110561750Y-84488000D01*
X110360000Y-84484928D01*
X110235518Y-84497188D01*
X110115820Y-84533498D01*
X110005506Y-84592463D01*
X109908815Y-84671815D01*
X109829463Y-84768506D01*
X109770498Y-84878820D01*
X109734188Y-84998518D01*
X109721928Y-85123000D01*
X90932000Y-85123000D01*
X90932000Y-81459000D01*
X103721928Y-81459000D01*
X103734188Y-81583482D01*
X103770498Y-81703180D01*
X103829463Y-81813494D01*
X103908815Y-81910185D01*
X104005506Y-81989537D01*
X104115820Y-82048502D01*
X104235518Y-82084812D01*
X104360000Y-82097072D01*
X105124250Y-82094000D01*
X105283000Y-81935250D01*
X105283000Y-79336000D01*
X105537000Y-79336000D01*
X105537000Y-81935250D01*
X105695750Y-82094000D01*
X106460000Y-82097072D01*
X106584482Y-82084812D01*
X106704180Y-82048502D01*
X106814494Y-81989537D01*
X106911185Y-81910185D01*
X106990537Y-81813494D01*
X107049502Y-81703180D01*
X107085812Y-81583482D01*
X107098072Y-81459000D01*
X107095000Y-79494750D01*
X106936250Y-79336000D01*
X105537000Y-79336000D01*
X105283000Y-79336000D01*
X103883750Y-79336000D01*
X103725000Y-79494750D01*
X103721928Y-81459000D01*
X90932000Y-81459000D01*
X90932000Y-80558457D01*
X91420000Y-80558457D01*
X91568358Y-80543845D01*
X91711014Y-80500571D01*
X91842487Y-80430297D01*
X91957724Y-80335724D01*
X92052297Y-80220487D01*
X92122571Y-80089014D01*
X92135012Y-80048000D01*
X92431928Y-80048000D01*
X92444188Y-80172482D01*
X92480498Y-80292180D01*
X92539463Y-80402494D01*
X92618815Y-80499185D01*
X92715506Y-80578537D01*
X92825820Y-80637502D01*
X92945518Y-80673812D01*
X93070000Y-80686072D01*
X94284250Y-80683000D01*
X94443000Y-80524250D01*
X94443000Y-79375000D01*
X94697000Y-79375000D01*
X94697000Y-80524250D01*
X94855750Y-80683000D01*
X96070000Y-80686072D01*
X96194482Y-80673812D01*
X96314180Y-80637502D01*
X96424494Y-80578537D01*
X96521185Y-80499185D01*
X96600537Y-80402494D01*
X96659502Y-80292180D01*
X96695812Y-80172482D01*
X96708072Y-80048000D01*
X96705000Y-79533750D01*
X96546250Y-79375000D01*
X94697000Y-79375000D01*
X94443000Y-79375000D01*
X92593750Y-79375000D01*
X92435000Y-79533750D01*
X92431928Y-80048000D01*
X92135012Y-80048000D01*
X92165845Y-79946358D01*
X92180457Y-79798000D01*
X92180457Y-78698000D01*
X92165845Y-78549642D01*
X92135013Y-78448000D01*
X92431928Y-78448000D01*
X92435000Y-78962250D01*
X92593750Y-79121000D01*
X94443000Y-79121000D01*
X94443000Y-77971750D01*
X94697000Y-77971750D01*
X94697000Y-79121000D01*
X96546250Y-79121000D01*
X96705000Y-78962250D01*
X96708072Y-78448000D01*
X96695812Y-78323518D01*
X96659502Y-78203820D01*
X96600537Y-78093506D01*
X96521185Y-77996815D01*
X96424494Y-77917463D01*
X96314180Y-77858498D01*
X96194482Y-77822188D01*
X96070000Y-77809928D01*
X94855750Y-77813000D01*
X94697000Y-77971750D01*
X94443000Y-77971750D01*
X94284250Y-77813000D01*
X93070000Y-77809928D01*
X92945518Y-77822188D01*
X92825820Y-77858498D01*
X92715506Y-77917463D01*
X92618815Y-77996815D01*
X92539463Y-78093506D01*
X92480498Y-78203820D01*
X92444188Y-78323518D01*
X92431928Y-78448000D01*
X92135013Y-78448000D01*
X92122571Y-78406986D01*
X92052297Y-78275513D01*
X91957724Y-78160276D01*
X91842487Y-78065703D01*
X91711014Y-77995429D01*
X91568358Y-77952155D01*
X91420000Y-77937543D01*
X90932000Y-77937543D01*
X90932000Y-76959000D01*
X103721928Y-76959000D01*
X103725000Y-78923250D01*
X103883750Y-79082000D01*
X105283000Y-79082000D01*
X105283000Y-76482750D01*
X105537000Y-76482750D01*
X105537000Y-79082000D01*
X106936250Y-79082000D01*
X107095000Y-78923250D01*
X107098072Y-76959000D01*
X107085812Y-76834518D01*
X107049502Y-76714820D01*
X106990537Y-76604506D01*
X106911185Y-76507815D01*
X106814494Y-76428463D01*
X106704180Y-76369498D01*
X106584482Y-76333188D01*
X106460000Y-76320928D01*
X105695750Y-76324000D01*
X105537000Y-76482750D01*
X105283000Y-76482750D01*
X105124250Y-76324000D01*
X104360000Y-76320928D01*
X104235518Y-76333188D01*
X104115820Y-76369498D01*
X104005506Y-76428463D01*
X103908815Y-76507815D01*
X103829463Y-76604506D01*
X103770498Y-76714820D01*
X103734188Y-76834518D01*
X103721928Y-76959000D01*
X90932000Y-76959000D01*
X90932000Y-73975630D01*
X92136630Y-72771000D01*
X103849543Y-72771000D01*
X103849543Y-74009001D01*
X103864155Y-74157359D01*
X103907429Y-74300015D01*
X103977703Y-74431488D01*
X104072275Y-74546725D01*
X104187512Y-74641297D01*
X104318985Y-74711571D01*
X104461641Y-74754845D01*
X104609999Y-74769457D01*
X106210001Y-74769457D01*
X106358359Y-74754845D01*
X106501015Y-74711571D01*
X106632488Y-74641297D01*
X106747725Y-74546725D01*
X106842297Y-74431488D01*
X106912571Y-74300015D01*
X106955845Y-74157359D01*
X106970457Y-74009001D01*
X106970457Y-70008999D01*
X106955845Y-69860641D01*
X106912571Y-69717985D01*
X106842297Y-69586512D01*
X106747725Y-69471275D01*
X106632488Y-69376703D01*
X106501015Y-69306429D01*
X106358359Y-69263155D01*
X106210001Y-69248543D01*
X106172000Y-69248543D01*
X106172000Y-68424457D01*
X107660000Y-68424457D01*
X107759585Y-68414649D01*
X107855343Y-68385601D01*
X107943595Y-68338429D01*
X108020948Y-68274948D01*
X108084429Y-68197595D01*
X108131601Y-68109343D01*
X108160649Y-68013585D01*
X108170457Y-67914000D01*
X108170457Y-63914000D01*
X108160649Y-63814415D01*
X108131601Y-63718657D01*
X108084429Y-63630405D01*
X108020948Y-63553052D01*
X107943595Y-63489571D01*
X107855343Y-63442399D01*
X107759585Y-63413351D01*
X107660000Y-63403543D01*
X106172000Y-63403543D01*
X106172000Y-63053630D01*
X110998000Y-58227631D01*
X110998000Y-79629000D01*
X111000440Y-79653776D01*
X111007667Y-79677601D01*
X111019403Y-79699557D01*
X111035197Y-79718803D01*
X111670197Y-80353803D01*
X111689443Y-80369597D01*
X111711399Y-80381333D01*
X111735224Y-80388560D01*
X111760000Y-80391000D01*
X125296394Y-80391000D01*
X131228197Y-86322803D01*
X131247443Y-86338597D01*
X131269399Y-86350333D01*
X131293224Y-86357560D01*
X131318000Y-86360000D01*
X152273000Y-86360000D01*
X152273000Y-111756168D01*
X152255177Y-112050821D01*
X152202657Y-112337412D01*
X152115974Y-112615586D01*
X151996401Y-112881267D01*
X151845668Y-113130610D01*
X151665988Y-113359955D01*
X151459955Y-113565988D01*
X151230610Y-113745668D01*
X150981267Y-113896401D01*
X150715586Y-114015974D01*
X150437412Y-114102657D01*
X150150821Y-114155177D01*
X149856168Y-114173000D01*
X78743832Y-114173000D01*
X78449179Y-114155177D01*
X78162588Y-114102657D01*
X77884414Y-114015974D01*
X77618733Y-113896401D01*
X77369390Y-113745668D01*
X77140045Y-113565988D01*
X76934012Y-113359955D01*
X76754332Y-113130610D01*
X76603599Y-112881267D01*
X76484026Y-112615586D01*
X76397343Y-112337412D01*
X76344823Y-112050821D01*
X76327000Y-111756168D01*
X76327000Y-110223285D01*
X77302000Y-110223285D01*
X77302000Y-110756715D01*
X77406067Y-111279895D01*
X77610201Y-111772719D01*
X77906559Y-112216249D01*
X78283751Y-112593441D01*
X78727281Y-112889799D01*
X79220105Y-113093933D01*
X79743285Y-113198000D01*
X80276715Y-113198000D01*
X80799895Y-113093933D01*
X81292719Y-112889799D01*
X81736249Y-112593441D01*
X82113441Y-112216249D01*
X82409799Y-111772719D01*
X82613933Y-111279895D01*
X82718000Y-110756715D01*
X82718000Y-110223285D01*
X82613933Y-109700105D01*
X82409799Y-109207281D01*
X82113441Y-108763751D01*
X81736249Y-108386559D01*
X81292719Y-108090201D01*
X80799895Y-107886067D01*
X80276715Y-107782000D01*
X79743285Y-107782000D01*
X79220105Y-107886067D01*
X78727281Y-108090201D01*
X78283751Y-108386559D01*
X77906559Y-108763751D01*
X77610201Y-109207281D01*
X77406067Y-109700105D01*
X77302000Y-110223285D01*
X76327000Y-110223285D01*
X76327000Y-107544891D01*
X83902519Y-107544891D01*
X83999843Y-107819252D01*
X84148822Y-108069355D01*
X84343731Y-108285588D01*
X84577080Y-108459641D01*
X84839901Y-108584825D01*
X84987110Y-108629476D01*
X85217000Y-108508155D01*
X85217000Y-107315000D01*
X84023186Y-107315000D01*
X83902519Y-107544891D01*
X76327000Y-107544891D01*
X76327000Y-106831109D01*
X83902519Y-106831109D01*
X84023186Y-107061000D01*
X85217000Y-107061000D01*
X85217000Y-105867845D01*
X85471000Y-105867845D01*
X85471000Y-107061000D01*
X85491000Y-107061000D01*
X85491000Y-107315000D01*
X85471000Y-107315000D01*
X85471000Y-108508155D01*
X85700890Y-108629476D01*
X85848099Y-108584825D01*
X86110920Y-108459641D01*
X86344269Y-108285588D01*
X86539178Y-108069355D01*
X86680795Y-107831611D01*
X86829172Y-108053675D01*
X87018325Y-108242828D01*
X87240746Y-108391444D01*
X87487886Y-108493813D01*
X87750249Y-108546000D01*
X88017751Y-108546000D01*
X88280114Y-108493813D01*
X88290368Y-108489565D01*
X89192416Y-109391613D01*
X89212236Y-109415764D01*
X89308623Y-109494866D01*
X89418590Y-109553645D01*
X89537910Y-109589840D01*
X89662000Y-109602062D01*
X89693088Y-109599000D01*
X96234912Y-109599000D01*
X96266000Y-109602062D01*
X96297088Y-109599000D01*
X96390090Y-109589840D01*
X96509410Y-109553645D01*
X96619377Y-109494866D01*
X96715764Y-109415764D01*
X96735584Y-109391613D01*
X98215614Y-107911583D01*
X98239764Y-107891764D01*
X98318866Y-107795377D01*
X98377645Y-107685410D01*
X98413840Y-107566090D01*
X98423000Y-107473088D01*
X98423000Y-107473087D01*
X98426062Y-107442001D01*
X98423000Y-107410915D01*
X98423000Y-106664000D01*
X99289543Y-106664000D01*
X99289543Y-108664000D01*
X99299351Y-108763585D01*
X99328399Y-108859343D01*
X99375571Y-108947595D01*
X99439052Y-109024948D01*
X99516405Y-109088429D01*
X99604657Y-109135601D01*
X99688001Y-109160883D01*
X99688001Y-110116056D01*
X99645341Y-110179901D01*
X99576894Y-110345146D01*
X99542000Y-110520570D01*
X99542000Y-110699430D01*
X99576894Y-110874854D01*
X99645341Y-111040099D01*
X99744711Y-111188816D01*
X99871184Y-111315289D01*
X100019901Y-111414659D01*
X100185146Y-111483106D01*
X100360570Y-111518000D01*
X100539430Y-111518000D01*
X100714854Y-111483106D01*
X100880099Y-111414659D01*
X101028816Y-111315289D01*
X101155289Y-111188816D01*
X101254659Y-111040099D01*
X101323106Y-110874854D01*
X101358000Y-110699430D01*
X101358000Y-110520570D01*
X101323106Y-110345146D01*
X101272630Y-110223285D01*
X145882000Y-110223285D01*
X145882000Y-110756715D01*
X145986067Y-111279895D01*
X146190201Y-111772719D01*
X146486559Y-112216249D01*
X146863751Y-112593441D01*
X147307281Y-112889799D01*
X147800105Y-113093933D01*
X148323285Y-113198000D01*
X148856715Y-113198000D01*
X149379895Y-113093933D01*
X149872719Y-112889799D01*
X150316249Y-112593441D01*
X150693441Y-112216249D01*
X150989799Y-111772719D01*
X151193933Y-111279895D01*
X151298000Y-110756715D01*
X151298000Y-110223285D01*
X151193933Y-109700105D01*
X150989799Y-109207281D01*
X150693441Y-108763751D01*
X150316249Y-108386559D01*
X149872719Y-108090201D01*
X149379895Y-107886067D01*
X148856715Y-107782000D01*
X148323285Y-107782000D01*
X147800105Y-107886067D01*
X147307281Y-108090201D01*
X146863751Y-108386559D01*
X146486559Y-108763751D01*
X146190201Y-109207281D01*
X145986067Y-109700105D01*
X145882000Y-110223285D01*
X101272630Y-110223285D01*
X101254659Y-110179901D01*
X101212000Y-110116058D01*
X101212000Y-109160883D01*
X101295343Y-109135601D01*
X101383595Y-109088429D01*
X101460948Y-109024948D01*
X101524429Y-108947595D01*
X101571601Y-108859343D01*
X101600000Y-108765724D01*
X101628399Y-108859343D01*
X101675571Y-108947595D01*
X101739052Y-109024948D01*
X101816405Y-109088429D01*
X101904657Y-109135601D01*
X102000415Y-109164649D01*
X102100000Y-109174457D01*
X103400000Y-109174457D01*
X103499585Y-109164649D01*
X103595343Y-109135601D01*
X103683595Y-109088429D01*
X103760948Y-109024948D01*
X103824429Y-108947595D01*
X103871601Y-108859343D01*
X103900649Y-108763585D01*
X103910457Y-108664000D01*
X103910457Y-108426000D01*
X105646058Y-108426000D01*
X105709901Y-108468659D01*
X105875146Y-108537106D01*
X106050570Y-108572000D01*
X106229430Y-108572000D01*
X106404854Y-108537106D01*
X106570099Y-108468659D01*
X106718816Y-108369289D01*
X106845289Y-108242816D01*
X106944659Y-108094099D01*
X106980771Y-108006916D01*
X118142000Y-108006916D01*
X118142000Y-108257084D01*
X118190805Y-108502445D01*
X118286541Y-108733571D01*
X118425527Y-108941578D01*
X118602422Y-109118473D01*
X118810429Y-109257459D01*
X119041555Y-109353195D01*
X119286916Y-109402000D01*
X119537084Y-109402000D01*
X119782445Y-109353195D01*
X120013571Y-109257459D01*
X120221578Y-109118473D01*
X120398473Y-108941578D01*
X120412000Y-108921333D01*
X120425527Y-108941578D01*
X120602422Y-109118473D01*
X120810429Y-109257459D01*
X121041555Y-109353195D01*
X121286916Y-109402000D01*
X121537084Y-109402000D01*
X121782445Y-109353195D01*
X122013571Y-109257459D01*
X122221578Y-109118473D01*
X122398473Y-108941578D01*
X122412000Y-108921333D01*
X122425527Y-108941578D01*
X122602422Y-109118473D01*
X122810429Y-109257459D01*
X123041555Y-109353195D01*
X123286916Y-109402000D01*
X123537084Y-109402000D01*
X123782445Y-109353195D01*
X124013571Y-109257459D01*
X124221578Y-109118473D01*
X124398473Y-108941578D01*
X124537459Y-108733571D01*
X124633195Y-108502445D01*
X124682000Y-108257084D01*
X124682000Y-108006916D01*
X124633195Y-107761555D01*
X124537459Y-107530429D01*
X124398473Y-107322422D01*
X124221578Y-107145527D01*
X124013571Y-107006541D01*
X123782445Y-106910805D01*
X123537084Y-106862000D01*
X123286916Y-106862000D01*
X123041555Y-106910805D01*
X122810429Y-107006541D01*
X122602422Y-107145527D01*
X122425527Y-107322422D01*
X122412000Y-107342667D01*
X122398473Y-107322422D01*
X122221578Y-107145527D01*
X122013571Y-107006541D01*
X121782445Y-106910805D01*
X121537084Y-106862000D01*
X121286916Y-106862000D01*
X121041555Y-106910805D01*
X120810429Y-107006541D01*
X120602422Y-107145527D01*
X120425527Y-107322422D01*
X120412000Y-107342667D01*
X120398473Y-107322422D01*
X120221578Y-107145527D01*
X120013571Y-107006541D01*
X119782445Y-106910805D01*
X119537084Y-106862000D01*
X119286916Y-106862000D01*
X119041555Y-106910805D01*
X118810429Y-107006541D01*
X118602422Y-107145527D01*
X118425527Y-107322422D01*
X118286541Y-107530429D01*
X118190805Y-107761555D01*
X118142000Y-108006916D01*
X106980771Y-108006916D01*
X107013106Y-107928854D01*
X107048000Y-107753430D01*
X107048000Y-107574570D01*
X107013106Y-107399146D01*
X106944659Y-107233901D01*
X106845289Y-107085184D01*
X106718816Y-106958711D01*
X106570099Y-106859341D01*
X106404854Y-106790894D01*
X106229430Y-106756000D01*
X106050570Y-106756000D01*
X105875146Y-106790894D01*
X105709901Y-106859341D01*
X105646058Y-106902000D01*
X103910457Y-106902000D01*
X103910457Y-106664000D01*
X103900649Y-106564415D01*
X103871601Y-106468657D01*
X103824429Y-106380405D01*
X103760948Y-106303052D01*
X103683595Y-106239571D01*
X103595343Y-106192399D01*
X103499585Y-106163351D01*
X103400000Y-106153543D01*
X102100000Y-106153543D01*
X102000415Y-106163351D01*
X101904657Y-106192399D01*
X101816405Y-106239571D01*
X101739052Y-106303052D01*
X101675571Y-106380405D01*
X101628399Y-106468657D01*
X101600000Y-106562276D01*
X101571601Y-106468657D01*
X101524429Y-106380405D01*
X101460948Y-106303052D01*
X101383595Y-106239571D01*
X101295343Y-106192399D01*
X101199585Y-106163351D01*
X101100000Y-106153543D01*
X99800000Y-106153543D01*
X99700415Y-106163351D01*
X99604657Y-106192399D01*
X99516405Y-106239571D01*
X99439052Y-106303052D01*
X99375571Y-106380405D01*
X99328399Y-106468657D01*
X99299351Y-106564415D01*
X99289543Y-106664000D01*
X98423000Y-106664000D01*
X98423000Y-99091085D01*
X98426062Y-99059999D01*
X98421638Y-99015085D01*
X98413840Y-98935910D01*
X98377645Y-98816590D01*
X98318866Y-98706623D01*
X98239764Y-98610236D01*
X98215613Y-98590416D01*
X97167584Y-97542387D01*
X97147764Y-97518236D01*
X97051377Y-97439134D01*
X96941410Y-97380355D01*
X96822090Y-97344160D01*
X96729088Y-97335000D01*
X96698000Y-97331938D01*
X96666912Y-97335000D01*
X96480197Y-97335000D01*
X99873545Y-93941652D01*
X99908615Y-93984385D01*
X100021957Y-94077404D01*
X100151269Y-94146522D01*
X100291581Y-94189085D01*
X100437500Y-94203457D01*
X100937500Y-94203457D01*
X101083419Y-94189085D01*
X101223731Y-94146522D01*
X101353043Y-94077404D01*
X101466385Y-93984385D01*
X101559404Y-93871043D01*
X101600000Y-93795092D01*
X101640596Y-93871043D01*
X101733615Y-93984385D01*
X101846957Y-94077404D01*
X101879500Y-94094799D01*
X101879501Y-97167201D01*
X101846957Y-97184596D01*
X101733615Y-97277615D01*
X101640596Y-97390957D01*
X101600000Y-97466908D01*
X101559404Y-97390957D01*
X101466385Y-97277615D01*
X101353043Y-97184596D01*
X101223731Y-97115478D01*
X101083419Y-97072915D01*
X100937500Y-97058543D01*
X100437500Y-97058543D01*
X100291581Y-97072915D01*
X100151269Y-97115478D01*
X100021957Y-97184596D01*
X99908615Y-97277615D01*
X99815596Y-97390957D01*
X99746478Y-97520269D01*
X99703915Y-97660581D01*
X99689543Y-97806500D01*
X99689543Y-98281500D01*
X99703915Y-98427419D01*
X99746478Y-98567731D01*
X99815596Y-98697043D01*
X99908615Y-98810385D01*
X100021957Y-98903404D01*
X100052443Y-98919699D01*
X100063660Y-99033589D01*
X100099856Y-99152910D01*
X100154956Y-99255994D01*
X100158635Y-99262877D01*
X100237737Y-99359264D01*
X100261883Y-99379080D01*
X103913803Y-103031000D01*
X103110457Y-103031000D01*
X103110457Y-102664000D01*
X103100649Y-102564415D01*
X103071601Y-102468657D01*
X103024429Y-102380405D01*
X102960948Y-102303052D01*
X102883595Y-102239571D01*
X102795343Y-102192399D01*
X102699585Y-102163351D01*
X102600000Y-102153543D01*
X100600000Y-102153543D01*
X100500415Y-102163351D01*
X100404657Y-102192399D01*
X100316405Y-102239571D01*
X100239052Y-102303052D01*
X100175571Y-102380405D01*
X100128399Y-102468657D01*
X100099351Y-102564415D01*
X100089543Y-102664000D01*
X100089543Y-104664000D01*
X100099351Y-104763585D01*
X100128399Y-104859343D01*
X100175571Y-104947595D01*
X100239052Y-105024948D01*
X100316405Y-105088429D01*
X100404657Y-105135601D01*
X100500415Y-105164649D01*
X100600000Y-105174457D01*
X102600000Y-105174457D01*
X102699585Y-105164649D01*
X102761052Y-105146003D01*
X138157573Y-105146003D01*
X138237947Y-105443368D01*
X138436388Y-105867439D01*
X138713748Y-106244648D01*
X139059369Y-106560498D01*
X139459968Y-106802852D01*
X139900150Y-106962396D01*
X140363000Y-107033000D01*
X142113000Y-107033000D01*
X142113000Y-104775000D01*
X142367000Y-104775000D01*
X142367000Y-107033000D01*
X144117000Y-107033000D01*
X144579850Y-106962396D01*
X145020032Y-106802852D01*
X145420631Y-106560498D01*
X145766252Y-106244648D01*
X146043612Y-105867439D01*
X146242053Y-105443368D01*
X146322427Y-105146003D01*
X146212625Y-104775000D01*
X142367000Y-104775000D01*
X142113000Y-104775000D01*
X138267375Y-104775000D01*
X138157573Y-105146003D01*
X102761052Y-105146003D01*
X102795343Y-105135601D01*
X102883595Y-105088429D01*
X102960948Y-105024948D01*
X103024429Y-104947595D01*
X103071601Y-104859343D01*
X103100649Y-104763585D01*
X103110457Y-104664000D01*
X103110457Y-104297000D01*
X118328923Y-104297000D01*
X118425527Y-104441578D01*
X118602422Y-104618473D01*
X118810429Y-104757459D01*
X119041555Y-104853195D01*
X119286916Y-104902000D01*
X119537084Y-104902000D01*
X119782445Y-104853195D01*
X120013571Y-104757459D01*
X120221578Y-104618473D01*
X120398473Y-104441578D01*
X120412000Y-104421333D01*
X120425527Y-104441578D01*
X120602422Y-104618473D01*
X120810429Y-104757459D01*
X121041555Y-104853195D01*
X121286916Y-104902000D01*
X121537084Y-104902000D01*
X121782445Y-104853195D01*
X122013571Y-104757459D01*
X122221578Y-104618473D01*
X122242486Y-104597565D01*
X122626040Y-104597565D01*
X122693020Y-104837656D01*
X122942048Y-104954756D01*
X123209135Y-105021023D01*
X123484017Y-105033910D01*
X123756133Y-104992922D01*
X124015023Y-104899636D01*
X124130980Y-104837656D01*
X124197960Y-104597565D01*
X123412000Y-103811605D01*
X122626040Y-104597565D01*
X122242486Y-104597565D01*
X122398473Y-104441578D01*
X122419310Y-104410393D01*
X122446435Y-104417960D01*
X123232395Y-103632000D01*
X123591605Y-103632000D01*
X124377565Y-104417960D01*
X124617656Y-104350980D01*
X124712163Y-104149997D01*
X138157573Y-104149997D01*
X138267375Y-104521000D01*
X142113000Y-104521000D01*
X142113000Y-102263000D01*
X142367000Y-102263000D01*
X142367000Y-104521000D01*
X146212625Y-104521000D01*
X146322427Y-104149997D01*
X146242053Y-103852632D01*
X146043612Y-103428561D01*
X145766252Y-103051352D01*
X145420631Y-102735502D01*
X145020032Y-102493148D01*
X144579850Y-102333604D01*
X144117000Y-102263000D01*
X142367000Y-102263000D01*
X142113000Y-102263000D01*
X140363000Y-102263000D01*
X139900150Y-102333604D01*
X139459968Y-102493148D01*
X139059369Y-102735502D01*
X138713748Y-103051352D01*
X138436388Y-103428561D01*
X138237947Y-103852632D01*
X138157573Y-104149997D01*
X124712163Y-104149997D01*
X124734756Y-104101952D01*
X124801023Y-103834865D01*
X124813910Y-103559983D01*
X124772922Y-103287867D01*
X124679636Y-103028977D01*
X124617656Y-102913020D01*
X124377565Y-102846040D01*
X123591605Y-103632000D01*
X123232395Y-103632000D01*
X122446435Y-102846040D01*
X122419310Y-102853607D01*
X122398473Y-102822422D01*
X122242486Y-102666435D01*
X122626040Y-102666435D01*
X123412000Y-103452395D01*
X124197960Y-102666435D01*
X124130980Y-102426344D01*
X123881952Y-102309244D01*
X123614865Y-102242977D01*
X123339983Y-102230090D01*
X123067867Y-102271078D01*
X122808977Y-102364364D01*
X122693020Y-102426344D01*
X122626040Y-102666435D01*
X122242486Y-102666435D01*
X122221578Y-102645527D01*
X122013571Y-102506541D01*
X121782445Y-102410805D01*
X121537084Y-102362000D01*
X121286916Y-102362000D01*
X121078628Y-102403431D01*
X120103584Y-101428387D01*
X120083764Y-101404236D01*
X119987377Y-101325134D01*
X119877410Y-101266355D01*
X119758090Y-101230160D01*
X119665088Y-101221000D01*
X119634000Y-101217938D01*
X119602912Y-101221000D01*
X115601088Y-101221000D01*
X115570000Y-101217938D01*
X115538912Y-101221000D01*
X115445910Y-101230160D01*
X115326590Y-101266355D01*
X115216623Y-101325134D01*
X115120236Y-101404236D01*
X115100420Y-101428382D01*
X114291803Y-102237000D01*
X110247857Y-102237000D01*
X110290537Y-102184994D01*
X110349502Y-102074680D01*
X110385812Y-101954982D01*
X110398072Y-101830500D01*
X110395000Y-101578750D01*
X110236250Y-101420000D01*
X109412000Y-101420000D01*
X109412000Y-101440000D01*
X109158000Y-101440000D01*
X109158000Y-101420000D01*
X108333750Y-101420000D01*
X108175000Y-101578750D01*
X108171928Y-101830500D01*
X108184188Y-101954982D01*
X108220498Y-102074680D01*
X108279463Y-102184994D01*
X108322143Y-102237000D01*
X104910197Y-102237000D01*
X101474137Y-98800940D01*
X101559404Y-98697043D01*
X101600000Y-98621092D01*
X101640596Y-98697043D01*
X101733615Y-98810385D01*
X101846957Y-98903404D01*
X101976269Y-98972522D01*
X102116581Y-99015085D01*
X102262500Y-99029457D01*
X102762500Y-99029457D01*
X102908419Y-99015085D01*
X103048731Y-98972522D01*
X103178043Y-98903404D01*
X103291385Y-98810385D01*
X103384404Y-98697043D01*
X103453522Y-98567731D01*
X103496085Y-98427419D01*
X103510457Y-98281500D01*
X103510457Y-97806500D01*
X103496085Y-97660581D01*
X103453522Y-97520269D01*
X103384404Y-97390957D01*
X103291385Y-97277615D01*
X103178043Y-97184596D01*
X103145500Y-97167202D01*
X103145500Y-94094798D01*
X103178043Y-94077404D01*
X103291385Y-93984385D01*
X103384404Y-93871043D01*
X103395117Y-93851000D01*
X105655803Y-93851000D01*
X106083416Y-94278613D01*
X106103236Y-94302764D01*
X106199623Y-94381866D01*
X106261737Y-94415067D01*
X106259985Y-94415598D01*
X106198364Y-94448535D01*
X106127607Y-94486355D01*
X106103687Y-94505986D01*
X106011578Y-94581578D01*
X105987721Y-94610649D01*
X105474456Y-95123914D01*
X105399146Y-95138894D01*
X105233901Y-95207341D01*
X105085184Y-95306711D01*
X104958711Y-95433184D01*
X104859341Y-95581901D01*
X104790894Y-95747146D01*
X104756000Y-95922570D01*
X104756000Y-96101430D01*
X104790894Y-96276854D01*
X104859341Y-96442099D01*
X104958711Y-96590816D01*
X105085184Y-96717289D01*
X105233901Y-96816659D01*
X105399146Y-96885106D01*
X105574570Y-96920000D01*
X105753430Y-96920000D01*
X105928854Y-96885106D01*
X106094099Y-96816659D01*
X106242816Y-96717289D01*
X106369289Y-96590816D01*
X106468659Y-96442099D01*
X106537106Y-96276854D01*
X106552086Y-96201544D01*
X106868631Y-95885000D01*
X108213244Y-95885000D01*
X108331151Y-95920767D01*
X108460000Y-95933457D01*
X108523000Y-95933457D01*
X108523001Y-98735516D01*
X108518615Y-98739115D01*
X108425596Y-98852457D01*
X108356478Y-98981769D01*
X108313915Y-99122081D01*
X108299543Y-99268000D01*
X108299543Y-99868000D01*
X108313915Y-100013919D01*
X108356478Y-100154231D01*
X108412951Y-100259886D01*
X108358815Y-100304315D01*
X108279463Y-100401006D01*
X108220498Y-100511320D01*
X108184188Y-100631018D01*
X108171928Y-100755500D01*
X108175000Y-101007250D01*
X108333750Y-101166000D01*
X109158000Y-101166000D01*
X109158000Y-101146000D01*
X109412000Y-101146000D01*
X109412000Y-101166000D01*
X110236250Y-101166000D01*
X110395000Y-101007250D01*
X110398072Y-100755500D01*
X110385812Y-100631018D01*
X110349502Y-100511320D01*
X110290537Y-100401006D01*
X110211185Y-100304315D01*
X110157049Y-100259886D01*
X110213522Y-100154231D01*
X110256085Y-100013919D01*
X110270457Y-99868000D01*
X110270457Y-99268000D01*
X110256085Y-99122081D01*
X110213522Y-98981769D01*
X110144404Y-98852457D01*
X110051385Y-98739115D01*
X110047000Y-98735516D01*
X110047000Y-95933457D01*
X110110000Y-95933457D01*
X110238849Y-95920767D01*
X110362746Y-95883183D01*
X110476930Y-95822150D01*
X110577014Y-95740014D01*
X110659150Y-95639930D01*
X110720183Y-95525746D01*
X110757767Y-95401849D01*
X110770457Y-95273000D01*
X110770457Y-94973000D01*
X110757767Y-94844151D01*
X110720183Y-94720254D01*
X110659150Y-94606070D01*
X110577014Y-94505986D01*
X110555098Y-94488000D01*
X110577014Y-94470014D01*
X110659150Y-94369930D01*
X110720183Y-94255746D01*
X110757767Y-94131849D01*
X110770457Y-94003000D01*
X110770457Y-93703000D01*
X110757767Y-93574151D01*
X110720183Y-93450254D01*
X110659150Y-93336070D01*
X110577014Y-93235986D01*
X110555098Y-93218000D01*
X110577014Y-93200014D01*
X110659150Y-93099930D01*
X110720183Y-92985746D01*
X110757767Y-92861849D01*
X110770457Y-92733000D01*
X110770457Y-92433000D01*
X110757767Y-92304151D01*
X110720183Y-92180254D01*
X110659150Y-92066070D01*
X110577014Y-91965986D01*
X110555098Y-91948000D01*
X110577014Y-91930014D01*
X110659150Y-91829930D01*
X110720183Y-91715746D01*
X110757767Y-91591849D01*
X110770457Y-91463000D01*
X110770457Y-91163000D01*
X110757767Y-91034151D01*
X110720183Y-90910254D01*
X110659150Y-90796070D01*
X110577014Y-90695986D01*
X110476930Y-90613850D01*
X110362746Y-90552817D01*
X110238849Y-90515233D01*
X110110000Y-90502543D01*
X108460000Y-90502543D01*
X108331151Y-90515233D01*
X108207254Y-90552817D01*
X108093070Y-90613850D01*
X107992986Y-90695986D01*
X107910850Y-90796070D01*
X107849817Y-90910254D01*
X107812233Y-91034151D01*
X107799543Y-91163000D01*
X107799543Y-91463000D01*
X107812233Y-91591849D01*
X107849817Y-91715746D01*
X107910850Y-91829930D01*
X107992986Y-91930014D01*
X108014902Y-91948000D01*
X108012465Y-91950000D01*
X107069196Y-91950000D01*
X107059000Y-91939803D01*
X107059000Y-88654197D01*
X107196197Y-88517000D01*
X110355412Y-88517000D01*
X110386500Y-88520062D01*
X110417588Y-88517000D01*
X110426838Y-88516089D01*
X110435829Y-88515203D01*
X110510590Y-88507840D01*
X110629910Y-88471645D01*
X110739877Y-88412866D01*
X110836264Y-88333764D01*
X110856084Y-88309613D01*
X111157697Y-88008000D01*
X119536928Y-88008000D01*
X119540000Y-88259750D01*
X119698750Y-88418500D01*
X120523000Y-88418500D01*
X120523000Y-87531750D01*
X120777000Y-87531750D01*
X120777000Y-88418500D01*
X121601250Y-88418500D01*
X121760000Y-88259750D01*
X121763072Y-88008000D01*
X121750812Y-87883518D01*
X121714502Y-87763820D01*
X121655537Y-87653506D01*
X121576185Y-87556815D01*
X121479494Y-87477463D01*
X121369180Y-87418498D01*
X121249482Y-87382188D01*
X121125000Y-87369928D01*
X120935750Y-87373000D01*
X120777000Y-87531750D01*
X120523000Y-87531750D01*
X120364250Y-87373000D01*
X120175000Y-87369928D01*
X120050518Y-87382188D01*
X119930820Y-87418498D01*
X119820506Y-87477463D01*
X119723815Y-87556815D01*
X119644463Y-87653506D01*
X119585498Y-87763820D01*
X119549188Y-87883518D01*
X119536928Y-88008000D01*
X111157697Y-88008000D01*
X112582240Y-86583457D01*
X112922500Y-86583457D01*
X113068419Y-86569085D01*
X113208731Y-86526522D01*
X113338043Y-86457404D01*
X113451385Y-86364385D01*
X113544404Y-86251043D01*
X113555117Y-86231000D01*
X121403803Y-86231000D01*
X127757000Y-92584198D01*
X127757001Y-94057543D01*
X127740000Y-94057543D01*
X127640415Y-94067351D01*
X127544657Y-94096399D01*
X127456405Y-94143571D01*
X127379052Y-94207052D01*
X127315571Y-94284405D01*
X127268399Y-94372657D01*
X127239351Y-94468415D01*
X127229543Y-94568000D01*
X127229543Y-96568000D01*
X127239351Y-96667585D01*
X127268399Y-96763343D01*
X127315571Y-96851595D01*
X127379052Y-96928948D01*
X127456405Y-96992429D01*
X127544657Y-97039601D01*
X127640415Y-97068649D01*
X127740000Y-97078457D01*
X129040000Y-97078457D01*
X129139585Y-97068649D01*
X129235343Y-97039601D01*
X129323595Y-96992429D01*
X129400948Y-96928948D01*
X129464429Y-96851595D01*
X129511601Y-96763343D01*
X129540000Y-96669724D01*
X129568399Y-96763343D01*
X129615571Y-96851595D01*
X129679052Y-96928948D01*
X129723433Y-96965370D01*
X129114387Y-97574416D01*
X129090236Y-97594236D01*
X129011134Y-97690624D01*
X128952355Y-97800591D01*
X128934385Y-97859831D01*
X128916160Y-97919911D01*
X128903938Y-98044000D01*
X128905272Y-98057543D01*
X128540000Y-98057543D01*
X128440415Y-98067351D01*
X128344657Y-98096399D01*
X128256405Y-98143571D01*
X128179052Y-98207052D01*
X128115571Y-98284405D01*
X128068399Y-98372657D01*
X128039351Y-98468415D01*
X128029543Y-98568000D01*
X128029543Y-98935000D01*
X124214197Y-98935000D01*
X118706584Y-93427387D01*
X118686764Y-93403236D01*
X118590377Y-93324134D01*
X118564649Y-93310382D01*
X118630515Y-93290402D01*
X118762892Y-93219645D01*
X118878922Y-93124422D01*
X118902784Y-93095346D01*
X120679674Y-91318457D01*
X120887500Y-91318457D01*
X121033419Y-91304085D01*
X121173731Y-91261522D01*
X121303043Y-91192404D01*
X121416385Y-91099385D01*
X121471277Y-91032500D01*
X123103558Y-91032500D01*
X123167401Y-91075159D01*
X123332646Y-91143606D01*
X123508070Y-91178500D01*
X123686930Y-91178500D01*
X123862354Y-91143606D01*
X124027599Y-91075159D01*
X124176316Y-90975789D01*
X124302789Y-90849316D01*
X124402159Y-90700599D01*
X124470606Y-90535354D01*
X124505500Y-90359930D01*
X124505500Y-90181070D01*
X124470606Y-90005646D01*
X124402159Y-89840401D01*
X124302789Y-89691684D01*
X124176316Y-89565211D01*
X124027599Y-89465841D01*
X123862354Y-89397394D01*
X123686930Y-89362500D01*
X123508070Y-89362500D01*
X123332646Y-89397394D01*
X123167401Y-89465841D01*
X123103558Y-89508500D01*
X121597264Y-89508500D01*
X121655537Y-89437494D01*
X121714502Y-89327180D01*
X121750812Y-89207482D01*
X121763072Y-89083000D01*
X121760000Y-88831250D01*
X121601250Y-88672500D01*
X120777000Y-88672500D01*
X120777000Y-88692500D01*
X120523000Y-88692500D01*
X120523000Y-88672500D01*
X119698750Y-88672500D01*
X119540000Y-88831250D01*
X119536928Y-89083000D01*
X119549188Y-89207482D01*
X119585498Y-89327180D01*
X119644463Y-89437494D01*
X119723815Y-89534185D01*
X119777951Y-89578614D01*
X119721478Y-89684269D01*
X119678915Y-89824581D01*
X119664543Y-89970500D01*
X119664543Y-90178326D01*
X118021870Y-91821000D01*
X115613923Y-91821000D01*
X115670183Y-91715746D01*
X115707767Y-91591849D01*
X115720457Y-91463000D01*
X115720457Y-91163000D01*
X115707767Y-91034151D01*
X115670183Y-90910254D01*
X115609150Y-90796070D01*
X115527014Y-90695986D01*
X115426930Y-90613850D01*
X115312746Y-90552817D01*
X115188849Y-90515233D01*
X115060000Y-90502543D01*
X113410000Y-90502543D01*
X113281151Y-90515233D01*
X113157254Y-90552817D01*
X113043070Y-90613850D01*
X112942986Y-90695986D01*
X112860850Y-90796070D01*
X112799817Y-90910254D01*
X112762233Y-91034151D01*
X112749543Y-91163000D01*
X112749543Y-91463000D01*
X112762233Y-91591849D01*
X112799817Y-91715746D01*
X112860850Y-91829930D01*
X112942986Y-91930014D01*
X112964902Y-91948000D01*
X112942986Y-91965986D01*
X112860850Y-92066070D01*
X112799817Y-92180254D01*
X112762233Y-92304151D01*
X112749543Y-92433000D01*
X112749543Y-92733000D01*
X112762233Y-92861849D01*
X112799817Y-92985746D01*
X112860850Y-93099930D01*
X112942986Y-93200014D01*
X112964902Y-93218000D01*
X112942986Y-93235986D01*
X112860850Y-93336070D01*
X112799817Y-93450254D01*
X112762233Y-93574151D01*
X112749543Y-93703000D01*
X112749543Y-94003000D01*
X112762233Y-94131849D01*
X112799817Y-94255746D01*
X112860850Y-94369930D01*
X112942986Y-94470014D01*
X112964902Y-94488000D01*
X112942986Y-94505986D01*
X112860850Y-94606070D01*
X112799817Y-94720254D01*
X112762233Y-94844151D01*
X112749543Y-94973000D01*
X112749543Y-95273000D01*
X112762233Y-95401849D01*
X112799817Y-95525746D01*
X112860850Y-95639930D01*
X112942986Y-95740014D01*
X113043070Y-95822150D01*
X113157254Y-95883183D01*
X113281151Y-95920767D01*
X113410000Y-95933457D01*
X115060000Y-95933457D01*
X115188849Y-95920767D01*
X115312746Y-95883183D01*
X115426930Y-95822150D01*
X115527014Y-95740014D01*
X115609150Y-95639930D01*
X115670183Y-95525746D01*
X115707767Y-95401849D01*
X115720457Y-95273000D01*
X115720457Y-94973000D01*
X115707767Y-94844151D01*
X115670183Y-94720254D01*
X115609150Y-94606070D01*
X115527014Y-94505986D01*
X115505098Y-94488000D01*
X115507535Y-94486000D01*
X117974803Y-94486000D01*
X123482416Y-99993613D01*
X123502236Y-100017764D01*
X123598623Y-100096866D01*
X123708590Y-100155645D01*
X123827907Y-100191839D01*
X123827910Y-100191840D01*
X123952000Y-100204062D01*
X123983088Y-100201000D01*
X128029543Y-100201000D01*
X128029543Y-100568000D01*
X128039351Y-100667585D01*
X128068399Y-100763343D01*
X128115571Y-100851595D01*
X128179052Y-100928948D01*
X128256405Y-100992429D01*
X128344657Y-101039601D01*
X128440415Y-101068649D01*
X128540000Y-101078457D01*
X130540000Y-101078457D01*
X130639585Y-101068649D01*
X130735343Y-101039601D01*
X130823595Y-100992429D01*
X130900948Y-100928948D01*
X130964429Y-100851595D01*
X131011601Y-100763343D01*
X131040649Y-100667585D01*
X131050457Y-100568000D01*
X131050457Y-100201000D01*
X135565220Y-100201000D01*
X135617176Y-100298202D01*
X135780630Y-100497370D01*
X135979798Y-100660824D01*
X136207028Y-100782281D01*
X136453587Y-100857074D01*
X136645750Y-100876000D01*
X137674250Y-100876000D01*
X137866413Y-100857074D01*
X138112972Y-100782281D01*
X138340202Y-100660824D01*
X138539370Y-100497370D01*
X138702824Y-100298202D01*
X138824281Y-100070972D01*
X138899074Y-99824413D01*
X138924328Y-99568000D01*
X138899074Y-99311587D01*
X138824281Y-99065028D01*
X138702824Y-98837798D01*
X138539370Y-98638630D01*
X138340202Y-98475176D01*
X138131417Y-98363578D01*
X138276483Y-98305166D01*
X138512839Y-98150601D01*
X138714500Y-97952895D01*
X138873715Y-97719646D01*
X138984367Y-97459818D01*
X139001904Y-97377039D01*
X138879915Y-97155000D01*
X137287000Y-97155000D01*
X137287000Y-97175000D01*
X137033000Y-97175000D01*
X137033000Y-97155000D01*
X135440085Y-97155000D01*
X135318096Y-97377039D01*
X135335633Y-97459818D01*
X135446285Y-97719646D01*
X135605500Y-97952895D01*
X135807161Y-98150601D01*
X136043517Y-98305166D01*
X136188583Y-98363578D01*
X135979798Y-98475176D01*
X135780630Y-98638630D01*
X135617176Y-98837798D01*
X135565220Y-98935000D01*
X131050457Y-98935000D01*
X131050457Y-98568000D01*
X131040649Y-98468415D01*
X131011601Y-98372657D01*
X130964429Y-98284405D01*
X130900948Y-98207052D01*
X130823595Y-98143571D01*
X130735343Y-98096399D01*
X130639585Y-98067351D01*
X130540000Y-98057543D01*
X130421654Y-98057543D01*
X131115613Y-97363584D01*
X131139764Y-97343764D01*
X131218866Y-97247377D01*
X131277645Y-97137410D01*
X131295528Y-97078457D01*
X131340000Y-97078457D01*
X131439585Y-97068649D01*
X131535343Y-97039601D01*
X131623595Y-96992429D01*
X131700948Y-96928948D01*
X131764429Y-96851595D01*
X131811601Y-96763343D01*
X131837198Y-96678961D01*
X135318096Y-96678961D01*
X135440085Y-96901000D01*
X137033000Y-96901000D01*
X137033000Y-95593000D01*
X137287000Y-95593000D01*
X137287000Y-96901000D01*
X138879915Y-96901000D01*
X139001904Y-96678961D01*
X138984367Y-96596182D01*
X138873715Y-96336354D01*
X138714500Y-96103105D01*
X138512839Y-95905399D01*
X138276483Y-95750834D01*
X138014514Y-95645350D01*
X137737000Y-95593000D01*
X137287000Y-95593000D01*
X137033000Y-95593000D01*
X136583000Y-95593000D01*
X136305486Y-95645350D01*
X136043517Y-95750834D01*
X135807161Y-95905399D01*
X135605500Y-96103105D01*
X135446285Y-96336354D01*
X135335633Y-96596182D01*
X135318096Y-96678961D01*
X131837198Y-96678961D01*
X131840649Y-96667585D01*
X131850457Y-96568000D01*
X131850457Y-94986003D01*
X138157573Y-94986003D01*
X138237947Y-95283368D01*
X138436388Y-95707439D01*
X138713748Y-96084648D01*
X139059369Y-96400498D01*
X139459968Y-96642852D01*
X139900150Y-96802396D01*
X140363000Y-96873000D01*
X142113000Y-96873000D01*
X142113000Y-94615000D01*
X142367000Y-94615000D01*
X142367000Y-96873000D01*
X144117000Y-96873000D01*
X144579850Y-96802396D01*
X145020032Y-96642852D01*
X145420631Y-96400498D01*
X145766252Y-96084648D01*
X146043612Y-95707439D01*
X146242053Y-95283368D01*
X146322427Y-94986003D01*
X146212625Y-94615000D01*
X142367000Y-94615000D01*
X142113000Y-94615000D01*
X138267375Y-94615000D01*
X138157573Y-94986003D01*
X131850457Y-94986003D01*
X131850457Y-94568000D01*
X131840649Y-94468415D01*
X131811601Y-94372657D01*
X131764429Y-94284405D01*
X131700948Y-94207052D01*
X131623595Y-94143571D01*
X131535343Y-94096399D01*
X131439585Y-94067351D01*
X131340000Y-94057543D01*
X130040000Y-94057543D01*
X129940415Y-94067351D01*
X129844657Y-94096399D01*
X129756405Y-94143571D01*
X129679052Y-94207052D01*
X129615571Y-94284405D01*
X129568399Y-94372657D01*
X129540000Y-94466276D01*
X129511601Y-94372657D01*
X129464429Y-94284405D01*
X129400948Y-94207052D01*
X129323595Y-94143571D01*
X129235343Y-94096399D01*
X129139585Y-94067351D01*
X129040000Y-94057543D01*
X129023000Y-94057543D01*
X129023000Y-93989997D01*
X138157573Y-93989997D01*
X138267375Y-94361000D01*
X142113000Y-94361000D01*
X142113000Y-92103000D01*
X142367000Y-92103000D01*
X142367000Y-94361000D01*
X146212625Y-94361000D01*
X146322427Y-93989997D01*
X146242053Y-93692632D01*
X146043612Y-93268561D01*
X145766252Y-92891352D01*
X145420631Y-92575502D01*
X145020032Y-92333148D01*
X144579850Y-92173604D01*
X144117000Y-92103000D01*
X142367000Y-92103000D01*
X142113000Y-92103000D01*
X140363000Y-92103000D01*
X139900150Y-92173604D01*
X139459968Y-92333148D01*
X139059369Y-92575502D01*
X138713748Y-92891352D01*
X138436388Y-93268561D01*
X138237947Y-93692632D01*
X138157573Y-93989997D01*
X129023000Y-93989997D01*
X129023000Y-92353088D01*
X129026062Y-92322000D01*
X129013840Y-92197910D01*
X129006467Y-92173604D01*
X128977645Y-92078590D01*
X128918866Y-91968623D01*
X128839764Y-91872236D01*
X128815620Y-91852422D01*
X122135584Y-85172387D01*
X122115764Y-85148236D01*
X122019377Y-85069134D01*
X121909410Y-85010355D01*
X121790090Y-84974160D01*
X121697088Y-84965000D01*
X121666000Y-84961938D01*
X121634912Y-84965000D01*
X113555117Y-84965000D01*
X113544404Y-84944957D01*
X113451385Y-84831615D01*
X113338043Y-84738596D01*
X113208731Y-84669478D01*
X113068419Y-84626915D01*
X112922500Y-84612543D01*
X112422500Y-84612543D01*
X112276581Y-84626915D01*
X112136269Y-84669478D01*
X112006957Y-84738596D01*
X111897546Y-84828389D01*
X111865537Y-84768506D01*
X111786185Y-84671815D01*
X111689494Y-84592463D01*
X111579180Y-84533498D01*
X111459482Y-84497188D01*
X111335000Y-84484928D01*
X111133250Y-84488000D01*
X110974500Y-84646750D01*
X110974500Y-85471000D01*
X110994500Y-85471000D01*
X110994500Y-85725000D01*
X110974500Y-85725000D01*
X110974500Y-85745000D01*
X110720500Y-85745000D01*
X110720500Y-85725000D01*
X109883750Y-85725000D01*
X109725000Y-85883750D01*
X109721928Y-86073000D01*
X109734188Y-86197482D01*
X109770498Y-86317180D01*
X109829463Y-86427494D01*
X109908815Y-86524185D01*
X110005506Y-86603537D01*
X110115820Y-86662502D01*
X110235518Y-86698812D01*
X110360000Y-86711072D01*
X110561750Y-86708000D01*
X110720498Y-86549252D01*
X110720498Y-86654805D01*
X110124303Y-87251000D01*
X106965085Y-87251000D01*
X106933999Y-87247938D01*
X106902913Y-87251000D01*
X106902912Y-87251000D01*
X106809910Y-87260160D01*
X106690590Y-87296355D01*
X106580623Y-87355134D01*
X106484236Y-87434236D01*
X106464416Y-87458387D01*
X106000383Y-87922420D01*
X105976237Y-87942236D01*
X105956421Y-87966382D01*
X105956419Y-87966384D01*
X105897134Y-88038624D01*
X105838356Y-88148590D01*
X105802160Y-88267911D01*
X105789938Y-88392000D01*
X105793001Y-88423098D01*
X105793000Y-92170912D01*
X105789938Y-92202000D01*
X105793000Y-92233087D01*
X105802160Y-92326089D01*
X105838355Y-92445409D01*
X105897134Y-92555376D01*
X105919014Y-92582038D01*
X105918000Y-92581938D01*
X105886912Y-92585000D01*
X103395117Y-92585000D01*
X103384404Y-92564957D01*
X103291385Y-92451615D01*
X103178043Y-92358596D01*
X103048731Y-92289478D01*
X102908419Y-92246915D01*
X102762500Y-92232543D01*
X102262500Y-92232543D01*
X102116581Y-92246915D01*
X101976269Y-92289478D01*
X101846957Y-92358596D01*
X101733615Y-92451615D01*
X101640596Y-92564957D01*
X101600000Y-92640908D01*
X101559404Y-92564957D01*
X101466385Y-92451615D01*
X101353043Y-92358596D01*
X101223731Y-92289478D01*
X101083419Y-92246915D01*
X100937500Y-92232543D01*
X100437500Y-92232543D01*
X100291581Y-92246915D01*
X100151269Y-92289478D01*
X100021957Y-92358596D01*
X99908615Y-92451615D01*
X99815596Y-92564957D01*
X99804883Y-92585000D01*
X99733088Y-92585000D01*
X99702000Y-92581938D01*
X99670912Y-92585000D01*
X99577910Y-92594160D01*
X99458590Y-92630355D01*
X99348623Y-92689134D01*
X99252236Y-92768236D01*
X99232416Y-92792387D01*
X95689803Y-96335000D01*
X94497766Y-96335000D01*
X94439585Y-96317351D01*
X94340000Y-96307543D01*
X92940000Y-96307543D01*
X92840415Y-96317351D01*
X92744657Y-96346399D01*
X92656405Y-96393571D01*
X92579052Y-96457052D01*
X92515571Y-96534405D01*
X92468399Y-96622657D01*
X92439351Y-96718415D01*
X92429543Y-96818000D01*
X92429543Y-96938173D01*
X92415057Y-96955273D01*
X92354379Y-97064654D01*
X92316206Y-97183771D01*
X92305000Y-97286250D01*
X92463750Y-97445000D01*
X92551192Y-97445000D01*
X92570067Y-97468000D01*
X92551192Y-97491000D01*
X92463750Y-97491000D01*
X92305000Y-97649750D01*
X92316206Y-97752229D01*
X92354379Y-97871346D01*
X92415057Y-97980727D01*
X92429543Y-97997827D01*
X92429543Y-98118000D01*
X92439351Y-98217585D01*
X92439477Y-98218000D01*
X92439351Y-98218415D01*
X92429543Y-98318000D01*
X92429543Y-98618000D01*
X92439351Y-98717585D01*
X92439477Y-98718000D01*
X92439351Y-98718415D01*
X92429543Y-98818000D01*
X92429543Y-99118000D01*
X92439351Y-99217585D01*
X92468399Y-99313343D01*
X92515571Y-99401595D01*
X92579052Y-99478948D01*
X92656405Y-99542429D01*
X92744657Y-99589601D01*
X92840415Y-99618649D01*
X92940000Y-99628457D01*
X94340000Y-99628457D01*
X94439585Y-99618649D01*
X94497766Y-99601000D01*
X95149803Y-99601000D01*
X95379001Y-99830199D01*
X95379000Y-104385803D01*
X94987803Y-104777000D01*
X92233088Y-104777000D01*
X92202000Y-104773938D01*
X92170912Y-104777000D01*
X92077910Y-104786160D01*
X91958590Y-104822355D01*
X91848623Y-104881134D01*
X91752236Y-104960236D01*
X91732416Y-104984387D01*
X90830368Y-105886435D01*
X90820114Y-105882187D01*
X90557751Y-105830000D01*
X90290249Y-105830000D01*
X90027886Y-105882187D01*
X89780746Y-105984556D01*
X89558325Y-106133172D01*
X89369172Y-106322325D01*
X89220556Y-106544746D01*
X89154000Y-106705426D01*
X89087444Y-106544746D01*
X88938828Y-106322325D01*
X88749675Y-106133172D01*
X88527254Y-105984556D01*
X88280114Y-105882187D01*
X88017751Y-105830000D01*
X87750249Y-105830000D01*
X87487886Y-105882187D01*
X87240746Y-105984556D01*
X87018325Y-106133172D01*
X86829172Y-106322325D01*
X86680795Y-106544389D01*
X86539178Y-106306645D01*
X86344269Y-106090412D01*
X86110920Y-105916359D01*
X85848099Y-105791175D01*
X85700890Y-105746524D01*
X85471000Y-105867845D01*
X85217000Y-105867845D01*
X84987110Y-105746524D01*
X84839901Y-105791175D01*
X84577080Y-105916359D01*
X84343731Y-106090412D01*
X84148822Y-106306645D01*
X83999843Y-106556748D01*
X83902519Y-106831109D01*
X76327000Y-106831109D01*
X76327000Y-100114000D01*
X80061928Y-100114000D01*
X80074188Y-100238482D01*
X80110498Y-100358180D01*
X80169463Y-100468494D01*
X80248815Y-100565185D01*
X80345506Y-100644537D01*
X80455820Y-100703502D01*
X80575518Y-100739812D01*
X80700000Y-100752072D01*
X81164250Y-100749000D01*
X81323000Y-100590250D01*
X81323000Y-99441000D01*
X80223750Y-99441000D01*
X80065000Y-99599750D01*
X80061928Y-100114000D01*
X76327000Y-100114000D01*
X76327000Y-93058000D01*
X80765928Y-93058000D01*
X80778188Y-93182482D01*
X80814498Y-93302180D01*
X80873463Y-93412494D01*
X80952815Y-93509185D01*
X81049506Y-93588537D01*
X81159820Y-93647502D01*
X81279518Y-93683812D01*
X81404000Y-93696072D01*
X81655750Y-93693000D01*
X81814500Y-93534250D01*
X81814500Y-92710000D01*
X80927750Y-92710000D01*
X80769000Y-92868750D01*
X80765928Y-93058000D01*
X76327000Y-93058000D01*
X76327000Y-92108000D01*
X80765928Y-92108000D01*
X80769000Y-92297250D01*
X80927750Y-92456000D01*
X81814500Y-92456000D01*
X81814500Y-91631750D01*
X81655750Y-91473000D01*
X81404000Y-91469928D01*
X81279518Y-91482188D01*
X81159820Y-91518498D01*
X81049506Y-91577463D01*
X80952815Y-91656815D01*
X80873463Y-91753506D01*
X80814498Y-91863820D01*
X80778188Y-91983518D01*
X80765928Y-92108000D01*
X76327000Y-92108000D01*
X76327000Y-62368000D01*
X87821928Y-62368000D01*
X87834188Y-62492482D01*
X87870498Y-62612180D01*
X87929463Y-62722494D01*
X88008815Y-62819185D01*
X88105506Y-62898537D01*
X88215820Y-62957502D01*
X88335518Y-62993812D01*
X88460000Y-63006072D01*
X89924250Y-63003000D01*
X90083000Y-62844250D01*
X90083000Y-61595000D01*
X90337000Y-61595000D01*
X90337000Y-62844250D01*
X90495750Y-63003000D01*
X91960000Y-63006072D01*
X92084482Y-62993812D01*
X92204180Y-62957502D01*
X92314494Y-62898537D01*
X92411185Y-62819185D01*
X92490537Y-62722494D01*
X92549502Y-62612180D01*
X92585812Y-62492482D01*
X92598072Y-62368000D01*
X92595000Y-61753750D01*
X92436250Y-61595000D01*
X90337000Y-61595000D01*
X90083000Y-61595000D01*
X87983750Y-61595000D01*
X87825000Y-61753750D01*
X87821928Y-62368000D01*
X76327000Y-62368000D01*
X76327000Y-60568000D01*
X87821928Y-60568000D01*
X87825000Y-61182250D01*
X87983750Y-61341000D01*
X90083000Y-61341000D01*
X90083000Y-60091750D01*
X90337000Y-60091750D01*
X90337000Y-61341000D01*
X92436250Y-61341000D01*
X92595000Y-61182250D01*
X92598072Y-60568000D01*
X92949543Y-60568000D01*
X92949543Y-62368000D01*
X92959351Y-62467585D01*
X92988399Y-62563343D01*
X93035571Y-62651595D01*
X93099052Y-62728948D01*
X93176405Y-62792429D01*
X93264657Y-62839601D01*
X93360415Y-62868649D01*
X93460000Y-62878457D01*
X96960000Y-62878457D01*
X97059585Y-62868649D01*
X97155343Y-62839601D01*
X97243595Y-62792429D01*
X97320948Y-62728948D01*
X97384429Y-62651595D01*
X97431601Y-62563343D01*
X97460649Y-62467585D01*
X97470457Y-62368000D01*
X97470457Y-62230000D01*
X103340577Y-62230000D01*
X103378000Y-62233686D01*
X103415423Y-62230000D01*
X103415426Y-62230000D01*
X103527378Y-62218974D01*
X103671015Y-62175402D01*
X103803392Y-62104645D01*
X103919422Y-62009422D01*
X103943284Y-61980346D01*
X105922353Y-60001278D01*
X105951422Y-59977422D01*
X105990399Y-59929928D01*
X106046645Y-59861393D01*
X106117401Y-59729016D01*
X106117402Y-59729015D01*
X106160974Y-59585378D01*
X106172000Y-59473426D01*
X106172000Y-59473423D01*
X106175686Y-59436000D01*
X106172000Y-59398577D01*
X106172000Y-59024457D01*
X107660000Y-59024457D01*
X107759585Y-59014649D01*
X107855343Y-58985601D01*
X107943595Y-58938429D01*
X108020948Y-58874948D01*
X108084429Y-58797595D01*
X108131601Y-58709343D01*
X108160649Y-58613585D01*
X108170457Y-58514000D01*
X108170457Y-54514000D01*
X108160649Y-54414415D01*
X108131601Y-54318657D01*
X108084429Y-54230405D01*
X108020948Y-54153052D01*
X107943595Y-54089571D01*
X107855343Y-54042399D01*
X107759585Y-54013351D01*
X107660000Y-54003543D01*
X106172000Y-54003543D01*
X106172000Y-53909630D01*
X106995631Y-53086000D01*
X120588370Y-53086000D01*
X121588000Y-54085631D01*
X121588001Y-55510565D01*
X121588000Y-55510575D01*
X121588000Y-57784961D01*
X121554494Y-57757463D01*
X121444180Y-57698498D01*
X121324482Y-57662188D01*
X121200000Y-57649928D01*
X120935750Y-57653000D01*
X120777000Y-57811750D01*
X120777000Y-60461000D01*
X120797000Y-60461000D01*
X120797000Y-60715000D01*
X120777000Y-60715000D01*
X120777000Y-63364250D01*
X120935750Y-63523000D01*
X121200000Y-63526072D01*
X121324482Y-63513812D01*
X121444180Y-63477502D01*
X121554494Y-63418537D01*
X121620465Y-63364396D01*
X121700415Y-63388649D01*
X121800000Y-63398457D01*
X122900000Y-63398457D01*
X122999585Y-63388649D01*
X123095343Y-63359601D01*
X123183595Y-63312429D01*
X123200000Y-63298966D01*
X123216405Y-63312429D01*
X123304657Y-63359601D01*
X123400415Y-63388649D01*
X123500000Y-63398457D01*
X124600000Y-63398457D01*
X124699585Y-63388649D01*
X124795343Y-63359601D01*
X124883595Y-63312429D01*
X124960948Y-63248948D01*
X125024429Y-63171595D01*
X125071601Y-63083343D01*
X125100649Y-62987585D01*
X125110457Y-62888000D01*
X125110457Y-61350000D01*
X128344370Y-61350000D01*
X129794000Y-62799631D01*
X129794001Y-70574567D01*
X129790314Y-70612000D01*
X129805027Y-70761378D01*
X129848599Y-70905015D01*
X129919355Y-71037392D01*
X129990721Y-71124351D01*
X130014579Y-71153422D01*
X130043649Y-71177279D01*
X131686721Y-72820352D01*
X131710578Y-72849422D01*
X131826608Y-72944645D01*
X131958985Y-73015402D01*
X132102622Y-73058974D01*
X132214574Y-73070000D01*
X132214576Y-73070000D01*
X132251999Y-73073686D01*
X132289422Y-73070000D01*
X133059543Y-73070000D01*
X133059543Y-74358001D01*
X133074155Y-74506359D01*
X133117429Y-74649015D01*
X133187703Y-74780488D01*
X133282275Y-74895725D01*
X133397512Y-74990297D01*
X133528985Y-75060571D01*
X133671641Y-75103845D01*
X133819999Y-75118457D01*
X135420001Y-75118457D01*
X135568359Y-75103845D01*
X135711015Y-75060571D01*
X135842488Y-74990297D01*
X135957725Y-74895725D01*
X136052297Y-74780488D01*
X136122571Y-74649015D01*
X136165845Y-74506359D01*
X136180457Y-74358001D01*
X136180457Y-73008000D01*
X143341928Y-73008000D01*
X143345000Y-74222250D01*
X143503750Y-74381000D01*
X144653000Y-74381000D01*
X144653000Y-72531750D01*
X144907000Y-72531750D01*
X144907000Y-74381000D01*
X146056250Y-74381000D01*
X146215000Y-74222250D01*
X146218072Y-73008000D01*
X146205812Y-72883518D01*
X146169502Y-72763820D01*
X146110537Y-72653506D01*
X146031185Y-72556815D01*
X145934494Y-72477463D01*
X145824180Y-72418498D01*
X145704482Y-72382188D01*
X145580000Y-72369928D01*
X145065750Y-72373000D01*
X144907000Y-72531750D01*
X144653000Y-72531750D01*
X144494250Y-72373000D01*
X143980000Y-72369928D01*
X143855518Y-72382188D01*
X143735820Y-72418498D01*
X143625506Y-72477463D01*
X143528815Y-72556815D01*
X143449463Y-72653506D01*
X143390498Y-72763820D01*
X143354188Y-72883518D01*
X143341928Y-73008000D01*
X136180457Y-73008000D01*
X136180457Y-70257999D01*
X136165845Y-70109641D01*
X136122571Y-69966985D01*
X136052297Y-69835512D01*
X135957725Y-69720275D01*
X135842488Y-69625703D01*
X135711015Y-69555429D01*
X135568359Y-69512155D01*
X135420001Y-69497543D01*
X133819999Y-69497543D01*
X133671641Y-69512155D01*
X133528985Y-69555429D01*
X133397512Y-69625703D01*
X133282275Y-69720275D01*
X133187703Y-69835512D01*
X133117429Y-69966985D01*
X133074155Y-70109641D01*
X133059543Y-70257999D01*
X133059543Y-71546000D01*
X132567631Y-71546000D01*
X131318000Y-70296370D01*
X131318000Y-65422000D01*
X133181928Y-65422000D01*
X133194188Y-65546482D01*
X133230498Y-65666180D01*
X133289463Y-65776494D01*
X133368815Y-65873185D01*
X133465506Y-65952537D01*
X133575820Y-66011502D01*
X133695518Y-66047812D01*
X133820000Y-66060072D01*
X134334250Y-66057000D01*
X134493000Y-65898250D01*
X134493000Y-64049000D01*
X134747000Y-64049000D01*
X134747000Y-65898250D01*
X134905750Y-66057000D01*
X135420000Y-66060072D01*
X135544482Y-66047812D01*
X135664180Y-66011502D01*
X135774494Y-65952537D01*
X135871185Y-65873185D01*
X135950537Y-65776494D01*
X136009502Y-65666180D01*
X136045812Y-65546482D01*
X136058072Y-65422000D01*
X136055000Y-64207750D01*
X136052140Y-64204890D01*
X143338524Y-64204890D01*
X143383175Y-64352099D01*
X143508359Y-64614920D01*
X143682412Y-64848269D01*
X143898645Y-65043178D01*
X144136389Y-65184795D01*
X143914325Y-65333172D01*
X143725172Y-65522325D01*
X143576556Y-65744746D01*
X143474187Y-65991886D01*
X143422000Y-66254249D01*
X143422000Y-66521751D01*
X143474187Y-66784114D01*
X143576556Y-67031254D01*
X143725172Y-67253675D01*
X143914325Y-67442828D01*
X144136746Y-67591444D01*
X144383886Y-67693813D01*
X144646249Y-67746000D01*
X144913751Y-67746000D01*
X145176114Y-67693813D01*
X145423254Y-67591444D01*
X145645675Y-67442828D01*
X145834828Y-67253675D01*
X145904101Y-67150000D01*
X148114370Y-67150000D01*
X149098000Y-68133631D01*
X149098001Y-80202368D01*
X148274370Y-81026000D01*
X146365631Y-81026000D01*
X145943284Y-80603654D01*
X145962297Y-80580487D01*
X146032571Y-80449014D01*
X146075845Y-80306358D01*
X146090457Y-80158000D01*
X146090457Y-77658000D01*
X146075845Y-77509642D01*
X146032571Y-77366986D01*
X145962297Y-77235513D01*
X145867724Y-77120276D01*
X145752487Y-77025703D01*
X145621014Y-76955429D01*
X145478358Y-76912155D01*
X145330000Y-76897543D01*
X144230000Y-76897543D01*
X144081642Y-76912155D01*
X143938986Y-76955429D01*
X143807513Y-77025703D01*
X143692276Y-77120276D01*
X143597703Y-77235513D01*
X143527429Y-77366986D01*
X143484155Y-77509642D01*
X143469543Y-77658000D01*
X143469543Y-80158000D01*
X143484155Y-80306358D01*
X143527429Y-80449014D01*
X143597703Y-80580487D01*
X143692276Y-80695724D01*
X143807513Y-80790297D01*
X143938986Y-80860571D01*
X144081642Y-80903845D01*
X144124472Y-80908063D01*
X144143355Y-80943392D01*
X144182983Y-80991678D01*
X144238578Y-81059422D01*
X144267654Y-81083284D01*
X145484721Y-82300352D01*
X145508578Y-82329422D01*
X145624608Y-82424645D01*
X145756985Y-82495402D01*
X145900622Y-82538974D01*
X146012574Y-82550000D01*
X146012576Y-82550000D01*
X146049999Y-82553686D01*
X146087422Y-82550000D01*
X148552577Y-82550000D01*
X148590000Y-82553686D01*
X148627423Y-82550000D01*
X148627426Y-82550000D01*
X148739378Y-82538974D01*
X148883015Y-82495402D01*
X149015392Y-82424645D01*
X149131422Y-82329422D01*
X149155284Y-82300346D01*
X150372352Y-81083279D01*
X150401422Y-81059422D01*
X150496645Y-80943392D01*
X150567402Y-80811015D01*
X150610974Y-80667378D01*
X150622000Y-80555426D01*
X150622000Y-80555424D01*
X150625686Y-80518001D01*
X150622000Y-80480578D01*
X150622000Y-67855422D01*
X150625686Y-67817999D01*
X150622000Y-67780574D01*
X150610974Y-67668622D01*
X150567402Y-67524985D01*
X150496645Y-67392608D01*
X150401422Y-67276578D01*
X150372353Y-67252722D01*
X148995284Y-65875654D01*
X148971422Y-65846578D01*
X148855392Y-65751355D01*
X148723015Y-65680598D01*
X148579378Y-65637026D01*
X148467426Y-65626000D01*
X148467423Y-65626000D01*
X148430000Y-65622314D01*
X148392577Y-65626000D01*
X145904101Y-65626000D01*
X145834828Y-65522325D01*
X145645675Y-65333172D01*
X145423611Y-65184795D01*
X145661355Y-65043178D01*
X145877588Y-64848269D01*
X146051641Y-64614920D01*
X146176825Y-64352099D01*
X146221476Y-64204890D01*
X146100155Y-63975000D01*
X144907000Y-63975000D01*
X144907000Y-63995000D01*
X144653000Y-63995000D01*
X144653000Y-63975000D01*
X143459845Y-63975000D01*
X143338524Y-64204890D01*
X136052140Y-64204890D01*
X135896250Y-64049000D01*
X134747000Y-64049000D01*
X134493000Y-64049000D01*
X133343750Y-64049000D01*
X133185000Y-64207750D01*
X133181928Y-65422000D01*
X131318000Y-65422000D01*
X131318000Y-62521423D01*
X131321686Y-62484000D01*
X131318000Y-62446574D01*
X131315580Y-62422000D01*
X133181928Y-62422000D01*
X133185000Y-63636250D01*
X133343750Y-63795000D01*
X134493000Y-63795000D01*
X134493000Y-61945750D01*
X134747000Y-61945750D01*
X134747000Y-63795000D01*
X135896250Y-63795000D01*
X136055000Y-63636250D01*
X136058072Y-62422000D01*
X136045812Y-62297518D01*
X136009502Y-62177820D01*
X135950537Y-62067506D01*
X135871185Y-61970815D01*
X135774494Y-61891463D01*
X135664180Y-61832498D01*
X135544482Y-61796188D01*
X135420000Y-61783928D01*
X134905750Y-61787000D01*
X134747000Y-61945750D01*
X134493000Y-61945750D01*
X134334250Y-61787000D01*
X133820000Y-61783928D01*
X133695518Y-61796188D01*
X133575820Y-61832498D01*
X133465506Y-61891463D01*
X133368815Y-61970815D01*
X133289463Y-62067506D01*
X133230498Y-62177820D01*
X133194188Y-62297518D01*
X133181928Y-62422000D01*
X131315580Y-62422000D01*
X131306974Y-62334622D01*
X131263402Y-62190985D01*
X131215494Y-62101355D01*
X131192645Y-62058607D01*
X131121279Y-61971648D01*
X131097422Y-61942578D01*
X131068353Y-61918722D01*
X129225284Y-60075654D01*
X129201422Y-60046578D01*
X129085392Y-59951355D01*
X128953015Y-59880598D01*
X128809378Y-59837026D01*
X128697426Y-59826000D01*
X128697423Y-59826000D01*
X128660000Y-59822314D01*
X128622577Y-59826000D01*
X125110457Y-59826000D01*
X125110457Y-58288000D01*
X125100649Y-58188415D01*
X125071601Y-58092657D01*
X125024429Y-58004405D01*
X124960948Y-57927052D01*
X124883595Y-57863571D01*
X124812000Y-57825302D01*
X124812000Y-56097630D01*
X126299631Y-54610000D01*
X132780370Y-54610000D01*
X133858000Y-55687631D01*
X133858001Y-57545460D01*
X133778986Y-57569429D01*
X133647513Y-57639703D01*
X133532276Y-57734276D01*
X133437703Y-57849513D01*
X133367429Y-57980986D01*
X133324155Y-58123642D01*
X133309543Y-58272000D01*
X133309543Y-60772000D01*
X133324155Y-60920358D01*
X133367429Y-61063014D01*
X133437703Y-61194487D01*
X133532276Y-61309724D01*
X133647513Y-61404297D01*
X133778986Y-61474571D01*
X133921642Y-61517845D01*
X134070000Y-61532457D01*
X135170000Y-61532457D01*
X135318358Y-61517845D01*
X135461014Y-61474571D01*
X135592487Y-61404297D01*
X135707724Y-61309724D01*
X135802297Y-61194487D01*
X135872571Y-61063014D01*
X135915845Y-60920358D01*
X135930457Y-60772000D01*
X135930457Y-60284000D01*
X142678370Y-60284000D01*
X143419543Y-61025174D01*
X143419543Y-62158000D01*
X143429351Y-62257585D01*
X143458399Y-62353343D01*
X143505571Y-62441595D01*
X143569052Y-62518948D01*
X143646405Y-62582429D01*
X143734657Y-62629601D01*
X143830415Y-62658649D01*
X143886097Y-62664133D01*
X143682412Y-62847731D01*
X143508359Y-63081080D01*
X143383175Y-63343901D01*
X143338524Y-63491110D01*
X143459845Y-63721000D01*
X144653000Y-63721000D01*
X144653000Y-63701000D01*
X144907000Y-63701000D01*
X144907000Y-63721000D01*
X146100155Y-63721000D01*
X146221476Y-63491110D01*
X146176825Y-63343901D01*
X146051641Y-63081080D01*
X145877588Y-62847731D01*
X145673903Y-62664133D01*
X145729585Y-62658649D01*
X145825343Y-62629601D01*
X145913595Y-62582429D01*
X145990948Y-62518948D01*
X146054429Y-62441595D01*
X146101601Y-62353343D01*
X146130649Y-62257585D01*
X146140457Y-62158000D01*
X146140457Y-60458000D01*
X146130649Y-60358415D01*
X146101601Y-60262657D01*
X146054429Y-60174405D01*
X145990948Y-60097052D01*
X145913595Y-60033571D01*
X145825343Y-59986399D01*
X145729585Y-59957351D01*
X145630000Y-59947543D01*
X144497174Y-59947543D01*
X143559284Y-59009654D01*
X143535422Y-58980578D01*
X143419392Y-58885355D01*
X143287015Y-58814598D01*
X143143378Y-58771026D01*
X143031426Y-58760000D01*
X143031423Y-58760000D01*
X142994000Y-58756314D01*
X142956577Y-58760000D01*
X135930457Y-58760000D01*
X135930457Y-58272000D01*
X135915845Y-58123642D01*
X135872571Y-57980986D01*
X135802297Y-57849513D01*
X135707724Y-57734276D01*
X135592487Y-57639703D01*
X135461014Y-57569429D01*
X135382000Y-57545460D01*
X135382000Y-55409422D01*
X135385686Y-55371999D01*
X135382000Y-55334574D01*
X135370974Y-55222622D01*
X135327402Y-55078985D01*
X135256645Y-54946608D01*
X135161422Y-54830578D01*
X135132353Y-54806722D01*
X134668916Y-54343285D01*
X145882000Y-54343285D01*
X145882000Y-54876715D01*
X145986067Y-55399895D01*
X146190201Y-55892719D01*
X146486559Y-56336249D01*
X146863751Y-56713441D01*
X147307281Y-57009799D01*
X147800105Y-57213933D01*
X148323285Y-57318000D01*
X148856715Y-57318000D01*
X149379895Y-57213933D01*
X149872719Y-57009799D01*
X150316249Y-56713441D01*
X150693441Y-56336249D01*
X150989799Y-55892719D01*
X151193933Y-55399895D01*
X151298000Y-54876715D01*
X151298000Y-54343285D01*
X151193933Y-53820105D01*
X150989799Y-53327281D01*
X150693441Y-52883751D01*
X150316249Y-52506559D01*
X149872719Y-52210201D01*
X149379895Y-52006067D01*
X148856715Y-51902000D01*
X148323285Y-51902000D01*
X147800105Y-52006067D01*
X147307281Y-52210201D01*
X146863751Y-52506559D01*
X146486559Y-52883751D01*
X146190201Y-53327281D01*
X145986067Y-53820105D01*
X145882000Y-54343285D01*
X134668916Y-54343285D01*
X133661284Y-53335654D01*
X133637422Y-53306578D01*
X133521392Y-53211355D01*
X133389015Y-53140598D01*
X133245378Y-53097026D01*
X133133426Y-53086000D01*
X133133423Y-53086000D01*
X133096000Y-53082314D01*
X133058577Y-53086000D01*
X126021422Y-53086000D01*
X125983999Y-53082314D01*
X125946576Y-53086000D01*
X125946574Y-53086000D01*
X125834622Y-53097026D01*
X125690985Y-53140598D01*
X125558608Y-53211355D01*
X125442578Y-53306578D01*
X125418721Y-53335648D01*
X123537649Y-55216721D01*
X123508579Y-55240578D01*
X123484722Y-55269648D01*
X123484721Y-55269649D01*
X123413355Y-55356608D01*
X123342599Y-55488985D01*
X123299027Y-55632622D01*
X123284314Y-55782000D01*
X123288001Y-55819433D01*
X123288001Y-57825302D01*
X123216405Y-57863571D01*
X123200000Y-57877034D01*
X123183595Y-57863571D01*
X123112000Y-57825302D01*
X123112000Y-53807423D01*
X123115686Y-53770000D01*
X123108656Y-53698622D01*
X123100974Y-53620622D01*
X123057402Y-53476985D01*
X122986646Y-53344609D01*
X122986645Y-53344607D01*
X122915279Y-53257648D01*
X122891422Y-53228578D01*
X122862353Y-53204722D01*
X121469284Y-51811654D01*
X121445422Y-51782578D01*
X121329392Y-51687355D01*
X121197015Y-51616598D01*
X121053378Y-51573026D01*
X120941426Y-51562000D01*
X120941423Y-51562000D01*
X120904000Y-51558314D01*
X120866577Y-51562000D01*
X106717422Y-51562000D01*
X106679999Y-51558314D01*
X106642576Y-51562000D01*
X106642574Y-51562000D01*
X106530622Y-51573026D01*
X106386985Y-51616598D01*
X106254608Y-51687355D01*
X106138578Y-51782578D01*
X106114721Y-51811648D01*
X104897649Y-53028721D01*
X104868579Y-53052578D01*
X104844722Y-53081648D01*
X104844721Y-53081649D01*
X104773355Y-53168608D01*
X104702599Y-53300985D01*
X104659027Y-53444622D01*
X104644314Y-53594000D01*
X104648001Y-53631433D01*
X104648001Y-54003543D01*
X103160000Y-54003543D01*
X103060415Y-54013351D01*
X102964657Y-54042399D01*
X102876405Y-54089571D01*
X102799052Y-54153052D01*
X102735571Y-54230405D01*
X102688399Y-54318657D01*
X102659351Y-54414415D01*
X102649543Y-54514000D01*
X102649543Y-58514000D01*
X102659351Y-58613585D01*
X102688399Y-58709343D01*
X102735571Y-58797595D01*
X102799052Y-58874948D01*
X102876405Y-58938429D01*
X102964657Y-58985601D01*
X103060415Y-59014649D01*
X103160000Y-59024457D01*
X104648000Y-59024457D01*
X104648000Y-59120369D01*
X103062370Y-60706000D01*
X97470457Y-60706000D01*
X97470457Y-60568000D01*
X97460649Y-60468415D01*
X97431601Y-60372657D01*
X97384429Y-60284405D01*
X97320948Y-60207052D01*
X97243595Y-60143571D01*
X97155343Y-60096399D01*
X97059585Y-60067351D01*
X96960000Y-60057543D01*
X93460000Y-60057543D01*
X93360415Y-60067351D01*
X93264657Y-60096399D01*
X93176405Y-60143571D01*
X93099052Y-60207052D01*
X93035571Y-60284405D01*
X92988399Y-60372657D01*
X92959351Y-60468415D01*
X92949543Y-60568000D01*
X92598072Y-60568000D01*
X92585812Y-60443518D01*
X92549502Y-60323820D01*
X92490537Y-60213506D01*
X92411185Y-60116815D01*
X92314494Y-60037463D01*
X92204180Y-59978498D01*
X92084482Y-59942188D01*
X91960000Y-59929928D01*
X90495750Y-59933000D01*
X90337000Y-60091750D01*
X90083000Y-60091750D01*
X89924250Y-59933000D01*
X88460000Y-59929928D01*
X88335518Y-59942188D01*
X88215820Y-59978498D01*
X88105506Y-60037463D01*
X88008815Y-60116815D01*
X87929463Y-60213506D01*
X87870498Y-60323820D01*
X87834188Y-60443518D01*
X87821928Y-60568000D01*
X76327000Y-60568000D01*
X76327000Y-54343285D01*
X77302000Y-54343285D01*
X77302000Y-54876715D01*
X77406067Y-55399895D01*
X77610201Y-55892719D01*
X77906559Y-56336249D01*
X78283751Y-56713441D01*
X78727281Y-57009799D01*
X79220105Y-57213933D01*
X79743285Y-57318000D01*
X80276715Y-57318000D01*
X80799895Y-57213933D01*
X81292719Y-57009799D01*
X81736249Y-56713441D01*
X82113441Y-56336249D01*
X82409799Y-55892719D01*
X82613933Y-55399895D01*
X82718000Y-54876715D01*
X82718000Y-54343285D01*
X82613933Y-53820105D01*
X82409799Y-53327281D01*
X82113441Y-52883751D01*
X81736249Y-52506559D01*
X81292719Y-52210201D01*
X80799895Y-52006067D01*
X80276715Y-51902000D01*
X79743285Y-51902000D01*
X79220105Y-52006067D01*
X78727281Y-52210201D01*
X78283751Y-52506559D01*
X77906559Y-52883751D01*
X77610201Y-53327281D01*
X77406067Y-53820105D01*
X77302000Y-54343285D01*
X76327000Y-54343285D01*
X76327000Y-53343832D01*
X76344823Y-53049179D01*
X76397343Y-52762588D01*
X76484026Y-52484414D01*
X76603599Y-52218733D01*
X76754332Y-51969390D01*
X76934012Y-51740045D01*
X77140045Y-51534012D01*
X77369390Y-51354332D01*
X77618733Y-51203599D01*
X77884414Y-51084026D01*
X78162588Y-50997343D01*
X78449179Y-50944823D01*
X78743832Y-50927000D01*
X149856168Y-50927000D01*
X150150821Y-50944823D01*
G37*
%TD.AperFunction*%
%TD*%
M02*
