%TF.GenerationSoftware,KiCad,Pcbnew,5.1.9*%
%TF.CreationDate,2021-03-27T23:39:32+08:00*%
%TF.ProjectId,ad-9833,61642d39-3833-4332-9e6b-696361645f70,rev?*%
%TF.SameCoordinates,Original*%
%TF.FileFunction,Soldermask,Bot*%
%TF.FilePolarity,Negative*%
%FSLAX46Y46*%
G04 Gerber Fmt 4.6, Leading zero omitted, Abs format (unit mm)*
G04 Created by KiCad (PCBNEW 5.1.9) date 2021-03-27 23:39:32*
%MOMM*%
%LPD*%
G01*
G04 APERTURE LIST*
%ADD10C,1.524000*%
%ADD11C,0.700000*%
%ADD12C,4.400000*%
%ADD13O,1.700000X1.700000*%
%ADD14R,1.700000X1.700000*%
%ADD15O,2.500000X1.600000*%
%ADD16O,7.000000X3.500000*%
G04 APERTURE END LIST*
D10*
%TO.C,SW1*%
X123412000Y-108132000D03*
X121412000Y-108132000D03*
X119412000Y-108132000D03*
X123412000Y-103632000D03*
X121412000Y-103632000D03*
X119412000Y-103632000D03*
%TD*%
D11*
%TO.C,H4*%
X149756726Y-109323274D03*
X148590000Y-108840000D03*
X147423274Y-109323274D03*
X146940000Y-110490000D03*
X147423274Y-111656726D03*
X148590000Y-112140000D03*
X149756726Y-111656726D03*
X150240000Y-110490000D03*
D12*
X148590000Y-110490000D03*
%TD*%
D11*
%TO.C,H3*%
X81176726Y-109323274D03*
X80010000Y-108840000D03*
X78843274Y-109323274D03*
X78360000Y-110490000D03*
X78843274Y-111656726D03*
X80010000Y-112140000D03*
X81176726Y-111656726D03*
X81660000Y-110490000D03*
D12*
X80010000Y-110490000D03*
%TD*%
D11*
%TO.C,H2*%
X149756726Y-53443274D03*
X148590000Y-52960000D03*
X147423274Y-53443274D03*
X146940000Y-54610000D03*
X147423274Y-55776726D03*
X148590000Y-56260000D03*
X149756726Y-55776726D03*
X150240000Y-54610000D03*
D12*
X148590000Y-54610000D03*
%TD*%
D11*
%TO.C,H1*%
X81176726Y-53443274D03*
X80010000Y-52960000D03*
X78843274Y-53443274D03*
X78360000Y-54610000D03*
X78843274Y-55776726D03*
X80010000Y-56260000D03*
X81176726Y-55776726D03*
X81660000Y-54610000D03*
D12*
X80010000Y-54610000D03*
%TD*%
D13*
%TO.C,J2*%
X85344000Y-107188000D03*
X87884000Y-107188000D03*
X90424000Y-107188000D03*
D14*
X92964000Y-107188000D03*
%TD*%
D15*
%TO.C,J3*%
X137160000Y-97028000D03*
X137160000Y-99568000D03*
D16*
X142240000Y-104648000D03*
X142240000Y-94488000D03*
%TD*%
D13*
%TO.C,J1*%
X144780000Y-66388000D03*
X144780000Y-63848000D03*
D14*
X144780000Y-61308000D03*
%TD*%
M02*
